M48
;DRILL file {KiCad 5.0.2-5.fc29} date Sat 31 Aug 2019 02:39:37 AM EEST
;FORMAT={-:-/ absolute / inch / decimal}
FMAT,2
INCH,TZ
T1C0.0157
T2C0.0197
T3C0.0315
T4C0.0354
T5C0.0362
T6C0.0394
T7C0.0917
%
G90
G05
T1
X1.975Y-4.725
X2.1Y-3.55
X2.175Y-4.725
X2.2Y-3.55
X2.3Y-3.25
X2.35Y-3.5
X2.35Y-3.65
X2.4Y-3.2
X2.4Y-3.45
X2.4Y-3.65
X2.55Y-4.3
X2.8Y-0.6
X2.8Y-1.1
X2.8Y-1.95
X2.85Y-2.4
X2.85Y-2.4
X2.875Y-5.025
X3.05Y-2.45
X3.05Y-2.45
X3.05Y-2.45
X3.25Y-0.95
X3.25Y-1.6
X3.4Y-2.55
X3.4Y-3.4
X3.55Y-2.8
X3.55Y-2.8
X3.55Y-2.8
X3.6Y-2.55
X3.6Y-2.95
X3.6Y-3.25
X3.65Y-2.35
X3.65Y-2.9
X3.75Y-3.1
X3.75Y-3.3
X3.75Y-4.45
X3.85Y-2.9
X3.85Y-2.9
X3.85Y-2.9
X3.9Y-3.2
X3.9Y-3.45
X3.9Y-3.45
X3.95Y-3.
X4.05Y-2.6
X4.05Y-2.9
X4.05Y-3.25
X4.15Y-3.25
X4.15Y-3.25
X4.15Y-3.65
X4.2Y-3.9
X4.25Y-3.25
X4.25Y-3.25
X4.25Y-3.55
X4.5Y-0.75
X4.55Y-0.95
X4.55Y-1.6
X4.55Y-3.35
X4.55Y-3.35
X4.685Y-2.25
X4.7Y-0.8
X4.7Y-1.75
X4.8Y-4.35
X4.95Y-4.05
X5.Y-2.025
X5.Y-2.315
X5.05Y-2.15
X5.05Y-3.55
X5.05Y-4.35
X5.15Y-3.65
X5.15Y-5.7
X5.25Y-2.95
X5.25Y-3.9
X5.3Y-1.4
X5.3Y-2.95
X5.3Y-4.
X5.35Y-2.3
X5.4Y-2.8
X5.45Y-3.85
X5.45Y-4.25
X5.55Y-2.15
X5.6Y-1.1
X5.6Y-1.1
X5.6Y-1.25
X5.6Y-1.7
X5.6Y-2.05
X5.6Y-2.3
X5.6Y-2.8
X5.65Y-1.85
X5.7Y-2.15
X5.7Y-4.8
X5.7Y-5.
X5.7Y-5.4
X5.75Y-1.775
X5.85Y-2.15
X5.9Y-0.65
X6.25Y-2.
X6.35Y-3.1
X6.35Y-3.3
X6.5Y-2.1
X6.5Y-2.25
X6.6Y-0.6
X6.6Y-0.75
X6.6Y-1.125
X6.6Y-1.35
X6.6Y-2.05
X6.6Y-3.9
X6.65Y-1.2
X6.7Y-2.5
X6.8Y-1.95
X6.8Y-5.
X6.8Y-5.
X6.8Y-5.
X6.85Y-3.05
X6.85Y-4.4
X7.15Y-4.7
X7.275Y-2.85
X7.4Y-2.35
X7.55Y-2.9
X7.55Y-2.95
X7.6Y-0.65
X7.6Y-1.8
X7.65Y-1.5
X7.65Y-1.9
X7.65Y-2.6
X7.65Y-2.85
X7.65Y-4.2
X7.7Y-2.3
X7.7Y-2.6
X7.7Y-3.55
X7.7Y-3.7
X7.7Y-3.95
X7.7Y-4.025
X7.7Y-4.25
X7.75Y-1.9
X7.75Y-2.2
X7.825Y-4.1
X7.83Y-2.85
X8.15Y-4.
X8.15Y-5.3
X8.3Y-1.85
X8.3Y-2.8
X8.35Y-4.8
X8.35Y-5.2
X8.4Y-2.85
X8.5Y-3.
X9.45Y-3.
X9.5Y-2.95
X9.7Y-4.05
X9.85Y-4.05
T2
X3.2Y-7.
X3.2748Y-7.
T3
X3.2923Y-5.76
X3.8923Y-5.76
X4.4Y-2.4
X4.4Y-2.5
X4.4Y-2.6
X4.4Y-2.7
X4.4Y-2.8
X4.4Y-2.9
X4.4Y-3.
X4.7Y-2.4
X4.7Y-2.5
X4.7Y-2.6
X4.7Y-2.7
X4.7Y-2.8
X4.7Y-2.9
X4.7Y-3.
X8.8Y-1.
X8.8Y-1.1
X8.8Y-1.2
X8.8Y-1.3
X8.8Y-1.4
X8.8Y-1.5
X8.8Y-1.6
X9.1Y-1.
X9.1Y-1.1
X9.1Y-1.2
X9.1Y-1.3
X9.1Y-1.4
X9.1Y-1.5
X9.1Y-1.6
X9.7Y-3.1
X9.7Y-3.2
X9.7Y-3.3
X9.7Y-3.4
X9.7Y-3.5
X9.7Y-3.6
X9.7Y-3.7
X10.Y-3.1
X10.Y-3.2
X10.Y-3.3
X10.Y-3.4
X10.Y-3.5
X10.Y-3.6
X10.Y-3.7
X2.2Y-1.1
X2.2Y-1.2
X2.2Y-1.3
X2.2Y-1.4
X2.2Y-1.5
X2.2Y-1.6
X2.2Y-1.7
X2.5Y-1.1
X2.5Y-1.2
X2.5Y-1.3
X2.5Y-1.4
X2.5Y-1.5
X2.5Y-1.6
X2.5Y-1.7
X7.85Y-2.05
X7.85Y-2.15
X7.85Y-2.25
X7.85Y-2.35
X7.85Y-2.45
X7.85Y-2.55
X7.85Y-2.65
X8.15Y-2.05
X8.15Y-2.15
X8.15Y-2.25
X8.15Y-2.35
X8.15Y-2.45
X8.15Y-2.55
X8.15Y-2.65
X7.Y-4.5
X7.Y-4.6
X7.Y-4.7
X7.Y-4.8
X7.Y-4.9
X7.Y-5.
X7.Y-5.1
X7.Y-5.2
X7.3Y-4.5
X7.3Y-4.6
X7.3Y-4.7
X7.3Y-4.8
X7.3Y-4.9
X7.3Y-5.
X7.3Y-5.1
X7.3Y-5.2
X3.65Y-6.35
X3.65Y-6.95
X4.5Y-6.65
X5.1Y-6.65
X6.05Y-3.5
X6.05Y-3.6
X6.05Y-3.7
X6.05Y-3.8
X6.05Y-3.9
X6.05Y-4.
X6.05Y-4.1
X6.35Y-3.5
X6.35Y-3.6
X6.35Y-3.7
X6.35Y-3.8
X6.35Y-3.9
X6.35Y-4.
X6.35Y-4.1
X7.Y-2.05
X7.Y-2.15
X7.Y-2.25
X7.Y-2.35
X7.Y-2.45
X7.Y-2.55
X7.Y-2.65
X7.3Y-2.05
X7.3Y-2.15
X7.3Y-2.25
X7.3Y-2.35
X7.3Y-2.45
X7.3Y-2.55
X7.3Y-2.65
X2.7Y-2.6
X2.7Y-2.7
X2.7Y-2.8
X2.7Y-2.9
X2.7Y-3.
X2.7Y-3.1
X2.7Y-3.2
X3.Y-2.6
X3.Y-2.7
X3.Y-2.8
X3.Y-2.9
X3.Y-3.
X3.Y-3.1
X3.Y-3.2
X3.65Y-7.2
X3.65Y-7.3969
X6.65Y-5.95
X7.25Y-5.95
X2.875Y-4.825
X2.875Y-4.925
X2.875Y-5.025
X2.875Y-5.125
X2.875Y-5.225
X2.875Y-5.325
X2.875Y-5.425
X2.875Y-5.525
X3.175Y-4.825
X3.175Y-4.925
X3.175Y-5.025
X3.175Y-5.125
X3.175Y-5.225
X3.175Y-5.325
X3.175Y-5.425
X3.175Y-5.525
X4.4Y-4.6
X4.4Y-4.7
X4.4Y-4.8
X4.4Y-4.9
X4.4Y-5.
X4.4Y-5.1
X4.4Y-5.2
X4.7Y-4.6
X4.7Y-4.7
X4.7Y-4.8
X4.7Y-4.9
X4.7Y-5.
X4.7Y-5.1
X4.7Y-5.2
X8.8Y-2.05
X8.8Y-2.15
X8.8Y-2.25
X8.8Y-2.35
X8.8Y-2.45
X8.8Y-2.55
X8.8Y-2.65
X9.1Y-2.05
X9.1Y-2.15
X9.1Y-2.25
X9.1Y-2.35
X9.1Y-2.45
X9.1Y-2.55
X9.1Y-2.65
X7.8Y-0.95
X7.8Y-1.05
X7.8Y-1.15
X7.8Y-1.25
X7.8Y-1.35
X7.8Y-1.45
X7.8Y-1.55
X8.1Y-0.95
X8.1Y-1.05
X8.1Y-1.15
X8.1Y-1.25
X8.1Y-1.35
X8.1Y-1.45
X8.1Y-1.55
X2.25Y-6.3
X2.25Y-6.4
X2.25Y-6.5
X2.25Y-6.6
X2.25Y-6.7
X2.25Y-6.8
X2.25Y-6.9
X2.25Y-7.
X2.55Y-6.3
X2.55Y-6.4
X2.55Y-6.5
X2.55Y-6.6
X2.55Y-6.7
X2.55Y-6.8
X2.55Y-6.9
X2.55Y-7.
X6.65Y-5.65
X7.25Y-5.65
X7.Y-0.85
X7.Y-0.95
X7.Y-1.05
X7.Y-1.15
X7.Y-1.25
X7.Y-1.35
X7.Y-1.45
X7.Y-1.55
X7.3Y-0.85
X7.3Y-0.95
X7.3Y-1.05
X7.3Y-1.15
X7.3Y-1.25
X7.3Y-1.35
X7.3Y-1.45
X7.3Y-1.55
X4.5Y-6.45
X5.1Y-6.45
X6.05Y-2.3
X6.05Y-2.4
X6.05Y-2.5
X6.05Y-2.6
X6.05Y-2.7
X6.05Y-2.8
X6.05Y-2.9
X6.35Y-2.3
X6.35Y-2.4
X6.35Y-2.5
X6.35Y-2.6
X6.35Y-2.7
X6.35Y-2.8
X6.35Y-2.9
X4.4Y-3.45
X4.4Y-3.55
X4.4Y-3.65
X4.4Y-3.75
X4.4Y-3.85
X4.4Y-3.95
X4.4Y-4.05
X4.7Y-3.45
X4.7Y-3.55
X4.7Y-3.65
X4.7Y-3.75
X4.7Y-3.85
X4.7Y-3.95
X4.7Y-4.05
X7.Y-3.1
X7.Y-3.2
X7.Y-3.3
X7.Y-3.4
X7.Y-3.5
X7.Y-3.6
X7.Y-3.7
X7.3Y-3.1
X7.3Y-3.2
X7.3Y-3.3
X7.3Y-3.4
X7.3Y-3.5
X7.3Y-3.6
X7.3Y-3.7
X3.2923Y-5.8801
X3.8923Y-5.8801
X3.2923Y-6.0002
X3.8923Y-6.0002
X6.05Y-1.2
X6.05Y-1.3
X6.05Y-1.4
X6.05Y-1.5
X6.05Y-1.6
X6.05Y-1.7
X6.05Y-1.8
X6.35Y-1.2
X6.35Y-1.3
X6.35Y-1.4
X6.35Y-1.5
X6.35Y-1.6
X6.35Y-1.7
X6.35Y-1.8
X6.45Y-6.6
X7.05Y-6.6
X6.05Y-4.5
X6.05Y-4.6
X6.05Y-4.7
X6.05Y-4.8
X6.05Y-4.9
X6.05Y-5.
X6.05Y-5.1
X6.05Y-5.2
X6.35Y-4.5
X6.35Y-4.6
X6.35Y-4.7
X6.35Y-4.8
X6.35Y-4.9
X6.35Y-5.
X6.35Y-5.1
X6.35Y-5.2
X6.65Y-6.1
X7.25Y-6.1
X2.7Y-3.45
X2.7Y-3.55
X2.7Y-3.65
X2.7Y-3.75
X2.7Y-3.85
X2.7Y-3.95
X2.7Y-4.05
X3.Y-3.45
X3.Y-3.55
X3.Y-3.65
X3.Y-3.75
X3.Y-3.85
X3.Y-3.95
X3.Y-4.05
X7.85Y-4.3
X7.85Y-4.4
X7.85Y-4.5
X7.85Y-4.6
X7.85Y-4.7
X7.85Y-4.8
X7.85Y-4.9
X8.15Y-4.3
X8.15Y-4.4
X8.15Y-4.5
X8.15Y-4.6
X8.15Y-4.7
X8.15Y-4.8
X8.15Y-4.9
X2.475Y-5.975
X3.075Y-5.975
X3.9Y-1.65
X3.9Y-1.75
X3.9Y-1.85
X3.9Y-1.95
X3.9Y-2.05
X3.9Y-2.15
X3.9Y-2.25
X3.9Y-2.35
X4.2Y-1.65
X4.2Y-1.75
X4.2Y-1.85
X4.2Y-1.95
X4.2Y-2.05
X4.2Y-2.15
X4.2Y-2.25
X4.2Y-2.35
X6.45Y-6.85
X7.05Y-6.85
X7.85Y-3.1
X7.85Y-3.2
X7.85Y-3.3
X7.85Y-3.4
X7.85Y-3.5
X7.85Y-3.6
X7.85Y-3.7
X8.15Y-3.1
X8.15Y-3.2
X8.15Y-3.3
X8.15Y-3.4
X8.15Y-3.5
X8.15Y-3.6
X8.15Y-3.7
X2.4766Y-4.925
X2.575Y-4.925
X2.9Y-7.2
X2.9Y-7.3969
X2.75Y-6.6
X3.35Y-6.6
X8.8Y-3.1
X8.8Y-3.2
X8.8Y-3.3
X8.8Y-3.4
X8.8Y-3.5
X8.8Y-3.6
X8.8Y-3.7
X9.1Y-3.1
X9.1Y-3.2
X9.1Y-3.3
X9.1Y-3.4
X9.1Y-3.5
X9.1Y-3.6
X9.1Y-3.7
X9.5Y-5.45
X9.5Y-5.75
X9.6Y-5.45
X9.6Y-5.75
X9.7Y-5.45
X9.7Y-5.75
X9.8Y-5.45
X9.8Y-5.75
X9.9Y-5.45
X9.9Y-5.75
X10.Y-5.45
X10.Y-5.75
X10.1Y-5.45
X10.1Y-5.75
X10.2Y-5.45
X10.2Y-5.75
X6.65Y-5.8
X7.25Y-5.8
X8.85Y-4.25
X8.85Y-4.35
X8.85Y-4.45
X8.85Y-4.55
X8.85Y-4.65
X8.85Y-4.75
X8.85Y-4.85
X8.85Y-4.95
X9.15Y-4.25
X9.15Y-4.35
X9.15Y-4.45
X9.15Y-4.55
X9.15Y-4.65
X9.15Y-4.75
X9.15Y-4.85
X9.15Y-4.95
X5.55Y-6.85
X6.15Y-6.85
X2.75Y-6.7
X3.35Y-6.7
T4
X8.8644Y-5.5926
X8.8644Y-5.9926
X9.1644Y-5.5926
X9.1644Y-5.9926
X8.2644Y-5.5926
X8.2644Y-5.9926
X8.7144Y-5.5926
X8.7144Y-5.9926
X9.0144Y-5.5926
X9.0144Y-5.9926
X8.1144Y-5.5926
X8.1144Y-5.9926
X8.5644Y-5.5926
X8.5644Y-5.9926
X8.4144Y-5.5926
X8.4144Y-5.9926
T5
X10.Y-2.
X10.Y-2.0984
X10.0787Y-2.
X10.0787Y-2.0984
T6
X7.75Y-6.6469
X7.85Y-6.6469
X4.1Y-6.45
X4.2Y-6.45
X8.05Y-7.0469
X8.15Y-7.0469
X9.75Y-6.6469
X9.85Y-6.6469
X9.05Y-6.8469
X9.15Y-6.8469
X5.35Y-5.7
X5.35Y-5.8
X4.1Y-6.65
X4.2Y-6.65
X4.65Y-5.7
X4.65Y-5.8
X2.475Y-5.475
X2.575Y-5.475
X7.75Y-6.4469
X7.85Y-6.4469
X10.05Y-6.6469
X10.15Y-6.6469
X9.4Y-6.4469
X9.5Y-6.4469
X9.4Y-6.6469
X9.5Y-6.6469
X7.75Y-7.0469
X7.85Y-7.0469
X8.05Y-6.6469
X8.15Y-6.6469
X8.05Y-6.2469
X8.15Y-6.2469
X8.4Y-6.4469
X8.5Y-6.4469
X10.05Y-7.0469
X10.15Y-7.0469
X6.2Y-5.7
X6.2Y-5.8
X9.4Y-7.0469
X9.5Y-7.0469
X9.05Y-6.6469
X9.15Y-6.6469
X2.475Y-5.325
X2.575Y-5.325
X8.4Y-7.0469
X8.5Y-7.0469
X5.9Y-6.6
X6.Y-6.6
X8.7Y-7.0469
X8.8Y-7.0469
X9.05Y-6.4469
X9.15Y-6.4469
X5.9Y-5.7
X5.9Y-5.8
X8.05Y-6.8469
X8.15Y-6.8469
X8.4Y-6.2469
X8.5Y-6.2469
X8.4Y-6.6469
X8.5Y-6.6469
X8.7Y-6.8469
X8.8Y-6.8469
X8.7Y-6.4469
X8.8Y-6.4469
X9.4Y-6.2469
X9.5Y-6.2469
X9.75Y-7.0469
X9.85Y-7.0469
X9.05Y-6.2469
X9.15Y-6.2469
X7.75Y-6.2469
X7.85Y-6.2469
X4.3Y-5.7
X4.3Y-5.8
X10.05Y-6.8469
X10.15Y-6.8469
X9.75Y-6.4469
X9.85Y-6.4469
X9.4Y-6.8469
X9.5Y-6.8469
X4.025Y-6.925
X4.125Y-6.925
X10.05Y-6.4469
X10.15Y-6.4469
X8.7Y-6.2469
X8.8Y-6.2469
X10.05Y-6.2469
X10.15Y-6.2469
X8.05Y-6.4469
X8.15Y-6.4469
X9.75Y-6.8469
X9.85Y-6.8469
X8.4Y-6.8469
X8.5Y-6.8469
X7.75Y-6.8469
X7.85Y-6.8469
X6.05Y-5.7
X6.05Y-5.8
X9.75Y-6.2469
X9.85Y-6.2469
X5.Y-5.7
X5.Y-5.8
X6.35Y-5.7
X6.35Y-5.8
X9.05Y-7.0469
X9.15Y-7.0469
X2.475Y-5.125
X2.575Y-5.125
X5.55Y-6.6
X5.65Y-6.6
X8.7Y-6.6469
X8.8Y-6.6469
T7
X10.1854Y-1.8122
X10.1854Y-2.2862
T0
M30
