M48
;DRILL file {KiCad 5.0.2-5.fc29} date Wed 01 Apr 2020 07:19:00 PM EEST
;FORMAT={-:-/ absolute / metric / decimal}
FMAT,2
METRIC,TZ
T1C0.400
T2C0.500
T3C0.600
T4C0.762
T5C0.800
T6C0.900
T7C1.000
T8C1.100
T9C1.200
T10C1.300
T11C1.600
%
G90
G05
T1
X49.926Y-117.348
X52.705Y-111.76
X53.015Y-53.34
X53.34Y-55.245
X53.848Y-76.708
X55.245Y-111.76
X55.245Y-113.665
X55.245Y-114.935
X55.372Y-17.145
X55.88Y-34.29
X55.88Y-61.595
X55.88Y-64.77
X55.88Y-69.215
X56.388Y-105.41
X57.404Y-103.505
X57.785Y-14.605
X57.785Y-36.195
X59.055Y-19.685
X59.055Y-88.9
X59.055Y-92.71
X59.055Y-96.52
X60.325Y-18.169
X60.325Y-90.17
X60.325Y-103.505
X60.325Y-105.41
X60.96Y-14.605
X60.96Y-37.72
X61.595Y-116.84
X61.595Y-118.745
X61.595Y-120.65
X62.23Y-109.22
X62.865Y-90.17
X64.135Y-110.49
X64.135Y-118.745
X64.77Y-145.415
X65.405Y-84.455
X65.405Y-88.265
X66.675Y-81.915
X66.675Y-88.9
X66.675Y-92.71
X67.945Y-81.28
X67.945Y-87.63
X67.945Y-92.71
X68.58Y-75.565
X69.215Y-145.415
X69.85Y-76.835
X69.85Y-109.22
X70.485Y-83.82
X70.485Y-95.25
X70.485Y-156.845
X71.755Y-82.55
X71.755Y-87.63
X71.755Y-90.17
X71.755Y-136.525
X73.025Y-109.22
X73.025Y-118.999
X73.152Y-134.62
X73.152Y-171.196
X74.295Y-110.49
X74.676Y-6.096
X74.676Y-130.175
X75.184Y-120.904
X75.692Y-8.636
X76.2Y-33.655
X77.216Y-25.908
X77.432Y-162.344
X77.724Y-2.032
X78.74Y-7.62
X78.74Y-49.53
X79.375Y-60.96
X79.375Y-60.96
X79.375Y-99.695
X80.01Y-45.085
X80.01Y-127.635
X80.215Y-114.095
X80.645Y-34.925
X80.645Y-38.1
X81.318Y-116.37
X81.788Y-161.036
X81.915Y-34.925
X81.915Y-38.1
X83.185Y-34.925
X83.185Y-38.1
X83.312Y3.048
X83.312Y1.016
X83.82Y-29.972
X84.328Y2.032
X84.328Y0.
X84.455Y-62.23
X84.455Y-62.23
X84.455Y-62.23
X85.09Y-123.825
X85.725Y-44.45
X85.725Y-48.26
X86.36Y-120.015
X87.945Y-112.715
X88.265Y-86.995
X89.535Y-120.015
X89.662Y-175.006
X90.424Y-136.652
X91.44Y-113.665
X91.948Y-31.496
X91.948Y-127.
X93.345Y-64.77
X93.98Y-11.595
X94.996Y-32.004
X94.996Y-143.764
X94.996Y-153.924
X94.996Y-161.544
X96.012Y2.032
X96.012Y0.
X96.062Y-140.716
X96.062Y-150.318
X96.062Y-154.94
X96.062Y-157.48
X96.52Y-57.15
X96.52Y-59.69
X97.028Y3.048
X97.028Y1.016
X97.526Y-139.7
X97.536Y-136.652
X97.536Y-149.352
X97.536Y-152.908
X97.536Y-160.528
X98.425Y-64.77
X98.425Y-74.93
X99.06Y-10.795
X99.06Y-21.844
X99.06Y-163.576
X99.695Y-59.69
X99.695Y-73.66
X99.695Y-100.33
X99.695Y-108.585
X100.076Y-8.636
X100.076Y-158.496
X100.584Y-165.608
X101.092Y5.08
X101.092Y-3.556
X101.6Y-19.812
X101.6Y-158.496
X101.6Y-166.624
X102.108Y-130.048
X102.108Y-135.128
X102.235Y-17.78
X102.235Y-78.74
X102.235Y-83.82
X103.124Y6.604
X103.124Y-5.08
X103.124Y-140.208
X104.14Y-37.465
X104.14Y-86.36
X104.14Y-93.98
X104.14Y-100.33
X104.648Y-98.044
X104.775Y-73.66
X104.775Y-73.66
X104.775Y-73.66
X105.156Y-18.796
X105.664Y6.604
X105.664Y-94.488
X106.005Y-104.14
X106.045Y-81.28
X106.045Y-87.63
X106.045Y-87.63
X106.181Y-80.01
X106.68Y-92.964
X106.68Y-98.044
X107.315Y-76.2
X108.126Y-116.41
X108.204Y-161.544
X108.585Y-73.66
X108.585Y-82.55
X108.712Y-163.576
X108.712Y-165.608
X109.22Y-110.744
X109.554Y-114.126
X109.728Y-160.528
X109.855Y-66.04
X110.236Y-163.576
X110.236Y-166.624
X110.49Y-72.39
X110.49Y-80.645
X111.76Y2.032
X111.76Y0.
X111.76Y-99.06
X111.887Y-175.006
X112.268Y-110.744
X112.395Y-82.55
X112.395Y-82.55
X112.395Y-92.71
X113.284Y3.048
X113.284Y1.016
X113.665Y-82.55
X113.665Y-91.44
X113.665Y-99.06
X114.935Y-77.47
X114.935Y-82.55
X114.935Y-82.55
X114.935Y-90.17
X116.205Y-86.36
X116.332Y3.048
X116.332Y1.016
X116.84Y2.032
X116.84Y0.
X116.84Y-82.55
X117.856Y-6.096
X117.856Y-148.844
X118.745Y-50.165
X120.015Y-80.01
X120.65Y-18.415
X122.555Y-40.64
X122.555Y-78.74
X122.555Y-85.09
X122.555Y-85.09
X123.825Y-105.41
X124.46Y-167.132
X125.984Y-57.15
X126.365Y-29.21
X126.365Y-44.45
X128.016Y-3.048
X128.27Y-85.09
X128.905Y-110.49
X129.032Y-4.064
X130.175Y-27.94
X130.175Y-34.29
X130.175Y-100.965
X130.81Y-51.435
X130.81Y-56.515
X131.064Y-6.096
X131.064Y-8.128
X132.08Y-50.165
X132.08Y-54.61
X132.08Y-57.15
X132.384Y-107.95
X132.715Y-39.37
X132.715Y-88.9
X132.715Y-90.17
X132.715Y-104.775
X133.35Y-74.93
X134.62Y-35.56
X134.62Y-74.93
X134.747Y-175.641
X135.255Y-92.71
X135.255Y-110.49
X135.89Y-58.42
X136.144Y-138.176
X136.21Y-81.28
X136.525Y-102.87
X136.525Y-107.95
X136.652Y-7.62
X136.652Y-155.956
X137.16Y-71.12
X137.16Y-78.74
X137.16Y-80.01
X139.7Y-36.195
X139.7Y-44.45
X139.7Y-99.06
X140.208Y-1.016
X140.97Y-24.13
X140.97Y-54.61
X140.97Y-101.6
X141.605Y-157.48
X142.24Y-29.21
X142.24Y-31.75
X142.24Y-43.18
X142.24Y-52.07
X142.24Y-58.42
X142.24Y-71.12
X142.24Y-77.47
X142.24Y-78.74
X142.24Y-84.455
X142.24Y-90.805
X142.24Y-107.95
X143.51Y-46.99
X144.272Y-8.128
X144.78Y-77.47
X144.78Y-83.185
X144.78Y-139.7
X144.78Y-156.21
X144.78Y-161.29
X145.415Y-138.43
X146.05Y-45.085
X146.05Y-54.61
X146.05Y-127.
X146.05Y-137.16
X146.812Y2.032
X146.812Y0.
X147.32Y-105.41
X147.32Y-121.92
X147.32Y-134.62
X147.32Y-135.89
X147.32Y-160.02
X147.828Y3.048
X147.828Y1.016
X148.59Y-54.61
X148.59Y-105.41
X149.86Y-144.78
X149.86Y-151.765
X150.368Y6.604
X150.368Y4.064
X150.368Y-161.29
X150.495Y-46.99
X151.13Y-31.75
X151.13Y-36.195
X151.13Y-90.805
X151.384Y3.048
X151.384Y1.016
X151.765Y-50.8
X151.892Y2.032
X151.892Y0.
X152.908Y-4.064
X153.416Y-149.352
X153.67Y-150.495
X153.924Y-153.416
X154.94Y-4.064
X155.448Y6.604
X155.956Y-139.7
X156.346Y-137.042
X156.972Y2.032
X156.972Y0.
X156.972Y-149.225
X156.972Y-153.369
X157.48Y-2.032
X157.988Y3.048
X157.988Y1.016
X158.496Y-1.016
X158.496Y-4.064
X158.496Y-6.096
X158.75Y-50.8
X159.004Y-132.588
X159.004Y-152.908
X159.512Y-3.048
X159.512Y-5.08
X160.528Y-9.144
X161.29Y-78.74
X161.29Y-83.82
X161.29Y-153.162
X161.925Y-48.26
X162.56Y-137.16
X162.56Y-138.43
X162.56Y-147.32
X162.56Y-152.908
X163.068Y-109.728
X163.176Y-112.884
X163.576Y-115.824
X163.83Y-16.51
X163.83Y-60.325
X164.465Y-113.03
X164.465Y-137.16
X165.1Y-20.32
X165.1Y-48.26
X165.1Y-53.34
X165.1Y-60.325
X165.1Y-86.995
X165.265Y-102.235
X166.624Y-177.292
X167.64Y-52.07
X167.64Y-99.06
X167.64Y-113.03
X168.91Y-22.86
X168.91Y-30.48
X168.91Y-49.53
X168.91Y-59.055
X169.545Y-71.12
X169.545Y-81.915
X171.45Y-18.1
X171.45Y-102.235
X172.72Y-21.59
X172.72Y-45.72
X172.72Y-86.995
X172.72Y-120.396
X172.72Y-127.
X172.72Y-127.
X172.72Y-127.
X173.355Y-19.05
X173.99Y-77.47
X173.99Y-111.76
X174.625Y-137.16
X174.752Y2.032
X174.752Y0.
X175.768Y3.048
X175.768Y1.016
X177.8Y-19.05
X177.8Y-19.05
X178.435Y-136.525
X180.34Y-66.675
X180.34Y-72.79
X180.848Y-184.912
X181.61Y-119.38
X181.864Y1.016
X182.88Y0.
X182.88Y-64.135
X184.404Y7.62
X184.785Y-72.39
X184.912Y-111.76
X185.42Y-44.45
X187.96Y-41.275
X187.96Y-44.45
X187.96Y-59.69
X188.468Y-116.332
X188.468Y-128.524
X188.595Y-130.81
X190.5Y-129.54
X190.5Y-134.62
X191.516Y-22.352
X191.77Y-73.66
X191.77Y-74.93
X191.77Y-106.68
X193.04Y-16.51
X193.04Y-42.164
X193.04Y-44.45
X193.04Y-130.81
X194.056Y-128.524
X194.31Y-38.1
X194.31Y-48.26
X194.31Y-66.04
X194.31Y-72.39
X194.31Y-98.425
X194.31Y-106.68
X195.072Y-16.764
X195.072Y-18.796
X195.072Y-22.352
X195.25Y-126.67
X195.58Y-44.704
X195.58Y-58.42
X195.58Y-66.04
X195.58Y-71.12
X195.58Y-90.17
X195.58Y-93.98
X195.58Y-100.33
X195.58Y-102.235
X195.58Y-107.95
X196.85Y-48.26
X196.85Y-55.88
X196.85Y-74.93
X196.85Y-132.715
X198.12Y-128.524
X198.755Y-104.14
X198.882Y-72.39
X200.025Y-130.175
X200.66Y-69.85
X200.66Y-73.66
X201.93Y-46.99
X203.835Y-117.475
X206.756Y-98.552
X207.01Y-13.97
X207.01Y-45.72
X207.01Y-101.6
X207.645Y-41.91
X208.28Y-48.26
X208.28Y-49.784
X208.28Y-71.12
X208.28Y-101.092
X208.28Y-133.604
X208.915Y-13.97
X209.296Y-55.88
X209.55Y-26.035
X209.55Y-105.41
X209.55Y-115.57
X209.55Y-120.65
X211.328Y-134.112
X211.455Y-69.85
X211.455Y-75.692
X211.455Y-87.63
X211.455Y-105.41
X211.455Y-124.46
X211.836Y-136.144
X212.852Y-11.176
X212.852Y-14.224
X212.852Y-72.39
X212.852Y-135.128
X213.868Y-69.596
X213.868Y-76.708
X214.376Y-11.176
X214.376Y-13.716
X214.376Y-17.272
X215.392Y-134.112
X215.392Y-136.144
X215.9Y-11.176
X215.9Y-13.716
X215.9Y-17.272
X216.408Y-135.128
X217.98Y-11.224
X217.98Y-13.764
X217.98Y-17.272
X218.948Y-133.604
X219.964Y-11.176
X219.964Y-13.716
X219.964Y-17.272
X220.472Y-71.628
X221.488Y-11.176
X221.488Y-13.716
X221.488Y-17.272
X223.012Y-11.176
X223.012Y-13.716
X223.012Y-70.612
X223.52Y-68.58
X223.52Y-133.604
X224.028Y-8.128
X224.536Y-2.032
X224.536Y-4.064
X224.536Y-6.096
X224.577Y-134.112
X228.092Y-134.112
X228.6Y-70.104
X228.6Y-74.676
X229.108Y-142.24
X229.616Y-102.87
X229.616Y-133.096
X229.616Y-148.844
X229.616Y-150.876
X229.616Y-152.908
X230.124Y-71.12
X230.632Y-100.584
X230.632Y-149.86
X230.632Y-151.892
X233.68Y-156.972
X235.712Y-147.828
X235.712Y-159.512
X236.22Y-175.26
X237.236Y-149.86
X238.252Y-151.892
X239.268Y-153.924
X240.284Y-155.956
T2
X85.316Y-148.59
X87.216Y-148.59
T3
X145.415Y-17.145
X145.415Y-19.145
T4
X100.076Y-130.048
X100.076Y-132.588
X100.076Y-135.128
X105.156Y-130.048
X105.156Y-132.588
X105.156Y-135.128
X100.076Y-121.92
X100.076Y-124.46
X100.076Y-127.
X105.156Y-121.92
X105.156Y-124.46
X105.156Y-127.
T5
X80.01Y-122.555
X80.01Y-125.095
X80.01Y-127.635
X80.01Y-130.175
X80.01Y-132.715
X80.01Y-135.255
X80.01Y-137.795
X80.01Y-140.335
X87.63Y-122.555
X87.63Y-125.095
X87.63Y-127.635
X87.63Y-130.175
X87.63Y-132.715
X87.63Y-135.255
X87.63Y-137.795
X87.63Y-140.335
X130.81Y-133.985
X140.97Y-133.985
X93.98Y-122.936
X93.98Y-133.096
X90.25Y-27.432
X95.25Y-27.432
X226.06Y-78.74
X226.06Y-81.28
X226.06Y-83.82
X226.06Y-86.36
X226.06Y-88.9
X226.06Y-91.44
X226.06Y-93.98
X233.68Y-78.74
X233.68Y-81.28
X233.68Y-83.82
X233.68Y-86.36
X233.68Y-88.9
X233.68Y-91.44
X233.68Y-93.98
X177.8Y-52.07
X177.8Y-54.61
X177.8Y-57.15
X177.8Y-59.69
X177.8Y-62.23
X177.8Y-64.77
X177.8Y-67.31
X185.42Y-52.07
X185.42Y-54.61
X185.42Y-57.15
X185.42Y-59.69
X185.42Y-62.23
X185.42Y-64.77
X185.42Y-67.31
X213.995Y-52.07
X213.995Y-54.61
X213.995Y-57.15
X213.995Y-59.69
X213.995Y-62.23
X213.995Y-64.77
X213.995Y-67.31
X221.615Y-52.07
X221.615Y-54.61
X221.615Y-57.15
X221.615Y-59.69
X221.615Y-62.23
X221.615Y-64.77
X221.615Y-67.31
X214.63Y-24.765
X214.63Y-27.305
X214.63Y-29.845
X214.63Y-32.385
X214.63Y-34.925
X214.63Y-37.465
X214.63Y-40.005
X222.25Y-24.765
X222.25Y-27.305
X222.25Y-29.845
X222.25Y-32.385
X222.25Y-34.925
X222.25Y-37.465
X222.25Y-40.005
X213.995Y-78.74
X213.995Y-81.28
X213.995Y-83.82
X213.995Y-86.36
X213.995Y-88.9
X213.995Y-91.44
X213.995Y-93.98
X221.615Y-78.74
X221.615Y-81.28
X221.615Y-83.82
X221.615Y-86.36
X221.615Y-88.9
X221.615Y-91.44
X221.615Y-93.98
X118.745Y-87.63
X118.745Y-90.17
X118.745Y-92.71
X118.745Y-95.25
X118.745Y-97.79
X118.745Y-100.33
X118.745Y-102.87
X126.365Y-87.63
X126.365Y-90.17
X126.365Y-92.71
X126.365Y-95.25
X126.365Y-97.79
X126.365Y-100.33
X126.365Y-102.87
X59.69Y-149.86
X59.69Y-152.4
X59.69Y-154.94
X59.69Y-157.48
X59.69Y-160.02
X59.69Y-162.56
X59.69Y-165.1
X59.69Y-167.64
X67.31Y-149.86
X67.31Y-152.4
X67.31Y-154.94
X67.31Y-157.48
X67.31Y-160.02
X67.31Y-162.56
X67.31Y-165.1
X67.31Y-167.64
X139.192Y-175.006
X139.192Y-180.006
X166.37Y-145.415
X176.53Y-145.415
X166.37Y-148.59
X176.53Y-148.59
X211.916Y-167.64
X216.916Y-167.64
X180.34Y7.58
X180.34Y5.08
X123.952Y-169.926
X123.952Y-172.466
X123.952Y-175.006
X131.572Y-169.926
X131.572Y-172.466
X131.572Y-175.006
X214.376Y-155.448
X224.536Y-155.448
X153.67Y-58.42
X153.67Y-60.96
X153.67Y-63.5
X153.67Y-66.04
X153.67Y-68.58
X153.67Y-71.12
X153.67Y-73.66
X161.29Y-58.42
X161.29Y-60.96
X161.29Y-63.5
X161.29Y-66.04
X161.29Y-68.58
X161.29Y-71.12
X161.29Y-73.66
X177.8Y-77.47
X177.8Y-80.01
X177.8Y-82.55
X177.8Y-85.09
X177.8Y-87.63
X177.8Y-90.17
X177.8Y-92.71
X185.42Y-77.47
X185.42Y-80.01
X185.42Y-82.55
X185.42Y-85.09
X185.42Y-87.63
X185.42Y-90.17
X185.42Y-92.71
X177.8Y-21.59
X177.8Y-24.13
X177.8Y-26.67
X177.8Y-29.21
X177.8Y-31.75
X177.8Y-34.29
X177.8Y-36.83
X177.8Y-39.37
X185.42Y-21.59
X185.42Y-24.13
X185.42Y-26.67
X185.42Y-29.21
X185.42Y-31.75
X185.42Y-34.29
X185.42Y-36.83
X185.42Y-39.37
X211.916Y-171.704
X216.916Y-171.704
X130.81Y-128.905
X140.97Y-128.905
X146.812Y-169.926
X146.812Y-172.466
X146.812Y-175.006
X154.432Y-169.926
X154.432Y-172.466
X154.432Y-175.006
X190.5Y-164.084
X190.5Y-174.244
X97.028Y-122.936
X97.028Y-133.096
X121.92Y-150.368
X132.08Y-150.368
X78.232Y-184.912
X88.392Y-184.912
X67.31Y-14.605
X67.31Y-17.145
X67.31Y-19.685
X67.31Y-22.225
X67.31Y-24.765
X67.31Y-27.305
X67.31Y-29.845
X74.93Y-14.605
X74.93Y-17.145
X74.93Y-19.685
X74.93Y-22.225
X74.93Y-24.765
X74.93Y-27.305
X74.93Y-29.845
X146.812Y-178.816
X156.972Y-178.816
X153.67Y-114.3
X153.67Y-116.84
X153.67Y-119.38
X153.67Y-121.92
X153.67Y-124.46
X153.67Y-127.
X153.67Y-129.54
X153.67Y-132.08
X161.29Y-114.3
X161.29Y-116.84
X161.29Y-119.38
X161.29Y-121.92
X161.29Y-124.46
X161.29Y-127.
X161.29Y-129.54
X161.29Y-132.08
X68.62Y-35.56
X71.12Y-35.56
X104.144Y-14.45
X104.144Y-24.61
X121.92Y-141.224
X132.08Y-141.224
X118.745Y-60.96
X118.745Y-63.5
X118.745Y-66.04
X118.745Y-68.58
X118.745Y-71.12
X118.745Y-73.66
X118.745Y-76.2
X126.365Y-60.96
X126.365Y-63.5
X126.365Y-66.04
X126.365Y-68.58
X126.365Y-71.12
X126.365Y-73.66
X126.365Y-76.2
X100.334Y-14.45
X100.334Y-24.61
X166.37Y-142.24
X176.53Y-142.24
X78.232Y-169.926
X78.232Y-172.466
X78.232Y-175.006
X85.852Y-169.926
X85.852Y-172.466
X85.852Y-175.006
X116.332Y-175.006
X116.332Y-180.006
X153.67Y-88.9
X153.67Y-91.44
X153.67Y-93.98
X153.67Y-96.52
X153.67Y-99.06
X153.67Y-101.6
X153.67Y-104.14
X161.29Y-88.9
X161.29Y-91.44
X161.29Y-93.98
X161.29Y-96.52
X161.29Y-99.06
X161.29Y-101.6
X161.29Y-104.14
X218.948Y1.016
X229.108Y1.016
X81.28Y-148.59
X81.28Y-153.59
X75.565Y-66.04
X75.565Y-68.58
X75.565Y-71.12
X75.565Y-73.66
X75.565Y-76.2
X75.565Y-78.74
X75.565Y-81.28
X83.185Y-66.04
X83.185Y-68.58
X83.185Y-71.12
X83.185Y-73.66
X83.185Y-76.2
X83.185Y-78.74
X83.185Y-81.28
X211.916Y-175.768
X216.916Y-175.768
X130.81Y-123.825
X140.97Y-123.825
X100.584Y-138.684
X100.584Y-141.224
X100.584Y-143.764
X100.584Y-146.304
X100.584Y-148.844
X100.584Y-151.384
X100.584Y-153.924
X108.204Y-138.684
X108.204Y-141.224
X108.204Y-143.764
X108.204Y-146.304
X108.204Y-148.844
X108.204Y-151.384
X108.204Y-153.924
X215.265Y-107.95
X215.265Y-110.49
X215.265Y-113.03
X215.265Y-115.57
X215.265Y-118.11
X215.265Y-120.65
X215.265Y-123.19
X215.265Y-125.73
X222.885Y-107.95
X222.885Y-110.49
X222.885Y-113.03
X222.885Y-115.57
X222.885Y-118.11
X222.885Y-120.65
X222.885Y-123.19
X222.885Y-125.73
X213.995Y-139.065
X213.995Y-146.685
X216.535Y-139.065
X216.535Y-146.685
X219.075Y-139.065
X219.075Y-146.685
X221.615Y-139.065
X221.615Y-146.685
X224.155Y-139.065
X224.155Y-146.685
X226.695Y-139.065
X226.695Y-146.685
X229.235Y-139.065
X229.235Y-146.685
X231.775Y-139.065
X231.775Y-146.685
X177.8Y-114.3
X177.8Y-116.84
X177.8Y-119.38
X177.8Y-121.92
X177.8Y-124.46
X177.8Y-127.
X177.8Y-129.54
X177.8Y-132.08
X185.42Y-114.3
X185.42Y-116.84
X185.42Y-119.38
X185.42Y-121.92
X185.42Y-124.46
X185.42Y-127.
X185.42Y-129.54
X185.42Y-132.08
X103.632Y-184.912
X113.792Y-184.912
X128.016Y-184.912
X138.176Y-184.912
X121.92Y-147.32
X132.08Y-147.32
X121.92Y-138.176
X132.08Y-138.176
X234.696Y-67.604
X234.696Y-70.104
X170.815Y-98.425
X170.815Y-106.045
X173.355Y-98.425
X173.355Y-106.045
X175.895Y-98.425
X175.895Y-106.045
X178.435Y-98.425
X178.435Y-106.045
X180.975Y-98.425
X180.975Y-106.045
X183.515Y-98.425
X183.515Y-106.045
X186.055Y-98.425
X186.055Y-106.045
X188.595Y-98.425
X188.595Y-106.045
X199.39Y-109.22
X199.39Y-111.76
X199.39Y-114.3
X199.39Y-116.84
X199.39Y-119.38
X199.39Y-121.92
X199.39Y-124.46
X207.01Y-109.22
X207.01Y-111.76
X207.01Y-114.3
X207.01Y-116.84
X207.01Y-119.38
X207.01Y-121.92
X207.01Y-124.46
X166.37Y-139.065
X176.53Y-139.065
X127.635Y-23.495
X132.635Y-23.495
X90.972Y-141.224
X93.472Y-141.224
X93.472Y-175.006
X93.472Y-180.006
X152.4Y-184.912
X162.56Y-184.912
X77.597Y-179.451
X87.757Y-179.451
X199.39Y-52.07
X199.39Y-54.61
X199.39Y-57.15
X199.39Y-59.69
X199.39Y-62.23
X199.39Y-64.77
X199.39Y-67.31
X207.01Y-52.07
X207.01Y-54.61
X207.01Y-57.15
X207.01Y-59.69
X207.01Y-62.23
X207.01Y-64.77
X207.01Y-67.31
X107.319Y-14.45
X107.319Y-24.61
X121.92Y-144.272
X132.08Y-144.272
X130.81Y-118.745
X140.97Y-118.745
X78.74Y-31.75
X88.9Y-31.75
X120.142Y-178.816
X130.302Y-178.816
X87.884Y-103.632
X98.044Y-103.632
X212.344Y7.62
X222.504Y7.62
X78.817Y-35.446
X88.977Y-35.446
X153.67Y-30.48
X153.67Y-33.02
X153.67Y-35.56
X153.67Y-38.1
X153.67Y-40.64
X153.67Y-43.18
X153.67Y-45.72
X161.29Y-30.48
X161.29Y-33.02
X161.29Y-35.56
X161.29Y-38.1
X161.29Y-40.64
X161.29Y-43.18
X161.29Y-45.72
X162.052Y-175.006
X162.052Y-180.006
X106.045Y-41.91
X106.045Y-44.45
X106.045Y-46.99
X106.045Y-49.53
X106.045Y-52.07
X106.045Y-54.61
X106.045Y-57.15
X106.045Y-59.69
X113.665Y-41.91
X113.665Y-44.45
X113.665Y-46.99
X113.665Y-49.53
X113.665Y-52.07
X113.665Y-54.61
X113.665Y-57.15
X113.665Y-59.69
X75.565Y-87.63
X75.565Y-90.17
X75.565Y-92.71
X75.565Y-95.25
X75.565Y-97.79
X75.565Y-100.33
X75.565Y-102.87
X83.185Y-87.63
X83.185Y-90.17
X83.185Y-92.71
X83.185Y-95.25
X83.185Y-97.79
X83.185Y-100.33
X83.185Y-102.87
X93.004Y-115.316
X95.504Y-115.316
X214.376Y3.516
X214.376Y1.016
X101.092Y-169.926
X101.092Y-172.466
X101.092Y-175.006
X108.712Y-169.926
X108.712Y-172.466
X108.712Y-175.006
X108.204Y-121.92
X108.204Y-132.08
X81.28Y-145.796
X91.44Y-145.796
X215.9Y-159.084
X215.9Y-164.084
X198.12Y-24.13
X198.12Y-26.67
X198.12Y-29.21
X198.12Y-31.75
X198.12Y-34.29
X198.12Y-36.83
X198.12Y-39.37
X205.74Y-24.13
X205.74Y-26.67
X205.74Y-29.21
X205.74Y-31.75
X205.74Y-34.29
X205.74Y-36.83
X205.74Y-39.37
X119.38Y-116.84
X119.38Y-119.38
X119.38Y-121.92
X119.38Y-124.46
X119.38Y-127.
X119.38Y-129.54
X119.38Y-132.08
X127.Y-116.84
X127.Y-119.38
X127.Y-121.92
X127.Y-124.46
X127.Y-127.
X127.Y-129.54
X127.Y-132.08
X199.39Y-78.74
X199.39Y-81.28
X199.39Y-83.82
X199.39Y-86.36
X199.39Y-88.9
X199.39Y-91.44
X199.39Y-93.98
X207.01Y-78.74
X207.01Y-81.28
X207.01Y-83.82
X207.01Y-86.36
X207.01Y-88.9
X207.01Y-91.44
X207.01Y-93.98
X58.42Y-55.88
X58.42Y-58.42
X58.42Y-60.96
X58.42Y-63.5
X58.42Y-66.04
X58.42Y-68.58
X58.42Y-71.12
X66.04Y-55.88
X66.04Y-58.42
X66.04Y-60.96
X66.04Y-63.5
X66.04Y-66.04
X66.04Y-68.58
X66.04Y-71.12
X72.39Y-147.955
X72.39Y-158.115
X138.43Y-17.145
X138.43Y-22.145
X77.47Y-147.955
X77.47Y-158.115
X91.44Y-148.59
X91.44Y-153.59
X223.012Y-73.152
X233.172Y-73.152
X69.215Y-40.64
X69.215Y-43.18
X69.215Y-45.72
X69.215Y-48.26
X76.835Y-40.64
X76.835Y-43.18
X76.835Y-45.72
X76.835Y-48.26
X97.282Y-179.451
X107.442Y-179.451
X78.74Y-15.875
X78.74Y-23.495
X81.28Y-15.875
X81.28Y-23.495
X83.82Y-15.875
X83.82Y-23.495
X86.36Y-15.875
X86.36Y-23.495
X88.9Y-15.875
X88.9Y-23.495
X91.44Y-15.875
X91.44Y-23.495
X93.98Y-15.875
X93.98Y-23.495
X96.52Y-15.875
X96.52Y-23.495
T6
X187.309Y-138.878
X187.309Y-149.038
X111.76Y-153.924
X114.3Y-153.924
X183.499Y-138.878
X183.499Y-149.038
X111.76Y-140.716
X114.3Y-140.716
X206.359Y-138.878
X206.359Y-149.038
X165.608Y-165.1
X168.148Y-165.1
X117.856Y-165.1
X120.396Y-165.1
X92.964Y-165.1
X95.504Y-165.1
X111.76Y-132.08
X114.3Y-132.08
X194.929Y-138.878
X194.929Y-149.038
X111.76Y-124.46
X114.3Y-124.46
X198.739Y-138.878
X198.739Y-149.038
X141.732Y-165.1
X144.272Y-165.1
X111.76Y-147.32
X114.3Y-147.32
X191.119Y-138.878
X191.119Y-149.038
X202.549Y-138.878
X202.549Y-149.038
X111.76Y-116.84
X114.3Y-116.84
X179.689Y-138.878
X179.689Y-149.038
T7
X151.765Y-16.51
X151.765Y-19.05
X151.765Y-21.59
X132.588Y8.636
X135.128Y8.636
X137.668Y8.636
X140.208Y8.636
X142.748Y8.636
X145.288Y8.636
X147.828Y8.636
X113.792Y-171.831
X116.332Y-171.831
X118.872Y-171.831
X107.696Y8.636
X110.236Y8.636
X112.776Y8.636
X115.316Y8.636
X117.856Y8.636
X120.396Y8.636
X122.936Y8.636
X136.652Y-171.831
X139.192Y-171.831
X141.732Y-171.831
X90.932Y-171.831
X93.472Y-171.831
X96.012Y-171.831
X164.592Y-152.988
X164.592Y-157.988
X159.512Y-171.831
X162.052Y-171.831
X164.592Y-171.831
X82.804Y8.636
X85.344Y8.636
X87.884Y8.636
X90.424Y8.636
X92.964Y8.636
X95.504Y8.636
X98.044Y8.636
X107.696Y5.08
X110.236Y5.08
X112.776Y5.08
X115.316Y5.08
X117.856Y5.08
X120.396Y5.08
X122.936Y5.08
X157.988Y8.636
X160.528Y8.636
X163.068Y8.636
X165.608Y8.636
X168.148Y8.636
X170.688Y8.636
X173.228Y8.636
X157.988Y5.08
X160.528Y5.08
X163.068Y5.08
X165.608Y5.08
X168.148Y5.08
X170.688Y5.08
X173.228Y5.08
X82.804Y5.08
X85.344Y5.08
X87.884Y5.08
X90.424Y5.08
X92.964Y5.08
X95.504Y5.08
X98.044Y5.08
X132.588Y5.08
X135.128Y5.08
X137.668Y5.08
X140.208Y5.08
X142.748Y5.08
X145.288Y5.08
X147.828Y5.08
T8
X54.432Y-39.37
X64.592Y-39.37
X211.328Y-157.48
X211.328Y-162.56
X54.432Y-44.401
X64.592Y-44.401
X177.292Y-174.752
X179.832Y-174.752
X182.372Y-174.752
X62.865Y-18.415
X62.865Y-23.495
X127.Y-17.272
X132.08Y-17.272
X62.865Y-29.21
X62.865Y-34.29
X54.432Y-49.481
X64.592Y-49.481
X100.076Y-114.3
X100.076Y-118.8
X106.576Y-114.3
X106.576Y-118.8
X55.88Y-23.495
X55.88Y-26.035
X55.88Y-28.575
X172.212Y-164.592
X172.212Y-174.752
T9
X114.3Y-21.59
X119.3Y-21.59
X228.68Y-161.544
X233.68Y-161.544
T10
X167.132Y-186.436
X172.212Y-186.436
X189.484Y8.128
X194.564Y8.128
X118.364Y-186.436
X123.444Y-186.436
X202.184Y8.128
X207.264Y8.128
X142.748Y-186.436
X147.828Y-186.436
X228.6Y8.128
X233.68Y8.128
X93.98Y-186.436
X99.06Y-186.436
T11
X221.488Y-160.528
X221.488Y-165.608
X221.488Y-170.688
X221.488Y-175.768
T7
X231.156Y-178.816G85X233.156Y-178.816
G05
X231.156Y-184.816G85X233.156Y-184.816
G05
X236.856Y-182.816G85X236.856Y-180.816
G05
T0
M30
