M48
;DRILL file {KiCad 5.0.2-5.fc29} date Wed 11 Dec 2019 12:28:25 AM EET
;FORMAT={-:-/ absolute / metric / decimal}
FMAT,2
METRIC,TZ
T1C0.400
T2C0.500
T3C0.600
T4C0.800
T5C0.900
T6C1.000
T7C1.100
T8C1.200
%
G90
G05
T1
X43.83Y-55.88
X44.45Y-185.42
X45.085Y-54.285
X45.72Y-111.76
X46.355Y-63.5
X46.99Y-105.41
X47.94Y-103.505
X48.26Y-111.76
X48.26Y-185.42
X48.895Y-34.29
X48.895Y-61.595
X48.895Y-64.77
X48.895Y-69.215
X50.8Y-14.605
X50.8Y-36.195
X50.8Y-88.9
X50.8Y-92.71
X50.8Y-96.52
X53.34Y-90.17
X53.34Y-103.505
X53.34Y-105.41
X53.975Y-37.72
X54.61Y-116.84
X55.245Y-109.22
X55.88Y-90.17
X57.15Y-110.49
X58.105Y-79.695
X58.42Y-84.455
X58.42Y-88.265
X58.42Y-118.11
X59.055Y-78.74
X59.69Y-81.915
X59.69Y-88.9
X59.69Y-92.71
X60.96Y-81.28
X60.96Y-87.63
X60.96Y-92.71
X60.96Y-117.945
X62.865Y-109.22
X63.5Y-83.82
X63.5Y-95.25
X64.77Y-82.55
X64.77Y-87.63
X64.77Y-90.17
X66.04Y-109.22
X67.31Y-110.49
X69.215Y-33.655
X69.215Y-185.42
X71.755Y-49.53
X72.39Y-60.96
X72.39Y-60.96
X72.39Y-99.695
X73.025Y-45.085
X73.025Y-78.74
X73.025Y-127.635
X73.23Y-114.095
X73.66Y-34.925
X73.66Y-38.1
X74.93Y-34.925
X74.93Y-38.1
X76.2Y-34.925
X76.2Y-38.1
X77.47Y-62.23
X77.47Y-62.23
X77.47Y-62.23
X78.74Y-44.45
X78.74Y-48.26
X79.375Y-120.015
X83.185Y-120.015
X86.36Y-64.77
X86.36Y-86.36
X86.36Y-119.585
X89.535Y-57.15
X89.535Y-59.69
X91.44Y-64.77
X91.44Y-74.93
X92.71Y-59.69
X92.71Y-73.66
X92.71Y-110.49
X93.345Y-92.71
X93.345Y-100.33
X95.25Y-17.78
X95.25Y-78.74
X95.25Y-83.82
X95.25Y-113.03
X96.52Y-100.33
X97.155Y-37.465
X97.155Y-86.36
X97.155Y-93.98
X97.79Y-73.66
X97.79Y-73.66
X97.79Y-73.66
X99.06Y-81.28
X99.06Y-87.63
X99.06Y-87.63
X99.196Y-80.01
X100.33Y-76.2
X100.33Y-160.655
X102.235Y-152.405
X102.235Y-155.575
X102.87Y-66.04
X102.87Y-73.66
X102.87Y-82.55
X105.41Y-82.55
X105.41Y-82.55
X105.41Y-92.71
X105.41Y-114.3
X105.88Y-152.235
X106.68Y-82.55
X106.68Y-91.44
X106.68Y-99.06
X107.95Y-77.47
X107.95Y-82.55
X107.95Y-82.55
X107.95Y-90.17
X108.585Y-118.11
X109.22Y-86.36
X109.855Y-82.55
X111.76Y-50.165
X111.76Y-168.91
X113.665Y-18.415
X115.57Y-40.64
X115.57Y-78.74
X115.57Y-85.09
X115.57Y-85.09
X116.84Y-105.41
X118.999Y-57.15
X119.38Y-29.21
X119.38Y-44.45
X120.65Y-107.95
X121.92Y-85.09
X121.92Y-110.49
X123.19Y-27.94
X123.19Y-34.29
X123.19Y-100.965
X123.19Y-157.48
X123.19Y-160.655
X125.73Y-88.9
X126.365Y-39.37
X127.Y-51.435
X127.Y-58.801
X128.27Y-54.61
X128.27Y-56.515
X128.27Y-90.17
X128.27Y-110.49
X130.81Y-92.71
X132.08Y-50.165
X133.35Y-74.93
X133.35Y-99.06
X133.985Y-168.91
X134.62Y-35.56
X134.62Y-74.93
X134.62Y-101.6
X135.89Y-58.42
X135.89Y-102.87
X135.89Y-107.95
X137.16Y-71.12
X137.16Y-78.74
X137.16Y-80.645
X138.43Y-90.805
X138.43Y-107.95
X139.7Y-36.195
X139.7Y-44.45
X140.335Y-144.78
X140.97Y-24.13
X140.97Y-54.61
X141.605Y-141.605
X141.605Y-157.48
X141.76Y-138.585
X142.24Y-29.21
X142.24Y-31.75
X142.24Y-43.18
X142.24Y-52.07
X142.24Y-58.42
X142.24Y-71.12
X142.24Y-77.47
X142.24Y-78.74
X142.71Y-137.16
X143.51Y-46.99
X144.78Y-77.47
X144.78Y-83.185
X144.78Y-121.92
X144.78Y-127.
X144.78Y-135.89
X146.05Y-45.085
X146.05Y-54.61
X146.05Y-160.02
X147.32Y-105.41
X148.59Y-54.61
X148.59Y-105.41
X149.86Y-16.51
X150.495Y-46.99
X151.13Y-31.75
X151.13Y-36.195
X151.13Y-90.805
X151.765Y-50.8
X156.845Y-169.545
X158.75Y-50.8
X161.29Y-78.74
X161.29Y-83.82
X161.925Y-48.26
X163.83Y-60.325
X164.465Y-113.03
X164.465Y-140.335
X165.1Y-20.32
X165.1Y-48.26
X165.1Y-53.34
X165.1Y-60.325
X165.1Y-86.995
X165.265Y-102.235
X167.64Y-52.07
X167.64Y-99.06
X167.64Y-113.03
X168.91Y-22.86
X168.91Y-30.48
X168.91Y-49.53
X168.91Y-59.055
X168.91Y-160.02
X170.18Y-63.5
X171.45Y-18.1
X171.45Y-102.235
X172.72Y-21.59
X172.72Y-45.72
X172.72Y-86.995
X172.72Y-127.
X172.72Y-127.
X172.72Y-127.
X173.355Y-19.05
X173.99Y-77.47
X173.99Y-111.76
X174.625Y-140.335
X177.8Y-19.05
X177.8Y-19.05
X180.34Y-66.675
X180.34Y-72.79
X181.61Y-119.38
X182.88Y-64.135
X184.785Y-72.39
X185.42Y-44.45
X187.96Y-41.275
X187.96Y-44.45
X187.96Y-59.69
X188.595Y-133.35
X188.595Y-171.45
X191.77Y-73.66
X191.77Y-74.93
X191.77Y-106.68
X191.77Y-183.515
X193.04Y-16.51
X193.04Y-44.45
X193.04Y-133.35
X194.31Y-38.1
X194.31Y-48.26
X194.31Y-66.04
X194.31Y-72.39
X194.31Y-106.68
X195.58Y-58.42
X195.58Y-66.04
X195.58Y-71.12
X195.58Y-90.17
X195.58Y-93.98
X195.58Y-100.33
X195.58Y-102.235
X195.58Y-107.95
X196.85Y-48.26
X196.85Y-55.88
X196.85Y-74.93
X198.755Y-104.14
X198.882Y-72.39
X200.66Y-69.85
X200.66Y-73.66
X201.93Y-46.99
X203.835Y-117.475
X207.01Y-101.6
X207.01Y-134.62
X208.28Y-71.12
X208.28Y-130.175
X209.55Y-105.41
X209.55Y-115.57
X209.55Y-120.65
X211.455Y-69.85
X211.455Y-105.41
X211.455Y-124.46
X212.725Y-121.92
X212.725Y-131.445
X213.36Y-72.39
X224.79Y-182.88
X225.105Y-98.105
X227.33Y-76.2
X228.6Y-74.93
X229.87Y-96.52
X231.455Y-98.105
X233.68Y-102.87
X237.49Y-102.87
X240.665Y-97.155
X240.665Y-107.95
X242.57Y-181.61
X247.18Y-147.955
X259.715Y-12.08
X259.715Y-33.02
X259.715Y-82.55
T2
X81.28Y-177.8
X83.18Y-177.8
T3
X138.43Y-17.145
X138.43Y-19.145
T4
X247.65Y-86.995
X247.65Y-102.235
X161.29Y-168.91
X161.29Y-173.91
X92.71Y-161.29
X92.71Y-176.53
X248.285Y-108.585
X253.285Y-108.585
X83.625Y-152.405
X98.865Y-152.405
X69.85Y-170.18
X85.09Y-170.18
X111.76Y-60.96
X111.76Y-63.5
X111.76Y-66.04
X111.76Y-68.58
X111.76Y-71.12
X111.76Y-73.66
X111.76Y-76.2
X119.38Y-60.96
X119.38Y-63.5
X119.38Y-66.04
X119.38Y-68.58
X119.38Y-71.12
X119.38Y-73.66
X119.38Y-76.2
X184.15Y-168.91
X184.15Y-173.91
X111.76Y-116.84
X111.76Y-119.38
X111.76Y-121.92
X111.76Y-124.46
X111.76Y-127.
X111.76Y-129.54
X111.76Y-132.08
X119.38Y-116.84
X119.38Y-119.38
X119.38Y-121.92
X119.38Y-124.46
X119.38Y-127.
X119.38Y-129.54
X119.38Y-132.08
X199.39Y-109.22
X199.39Y-111.76
X199.39Y-114.3
X199.39Y-116.84
X199.39Y-119.38
X199.39Y-121.92
X199.39Y-124.46
X207.01Y-109.22
X207.01Y-111.76
X207.01Y-114.3
X207.01Y-116.84
X207.01Y-119.38
X207.01Y-121.92
X207.01Y-124.46
X153.67Y-114.3
X153.67Y-116.84
X153.67Y-119.38
X153.67Y-121.92
X153.67Y-124.46
X153.67Y-127.
X153.67Y-129.54
X153.67Y-132.08
X161.29Y-114.3
X161.29Y-116.84
X161.29Y-119.38
X161.29Y-121.92
X161.29Y-124.46
X161.29Y-127.
X161.29Y-129.54
X161.29Y-132.08
X168.91Y-143.51
X184.15Y-143.51
X92.71Y-182.88
X92.71Y-187.88
X115.57Y-168.91
X115.57Y-173.91
X151.13Y-177.8
X161.29Y-177.8
X116.205Y-145.415
X126.365Y-145.415
X57.15Y-160.02
X57.15Y-162.56
X57.15Y-165.1
X57.15Y-167.64
X57.15Y-170.18
X57.15Y-172.72
X57.15Y-175.26
X57.15Y-177.8
X64.77Y-160.02
X64.77Y-162.56
X64.77Y-165.1
X64.77Y-167.64
X64.77Y-170.18
X64.77Y-172.72
X64.77Y-175.26
X64.77Y-177.8
X250.27Y-35.56
X255.27Y-35.56
X63.54Y-35.56
X66.04Y-35.56
X142.24Y-172.72
X152.4Y-172.72
X128.27Y-177.8
X138.43Y-177.8
X100.33Y-163.83
X100.33Y-166.37
X100.33Y-168.91
X107.95Y-163.83
X107.95Y-166.37
X107.95Y-168.91
X177.8Y-114.3
X177.8Y-116.84
X177.8Y-119.38
X177.8Y-121.92
X177.8Y-124.46
X177.8Y-127.
X177.8Y-129.54
X177.8Y-132.08
X185.42Y-114.3
X185.42Y-116.84
X185.42Y-119.38
X185.42Y-121.92
X185.42Y-124.46
X185.42Y-127.
X185.42Y-129.54
X185.42Y-132.08
X85.765Y-28.575
X88.265Y-28.575
X198.12Y-24.13
X198.12Y-26.67
X198.12Y-29.21
X198.12Y-31.75
X198.12Y-34.29
X198.12Y-36.83
X198.12Y-39.37
X205.74Y-24.13
X205.74Y-26.67
X205.74Y-29.21
X205.74Y-31.75
X205.74Y-34.29
X205.74Y-36.83
X205.74Y-39.37
X199.39Y-78.74
X199.39Y-81.28
X199.39Y-83.82
X199.39Y-86.36
X199.39Y-88.9
X199.39Y-91.44
X199.39Y-93.98
X207.01Y-78.74
X207.01Y-81.28
X207.01Y-83.82
X207.01Y-86.36
X207.01Y-88.9
X207.01Y-91.44
X207.01Y-93.98
X214.63Y-24.765
X214.63Y-27.305
X214.63Y-29.845
X214.63Y-32.385
X214.63Y-34.925
X214.63Y-37.465
X214.63Y-40.005
X222.25Y-24.765
X222.25Y-27.305
X222.25Y-29.845
X222.25Y-32.385
X222.25Y-34.925
X222.25Y-37.465
X222.25Y-40.005
X100.334Y-14.45
X100.334Y-24.61
X138.43Y-168.91
X138.43Y-173.91
X168.91Y-151.13
X184.15Y-151.13
X168.91Y-147.32
X184.15Y-147.32
X131.445Y-17.145
X131.445Y-22.145
X60.325Y-14.605
X60.325Y-17.145
X60.325Y-19.685
X60.325Y-22.225
X60.325Y-24.765
X60.325Y-27.305
X60.325Y-29.845
X67.945Y-14.605
X67.945Y-17.145
X67.945Y-19.685
X67.945Y-22.225
X67.945Y-24.765
X67.945Y-27.305
X67.945Y-29.845
X173.99Y-177.8
X184.15Y-177.8
X153.67Y-88.9
X153.67Y-91.44
X153.67Y-93.98
X153.67Y-96.52
X153.67Y-99.06
X153.67Y-101.6
X153.67Y-104.14
X161.29Y-88.9
X161.29Y-91.44
X161.29Y-93.98
X161.29Y-96.52
X161.29Y-99.06
X161.29Y-101.6
X161.29Y-104.14
X233.68Y-78.74
X233.68Y-81.28
X233.68Y-83.82
X233.68Y-86.36
X233.68Y-88.9
X233.68Y-91.44
X233.68Y-93.98
X241.3Y-78.74
X241.3Y-81.28
X241.3Y-83.82
X241.3Y-86.36
X241.3Y-88.9
X241.3Y-91.44
X241.3Y-93.98
X68.58Y-66.04
X68.58Y-68.58
X68.58Y-71.12
X68.58Y-73.66
X68.58Y-76.2
X68.58Y-78.74
X68.58Y-81.28
X76.2Y-66.04
X76.2Y-68.58
X76.2Y-71.12
X76.2Y-73.66
X76.2Y-76.2
X76.2Y-78.74
X76.2Y-81.28
X177.8Y-77.47
X177.8Y-80.01
X177.8Y-82.55
X177.8Y-85.09
X177.8Y-87.63
X177.8Y-90.17
X177.8Y-92.71
X185.42Y-77.47
X185.42Y-80.01
X185.42Y-82.55
X185.42Y-85.09
X185.42Y-87.63
X185.42Y-90.17
X185.42Y-92.71
X115.57Y-153.67
X125.73Y-153.67
X177.8Y-52.07
X177.8Y-54.61
X177.8Y-57.15
X177.8Y-59.69
X177.8Y-62.23
X177.8Y-64.77
X177.8Y-67.31
X185.42Y-52.07
X185.42Y-54.61
X185.42Y-57.15
X185.42Y-59.69
X185.42Y-62.23
X185.42Y-64.77
X185.42Y-67.31
X168.91Y-172.72
X179.07Y-172.72
X97.159Y-14.45
X97.159Y-24.61
X168.91Y-163.83
X168.91Y-166.37
X168.91Y-168.91
X176.53Y-163.83
X176.53Y-166.37
X176.53Y-168.91
X89.535Y-142.24
X94.535Y-142.24
X123.19Y-163.83
X123.19Y-166.37
X123.19Y-168.91
X130.81Y-163.83
X130.81Y-166.37
X130.81Y-168.91
X168.91Y-154.94
X184.15Y-154.94
X73.025Y-122.555
X73.025Y-125.095
X73.025Y-127.635
X73.025Y-130.175
X73.025Y-132.715
X73.025Y-135.255
X73.025Y-137.795
X73.025Y-140.335
X80.645Y-122.555
X80.645Y-125.095
X80.645Y-127.635
X80.645Y-130.175
X80.645Y-132.715
X80.645Y-135.255
X80.645Y-137.795
X80.645Y-140.335
X177.8Y-21.59
X177.8Y-24.13
X177.8Y-26.67
X177.8Y-29.21
X177.8Y-31.75
X177.8Y-34.29
X177.8Y-36.83
X177.8Y-39.37
X185.42Y-21.59
X185.42Y-24.13
X185.42Y-26.67
X185.42Y-29.21
X185.42Y-31.75
X185.42Y-34.29
X185.42Y-36.83
X185.42Y-39.37
X250.27Y-42.545
X255.27Y-42.545
X71.755Y-15.875
X71.755Y-23.495
X74.295Y-15.875
X74.295Y-23.495
X76.835Y-15.875
X76.835Y-23.495
X79.375Y-15.875
X79.375Y-23.495
X81.915Y-15.875
X81.915Y-23.495
X84.455Y-15.875
X84.455Y-23.495
X86.995Y-15.875
X86.995Y-23.495
X89.535Y-15.875
X89.535Y-23.495
X99.06Y-41.91
X99.06Y-44.45
X99.06Y-46.99
X99.06Y-49.53
X99.06Y-52.07
X99.06Y-54.61
X99.06Y-57.15
X99.06Y-59.69
X106.68Y-41.91
X106.68Y-44.45
X106.68Y-46.99
X106.68Y-49.53
X106.68Y-52.07
X106.68Y-54.61
X106.68Y-57.15
X106.68Y-59.69
X123.19Y-149.225
X133.35Y-149.225
X213.995Y-52.07
X213.995Y-54.61
X213.995Y-57.15
X213.995Y-59.69
X213.995Y-62.23
X213.995Y-64.77
X213.995Y-67.31
X221.615Y-52.07
X221.615Y-54.61
X221.615Y-57.15
X221.615Y-59.69
X221.615Y-62.23
X221.615Y-64.77
X221.615Y-67.31
X111.76Y-87.63
X111.76Y-90.17
X111.76Y-92.71
X111.76Y-95.25
X111.76Y-97.79
X111.76Y-100.33
X111.76Y-102.87
X119.38Y-87.63
X119.38Y-90.17
X119.38Y-92.71
X119.38Y-95.25
X119.38Y-97.79
X119.38Y-100.33
X119.38Y-102.87
X120.65Y-23.495
X125.65Y-23.495
X254.Y-86.995
X254.Y-102.235
X245.745Y-70.485
X248.245Y-70.485
X99.695Y-173.355
X109.855Y-173.355
X170.815Y-98.425
X170.815Y-106.045
X173.355Y-98.425
X173.355Y-106.045
X175.895Y-98.425
X175.895Y-106.045
X178.435Y-98.425
X178.435Y-106.045
X180.975Y-98.425
X180.975Y-106.045
X183.515Y-98.425
X183.515Y-106.045
X186.055Y-98.425
X186.055Y-106.045
X188.595Y-98.425
X188.595Y-106.045
X116.205Y-140.97
X126.365Y-140.97
X68.58Y-87.63
X68.58Y-90.17
X68.58Y-92.71
X68.58Y-95.25
X68.58Y-97.79
X68.58Y-100.33
X68.58Y-102.87
X76.2Y-87.63
X76.2Y-90.17
X76.2Y-92.71
X76.2Y-95.25
X76.2Y-97.79
X76.2Y-100.33
X76.2Y-102.87
X83.625Y-146.305
X98.865Y-146.305
X83.625Y-149.355
X98.865Y-149.355
X105.41Y-177.8
X115.57Y-177.8
X251.46Y-69.85
X256.46Y-69.85
X73.66Y-182.88
X73.66Y-187.88
X71.755Y-31.75
X81.915Y-31.75
X226.06Y-139.065
X226.06Y-146.685
X228.6Y-139.065
X228.6Y-146.685
X231.14Y-139.065
X231.14Y-146.685
X233.68Y-139.065
X233.68Y-146.685
X236.22Y-139.065
X236.22Y-146.685
X238.76Y-139.065
X238.76Y-146.685
X241.3Y-139.065
X241.3Y-146.685
X243.84Y-139.065
X243.84Y-146.685
X215.265Y-107.95
X215.265Y-110.49
X215.265Y-113.03
X215.265Y-115.57
X215.265Y-118.11
X215.265Y-120.65
X215.265Y-123.19
X215.265Y-125.73
X222.885Y-107.95
X222.885Y-110.49
X222.885Y-113.03
X222.885Y-115.57
X222.885Y-118.11
X222.885Y-120.65
X222.885Y-123.19
X222.885Y-125.73
X51.435Y-55.88
X51.435Y-58.42
X51.435Y-60.96
X51.435Y-63.5
X51.435Y-66.04
X51.435Y-68.58
X51.435Y-71.12
X59.055Y-55.88
X59.055Y-58.42
X59.055Y-60.96
X59.055Y-63.5
X59.055Y-66.04
X59.055Y-68.58
X59.055Y-71.12
X153.67Y-58.42
X153.67Y-60.96
X153.67Y-63.5
X153.67Y-66.04
X153.67Y-68.58
X153.67Y-71.12
X153.67Y-73.66
X161.29Y-58.42
X161.29Y-60.96
X161.29Y-63.5
X161.29Y-66.04
X161.29Y-68.58
X161.29Y-71.12
X161.29Y-73.66
X86.36Y-121.92
X86.36Y-129.54
X88.9Y-121.92
X88.9Y-129.54
X91.44Y-121.92
X91.44Y-129.54
X93.98Y-121.92
X93.98Y-129.54
X96.52Y-121.92
X96.52Y-129.54
X99.06Y-121.92
X99.06Y-129.54
X101.6Y-121.92
X101.6Y-129.54
X62.865Y-151.765
X78.105Y-151.765
X56.515Y-130.89
X56.515Y-135.89
X109.22Y-149.225
X119.38Y-149.225
X119.38Y-173.355
X129.54Y-173.355
X199.39Y-52.07
X199.39Y-54.61
X199.39Y-57.15
X199.39Y-59.69
X199.39Y-62.23
X199.39Y-64.77
X199.39Y-67.31
X207.01Y-52.07
X207.01Y-54.61
X207.01Y-57.15
X207.01Y-59.69
X207.01Y-62.23
X207.01Y-64.77
X207.01Y-67.31
X93.349Y-14.45
X93.349Y-24.61
X244.475Y-78.105
X244.475Y-88.265
X62.905Y-125.095
X65.405Y-125.095
X153.67Y-30.48
X153.67Y-33.02
X153.67Y-35.56
X153.67Y-38.1
X153.67Y-40.64
X153.67Y-43.18
X153.67Y-45.72
X161.29Y-30.48
X161.29Y-33.02
X161.29Y-35.56
X161.29Y-38.1
X161.29Y-40.64
X161.29Y-43.18
X161.29Y-45.72
X213.995Y-78.74
X213.995Y-81.28
X213.995Y-83.82
X213.995Y-86.36
X213.995Y-88.9
X213.995Y-91.44
X213.995Y-93.98
X221.615Y-78.74
X221.615Y-81.28
X221.615Y-83.82
X221.615Y-86.36
X221.615Y-88.9
X221.615Y-91.44
X221.615Y-93.98
X69.85Y-167.64
X85.09Y-167.64
X146.05Y-163.83
X146.05Y-166.37
X146.05Y-168.91
X153.67Y-163.83
X153.67Y-166.37
X153.67Y-168.91
X62.23Y-40.64
X62.23Y-43.18
X62.23Y-45.72
X62.23Y-48.26
X69.85Y-40.64
X69.85Y-43.18
X69.85Y-45.72
X69.85Y-48.26
X71.832Y-35.446
X81.992Y-35.446
X64.215Y-143.51
X69.215Y-143.51
T5
X221.345Y-141.418
X221.345Y-151.578
X206.105Y-141.418
X206.105Y-151.578
X217.535Y-141.418
X217.535Y-151.578
X213.725Y-141.418
X213.725Y-151.578
X198.485Y-141.418
X198.485Y-151.578
X194.675Y-141.418
X194.675Y-151.578
X209.915Y-141.418
X209.915Y-151.578
X202.295Y-141.418
X202.295Y-151.578
T6
X227.33Y-173.91
X229.87Y-173.91
X252.73Y-173.91
X255.27Y-173.91
X245.11Y-163.75
X247.65Y-163.75
X201.93Y-168.83
X204.47Y-168.83
X210.82Y-158.67
X213.36Y-158.67
X201.93Y-158.67
X204.47Y-158.67
X240.19Y-28.575
X245.19Y-28.575
X250.19Y-28.575
X255.19Y-28.575
X210.82Y-168.83
X213.36Y-168.83
X194.31Y-163.75
X196.85Y-163.75
X109.855Y-140.97
X112.395Y-140.97
X218.44Y-163.75
X220.98Y-163.75
X252.73Y-178.99
X255.27Y-178.99
X201.93Y-173.91
X204.47Y-173.91
X161.29Y-144.78
X161.29Y-147.32
X218.44Y-158.67
X220.98Y-158.67
X83.82Y-103.505
X86.36Y-103.505
X218.44Y-173.91
X220.98Y-173.91
X129.54Y-153.67
X132.08Y-153.67
X149.86Y-144.78
X149.86Y-147.32
X251.46Y-78.74
X256.46Y-78.74
X245.11Y-158.67
X247.65Y-158.67
X210.82Y-163.75
X213.36Y-163.75
X210.82Y-178.99
X213.36Y-178.99
X121.92Y-177.8
X124.46Y-177.8
X218.44Y-168.83
X220.98Y-168.83
X167.64Y-177.8
X170.18Y-177.8
X236.22Y-158.67
X238.76Y-158.67
X62.865Y-130.175
X65.405Y-130.175
X218.44Y-178.99
X220.98Y-178.99
X144.78Y-16.51
X144.78Y-19.05
X144.78Y-21.59
X210.82Y-173.91
X213.36Y-173.91
X201.93Y-178.99
X204.47Y-178.99
X153.67Y-144.78
X153.67Y-147.32
X236.22Y-173.91
X238.76Y-173.91
X194.31Y-178.99
X196.85Y-178.99
X194.31Y-168.83
X196.85Y-168.83
X201.93Y-163.75
X204.47Y-163.75
X245.11Y-178.99
X247.65Y-178.99
X194.31Y-158.67
X196.85Y-158.67
X236.22Y-178.99
X238.76Y-178.99
X227.33Y-168.83
X229.87Y-168.83
X252.73Y-163.75
X255.27Y-163.75
X194.31Y-173.91
X196.85Y-173.91
X245.11Y-173.91
X247.65Y-173.91
X99.06Y-177.8
X101.6Y-177.8
X144.78Y-177.8
X147.32Y-177.8
X245.11Y-168.83
X247.65Y-168.83
X80.01Y-81.28
X82.55Y-81.28
X62.865Y-139.065
X65.405Y-139.065
X252.73Y-158.67
X255.27Y-158.67
X157.48Y-144.78
X157.48Y-147.32
X130.175Y-145.415
X132.715Y-145.415
X62.865Y-135.255
X65.405Y-135.255
X109.855Y-153.67
X112.395Y-153.67
X227.33Y-163.75
X229.87Y-163.75
X227.33Y-158.67
X229.87Y-158.67
X109.855Y-145.415
X112.395Y-145.415
X130.175Y-140.97
X132.715Y-140.97
X236.22Y-168.83
X238.76Y-168.83
X252.73Y-168.83
X255.27Y-168.83
X227.33Y-178.99
X229.87Y-178.99
X236.22Y-163.75
X238.76Y-163.75
T7
X55.88Y-29.21
X55.88Y-34.29
X135.89Y-165.735
X138.43Y-165.735
X140.97Y-165.735
X48.895Y-23.495
X48.895Y-26.035
X48.895Y-28.575
X55.88Y-18.415
X55.88Y-23.495
X238.76Y-52.705
X238.76Y-57.785
X248.92Y-116.205
X251.46Y-116.205
X254.Y-116.205
X158.75Y-165.735
X161.29Y-165.735
X163.83Y-165.735
X47.447Y-44.401
X57.607Y-44.401
X47.447Y-49.481
X57.607Y-49.481
X247.015Y-121.92
X257.175Y-121.92
X120.015Y-16.51
X125.095Y-16.51
X47.447Y-39.37
X57.607Y-39.37
X181.61Y-165.735
X184.15Y-165.735
X186.69Y-165.735
X113.03Y-165.735
X115.57Y-165.735
X118.11Y-165.735
T8
X238.84Y-40.005
X243.84Y-40.005
X123.825Y-128.905
X139.065Y-128.905
X123.825Y-123.825
X139.065Y-123.825
X107.315Y-21.59
X112.315Y-21.59
X123.825Y-118.745
X139.065Y-118.745
X123.825Y-133.985
X139.065Y-133.985
T6
X244.475Y-20.05G85X244.475Y-18.05
G05
X248.475Y-14.35G85X246.475Y-14.35
G05
X250.475Y-20.05G85X250.475Y-18.05
G05
T0
M30
