G04 #@! TF.GenerationSoftware,KiCad,Pcbnew,5.0.2-5.fc29*
G04 #@! TF.CreationDate,2019-12-11T00:28:22+02:00*
G04 #@! TF.ProjectId,circuit_design,63697263-7569-4745-9f64-657369676e2e,rev?*
G04 #@! TF.SameCoordinates,Original*
G04 #@! TF.FileFunction,Copper,L1,Top*
G04 #@! TF.FilePolarity,Positive*
%FSLAX46Y46*%
G04 Gerber Fmt 4.6, Leading zero omitted, Abs format (unit mm)*
G04 Created by KiCad (PCBNEW 5.0.2-5.fc29) date Wed 11 Dec 2019 12:28:22 AM EET*
%MOMM*%
%LPD*%
G01*
G04 APERTURE LIST*
G04 #@! TA.AperFunction,ComponentPad*
%ADD10R,2.400000X1.600000*%
G04 #@! TD*
G04 #@! TA.AperFunction,ComponentPad*
%ADD11O,2.400000X1.600000*%
G04 #@! TD*
G04 #@! TA.AperFunction,ComponentPad*
%ADD12C,1.600000*%
G04 #@! TD*
G04 #@! TA.AperFunction,ComponentPad*
%ADD13O,1.600000X1.600000*%
G04 #@! TD*
G04 #@! TA.AperFunction,ComponentPad*
%ADD14O,1.600000X2.400000*%
G04 #@! TD*
G04 #@! TA.AperFunction,ComponentPad*
%ADD15R,1.600000X2.400000*%
G04 #@! TD*
G04 #@! TA.AperFunction,ComponentPad*
%ADD16R,2.000000X2.000000*%
G04 #@! TD*
G04 #@! TA.AperFunction,ComponentPad*
%ADD17C,2.000000*%
G04 #@! TD*
G04 #@! TA.AperFunction,ComponentPad*
%ADD18C,2.400000*%
G04 #@! TD*
G04 #@! TA.AperFunction,ComponentPad*
%ADD19R,2.400000X2.400000*%
G04 #@! TD*
G04 #@! TA.AperFunction,ComponentPad*
%ADD20R,1.200000X1.200000*%
G04 #@! TD*
G04 #@! TA.AperFunction,ComponentPad*
%ADD21C,1.200000*%
G04 #@! TD*
G04 #@! TA.AperFunction,ComponentPad*
%ADD22R,1.600000X1.600000*%
G04 #@! TD*
G04 #@! TA.AperFunction,ComponentPad*
%ADD23R,3.500000X3.500000*%
G04 #@! TD*
G04 #@! TA.AperFunction,Conductor*
%ADD24C,0.100000*%
G04 #@! TD*
G04 #@! TA.AperFunction,ComponentPad*
%ADD25C,3.000000*%
G04 #@! TD*
G04 #@! TA.AperFunction,ComponentPad*
%ADD26C,3.500000*%
G04 #@! TD*
G04 #@! TA.AperFunction,ComponentPad*
%ADD27R,1.700000X1.700000*%
G04 #@! TD*
G04 #@! TA.AperFunction,ComponentPad*
%ADD28O,1.700000X1.700000*%
G04 #@! TD*
G04 #@! TA.AperFunction,ComponentPad*
%ADD29O,2.200000X2.200000*%
G04 #@! TD*
G04 #@! TA.AperFunction,ComponentPad*
%ADD30R,2.200000X2.200000*%
G04 #@! TD*
G04 #@! TA.AperFunction,SMDPad,CuDef*
%ADD31R,1.500000X2.200000*%
G04 #@! TD*
G04 #@! TA.AperFunction,SMDPad,CuDef*
%ADD32R,1.750000X0.550000*%
G04 #@! TD*
G04 #@! TA.AperFunction,SMDPad,CuDef*
%ADD33R,1.100000X4.600000*%
G04 #@! TD*
G04 #@! TA.AperFunction,SMDPad,CuDef*
%ADD34R,10.800000X9.400000*%
G04 #@! TD*
G04 #@! TA.AperFunction,ComponentPad*
%ADD35O,2.000000X2.000000*%
G04 #@! TD*
G04 #@! TA.AperFunction,ComponentPad*
%ADD36O,2.000000X1.905000*%
G04 #@! TD*
G04 #@! TA.AperFunction,ComponentPad*
%ADD37R,2.000000X1.905000*%
G04 #@! TD*
G04 #@! TA.AperFunction,ComponentPad*
%ADD38R,1.905000X2.000000*%
G04 #@! TD*
G04 #@! TA.AperFunction,ComponentPad*
%ADD39O,1.905000X2.000000*%
G04 #@! TD*
G04 #@! TA.AperFunction,ComponentPad*
%ADD40O,2.400000X2.400000*%
G04 #@! TD*
G04 #@! TA.AperFunction,ComponentPad*
%ADD41O,1.800000X1.800000*%
G04 #@! TD*
G04 #@! TA.AperFunction,ComponentPad*
%ADD42R,1.800000X1.800000*%
G04 #@! TD*
G04 #@! TA.AperFunction,ComponentPad*
%ADD43C,1.000000*%
G04 #@! TD*
G04 #@! TA.AperFunction,ViaPad*
%ADD44C,0.800000*%
G04 #@! TD*
G04 #@! TA.AperFunction,Conductor*
%ADD45C,0.500000*%
G04 #@! TD*
G04 APERTURE END LIST*
D10*
G04 #@! TO.P,U9,1*
G04 #@! TO.N,Net-(U11-Pad12)*
X153670000Y-58420000D03*
D11*
G04 #@! TO.P,U9,8*
G04 #@! TO.N,Net-(U12-Pad4)*
X161290000Y-73660000D03*
G04 #@! TO.P,U9,2*
G04 #@! TO.N,Net-(U4-Pad2)*
X153670000Y-60960000D03*
G04 #@! TO.P,U9,9*
G04 #@! TO.N,Net-(U11-Pad13)*
X161290000Y-71120000D03*
G04 #@! TO.P,U9,3*
G04 #@! TO.N,Net-(U4-Pad2)*
X153670000Y-63500000D03*
G04 #@! TO.P,U9,10*
G04 #@! TO.N,GND*
X161290000Y-68580000D03*
G04 #@! TO.P,U9,4*
G04 #@! TO.N,Net-(U9-Pad4)*
X153670000Y-66040000D03*
G04 #@! TO.P,U9,11*
G04 #@! TO.N,Net-(U12-Pad5)*
X161290000Y-66040000D03*
G04 #@! TO.P,U9,5*
G04 #@! TO.N,+5V*
X153670000Y-68580000D03*
G04 #@! TO.P,U9,12*
G04 #@! TO.N,Net-(U11-Pad12)*
X161290000Y-63500000D03*
G04 #@! TO.P,U9,6*
G04 #@! TO.N,Net-(U9-Pad6)*
X153670000Y-71120000D03*
G04 #@! TO.P,U9,13*
G04 #@! TO.N,Net-(U9-Pad13)*
X161290000Y-60960000D03*
G04 #@! TO.P,U9,7*
G04 #@! TO.N,Net-(U9-Pad7)*
X153670000Y-73660000D03*
G04 #@! TO.P,U9,14*
G04 #@! TO.N,Net-(U11-Pad6)*
X161290000Y-58420000D03*
G04 #@! TD*
D12*
G04 #@! TO.P,R_OUT_4,1*
G04 #@! TO.N,Net-(C_OUT_4-Pad2)*
X184150000Y-177800000D03*
D13*
G04 #@! TO.P,R_OUT_4,2*
G04 #@! TO.N,Net-(CONN_PWR_LINE4_16-Pad1)*
X173990000Y-177800000D03*
G04 #@! TD*
D12*
G04 #@! TO.P,R_OUT_3,1*
G04 #@! TO.N,Net-(C_OUT_3-Pad2)*
X161290000Y-177800000D03*
D13*
G04 #@! TO.P,R_OUT_3,2*
G04 #@! TO.N,Net-(CONN_PWR_LINE3_15-Pad1)*
X151130000Y-177800000D03*
G04 #@! TD*
D12*
G04 #@! TO.P,R_OUT_2,1*
G04 #@! TO.N,Net-(C_OUT_2-Pad2)*
X138430000Y-177800000D03*
D13*
G04 #@! TO.P,R_OUT_2,2*
G04 #@! TO.N,Net-(CONN_PWR_LINE2_14-Pad1)*
X128270000Y-177800000D03*
G04 #@! TD*
D12*
G04 #@! TO.P,R_OUT_1,1*
G04 #@! TO.N,Net-(C_OUT_1-Pad2)*
X115570000Y-177800000D03*
D13*
G04 #@! TO.P,R_OUT_1,2*
G04 #@! TO.N,Net-(CONN_PWR_LINE1_13-Pad1)*
X105410000Y-177800000D03*
G04 #@! TD*
G04 #@! TO.P,R4,2*
G04 #@! TO.N,Net-(C1-Pad1)*
X115570000Y-153670000D03*
D12*
G04 #@! TO.P,R4,1*
G04 #@! TO.N,+5V*
X125730000Y-153670000D03*
G04 #@! TD*
D13*
G04 #@! TO.P,R7,2*
G04 #@! TO.N,GND*
X133350000Y-149225000D03*
D12*
G04 #@! TO.P,R7,1*
G04 #@! TO.N,Net-(CONN_LED_PWR_4-Pad2)*
X123190000Y-149225000D03*
G04 #@! TD*
D13*
G04 #@! TO.P,R3,2*
G04 #@! TO.N,GND*
X126365000Y-145415000D03*
D12*
G04 #@! TO.P,R3,1*
G04 #@! TO.N,Net-(CONN_LED_RAIN1_7-Pad2)*
X116205000Y-145415000D03*
G04 #@! TD*
D13*
G04 #@! TO.P,R2,2*
G04 #@! TO.N,GND*
X126365000Y-140970000D03*
D12*
G04 #@! TO.P,R2,1*
G04 #@! TO.N,Net-(CONN_LED_RUNNING_8-Pad2)*
X116205000Y-140970000D03*
G04 #@! TD*
D10*
G04 #@! TO.P,U39,1*
G04 #@! TO.N,Net-(R28-Pad2)*
X60325000Y-14605000D03*
D11*
G04 #@! TO.P,U39,8*
G04 #@! TO.N,N/C*
X67945000Y-29845000D03*
G04 #@! TO.P,U39,2*
G04 #@! TO.N,Net-(U17-Pad11)*
X60325000Y-17145000D03*
G04 #@! TO.P,U39,9*
G04 #@! TO.N,N/C*
X67945000Y-27305000D03*
G04 #@! TO.P,U39,3*
X60325000Y-19685000D03*
G04 #@! TO.P,U39,10*
X67945000Y-24765000D03*
G04 #@! TO.P,U39,4*
X60325000Y-22225000D03*
G04 #@! TO.P,U39,11*
X67945000Y-22225000D03*
G04 #@! TO.P,U39,5*
X60325000Y-24765000D03*
G04 #@! TO.P,U39,12*
X67945000Y-19685000D03*
G04 #@! TO.P,U39,6*
X60325000Y-27305000D03*
G04 #@! TO.P,U39,13*
X67945000Y-17145000D03*
G04 #@! TO.P,U39,7*
G04 #@! TO.N,GND*
X60325000Y-29845000D03*
G04 #@! TO.P,U39,14*
G04 #@! TO.N,+5V*
X67945000Y-14605000D03*
G04 #@! TD*
D14*
G04 #@! TO.P,U7,16*
G04 #@! TO.N,+5V*
X89535000Y-23495000D03*
G04 #@! TO.P,U7,8*
G04 #@! TO.N,GND*
X71755000Y-15875000D03*
G04 #@! TO.P,U7,15*
G04 #@! TO.N,Net-(U7-Pad15)*
X86995000Y-23495000D03*
G04 #@! TO.P,U7,7*
G04 #@! TO.N,Net-(U7-Pad7)*
X74295000Y-15875000D03*
G04 #@! TO.P,U7,14*
G04 #@! TO.N,Net-(U34-Pad13)*
X84455000Y-23495000D03*
G04 #@! TO.P,U7,6*
G04 #@! TO.N,Net-(U7-Pad6)*
X76835000Y-15875000D03*
G04 #@! TO.P,U7,13*
G04 #@! TO.N,Net-(U34-Pad1)*
X81915000Y-23495000D03*
G04 #@! TO.P,U7,5*
G04 #@! TO.N,Net-(U7-Pad5)*
X79375000Y-15875000D03*
G04 #@! TO.P,U7,12*
G04 #@! TO.N,Net-(U34-Pad2)*
X79375000Y-23495000D03*
G04 #@! TO.P,U7,4*
G04 #@! TO.N,Net-(U7-Pad4)*
X81915000Y-15875000D03*
G04 #@! TO.P,U7,11*
G04 #@! TO.N,Net-(R28-Pad2)*
X76835000Y-23495000D03*
G04 #@! TO.P,U7,3*
G04 #@! TO.N,Net-(U7-Pad3)*
X84455000Y-15875000D03*
G04 #@! TO.P,U7,10*
G04 #@! TO.N,CLK_MIN*
X74295000Y-23495000D03*
G04 #@! TO.P,U7,2*
G04 #@! TO.N,Net-(U7-Pad2)*
X86995000Y-15875000D03*
G04 #@! TO.P,U7,9*
G04 #@! TO.N,Net-(U7-Pad9)*
X71755000Y-23495000D03*
D15*
G04 #@! TO.P,U7,1*
G04 #@! TO.N,Net-(U7-Pad1)*
X89535000Y-15875000D03*
G04 #@! TD*
D13*
G04 #@! TO.P,R17,2*
G04 #@! TO.N,GND*
X93349425Y-14449756D03*
D12*
G04 #@! TO.P,R17,1*
G04 #@! TO.N,Net-(R17-Pad1)*
X93349425Y-24609756D03*
G04 #@! TD*
D14*
G04 #@! TO.P,U36,14*
G04 #@! TO.N,+5V*
X101600000Y-129540000D03*
G04 #@! TO.P,U36,7*
G04 #@! TO.N,GND*
X86360000Y-121920000D03*
G04 #@! TO.P,U36,13*
G04 #@! TO.N,N/C*
X99060000Y-129540000D03*
G04 #@! TO.P,U36,6*
X88900000Y-121920000D03*
G04 #@! TO.P,U36,12*
X96520000Y-129540000D03*
G04 #@! TO.P,U36,5*
X91440000Y-121920000D03*
G04 #@! TO.P,U36,11*
X93980000Y-129540000D03*
G04 #@! TO.P,U36,4*
X93980000Y-121920000D03*
G04 #@! TO.P,U36,10*
X91440000Y-129540000D03*
G04 #@! TO.P,U36,3*
X96520000Y-121920000D03*
G04 #@! TO.P,U36,9*
X88900000Y-129540000D03*
G04 #@! TO.P,U36,2*
G04 #@! TO.N,/Control(Ext.)*
X99060000Y-121920000D03*
G04 #@! TO.P,U36,8*
G04 #@! TO.N,N/C*
X86360000Y-129540000D03*
D15*
G04 #@! TO.P,U36,1*
G04 #@! TO.N,Net-(C1-Pad1)*
X101600000Y-121920000D03*
G04 #@! TD*
D12*
G04 #@! TO.P,R25,1*
G04 #@! TO.N,Net-(R25-Pad1)*
X168910000Y-172720000D03*
D13*
G04 #@! TO.P,R25,2*
G04 #@! TO.N,VAC*
X179070000Y-172720000D03*
G04 #@! TD*
G04 #@! TO.P,R24,2*
G04 #@! TO.N,VAC*
X152400000Y-172720000D03*
D12*
G04 #@! TO.P,R24,1*
G04 #@! TO.N,Net-(R24-Pad1)*
X142240000Y-172720000D03*
G04 #@! TD*
G04 #@! TO.P,R23,1*
G04 #@! TO.N,Net-(R23-Pad1)*
X119380000Y-173355000D03*
D13*
G04 #@! TO.P,R23,2*
G04 #@! TO.N,VAC*
X129540000Y-173355000D03*
G04 #@! TD*
G04 #@! TO.P,R22,2*
G04 #@! TO.N,VAC*
X109855000Y-173355000D03*
D12*
G04 #@! TO.P,R22,1*
G04 #@! TO.N,Net-(R22-Pad1)*
X99695000Y-173355000D03*
G04 #@! TD*
D16*
G04 #@! TO.P,C_PWR_5,1*
G04 #@! TO.N,+9V*
X251460000Y-78740000D03*
D17*
G04 #@! TO.P,C_PWR_5,2*
G04 #@! TO.N,GND*
X256460000Y-78740000D03*
G04 #@! TD*
D18*
G04 #@! TO.P,C7,2*
G04 #@! TO.N,GND*
X112315000Y-21590000D03*
D19*
G04 #@! TO.P,C7,1*
G04 #@! TO.N,PWR_ALW*
X107315000Y-21590000D03*
G04 #@! TD*
G04 #@! TO.P,C_PWR_1,1*
G04 #@! TO.N,Net-(C_PWR_1-Pad1)*
X243840000Y-40005000D03*
D18*
G04 #@! TO.P,C_PWR_1,2*
G04 #@! TO.N,GND*
X238840000Y-40005000D03*
G04 #@! TD*
D20*
G04 #@! TO.P,C12,1*
G04 #@! TO.N,BATT_OUT_+*
X138430000Y-17145000D03*
D21*
G04 #@! TO.P,C12,2*
G04 #@! TO.N,GND*
X138430000Y-19145000D03*
G04 #@! TD*
D22*
G04 #@! TO.P,C8,1*
G04 #@! TO.N,+9V*
X88265000Y-28575000D03*
D12*
G04 #@! TO.P,C8,2*
G04 #@! TO.N,GND*
X85765000Y-28575000D03*
G04 #@! TD*
G04 #@! TO.P,C10,2*
G04 #@! TO.N,Net-(C10-Pad2)*
X63540000Y-35560000D03*
D22*
G04 #@! TO.P,C10,1*
G04 #@! TO.N,Net-(C10-Pad1)*
X66040000Y-35560000D03*
G04 #@! TD*
G04 #@! TO.P,C13,1*
G04 #@! TO.N,Net-(C13-Pad1)*
X245745000Y-70485000D03*
D12*
G04 #@! TO.P,C13,2*
G04 #@! TO.N,GND*
X248245000Y-70485000D03*
G04 #@! TD*
G04 #@! TO.P,C_PWR_6,1*
G04 #@! TO.N,+9V*
X248285000Y-108585000D03*
G04 #@! TO.P,C_PWR_6,2*
G04 #@! TO.N,Net-(C_PWR_6-Pad2)*
X253285000Y-108585000D03*
G04 #@! TD*
G04 #@! TO.P,C4,2*
G04 #@! TO.N,GND*
X56515000Y-130890000D03*
G04 #@! TO.P,C4,1*
G04 #@! TO.N,/Control(Ext.2)*
X56515000Y-135890000D03*
G04 #@! TD*
G04 #@! TO.P,C5,1*
G04 #@! TO.N,/Mode(Ext.)*
X64215000Y-143510000D03*
G04 #@! TO.P,C5,2*
G04 #@! TO.N,GND*
X69215000Y-143510000D03*
G04 #@! TD*
G04 #@! TO.P,C6,2*
G04 #@! TO.N,GND*
X94535000Y-142240000D03*
G04 #@! TO.P,C6,1*
G04 #@! TO.N,/Rain_Sensor(Ext.)*
X89535000Y-142240000D03*
G04 #@! TD*
G04 #@! TO.P,C11,1*
G04 #@! TO.N,BATT_OUT_+*
X131445000Y-17145000D03*
G04 #@! TO.P,C11,2*
G04 #@! TO.N,GND*
X131445000Y-22145000D03*
G04 #@! TD*
G04 #@! TO.P,C_OUT_1,1*
G04 #@! TO.N,VAC*
X115570000Y-168910000D03*
G04 #@! TO.P,C_OUT_1,2*
G04 #@! TO.N,Net-(C_OUT_1-Pad2)*
X115570000Y-173910000D03*
G04 #@! TD*
G04 #@! TO.P,C9,1*
G04 #@! TO.N,PWR_ALW*
X120650000Y-23495000D03*
G04 #@! TO.P,C9,2*
G04 #@! TO.N,GND*
X125650000Y-23495000D03*
G04 #@! TD*
G04 #@! TO.P,C_OUT_2,1*
G04 #@! TO.N,VAC*
X138430000Y-168910000D03*
G04 #@! TO.P,C_OUT_2,2*
G04 #@! TO.N,Net-(C_OUT_2-Pad2)*
X138430000Y-173910000D03*
G04 #@! TD*
G04 #@! TO.P,C_OUT_3,2*
G04 #@! TO.N,Net-(C_OUT_3-Pad2)*
X161290000Y-173910000D03*
G04 #@! TO.P,C_OUT_3,1*
G04 #@! TO.N,VAC*
X161290000Y-168910000D03*
G04 #@! TD*
G04 #@! TO.P,C_OUT_4,1*
G04 #@! TO.N,VAC*
X184150000Y-168910000D03*
G04 #@! TO.P,C_OUT_4,2*
G04 #@! TO.N,Net-(C_OUT_4-Pad2)*
X184150000Y-173910000D03*
G04 #@! TD*
G04 #@! TO.P,C_PWR_2,1*
G04 #@! TO.N,Net-(C_PWR_1-Pad1)*
X255270000Y-35560000D03*
G04 #@! TO.P,C_PWR_2,2*
G04 #@! TO.N,GND*
X250270000Y-35560000D03*
G04 #@! TD*
G04 #@! TO.P,C_PWR_3,2*
G04 #@! TO.N,Net-(C_PWR_3-Pad2)*
X250270000Y-42545000D03*
G04 #@! TO.P,C_PWR_3,1*
G04 #@! TO.N,Net-(C_PWR_1-Pad1)*
X255270000Y-42545000D03*
G04 #@! TD*
G04 #@! TO.P,C_PWR_4,1*
G04 #@! TO.N,+9V*
X251460000Y-69850000D03*
G04 #@! TO.P,C_PWR_4,2*
G04 #@! TO.N,GND*
X256460000Y-69850000D03*
G04 #@! TD*
D23*
G04 #@! TO.P,J_PWR_1,1*
G04 #@! TO.N,VAC*
X244475000Y-19050000D03*
D24*
G04 #@! TD*
G04 #@! TO.N,GNDREF*
G04 #@! TO.C,J_PWR_1*
G36*
X251298513Y-17303611D02*
X251371318Y-17314411D01*
X251442714Y-17332295D01*
X251512013Y-17357090D01*
X251578548Y-17388559D01*
X251641678Y-17426398D01*
X251700795Y-17470242D01*
X251755330Y-17519670D01*
X251804758Y-17574205D01*
X251848602Y-17633322D01*
X251886441Y-17696452D01*
X251917910Y-17762987D01*
X251942705Y-17832286D01*
X251960589Y-17903682D01*
X251971389Y-17976487D01*
X251975000Y-18050000D01*
X251975000Y-20050000D01*
X251971389Y-20123513D01*
X251960589Y-20196318D01*
X251942705Y-20267714D01*
X251917910Y-20337013D01*
X251886441Y-20403548D01*
X251848602Y-20466678D01*
X251804758Y-20525795D01*
X251755330Y-20580330D01*
X251700795Y-20629758D01*
X251641678Y-20673602D01*
X251578548Y-20711441D01*
X251512013Y-20742910D01*
X251442714Y-20767705D01*
X251371318Y-20785589D01*
X251298513Y-20796389D01*
X251225000Y-20800000D01*
X249725000Y-20800000D01*
X249651487Y-20796389D01*
X249578682Y-20785589D01*
X249507286Y-20767705D01*
X249437987Y-20742910D01*
X249371452Y-20711441D01*
X249308322Y-20673602D01*
X249249205Y-20629758D01*
X249194670Y-20580330D01*
X249145242Y-20525795D01*
X249101398Y-20466678D01*
X249063559Y-20403548D01*
X249032090Y-20337013D01*
X249007295Y-20267714D01*
X248989411Y-20196318D01*
X248978611Y-20123513D01*
X248975000Y-20050000D01*
X248975000Y-18050000D01*
X248978611Y-17976487D01*
X248989411Y-17903682D01*
X249007295Y-17832286D01*
X249032090Y-17762987D01*
X249063559Y-17696452D01*
X249101398Y-17633322D01*
X249145242Y-17574205D01*
X249194670Y-17519670D01*
X249249205Y-17470242D01*
X249308322Y-17426398D01*
X249371452Y-17388559D01*
X249437987Y-17357090D01*
X249507286Y-17332295D01*
X249578682Y-17314411D01*
X249651487Y-17303611D01*
X249725000Y-17300000D01*
X251225000Y-17300000D01*
X251298513Y-17303611D01*
X251298513Y-17303611D01*
G37*
D25*
G04 #@! TO.P,J_PWR_1,2*
G04 #@! TO.N,GNDREF*
X250475000Y-19050000D03*
D24*
G04 #@! TD*
G04 #@! TO.N,N/C*
G04 #@! TO.C,J_PWR_1*
G36*
X248435765Y-12604213D02*
X248520704Y-12616813D01*
X248603999Y-12637677D01*
X248684848Y-12666605D01*
X248762472Y-12703319D01*
X248836124Y-12747464D01*
X248905094Y-12798616D01*
X248968718Y-12856282D01*
X249026384Y-12919906D01*
X249077536Y-12988876D01*
X249121681Y-13062528D01*
X249158395Y-13140152D01*
X249187323Y-13221001D01*
X249208187Y-13304296D01*
X249220787Y-13389235D01*
X249225000Y-13475000D01*
X249225000Y-15225000D01*
X249220787Y-15310765D01*
X249208187Y-15395704D01*
X249187323Y-15478999D01*
X249158395Y-15559848D01*
X249121681Y-15637472D01*
X249077536Y-15711124D01*
X249026384Y-15780094D01*
X248968718Y-15843718D01*
X248905094Y-15901384D01*
X248836124Y-15952536D01*
X248762472Y-15996681D01*
X248684848Y-16033395D01*
X248603999Y-16062323D01*
X248520704Y-16083187D01*
X248435765Y-16095787D01*
X248350000Y-16100000D01*
X246600000Y-16100000D01*
X246514235Y-16095787D01*
X246429296Y-16083187D01*
X246346001Y-16062323D01*
X246265152Y-16033395D01*
X246187528Y-15996681D01*
X246113876Y-15952536D01*
X246044906Y-15901384D01*
X245981282Y-15843718D01*
X245923616Y-15780094D01*
X245872464Y-15711124D01*
X245828319Y-15637472D01*
X245791605Y-15559848D01*
X245762677Y-15478999D01*
X245741813Y-15395704D01*
X245729213Y-15310765D01*
X245725000Y-15225000D01*
X245725000Y-13475000D01*
X245729213Y-13389235D01*
X245741813Y-13304296D01*
X245762677Y-13221001D01*
X245791605Y-13140152D01*
X245828319Y-13062528D01*
X245872464Y-12988876D01*
X245923616Y-12919906D01*
X245981282Y-12856282D01*
X246044906Y-12798616D01*
X246113876Y-12747464D01*
X246187528Y-12703319D01*
X246265152Y-12666605D01*
X246346001Y-12637677D01*
X246429296Y-12616813D01*
X246514235Y-12604213D01*
X246600000Y-12600000D01*
X248350000Y-12600000D01*
X248435765Y-12604213D01*
X248435765Y-12604213D01*
G37*
D26*
G04 #@! TO.P,J_PWR_1,3*
G04 #@! TO.N,N/C*
X247475000Y-14350000D03*
G04 #@! TD*
D27*
G04 #@! TO.P,CONN_BATT_REPLACE_LED_1,1*
G04 #@! TO.N,Net-(CONN_BATT_REPLACE_LED_1-Pad1)*
X129540000Y-153670000D03*
D28*
G04 #@! TO.P,CONN_BATT_REPLACE_LED_1,2*
G04 #@! TO.N,Net-(CONN_BATT_REPLACE_LED_1-Pad2)*
X132080000Y-153670000D03*
G04 #@! TD*
D27*
G04 #@! TO.P,J1,1*
G04 #@! TO.N,BATT_OUT_+*
X144780000Y-16510000D03*
D28*
G04 #@! TO.P,J1,2*
G04 #@! TO.N,BATT_OUT_MID*
X144780000Y-19050000D03*
G04 #@! TO.P,J1,3*
G04 #@! TO.N,GND*
X144780000Y-21590000D03*
G04 #@! TD*
G04 #@! TO.P,CONN_SW_DPST02_TIMER_1,2*
G04 #@! TO.N,Net-(JCONN_SW_DPST02_TIMER_1-Pad2)*
X86360000Y-103505000D03*
D27*
G04 #@! TO.P,CONN_SW_DPST02_TIMER_1,1*
G04 #@! TO.N,Net-(JCONN_SW_DPST02_TIMER_1-Pad1)*
X83820000Y-103505000D03*
G04 #@! TD*
G04 #@! TO.P,CONN_SW_DPST01_TIMER_1,1*
G04 #@! TO.N,Net-(CONN_SW_DPST01_TIMER_1-Pad1)*
X80010000Y-81280000D03*
D28*
G04 #@! TO.P,CONN_SW_DPST01_TIMER_1,2*
G04 #@! TO.N,Net-(CONN_SW_DPST01_TIMER_1-Pad2)*
X82550000Y-81280000D03*
G04 #@! TD*
D29*
G04 #@! TO.P,D9,2*
G04 #@! TO.N,Net-(D10-Pad1)*
X57607440Y-44400857D03*
D30*
G04 #@! TO.P,D9,1*
G04 #@! TO.N,PWR_ALW*
X47447440Y-44400857D03*
G04 #@! TD*
G04 #@! TO.P,D11,1*
G04 #@! TO.N,PWR_ALW*
X47447440Y-39370000D03*
D29*
G04 #@! TO.P,D11,2*
G04 #@! TO.N,Net-(D11-Pad2)*
X57607440Y-39370000D03*
G04 #@! TD*
G04 #@! TO.P,D12,2*
G04 #@! TO.N,Net-(D11-Pad2)*
X257175000Y-121920000D03*
D30*
G04 #@! TO.P,D12,1*
G04 #@! TO.N,+5V*
X247015000Y-121920000D03*
G04 #@! TD*
G04 #@! TO.P,D10,1*
G04 #@! TO.N,Net-(D10-Pad1)*
X57607440Y-49480857D03*
D29*
G04 #@! TO.P,D10,2*
G04 #@! TO.N,Net-(D10-Pad2)*
X47447440Y-49480857D03*
G04 #@! TD*
D17*
G04 #@! TO.P,DB_PWR_1,4*
G04 #@! TO.N,GND*
X240190000Y-28575000D03*
G04 #@! TO.P,DB_PWR_1,3*
G04 #@! TO.N,VAC*
X245190000Y-28575000D03*
G04 #@! TO.P,DB_PWR_1,2*
G04 #@! TO.N,GNDREF*
X250190000Y-28575000D03*
D16*
G04 #@! TO.P,DB_PWR_1,1*
G04 #@! TO.N,Net-(C_PWR_1-Pad1)*
X255190000Y-28575000D03*
G04 #@! TD*
D31*
G04 #@! TO.P,L1,1*
G04 #@! TO.N,Net-(D_PWR_1-Pad1)*
X236195000Y-64770000D03*
G04 #@! TO.P,L1,2*
G04 #@! TO.N,+9V*
X242595000Y-64770000D03*
G04 #@! TD*
D15*
G04 #@! TO.P,U37,1*
G04 #@! TO.N,Net-(U37-Pad1)*
X170815000Y-106045000D03*
D14*
G04 #@! TO.P,U37,9*
G04 #@! TO.N,Net-(U37-Pad9)*
X188595000Y-98425000D03*
G04 #@! TO.P,U37,2*
G04 #@! TO.N,Net-(U37-Pad2)*
X173355000Y-106045000D03*
G04 #@! TO.P,U37,10*
G04 #@! TO.N,CLK_MIN*
X186055000Y-98425000D03*
G04 #@! TO.P,U37,3*
G04 #@! TO.N,Net-(U37-Pad3)*
X175895000Y-106045000D03*
G04 #@! TO.P,U37,11*
G04 #@! TO.N,Net-(U34-Pad8)*
X183515000Y-98425000D03*
G04 #@! TO.P,U37,4*
G04 #@! TO.N,Net-(U12-Pad9)*
X178435000Y-106045000D03*
G04 #@! TO.P,U37,12*
G04 #@! TO.N,Net-(U12-Pad12)*
X180975000Y-98425000D03*
G04 #@! TO.P,U37,5*
G04 #@! TO.N,Net-(U37-Pad5)*
X180975000Y-106045000D03*
G04 #@! TO.P,U37,13*
G04 #@! TO.N,Net-(U12-Pad10)*
X178435000Y-98425000D03*
G04 #@! TO.P,U37,6*
G04 #@! TO.N,Net-(U37-Pad6)*
X183515000Y-106045000D03*
G04 #@! TO.P,U37,14*
G04 #@! TO.N,Net-(U37-Pad14)*
X175895000Y-98425000D03*
G04 #@! TO.P,U37,7*
G04 #@! TO.N,Net-(U37-Pad7)*
X186055000Y-106045000D03*
G04 #@! TO.P,U37,15*
G04 #@! TO.N,Net-(U12-Pad13)*
X173355000Y-98425000D03*
G04 #@! TO.P,U37,8*
G04 #@! TO.N,GND*
X188595000Y-106045000D03*
G04 #@! TO.P,U37,16*
G04 #@! TO.N,PWR_ALW*
X170815000Y-98425000D03*
G04 #@! TD*
D10*
G04 #@! TO.P,U25,1*
G04 #@! TO.N,Net-(R18-Pad2)*
X100330000Y-163830000D03*
D11*
G04 #@! TO.P,U25,4*
G04 #@! TO.N,Net-(Q1-Pad3)*
X107950000Y-168910000D03*
G04 #@! TO.P,U25,2*
G04 #@! TO.N,GND*
X100330000Y-166370000D03*
G04 #@! TO.P,U25,5*
G04 #@! TO.N,Net-(U25-Pad5)*
X107950000Y-166370000D03*
G04 #@! TO.P,U25,3*
G04 #@! TO.N,Net-(U25-Pad3)*
X100330000Y-168910000D03*
G04 #@! TO.P,U25,6*
G04 #@! TO.N,Net-(R22-Pad1)*
X107950000Y-163830000D03*
G04 #@! TD*
G04 #@! TO.P,U26,6*
G04 #@! TO.N,Net-(R23-Pad1)*
X130810000Y-163830000D03*
G04 #@! TO.P,U26,3*
G04 #@! TO.N,Net-(U26-Pad3)*
X123190000Y-168910000D03*
G04 #@! TO.P,U26,5*
G04 #@! TO.N,Net-(U26-Pad5)*
X130810000Y-166370000D03*
G04 #@! TO.P,U26,2*
G04 #@! TO.N,GND*
X123190000Y-166370000D03*
G04 #@! TO.P,U26,4*
G04 #@! TO.N,Net-(Q2-Pad3)*
X130810000Y-168910000D03*
D10*
G04 #@! TO.P,U26,1*
G04 #@! TO.N,Net-(R19-Pad2)*
X123190000Y-163830000D03*
G04 #@! TD*
G04 #@! TO.P,U28,1*
G04 #@! TO.N,Net-(R21-Pad2)*
X168910000Y-163830000D03*
D11*
G04 #@! TO.P,U28,4*
G04 #@! TO.N,Net-(Q4-Pad3)*
X176530000Y-168910000D03*
G04 #@! TO.P,U28,2*
G04 #@! TO.N,GND*
X168910000Y-166370000D03*
G04 #@! TO.P,U28,5*
G04 #@! TO.N,Net-(U28-Pad5)*
X176530000Y-166370000D03*
G04 #@! TO.P,U28,3*
G04 #@! TO.N,Net-(U28-Pad3)*
X168910000Y-168910000D03*
G04 #@! TO.P,U28,6*
G04 #@! TO.N,Net-(R25-Pad1)*
X176530000Y-163830000D03*
G04 #@! TD*
G04 #@! TO.P,U27,6*
G04 #@! TO.N,Net-(R24-Pad1)*
X153670000Y-163830000D03*
G04 #@! TO.P,U27,3*
G04 #@! TO.N,Net-(U27-Pad3)*
X146050000Y-168910000D03*
G04 #@! TO.P,U27,5*
G04 #@! TO.N,Net-(U27-Pad5)*
X153670000Y-166370000D03*
G04 #@! TO.P,U27,2*
G04 #@! TO.N,GND*
X146050000Y-166370000D03*
G04 #@! TO.P,U27,4*
G04 #@! TO.N,Net-(Q3-Pad3)*
X153670000Y-168910000D03*
D10*
G04 #@! TO.P,U27,1*
G04 #@! TO.N,Net-(R20-Pad2)*
X146050000Y-163830000D03*
G04 #@! TD*
G04 #@! TO.P,U8,1*
G04 #@! TO.N,Net-(U8-Pad1)*
X62230000Y-40640000D03*
D11*
G04 #@! TO.P,U8,5*
G04 #@! TO.N,GND*
X69850000Y-48260000D03*
G04 #@! TO.P,U8,2*
G04 #@! TO.N,Net-(C10-Pad1)*
X62230000Y-43180000D03*
G04 #@! TO.P,U8,6*
G04 #@! TO.N,Net-(U8-Pad6)*
X69850000Y-45720000D03*
G04 #@! TO.P,U8,3*
G04 #@! TO.N,BATT_OUT_MID*
X62230000Y-45720000D03*
G04 #@! TO.P,U8,7*
G04 #@! TO.N,Net-(U8-Pad7)*
X69850000Y-43180000D03*
G04 #@! TO.P,U8,4*
G04 #@! TO.N,Net-(C10-Pad2)*
X62230000Y-48260000D03*
G04 #@! TO.P,U8,8*
G04 #@! TO.N,BATT_OUT_+*
X69850000Y-40640000D03*
G04 #@! TD*
D32*
G04 #@! TO.P,U30,1*
G04 #@! TO.N,+9V*
X75040000Y-40640000D03*
G04 #@! TO.P,U30,2*
G04 #@! TO.N,Net-(R17-Pad1)*
X75040000Y-41910000D03*
G04 #@! TO.P,U30,3*
G04 #@! TO.N,Net-(R29-Pad2)*
X75040000Y-43180000D03*
G04 #@! TO.P,U30,4*
G04 #@! TO.N,GND*
X75040000Y-44450000D03*
G04 #@! TO.P,U30,5*
G04 #@! TO.N,Net-(D_BATT_1-Pad2)*
X82440000Y-44450000D03*
G04 #@! TO.P,U30,6*
G04 #@! TO.N,Net-(R27-Pad2)*
X82440000Y-43180000D03*
G04 #@! TO.P,U30,7*
G04 #@! TO.N,Net-(R26-Pad2)*
X82440000Y-41910000D03*
G04 #@! TO.P,U30,8*
G04 #@! TO.N,BATT_OUT_+*
X82440000Y-40640000D03*
G04 #@! TD*
D33*
G04 #@! TO.P,U_PWR_1,1*
G04 #@! TO.N,GND*
X254860000Y-50105000D03*
G04 #@! TO.P,U_PWR_1,2*
G04 #@! TO.N,Net-(C_PWR_6-Pad2)*
X253160000Y-50105000D03*
G04 #@! TO.P,U_PWR_1,3*
G04 #@! TO.N,Net-(D_PWR_1-Pad1)*
X251460000Y-50105000D03*
G04 #@! TO.P,U_PWR_1,4*
G04 #@! TO.N,Net-(C_PWR_3-Pad2)*
X249760000Y-50105000D03*
G04 #@! TO.P,U_PWR_1,5*
G04 #@! TO.N,Net-(C_PWR_1-Pad1)*
X248060000Y-50105000D03*
D34*
G04 #@! TO.P,U_PWR_1,3*
G04 #@! TO.N,Net-(D_PWR_1-Pad1)*
X251460000Y-59255000D03*
G04 #@! TD*
D35*
G04 #@! TO.P,D_BATT_1,2*
G04 #@! TO.N,Net-(D_BATT_1-Pad2)*
X120015000Y-16510000D03*
D16*
G04 #@! TO.P,D_BATT_1,1*
G04 #@! TO.N,BATT_OUT_+*
X125095000Y-16510000D03*
G04 #@! TD*
G04 #@! TO.P,D_BATT_2,1*
G04 #@! TO.N,BATT_OUT_+*
X55880000Y-34290000D03*
D35*
G04 #@! TO.P,D_BATT_2,2*
G04 #@! TO.N,BATT_OUT_MID*
X55880000Y-29210000D03*
G04 #@! TD*
G04 #@! TO.P,D_BATT_3,2*
G04 #@! TO.N,GND*
X55880000Y-18415000D03*
D16*
G04 #@! TO.P,D_BATT_3,1*
G04 #@! TO.N,BATT_OUT_MID*
X55880000Y-23495000D03*
G04 #@! TD*
G04 #@! TO.P,D_PWR_1,1*
G04 #@! TO.N,Net-(D_PWR_1-Pad1)*
X238760000Y-57785000D03*
D35*
G04 #@! TO.P,D_PWR_1,2*
G04 #@! TO.N,GND*
X238760000Y-52705000D03*
G04 #@! TD*
D36*
G04 #@! TO.P,U29,3*
G04 #@! TO.N,Net-(D10-Pad2)*
X48895000Y-23495000D03*
G04 #@! TO.P,U29,2*
G04 #@! TO.N,GND*
X48895000Y-26035000D03*
D37*
G04 #@! TO.P,U29,1*
G04 #@! TO.N,BATT_OUT_+*
X48895000Y-28575000D03*
G04 #@! TD*
D38*
G04 #@! TO.P,U38,1*
G04 #@! TO.N,+9V*
X248920000Y-116205000D03*
D39*
G04 #@! TO.P,U38,2*
G04 #@! TO.N,GND*
X251460000Y-116205000D03*
G04 #@! TO.P,U38,3*
G04 #@! TO.N,Net-(D11-Pad2)*
X254000000Y-116205000D03*
G04 #@! TD*
D38*
G04 #@! TO.P,Q1,1*
G04 #@! TO.N,Net-(CONN_PWR_LINE1_13-Pad1)*
X113030000Y-165735000D03*
D39*
G04 #@! TO.P,Q1,2*
G04 #@! TO.N,VAC*
X115570000Y-165735000D03*
G04 #@! TO.P,Q1,3*
G04 #@! TO.N,Net-(Q1-Pad3)*
X118110000Y-165735000D03*
G04 #@! TD*
G04 #@! TO.P,Q2,3*
G04 #@! TO.N,Net-(Q2-Pad3)*
X140970000Y-165735000D03*
G04 #@! TO.P,Q2,2*
G04 #@! TO.N,VAC*
X138430000Y-165735000D03*
D38*
G04 #@! TO.P,Q2,1*
G04 #@! TO.N,Net-(CONN_PWR_LINE2_14-Pad1)*
X135890000Y-165735000D03*
G04 #@! TD*
G04 #@! TO.P,Q4,1*
G04 #@! TO.N,Net-(CONN_PWR_LINE4_16-Pad1)*
X181610000Y-165735000D03*
D39*
G04 #@! TO.P,Q4,2*
G04 #@! TO.N,VAC*
X184150000Y-165735000D03*
G04 #@! TO.P,Q4,3*
G04 #@! TO.N,Net-(Q4-Pad3)*
X186690000Y-165735000D03*
G04 #@! TD*
G04 #@! TO.P,Q3,3*
G04 #@! TO.N,Net-(Q3-Pad3)*
X163830000Y-165735000D03*
G04 #@! TO.P,Q3,2*
G04 #@! TO.N,VAC*
X161290000Y-165735000D03*
D38*
G04 #@! TO.P,Q3,1*
G04 #@! TO.N,Net-(CONN_PWR_LINE3_15-Pad1)*
X158750000Y-165735000D03*
G04 #@! TD*
D13*
G04 #@! TO.P,R1,2*
G04 #@! TO.N,Net-(CONN_BATT_REPLACE_LED_1-Pad2)*
X119380000Y-149225000D03*
D12*
G04 #@! TO.P,R1,1*
G04 #@! TO.N,GND*
X109220000Y-149225000D03*
G04 #@! TD*
G04 #@! TO.P,R28,1*
G04 #@! TO.N,GND*
X81992155Y-35445614D03*
D13*
G04 #@! TO.P,R28,2*
G04 #@! TO.N,Net-(R28-Pad2)*
X71832155Y-35445614D03*
G04 #@! TD*
G04 #@! TO.P,R29,2*
G04 #@! TO.N,Net-(R29-Pad2)*
X81915000Y-31750000D03*
D12*
G04 #@! TO.P,R29,1*
G04 #@! TO.N,Net-(R28-Pad2)*
X71755000Y-31750000D03*
G04 #@! TD*
G04 #@! TO.P,R27,1*
G04 #@! TO.N,+9V*
X100334425Y-14449756D03*
D13*
G04 #@! TO.P,R27,2*
G04 #@! TO.N,Net-(R27-Pad2)*
X100334425Y-24609756D03*
G04 #@! TD*
G04 #@! TO.P,R26,2*
G04 #@! TO.N,Net-(R26-Pad2)*
X97159425Y-24609756D03*
D12*
G04 #@! TO.P,R26,1*
G04 #@! TO.N,+9V*
X97159425Y-14449756D03*
G04 #@! TD*
G04 #@! TO.P,R30,1*
G04 #@! TO.N,+5V*
X244475000Y-88265000D03*
D13*
G04 #@! TO.P,R30,2*
G04 #@! TO.N,Net-(C13-Pad1)*
X244475000Y-78105000D03*
G04 #@! TD*
D12*
G04 #@! TO.P,R_PWR_1,1*
G04 #@! TO.N,+9V*
X254000000Y-86995000D03*
D13*
G04 #@! TO.P,R_PWR_1,2*
G04 #@! TO.N,Net-(C_PWR_6-Pad2)*
X254000000Y-102235000D03*
G04 #@! TD*
G04 #@! TO.P,R_PWR_2,2*
G04 #@! TO.N,GND*
X247650000Y-86995000D03*
D12*
G04 #@! TO.P,R_PWR_2,1*
G04 #@! TO.N,Net-(C_PWR_6-Pad2)*
X247650000Y-102235000D03*
G04 #@! TD*
D40*
G04 #@! TO.P,R19,2*
G04 #@! TO.N,Net-(R19-Pad2)*
X139065000Y-128905000D03*
D18*
G04 #@! TO.P,R19,1*
G04 #@! TO.N,Net-(R19-Pad1)*
X123825000Y-128905000D03*
G04 #@! TD*
G04 #@! TO.P,R18,1*
G04 #@! TO.N,Net-(R18-Pad1)*
X123825000Y-133985000D03*
D40*
G04 #@! TO.P,R18,2*
G04 #@! TO.N,Net-(R18-Pad2)*
X139065000Y-133985000D03*
G04 #@! TD*
D18*
G04 #@! TO.P,R21,1*
G04 #@! TO.N,Net-(R21-Pad1)*
X123825000Y-118745000D03*
D40*
G04 #@! TO.P,R21,2*
G04 #@! TO.N,Net-(R21-Pad2)*
X139065000Y-118745000D03*
G04 #@! TD*
D18*
G04 #@! TO.P,R20,1*
G04 #@! TO.N,Net-(R20-Pad1)*
X123825000Y-123825000D03*
D40*
G04 #@! TO.P,R20,2*
G04 #@! TO.N,Net-(R20-Pad2)*
X139065000Y-123825000D03*
G04 #@! TD*
D13*
G04 #@! TO.P,R16,2*
G04 #@! TO.N,GND*
X98865001Y-152405001D03*
D12*
G04 #@! TO.P,R16,1*
G04 #@! TO.N,/Rain_Sensor(Ext.)*
X83625001Y-152405001D03*
G04 #@! TD*
G04 #@! TO.P,R15,1*
G04 #@! TO.N,/Mode(Ext.)*
X83625001Y-149355001D03*
D13*
G04 #@! TO.P,R15,2*
G04 #@! TO.N,GND*
X98865001Y-149355001D03*
G04 #@! TD*
D12*
G04 #@! TO.P,R14,1*
G04 #@! TO.N,/Control(Ext.2)*
X83625001Y-146305001D03*
D13*
G04 #@! TO.P,R14,2*
G04 #@! TO.N,GND*
X98865001Y-146305001D03*
G04 #@! TD*
D41*
G04 #@! TO.P,D1,2*
G04 #@! TO.N,Net-(D1-Pad2)*
X198484850Y-151577853D03*
D42*
G04 #@! TO.P,D1,1*
G04 #@! TO.N,Net-(D1-Pad1)*
X198484850Y-141417853D03*
G04 #@! TD*
G04 #@! TO.P,D3,1*
G04 #@! TO.N,Net-(D3-Pad1)*
X213724850Y-141417853D03*
D41*
G04 #@! TO.P,D3,2*
G04 #@! TO.N,Net-(D3-Pad2)*
X213724850Y-151577853D03*
G04 #@! TD*
D42*
G04 #@! TO.P,D5,1*
G04 #@! TO.N,Net-(D5-Pad1)*
X194674850Y-141417853D03*
D41*
G04 #@! TO.P,D5,2*
G04 #@! TO.N,Net-(D5-Pad2)*
X194674850Y-151577853D03*
G04 #@! TD*
G04 #@! TO.P,D4,2*
G04 #@! TO.N,Net-(D4-Pad2)*
X221344850Y-151577853D03*
D42*
G04 #@! TO.P,D4,1*
G04 #@! TO.N,Net-(D4-Pad1)*
X221344850Y-141417853D03*
G04 #@! TD*
D41*
G04 #@! TO.P,D8,2*
G04 #@! TO.N,Net-(D8-Pad2)*
X217534850Y-151577853D03*
D42*
G04 #@! TO.P,D8,1*
G04 #@! TO.N,Net-(D8-Pad1)*
X217534850Y-141417853D03*
G04 #@! TD*
D41*
G04 #@! TO.P,D6,2*
G04 #@! TO.N,Net-(D6-Pad2)*
X202294850Y-151577853D03*
D42*
G04 #@! TO.P,D6,1*
G04 #@! TO.N,Net-(D6-Pad1)*
X202294850Y-141417853D03*
G04 #@! TD*
G04 #@! TO.P,D7,1*
G04 #@! TO.N,Net-(D7-Pad1)*
X209914850Y-141417853D03*
D41*
G04 #@! TO.P,D7,2*
G04 #@! TO.N,Net-(D7-Pad2)*
X209914850Y-151577853D03*
G04 #@! TD*
D42*
G04 #@! TO.P,D2,1*
G04 #@! TO.N,Net-(D2-Pad1)*
X206104850Y-141417853D03*
D41*
G04 #@! TO.P,D2,2*
G04 #@! TO.N,Net-(D2-Pad2)*
X206104850Y-151577853D03*
G04 #@! TD*
D11*
G04 #@! TO.P,U35,16*
G04 #@! TO.N,+5V*
X106680000Y-41910000D03*
G04 #@! TO.P,U35,8*
G04 #@! TO.N,GND*
X99060000Y-59690000D03*
G04 #@! TO.P,U35,15*
G04 #@! TO.N,Net-(U15-Pad4)*
X106680000Y-44450000D03*
G04 #@! TO.P,U35,7*
G04 #@! TO.N,/Running(Out)*
X99060000Y-57150000D03*
G04 #@! TO.P,U35,14*
G04 #@! TO.N,+5V*
X106680000Y-46990000D03*
G04 #@! TO.P,U35,6*
G04 #@! TO.N,Net-(U33-Pad5)*
X99060000Y-54610000D03*
G04 #@! TO.P,U35,13*
G04 #@! TO.N,GND*
X106680000Y-49530000D03*
G04 #@! TO.P,U35,5*
G04 #@! TO.N,Net-(U31-Pad4)*
X99060000Y-52070000D03*
G04 #@! TO.P,U35,12*
G04 #@! TO.N,Net-(U11-Pad8)*
X106680000Y-52070000D03*
G04 #@! TO.P,U35,4*
G04 #@! TO.N,Net-(U31-Pad10)*
X99060000Y-49530000D03*
G04 #@! TO.P,U35,11*
G04 #@! TO.N,+5V*
X106680000Y-54610000D03*
G04 #@! TO.P,U35,3*
G04 #@! TO.N,GND*
X99060000Y-46990000D03*
G04 #@! TO.P,U35,10*
G04 #@! TO.N,Net-(U14-Pad4)*
X106680000Y-57150000D03*
G04 #@! TO.P,U35,2*
G04 #@! TO.N,+5V*
X99060000Y-44450000D03*
G04 #@! TO.P,U35,9*
G04 #@! TO.N,Net-(U16-Pad2)*
X106680000Y-59690000D03*
D10*
G04 #@! TO.P,U35,1*
G04 #@! TO.N,+5V*
X99060000Y-41910000D03*
G04 #@! TD*
G04 #@! TO.P,U31,1*
G04 #@! TO.N,Net-(U31-Pad1)*
X68580000Y-66040000D03*
D11*
G04 #@! TO.P,U31,8*
G04 #@! TO.N,Net-(U31-Pad8)*
X76200000Y-81280000D03*
G04 #@! TO.P,U31,2*
G04 #@! TO.N,/Control(In1)*
X68580000Y-68580000D03*
G04 #@! TO.P,U31,9*
G04 #@! TO.N,Net-(CONN_SW_DPST01_TIMER_1-Pad2)*
X76200000Y-78740000D03*
G04 #@! TO.P,U31,3*
G04 #@! TO.N,/Control(In2)*
X68580000Y-71120000D03*
G04 #@! TO.P,U31,10*
G04 #@! TO.N,Net-(U31-Pad10)*
X76200000Y-76200000D03*
G04 #@! TO.P,U31,4*
G04 #@! TO.N,Net-(U31-Pad4)*
X68580000Y-73660000D03*
G04 #@! TO.P,U31,11*
G04 #@! TO.N,/Reset(Out)*
X76200000Y-73660000D03*
G04 #@! TO.P,U31,5*
G04 #@! TO.N,/Rain(In)*
X68580000Y-76200000D03*
G04 #@! TO.P,U31,12*
G04 #@! TO.N,/Completed(In)*
X76200000Y-71120000D03*
G04 #@! TO.P,U31,6*
X68580000Y-78740000D03*
G04 #@! TO.P,U31,13*
G04 #@! TO.N,Net-(U31-Pad13)*
X76200000Y-68580000D03*
G04 #@! TO.P,U31,7*
G04 #@! TO.N,GND*
X68580000Y-81280000D03*
G04 #@! TO.P,U31,14*
G04 #@! TO.N,+5V*
X76200000Y-66040000D03*
G04 #@! TD*
D10*
G04 #@! TO.P,U32,1*
G04 #@! TO.N,Net-(U31-Pad1)*
X111760000Y-87630000D03*
D11*
G04 #@! TO.P,U32,8*
G04 #@! TO.N,Net-(U18-Pad2)*
X119380000Y-102870000D03*
G04 #@! TO.P,U32,2*
G04 #@! TO.N,Net-(U32-Pad2)*
X111760000Y-90170000D03*
G04 #@! TO.P,U32,9*
G04 #@! TO.N,Net-(U31-Pad13)*
X119380000Y-100330000D03*
G04 #@! TO.P,U32,3*
G04 #@! TO.N,/Mode(In)*
X111760000Y-92710000D03*
G04 #@! TO.P,U32,10*
G04 #@! TO.N,N/C*
X119380000Y-97790000D03*
G04 #@! TO.P,U32,4*
G04 #@! TO.N,Net-(U32-Pad4)*
X111760000Y-95250000D03*
G04 #@! TO.P,U32,11*
G04 #@! TO.N,N/C*
X119380000Y-95250000D03*
G04 #@! TO.P,U32,5*
G04 #@! TO.N,Net-(CONN_SW_DPST01_TIMER_1-Pad1)*
X111760000Y-97790000D03*
G04 #@! TO.P,U32,12*
G04 #@! TO.N,/RunningInv(out)*
X119380000Y-92710000D03*
G04 #@! TO.P,U32,6*
G04 #@! TO.N,Net-(U32-Pad6)*
X111760000Y-100330000D03*
G04 #@! TO.P,U32,13*
G04 #@! TO.N,/Running(Out)*
X119380000Y-90170000D03*
G04 #@! TO.P,U32,7*
G04 #@! TO.N,GND*
X111760000Y-102870000D03*
G04 #@! TO.P,U32,14*
G04 #@! TO.N,+5V*
X119380000Y-87630000D03*
G04 #@! TD*
G04 #@! TO.P,U33,14*
G04 #@! TO.N,+5V*
X119380000Y-60960000D03*
G04 #@! TO.P,U33,7*
G04 #@! TO.N,GND*
X111760000Y-76200000D03*
G04 #@! TO.P,U33,13*
G04 #@! TO.N,Net-(U17-Pad9)*
X119380000Y-63500000D03*
G04 #@! TO.P,U33,6*
G04 #@! TO.N,Net-(CONN_SW_DPST01_TIMER_1-Pad2)*
X111760000Y-73660000D03*
G04 #@! TO.P,U33,12*
G04 #@! TO.N,CLK_SEC*
X119380000Y-66040000D03*
G04 #@! TO.P,U33,5*
G04 #@! TO.N,Net-(U33-Pad5)*
X111760000Y-71120000D03*
G04 #@! TO.P,U33,11*
G04 #@! TO.N,Net-(CONN_BATT_REPLACE_LED_1-Pad1)*
X119380000Y-68580000D03*
G04 #@! TO.P,U33,4*
G04 #@! TO.N,Net-(U33-Pad4)*
X111760000Y-68580000D03*
G04 #@! TO.P,U33,10*
G04 #@! TO.N,/Mode(In)*
X119380000Y-71120000D03*
G04 #@! TO.P,U33,3*
G04 #@! TO.N,Net-(U31-Pad8)*
X111760000Y-66040000D03*
G04 #@! TO.P,U33,9*
G04 #@! TO.N,Net-(U32-Pad2)*
X119380000Y-73660000D03*
G04 #@! TO.P,U33,2*
G04 #@! TO.N,Net-(U32-Pad4)*
X111760000Y-63500000D03*
G04 #@! TO.P,U33,8*
G04 #@! TO.N,/Next(Out)*
X119380000Y-76200000D03*
D10*
G04 #@! TO.P,U33,1*
G04 #@! TO.N,Net-(U32-Pad2)*
X111760000Y-60960000D03*
G04 #@! TD*
G04 #@! TO.P,U34,1*
G04 #@! TO.N,Net-(U34-Pad1)*
X68580000Y-87630000D03*
D11*
G04 #@! TO.P,U34,8*
G04 #@! TO.N,Net-(U34-Pad8)*
X76200000Y-102870000D03*
G04 #@! TO.P,U34,2*
G04 #@! TO.N,Net-(U34-Pad2)*
X68580000Y-90170000D03*
G04 #@! TO.P,U34,9*
G04 #@! TO.N,PWR_ALW*
X76200000Y-100330000D03*
G04 #@! TO.P,U34,3*
G04 #@! TO.N,Net-(JCONN_SW_DPST02_TIMER_1-Pad2)*
X68580000Y-92710000D03*
G04 #@! TO.P,U34,10*
G04 #@! TO.N,Net-(U32-Pad6)*
X76200000Y-97790000D03*
G04 #@! TO.P,U34,4*
G04 #@! TO.N,Net-(U31-Pad1)*
X68580000Y-95250000D03*
G04 #@! TO.P,U34,11*
G04 #@! TO.N,Net-(JCONN_SW_DPST02_TIMER_1-Pad1)*
X76200000Y-95250000D03*
G04 #@! TO.P,U34,5*
G04 #@! TO.N,PWR_ALW*
X68580000Y-97790000D03*
G04 #@! TO.P,U34,12*
G04 #@! TO.N,Net-(U17-Pad15)*
X76200000Y-92710000D03*
G04 #@! TO.P,U34,6*
G04 #@! TO.N,Net-(U33-Pad4)*
X68580000Y-100330000D03*
G04 #@! TO.P,U34,13*
G04 #@! TO.N,Net-(U34-Pad13)*
X76200000Y-90170000D03*
G04 #@! TO.P,U34,7*
G04 #@! TO.N,GND*
X68580000Y-102870000D03*
G04 #@! TO.P,U34,14*
G04 #@! TO.N,PWR_ALW*
X76200000Y-87630000D03*
G04 #@! TD*
D12*
G04 #@! TO.P,C1,2*
G04 #@! TO.N,GND*
X62905000Y-125095000D03*
D22*
G04 #@! TO.P,C1,1*
G04 #@! TO.N,Net-(C1-Pad1)*
X65405000Y-125095000D03*
G04 #@! TD*
D12*
G04 #@! TO.P,C2,2*
G04 #@! TO.N,GND*
X73660000Y-187880000D03*
G04 #@! TO.P,C2,1*
G04 #@! TO.N,Net-(C2-Pad1)*
X73660000Y-182880000D03*
G04 #@! TD*
G04 #@! TO.P,C3,1*
G04 #@! TO.N,Net-(C3-Pad1)*
X92710000Y-182880000D03*
G04 #@! TO.P,C3,2*
G04 #@! TO.N,GND*
X92710000Y-187880000D03*
G04 #@! TD*
D27*
G04 #@! TO.P,CONN_SW_DPST_MODE_2,1*
G04 #@! TO.N,+5V*
X62865000Y-135255000D03*
D28*
G04 #@! TO.P,CONN_SW_DPST_MODE_2,2*
G04 #@! TO.N,/Mode(Ext.)*
X65405000Y-135255000D03*
G04 #@! TD*
G04 #@! TO.P,CONN_LED_PWR_4,2*
G04 #@! TO.N,Net-(CONN_LED_PWR_4-Pad2)*
X130175000Y-140970000D03*
D27*
G04 #@! TO.P,CONN_LED_PWR_4,1*
G04 #@! TO.N,+5V*
X132715000Y-140970000D03*
G04 #@! TD*
D28*
G04 #@! TO.P,CONN_LED_RAIN1_7,2*
G04 #@! TO.N,Net-(CONN_LED_RAIN1_7-Pad2)*
X112395000Y-145415000D03*
D27*
G04 #@! TO.P,CONN_LED_RAIN1_7,1*
G04 #@! TO.N,/Rain(Led)*
X109855000Y-145415000D03*
G04 #@! TD*
D28*
G04 #@! TO.P,CONN_LED_MODE_6,2*
G04 #@! TO.N,Net-(CONN_LED_MODE_6-Pad2)*
X62865000Y-139065000D03*
D27*
G04 #@! TO.P,CONN_LED_MODE_6,1*
G04 #@! TO.N,/Mode(Ext.)*
X65405000Y-139065000D03*
G04 #@! TD*
D28*
G04 #@! TO.P,CONN_LED_LINE3_11,2*
G04 #@! TO.N,Net-(CONN_LED_LINE3_11-Pad2)*
X157480000Y-144780000D03*
D27*
G04 #@! TO.P,CONN_LED_LINE3_11,1*
G04 #@! TO.N,Net-(CONN_LED_LINE3_11-Pad1)*
X157480000Y-147320000D03*
G04 #@! TD*
G04 #@! TO.P,CONN_LED_LINE2_10,1*
G04 #@! TO.N,Net-(CONN_LED_LINE2_10-Pad1)*
X153670000Y-147320000D03*
D28*
G04 #@! TO.P,CONN_LED_LINE2_10,2*
G04 #@! TO.N,Net-(CONN_LED_LINE2_10-Pad2)*
X153670000Y-144780000D03*
G04 #@! TD*
G04 #@! TO.P,CONN_LED_LINE1_9,2*
G04 #@! TO.N,Net-(CONN_LED_LINE1_9-Pad2)*
X149860000Y-144780000D03*
D27*
G04 #@! TO.P,CONN_LED_LINE1_9,1*
G04 #@! TO.N,Net-(CONN_LED_LINE1_9-Pad1)*
X149860000Y-147320000D03*
G04 #@! TD*
G04 #@! TO.P,CONN_CONTROL_3,1*
G04 #@! TO.N,/Control(Ext.2)*
X65405000Y-130175000D03*
D28*
G04 #@! TO.P,CONN_CONTROL_3,2*
G04 #@! TO.N,GND*
X62865000Y-130175000D03*
G04 #@! TD*
G04 #@! TO.P,CONN_LED_RUNNING_8,2*
G04 #@! TO.N,Net-(CONN_LED_RUNNING_8-Pad2)*
X112395000Y-140970000D03*
D27*
G04 #@! TO.P,CONN_LED_RUNNING_8,1*
G04 #@! TO.N,/Running(Led)*
X109855000Y-140970000D03*
G04 #@! TD*
D28*
G04 #@! TO.P,CONN_PWR_LINE1_13,2*
G04 #@! TO.N,GNDREF*
X99060000Y-177800000D03*
D27*
G04 #@! TO.P,CONN_PWR_LINE1_13,1*
G04 #@! TO.N,Net-(CONN_PWR_LINE1_13-Pad1)*
X101600000Y-177800000D03*
G04 #@! TD*
G04 #@! TO.P,CONN_PWR_LINE2_14,1*
G04 #@! TO.N,Net-(CONN_PWR_LINE2_14-Pad1)*
X124460000Y-177800000D03*
D28*
G04 #@! TO.P,CONN_PWR_LINE2_14,2*
G04 #@! TO.N,GNDREF*
X121920000Y-177800000D03*
G04 #@! TD*
D27*
G04 #@! TO.P,CONN_LED_LINE4_12,1*
G04 #@! TO.N,Net-(CONN_LED_LINE4_12-Pad1)*
X161290000Y-147320000D03*
D28*
G04 #@! TO.P,CONN_LED_LINE4_12,2*
G04 #@! TO.N,Net-(CONN_LED_LINE4_12-Pad2)*
X161290000Y-144780000D03*
G04 #@! TD*
D27*
G04 #@! TO.P,CONN_PWR_LINE3_15,1*
G04 #@! TO.N,Net-(CONN_PWR_LINE3_15-Pad1)*
X147320000Y-177800000D03*
D28*
G04 #@! TO.P,CONN_PWR_LINE3_15,2*
G04 #@! TO.N,GNDREF*
X144780000Y-177800000D03*
G04 #@! TD*
G04 #@! TO.P,CONN_PWR_LINE4_16,2*
G04 #@! TO.N,GNDREF*
X167640000Y-177800000D03*
D27*
G04 #@! TO.P,CONN_PWR_LINE4_16,1*
G04 #@! TO.N,Net-(CONN_PWR_LINE4_16-Pad1)*
X170180000Y-177800000D03*
G04 #@! TD*
G04 #@! TO.P,CONN_RAIN_SENSOR_5,1*
G04 #@! TO.N,/Rain_Sensor(Ext.)*
X109855000Y-153670000D03*
D28*
G04 #@! TO.P,CONN_RAIN_SENSOR_5,2*
G04 #@! TO.N,+5V*
X112395000Y-153670000D03*
G04 #@! TD*
G04 #@! TO.P,CONN_SW_PUSH_CONTROL_1,2*
G04 #@! TO.N,Net-(C1-Pad1)*
X132715000Y-145415000D03*
D27*
G04 #@! TO.P,CONN_SW_PUSH_CONTROL_1,1*
G04 #@! TO.N,GND*
X130175000Y-145415000D03*
G04 #@! TD*
D28*
G04 #@! TO.P,JP06_2_60,2*
G04 #@! TO.N,Net-(D3-Pad2)*
X238760000Y-158670000D03*
D27*
G04 #@! TO.P,JP06_2_60,1*
G04 #@! TO.N,/D4*
X236220000Y-158670000D03*
G04 #@! TD*
G04 #@! TO.P,JP07_2_45,1*
G04 #@! TO.N,/D3*
X236220000Y-163750000D03*
D28*
G04 #@! TO.P,JP07_2_45,2*
G04 #@! TO.N,Net-(D3-Pad2)*
X238760000Y-163750000D03*
G04 #@! TD*
G04 #@! TO.P,JP08_2_30,2*
G04 #@! TO.N,Net-(D3-Pad2)*
X238760000Y-168830000D03*
D27*
G04 #@! TO.P,JP08_2_30,1*
G04 #@! TO.N,/D2*
X236220000Y-168830000D03*
G04 #@! TD*
G04 #@! TO.P,JP09_2_15,1*
G04 #@! TO.N,/D1*
X236220000Y-173910000D03*
D28*
G04 #@! TO.P,JP09_2_15,2*
G04 #@! TO.N,Net-(D3-Pad2)*
X238760000Y-173910000D03*
G04 #@! TD*
G04 #@! TO.P,JP10_2_0,2*
G04 #@! TO.N,Net-(D3-Pad2)*
X238760000Y-178990000D03*
D27*
G04 #@! TO.P,JP10_2_0,1*
G04 #@! TO.N,/D0*
X236220000Y-178990000D03*
G04 #@! TD*
D28*
G04 #@! TO.P,JP11_3_60,2*
G04 #@! TO.N,Net-(D2-Pad2)*
X220980000Y-158670000D03*
D27*
G04 #@! TO.P,JP11_3_60,1*
G04 #@! TO.N,/D4*
X218440000Y-158670000D03*
G04 #@! TD*
G04 #@! TO.P,JP12_3_45,1*
G04 #@! TO.N,/D3*
X218440000Y-163750000D03*
D28*
G04 #@! TO.P,JP12_3_45,2*
G04 #@! TO.N,Net-(D2-Pad2)*
X220980000Y-163750000D03*
G04 #@! TD*
G04 #@! TO.P,JP14_3_15,2*
G04 #@! TO.N,Net-(D2-Pad2)*
X220980000Y-173910000D03*
D27*
G04 #@! TO.P,JP14_3_15,1*
G04 #@! TO.N,/D1*
X218440000Y-173910000D03*
G04 #@! TD*
G04 #@! TO.P,JP34_3_3,1*
G04 #@! TO.N,/D1*
X210820000Y-173910000D03*
D28*
G04 #@! TO.P,JP34_3_3,2*
G04 #@! TO.N,Net-(D6-Pad2)*
X213360000Y-173910000D03*
G04 #@! TD*
G04 #@! TO.P,JP32_3_9,2*
G04 #@! TO.N,Net-(D6-Pad2)*
X213360000Y-163750000D03*
D27*
G04 #@! TO.P,JP32_3_9,1*
G04 #@! TO.N,/D3*
X210820000Y-163750000D03*
G04 #@! TD*
G04 #@! TO.P,JP35_3_0,1*
G04 #@! TO.N,/D0*
X210820000Y-178990000D03*
D28*
G04 #@! TO.P,JP35_3_0,2*
G04 #@! TO.N,Net-(D6-Pad2)*
X213360000Y-178990000D03*
G04 #@! TD*
D27*
G04 #@! TO.P,JP36_4_12,1*
G04 #@! TO.N,/D4*
X194310000Y-158670000D03*
D28*
G04 #@! TO.P,JP36_4_12,2*
G04 #@! TO.N,Net-(D5-Pad2)*
X196850000Y-158670000D03*
G04 #@! TD*
G04 #@! TO.P,JP37_4_9,2*
G04 #@! TO.N,Net-(D5-Pad2)*
X196850000Y-163750000D03*
D27*
G04 #@! TO.P,JP37_4_9,1*
G04 #@! TO.N,/D3*
X194310000Y-163750000D03*
G04 #@! TD*
G04 #@! TO.P,JP39_4_3,1*
G04 #@! TO.N,/D1*
X194310000Y-173910000D03*
D28*
G04 #@! TO.P,JP39_4_3,2*
G04 #@! TO.N,Net-(D5-Pad2)*
X196850000Y-173910000D03*
G04 #@! TD*
D27*
G04 #@! TO.P,JP3_1_30,1*
G04 #@! TO.N,/D2*
X252730000Y-168830000D03*
D28*
G04 #@! TO.P,JP3_1_30,2*
G04 #@! TO.N,Net-(D4-Pad2)*
X255270000Y-168830000D03*
G04 #@! TD*
D27*
G04 #@! TO.P,JP40_4_0,1*
G04 #@! TO.N,/D0*
X194310000Y-178990000D03*
D28*
G04 #@! TO.P,JP40_4_0,2*
G04 #@! TO.N,Net-(D5-Pad2)*
X196850000Y-178990000D03*
G04 #@! TD*
D27*
G04 #@! TO.P,JP4_1_15,1*
G04 #@! TO.N,/D1*
X252730000Y-173910000D03*
D28*
G04 #@! TO.P,JP4_1_15,2*
G04 #@! TO.N,Net-(D4-Pad2)*
X255270000Y-173910000D03*
G04 #@! TD*
G04 #@! TO.P,JP5_1_0,2*
G04 #@! TO.N,Net-(D4-Pad2)*
X255270000Y-178990000D03*
D27*
G04 #@! TO.P,JP5_1_0,1*
G04 #@! TO.N,/D0*
X252730000Y-178990000D03*
G04 #@! TD*
G04 #@! TO.P,JP2_1_45,1*
G04 #@! TO.N,/D3*
X252730000Y-163750000D03*
D28*
G04 #@! TO.P,JP2_1_45,2*
G04 #@! TO.N,Net-(D4-Pad2)*
X255270000Y-163750000D03*
G04 #@! TD*
G04 #@! TO.P,JP13_3_30,2*
G04 #@! TO.N,Net-(D2-Pad2)*
X220980000Y-168830000D03*
D27*
G04 #@! TO.P,JP13_3_30,1*
G04 #@! TO.N,/D2*
X218440000Y-168830000D03*
G04 #@! TD*
D28*
G04 #@! TO.P,JP38_4_6,2*
G04 #@! TO.N,Net-(D5-Pad2)*
X196850000Y-168830000D03*
D27*
G04 #@! TO.P,JP38_4_6,1*
G04 #@! TO.N,/D2*
X194310000Y-168830000D03*
G04 #@! TD*
D28*
G04 #@! TO.P,JP21_1_12,2*
G04 #@! TO.N,Net-(D8-Pad2)*
X247650000Y-158670000D03*
D27*
G04 #@! TO.P,JP21_1_12,1*
G04 #@! TO.N,/D4*
X245110000Y-158670000D03*
G04 #@! TD*
G04 #@! TO.P,JP22_1_9,1*
G04 #@! TO.N,/D3*
X245110000Y-163750000D03*
D28*
G04 #@! TO.P,JP22_1_9,2*
G04 #@! TO.N,Net-(D8-Pad2)*
X247650000Y-163750000D03*
G04 #@! TD*
G04 #@! TO.P,JP23_1_6,2*
G04 #@! TO.N,Net-(D8-Pad2)*
X247650000Y-168830000D03*
D27*
G04 #@! TO.P,JP23_1_6,1*
G04 #@! TO.N,/D2*
X245110000Y-168830000D03*
G04 #@! TD*
G04 #@! TO.P,JP24_1_3,1*
G04 #@! TO.N,/D1*
X245110000Y-173910000D03*
D28*
G04 #@! TO.P,JP24_1_3,2*
G04 #@! TO.N,Net-(D8-Pad2)*
X247650000Y-173910000D03*
G04 #@! TD*
G04 #@! TO.P,JP25_1_0,2*
G04 #@! TO.N,Net-(D8-Pad2)*
X247650000Y-178990000D03*
D27*
G04 #@! TO.P,JP25_1_0,1*
G04 #@! TO.N,/D0*
X245110000Y-178990000D03*
G04 #@! TD*
D28*
G04 #@! TO.P,JP26_2_12,2*
G04 #@! TO.N,Net-(D7-Pad2)*
X229870000Y-158670000D03*
D27*
G04 #@! TO.P,JP26_2_12,1*
G04 #@! TO.N,/D4*
X227330000Y-158670000D03*
G04 #@! TD*
G04 #@! TO.P,JP27_2_9,1*
G04 #@! TO.N,/D3*
X227330000Y-163750000D03*
D28*
G04 #@! TO.P,JP27_2_9,2*
G04 #@! TO.N,Net-(D7-Pad2)*
X229870000Y-163750000D03*
G04 #@! TD*
G04 #@! TO.P,JP28_2_6,2*
G04 #@! TO.N,Net-(D7-Pad2)*
X229870000Y-168830000D03*
D27*
G04 #@! TO.P,JP28_2_6,1*
G04 #@! TO.N,/D2*
X227330000Y-168830000D03*
G04 #@! TD*
G04 #@! TO.P,JP29_2_3,1*
G04 #@! TO.N,/D1*
X227330000Y-173910000D03*
D28*
G04 #@! TO.P,JP29_2_3,2*
G04 #@! TO.N,Net-(D7-Pad2)*
X229870000Y-173910000D03*
G04 #@! TD*
G04 #@! TO.P,JP30_2_0,2*
G04 #@! TO.N,Net-(D7-Pad2)*
X229870000Y-178990000D03*
D27*
G04 #@! TO.P,JP30_2_0,1*
G04 #@! TO.N,/D0*
X227330000Y-178990000D03*
G04 #@! TD*
D28*
G04 #@! TO.P,JP31_3_12,2*
G04 #@! TO.N,Net-(D6-Pad2)*
X213360000Y-158670000D03*
D27*
G04 #@! TO.P,JP31_3_12,1*
G04 #@! TO.N,/D4*
X210820000Y-158670000D03*
G04 #@! TD*
G04 #@! TO.P,JP33_3_6,1*
G04 #@! TO.N,/D2*
X210820000Y-168830000D03*
D28*
G04 #@! TO.P,JP33_3_6,2*
G04 #@! TO.N,Net-(D6-Pad2)*
X213360000Y-168830000D03*
G04 #@! TD*
G04 #@! TO.P,JP1_1_60,2*
G04 #@! TO.N,Net-(D4-Pad2)*
X255270000Y-158670000D03*
D27*
G04 #@! TO.P,JP1_1_60,1*
G04 #@! TO.N,/D4*
X252730000Y-158670000D03*
G04 #@! TD*
D28*
G04 #@! TO.P,JP20_4_0,2*
G04 #@! TO.N,Net-(D1-Pad2)*
X204470000Y-178990000D03*
D27*
G04 #@! TO.P,JP20_4_0,1*
G04 #@! TO.N,/D0*
X201930000Y-178990000D03*
G04 #@! TD*
G04 #@! TO.P,JP19_4_15,1*
G04 #@! TO.N,/D1*
X201930000Y-173910000D03*
D28*
G04 #@! TO.P,JP19_4_15,2*
G04 #@! TO.N,Net-(D1-Pad2)*
X204470000Y-173910000D03*
G04 #@! TD*
G04 #@! TO.P,JP18_4_30,2*
G04 #@! TO.N,Net-(D1-Pad2)*
X204470000Y-168830000D03*
D27*
G04 #@! TO.P,JP18_4_30,1*
G04 #@! TO.N,/D2*
X201930000Y-168830000D03*
G04 #@! TD*
G04 #@! TO.P,JP17_4_45,1*
G04 #@! TO.N,/D3*
X201930000Y-163750000D03*
D28*
G04 #@! TO.P,JP17_4_45,2*
G04 #@! TO.N,Net-(D1-Pad2)*
X204470000Y-163750000D03*
G04 #@! TD*
G04 #@! TO.P,JP16_4_60,2*
G04 #@! TO.N,Net-(D1-Pad2)*
X204470000Y-158670000D03*
D27*
G04 #@! TO.P,JP16_4_60,1*
G04 #@! TO.N,/D4*
X201930000Y-158670000D03*
G04 #@! TD*
D28*
G04 #@! TO.P,JP15_3_0,2*
G04 #@! TO.N,Net-(D2-Pad2)*
X220980000Y-178990000D03*
D27*
G04 #@! TO.P,JP15_3_0,1*
G04 #@! TO.N,/D0*
X218440000Y-178990000D03*
G04 #@! TD*
D43*
G04 #@! TO.P,Y1,1*
G04 #@! TO.N,Net-(C2-Pad1)*
X81280000Y-177800000D03*
G04 #@! TO.P,Y1,2*
G04 #@! TO.N,Net-(C3-Pad1)*
X83180000Y-177800000D03*
G04 #@! TD*
D10*
G04 #@! TO.P,U4,1*
G04 #@! TO.N,Net-(U3-Pad6)*
X153670000Y-88900000D03*
D11*
G04 #@! TO.P,U4,8*
G04 #@! TO.N,N/C*
X161290000Y-104140000D03*
G04 #@! TO.P,U4,2*
G04 #@! TO.N,Net-(U4-Pad2)*
X153670000Y-91440000D03*
G04 #@! TO.P,U4,9*
G04 #@! TO.N,N/C*
X161290000Y-101600000D03*
G04 #@! TO.P,U4,3*
X153670000Y-93980000D03*
G04 #@! TO.P,U4,10*
G04 #@! TO.N,Net-(U16-Pad1)*
X161290000Y-99060000D03*
G04 #@! TO.P,U4,4*
G04 #@! TO.N,N/C*
X153670000Y-96520000D03*
G04 #@! TO.P,U4,11*
G04 #@! TO.N,Net-(U12-Pad6)*
X161290000Y-96520000D03*
G04 #@! TO.P,U4,5*
G04 #@! TO.N,Net-(U11-Pad3)*
X153670000Y-99060000D03*
G04 #@! TO.P,U4,12*
G04 #@! TO.N,N/C*
X161290000Y-93980000D03*
G04 #@! TO.P,U4,6*
G04 #@! TO.N,Net-(U11-Pad9)*
X153670000Y-101600000D03*
G04 #@! TO.P,U4,13*
G04 #@! TO.N,N/C*
X161290000Y-91440000D03*
G04 #@! TO.P,U4,7*
G04 #@! TO.N,GND*
X153670000Y-104140000D03*
G04 #@! TO.P,U4,14*
G04 #@! TO.N,+5V*
X161290000Y-88900000D03*
G04 #@! TD*
D10*
G04 #@! TO.P,U12,1*
G04 #@! TO.N,Net-(U11-Pad12)*
X177800000Y-77470000D03*
D11*
G04 #@! TO.P,U12,8*
G04 #@! TO.N,Net-(JCONN_SW_DPST02_TIMER_1-Pad1)*
X185420000Y-92710000D03*
G04 #@! TO.P,U12,2*
G04 #@! TO.N,Net-(U11-Pad13)*
X177800000Y-80010000D03*
G04 #@! TO.P,U12,9*
G04 #@! TO.N,Net-(U12-Pad9)*
X185420000Y-90170000D03*
G04 #@! TO.P,U12,3*
G04 #@! TO.N,N/C*
X177800000Y-82550000D03*
G04 #@! TO.P,U12,10*
G04 #@! TO.N,Net-(U12-Pad10)*
X185420000Y-87630000D03*
G04 #@! TO.P,U12,4*
G04 #@! TO.N,Net-(U12-Pad4)*
X177800000Y-85090000D03*
G04 #@! TO.P,U12,11*
G04 #@! TO.N,N/C*
X185420000Y-85090000D03*
G04 #@! TO.P,U12,5*
G04 #@! TO.N,Net-(U12-Pad5)*
X177800000Y-87630000D03*
G04 #@! TO.P,U12,12*
G04 #@! TO.N,Net-(U12-Pad12)*
X185420000Y-82550000D03*
G04 #@! TO.P,U12,6*
G04 #@! TO.N,Net-(U12-Pad6)*
X177800000Y-90170000D03*
G04 #@! TO.P,U12,13*
G04 #@! TO.N,Net-(U12-Pad13)*
X185420000Y-80010000D03*
G04 #@! TO.P,U12,7*
G04 #@! TO.N,GND*
X177800000Y-92710000D03*
G04 #@! TO.P,U12,14*
G04 #@! TO.N,PWR_ALW*
X185420000Y-77470000D03*
G04 #@! TD*
G04 #@! TO.P,U3,14*
G04 #@! TO.N,+5V*
X161290000Y-30480000D03*
G04 #@! TO.P,U3,7*
G04 #@! TO.N,GND*
X153670000Y-45720000D03*
G04 #@! TO.P,U3,13*
G04 #@! TO.N,N/C*
X161290000Y-33020000D03*
G04 #@! TO.P,U3,6*
G04 #@! TO.N,Net-(U3-Pad6)*
X153670000Y-43180000D03*
G04 #@! TO.P,U3,12*
G04 #@! TO.N,N/C*
X161290000Y-35560000D03*
G04 #@! TO.P,U3,5*
G04 #@! TO.N,/Mem.Comparison.Equal*
X153670000Y-40640000D03*
G04 #@! TO.P,U3,11*
G04 #@! TO.N,N/C*
X161290000Y-38100000D03*
G04 #@! TO.P,U3,4*
G04 #@! TO.N,/Timer.End*
X153670000Y-38100000D03*
G04 #@! TO.P,U3,10*
G04 #@! TO.N,N/C*
X161290000Y-40640000D03*
G04 #@! TO.P,U3,3*
G04 #@! TO.N,+5V*
X153670000Y-35560000D03*
G04 #@! TO.P,U3,9*
G04 #@! TO.N,N/C*
X161290000Y-43180000D03*
G04 #@! TO.P,U3,2*
G04 #@! TO.N,/Reset(Out)*
X153670000Y-33020000D03*
G04 #@! TO.P,U3,8*
G04 #@! TO.N,N/C*
X161290000Y-45720000D03*
D10*
G04 #@! TO.P,U3,1*
G04 #@! TO.N,/Next(Out)*
X153670000Y-30480000D03*
G04 #@! TD*
G04 #@! TO.P,U14,1*
G04 #@! TO.N,Net-(U14-Pad1)*
X199390000Y-52070000D03*
D11*
G04 #@! TO.P,U14,8*
G04 #@! TO.N,/Reset(Out)*
X207010000Y-67310000D03*
G04 #@! TO.P,U14,2*
G04 #@! TO.N,Net-(U14-Pad2)*
X199390000Y-54610000D03*
G04 #@! TO.P,U14,9*
G04 #@! TO.N,Net-(CONN_SW_DPST01_TIMER_1-Pad2)*
X207010000Y-64770000D03*
G04 #@! TO.P,U14,3*
G04 #@! TO.N,/Timer.End*
X199390000Y-57150000D03*
G04 #@! TO.P,U14,10*
G04 #@! TO.N,Net-(U14-Pad10)*
X207010000Y-62230000D03*
G04 #@! TO.P,U14,4*
G04 #@! TO.N,Net-(U14-Pad4)*
X199390000Y-59690000D03*
G04 #@! TO.P,U14,11*
G04 #@! TO.N,N/C*
X207010000Y-59690000D03*
G04 #@! TO.P,U14,5*
G04 #@! TO.N,Net-(U14-Pad5)*
X199390000Y-62230000D03*
G04 #@! TO.P,U14,12*
G04 #@! TO.N,N/C*
X207010000Y-57150000D03*
G04 #@! TO.P,U14,6*
G04 #@! TO.N,Net-(U14-Pad6)*
X199390000Y-64770000D03*
G04 #@! TO.P,U14,13*
G04 #@! TO.N,N/C*
X207010000Y-54610000D03*
G04 #@! TO.P,U14,7*
G04 #@! TO.N,GND*
X199390000Y-67310000D03*
G04 #@! TO.P,U14,14*
G04 #@! TO.N,+5V*
X207010000Y-52070000D03*
G04 #@! TD*
G04 #@! TO.P,U19,14*
G04 #@! TO.N,+5V*
X241300000Y-78740000D03*
G04 #@! TO.P,U19,7*
G04 #@! TO.N,GND*
X233680000Y-93980000D03*
G04 #@! TO.P,U19,13*
G04 #@! TO.N,Net-(C13-Pad1)*
X241300000Y-81280000D03*
G04 #@! TO.P,U19,6*
G04 #@! TO.N,Net-(U10-Pad4)*
X233680000Y-91440000D03*
G04 #@! TO.P,U19,12*
G04 #@! TO.N,+5V*
X241300000Y-83820000D03*
G04 #@! TO.P,U19,5*
G04 #@! TO.N,Net-(U13-Pad8)*
X233680000Y-88900000D03*
G04 #@! TO.P,U19,11*
G04 #@! TO.N,Net-(U14-Pad10)*
X241300000Y-86360000D03*
G04 #@! TO.P,U19,4*
G04 #@! TO.N,Net-(U19-Pad4)*
X233680000Y-86360000D03*
G04 #@! TO.P,U19,10*
G04 #@! TO.N,Net-(U13-Pad11)*
X241300000Y-88900000D03*
G04 #@! TO.P,U19,3*
G04 #@! TO.N,Net-(U10-Pad3)*
X233680000Y-83820000D03*
G04 #@! TO.P,U19,9*
G04 #@! TO.N,Net-(U19-Pad9)*
X241300000Y-91440000D03*
G04 #@! TO.P,U19,2*
G04 #@! TO.N,Net-(U13-Pad9)*
X233680000Y-81280000D03*
G04 #@! TO.P,U19,8*
G04 #@! TO.N,Net-(U10-Pad5)*
X241300000Y-93980000D03*
D10*
G04 #@! TO.P,U19,1*
G04 #@! TO.N,Net-(U19-Pad1)*
X233680000Y-78740000D03*
G04 #@! TD*
G04 #@! TO.P,U15,1*
G04 #@! TO.N,/Reset(Out)*
X198120000Y-24130000D03*
D11*
G04 #@! TO.P,U15,8*
G04 #@! TO.N,N/C*
X205740000Y-39370000D03*
G04 #@! TO.P,U15,2*
G04 #@! TO.N,Net-(U15-Pad2)*
X198120000Y-26670000D03*
G04 #@! TO.P,U15,9*
G04 #@! TO.N,N/C*
X205740000Y-36830000D03*
G04 #@! TO.P,U15,3*
G04 #@! TO.N,Net-(U15-Pad3)*
X198120000Y-29210000D03*
G04 #@! TO.P,U15,10*
G04 #@! TO.N,N/C*
X205740000Y-34290000D03*
G04 #@! TO.P,U15,4*
G04 #@! TO.N,Net-(U15-Pad4)*
X198120000Y-31750000D03*
G04 #@! TO.P,U15,11*
G04 #@! TO.N,N/C*
X205740000Y-31750000D03*
G04 #@! TO.P,U15,5*
G04 #@! TO.N,Net-(U10-Pad6)*
X198120000Y-34290000D03*
G04 #@! TO.P,U15,12*
G04 #@! TO.N,N/C*
X205740000Y-29210000D03*
G04 #@! TO.P,U15,6*
G04 #@! TO.N,/Comparison.Equal*
X198120000Y-36830000D03*
G04 #@! TO.P,U15,13*
G04 #@! TO.N,N/C*
X205740000Y-26670000D03*
G04 #@! TO.P,U15,7*
G04 #@! TO.N,GND*
X198120000Y-39370000D03*
G04 #@! TO.P,U15,14*
G04 #@! TO.N,+5V*
X205740000Y-24130000D03*
G04 #@! TD*
D10*
G04 #@! TO.P,U16,1*
G04 #@! TO.N,Net-(U16-Pad1)*
X177800000Y-52070000D03*
D11*
G04 #@! TO.P,U16,8*
G04 #@! TO.N,N/C*
X185420000Y-67310000D03*
G04 #@! TO.P,U16,2*
G04 #@! TO.N,Net-(U16-Pad2)*
X177800000Y-54610000D03*
G04 #@! TO.P,U16,9*
G04 #@! TO.N,N/C*
X185420000Y-64770000D03*
G04 #@! TO.P,U16,3*
G04 #@! TO.N,Net-(U14-Pad1)*
X177800000Y-57150000D03*
G04 #@! TO.P,U16,10*
G04 #@! TO.N,N/C*
X185420000Y-62230000D03*
G04 #@! TO.P,U16,4*
G04 #@! TO.N,Net-(U11-Pad11)*
X177800000Y-59690000D03*
G04 #@! TO.P,U16,11*
G04 #@! TO.N,N/C*
X185420000Y-59690000D03*
G04 #@! TO.P,U16,5*
G04 #@! TO.N,Net-(U14-Pad4)*
X177800000Y-62230000D03*
G04 #@! TO.P,U16,12*
G04 #@! TO.N,N/C*
X185420000Y-57150000D03*
G04 #@! TO.P,U16,6*
G04 #@! TO.N,Net-(U14-Pad2)*
X177800000Y-64770000D03*
G04 #@! TO.P,U16,13*
G04 #@! TO.N,N/C*
X185420000Y-54610000D03*
G04 #@! TO.P,U16,7*
G04 #@! TO.N,GND*
X177800000Y-67310000D03*
G04 #@! TO.P,U16,14*
G04 #@! TO.N,+5V*
X185420000Y-52070000D03*
G04 #@! TD*
D10*
G04 #@! TO.P,U18,1*
G04 #@! TO.N,Net-(U14-Pad6)*
X199390000Y-109220000D03*
D11*
G04 #@! TO.P,U18,8*
G04 #@! TO.N,Net-(U18-Pad8)*
X207010000Y-124460000D03*
G04 #@! TO.P,U18,2*
G04 #@! TO.N,Net-(U18-Pad2)*
X199390000Y-111760000D03*
G04 #@! TO.P,U18,9*
G04 #@! TO.N,Net-(U18-Pad9)*
X207010000Y-121920000D03*
G04 #@! TO.P,U18,3*
G04 #@! TO.N,Net-(U18-Pad2)*
X199390000Y-114300000D03*
G04 #@! TO.P,U18,10*
G04 #@! TO.N,GND*
X207010000Y-119380000D03*
G04 #@! TO.P,U18,4*
G04 #@! TO.N,Net-(U18-Pad4)*
X199390000Y-116840000D03*
G04 #@! TO.P,U18,11*
G04 #@! TO.N,/Completed(In)*
X207010000Y-116840000D03*
G04 #@! TO.P,U18,5*
G04 #@! TO.N,+5V*
X199390000Y-119380000D03*
G04 #@! TO.P,U18,12*
G04 #@! TO.N,Net-(U18-Pad12)*
X207010000Y-114300000D03*
G04 #@! TO.P,U18,6*
G04 #@! TO.N,Net-(U18-Pad6)*
X199390000Y-121920000D03*
G04 #@! TO.P,U18,13*
G04 #@! TO.N,Net-(U18-Pad13)*
X207010000Y-111760000D03*
G04 #@! TO.P,U18,7*
G04 #@! TO.N,Net-(U18-Pad7)*
X199390000Y-124460000D03*
G04 #@! TO.P,U18,14*
G04 #@! TO.N,Net-(U18-Pad14)*
X207010000Y-109220000D03*
G04 #@! TD*
G04 #@! TO.P,U23,14*
G04 #@! TO.N,+5V*
X119380000Y-116840000D03*
G04 #@! TO.P,U23,7*
G04 #@! TO.N,GND*
X111760000Y-132080000D03*
G04 #@! TO.P,U23,13*
G04 #@! TO.N,N/C*
X119380000Y-119380000D03*
G04 #@! TO.P,U23,6*
G04 #@! TO.N,Net-(R20-Pad1)*
X111760000Y-129540000D03*
G04 #@! TO.P,U23,12*
G04 #@! TO.N,N/C*
X119380000Y-121920000D03*
G04 #@! TO.P,U23,5*
G04 #@! TO.N,Net-(U22-Pad5)*
X111760000Y-127000000D03*
G04 #@! TO.P,U23,11*
G04 #@! TO.N,N/C*
X119380000Y-124460000D03*
G04 #@! TO.P,U23,4*
G04 #@! TO.N,Net-(R19-Pad1)*
X111760000Y-124460000D03*
G04 #@! TO.P,U23,10*
G04 #@! TO.N,N/C*
X119380000Y-127000000D03*
G04 #@! TO.P,U23,3*
G04 #@! TO.N,Net-(U22-Pad6)*
X111760000Y-121920000D03*
G04 #@! TO.P,U23,9*
G04 #@! TO.N,Net-(U22-Pad4)*
X119380000Y-129540000D03*
G04 #@! TO.P,U23,2*
G04 #@! TO.N,Net-(R18-Pad1)*
X111760000Y-119380000D03*
G04 #@! TO.P,U23,8*
G04 #@! TO.N,Net-(R21-Pad1)*
X119380000Y-132080000D03*
D10*
G04 #@! TO.P,U23,1*
G04 #@! TO.N,Net-(U22-Pad7)*
X111760000Y-116840000D03*
G04 #@! TD*
D11*
G04 #@! TO.P,U5,14*
G04 #@! TO.N,+5V*
X221615000Y-52070000D03*
G04 #@! TO.P,U5,7*
G04 #@! TO.N,GND*
X213995000Y-67310000D03*
G04 #@! TO.P,U5,13*
G04 #@! TO.N,Net-(U15-Pad2)*
X221615000Y-54610000D03*
G04 #@! TO.P,U5,6*
G04 #@! TO.N,N/C*
X213995000Y-64770000D03*
G04 #@! TO.P,U5,12*
G04 #@! TO.N,/Next(Out)*
X221615000Y-57150000D03*
G04 #@! TO.P,U5,5*
G04 #@! TO.N,N/C*
X213995000Y-62230000D03*
G04 #@! TO.P,U5,11*
G04 #@! TO.N,Net-(U14-Pad5)*
X221615000Y-59690000D03*
G04 #@! TO.P,U5,4*
G04 #@! TO.N,N/C*
X213995000Y-59690000D03*
G04 #@! TO.P,U5,10*
X221615000Y-62230000D03*
G04 #@! TO.P,U5,3*
X213995000Y-57150000D03*
G04 #@! TO.P,U5,9*
X221615000Y-64770000D03*
G04 #@! TO.P,U5,2*
X213995000Y-54610000D03*
G04 #@! TO.P,U5,8*
X221615000Y-67310000D03*
D10*
G04 #@! TO.P,U5,1*
X213995000Y-52070000D03*
G04 #@! TD*
D11*
G04 #@! TO.P,U6,14*
G04 #@! TO.N,+5V*
X207010000Y-78740000D03*
G04 #@! TO.P,U6,7*
G04 #@! TO.N,GND*
X199390000Y-93980000D03*
G04 #@! TO.P,U6,13*
G04 #@! TO.N,Net-(U15-Pad3)*
X207010000Y-81280000D03*
G04 #@! TO.P,U6,6*
X199390000Y-91440000D03*
G04 #@! TO.P,U6,12*
G04 #@! TO.N,Net-(U11-Pad8)*
X207010000Y-83820000D03*
G04 #@! TO.P,U6,5*
G04 #@! TO.N,/Reset(Out)*
X199390000Y-88900000D03*
G04 #@! TO.P,U6,11*
G04 #@! TO.N,Net-(U13-Pad2)*
X207010000Y-86360000D03*
G04 #@! TO.P,U6,4*
G04 #@! TO.N,/Next(Out)*
X199390000Y-86360000D03*
G04 #@! TO.P,U6,10*
G04 #@! TO.N,N/C*
X207010000Y-88900000D03*
G04 #@! TO.P,U6,3*
X199390000Y-83820000D03*
G04 #@! TO.P,U6,9*
X207010000Y-91440000D03*
G04 #@! TO.P,U6,2*
X199390000Y-81280000D03*
G04 #@! TO.P,U6,8*
X207010000Y-93980000D03*
D10*
G04 #@! TO.P,U6,1*
X199390000Y-78740000D03*
G04 #@! TD*
G04 #@! TO.P,U10,1*
G04 #@! TO.N,N/C*
X214630000Y-24765000D03*
D11*
G04 #@! TO.P,U10,8*
X222250000Y-40005000D03*
G04 #@! TO.P,U10,2*
X214630000Y-27305000D03*
G04 #@! TO.P,U10,9*
X222250000Y-37465000D03*
G04 #@! TO.P,U10,3*
G04 #@! TO.N,Net-(U10-Pad3)*
X214630000Y-29845000D03*
G04 #@! TO.P,U10,10*
G04 #@! TO.N,N/C*
X222250000Y-34925000D03*
G04 #@! TO.P,U10,4*
G04 #@! TO.N,Net-(U10-Pad4)*
X214630000Y-32385000D03*
G04 #@! TO.P,U10,11*
G04 #@! TO.N,N/C*
X222250000Y-32385000D03*
G04 #@! TO.P,U10,5*
G04 #@! TO.N,Net-(U10-Pad5)*
X214630000Y-34925000D03*
G04 #@! TO.P,U10,12*
G04 #@! TO.N,N/C*
X222250000Y-29845000D03*
G04 #@! TO.P,U10,6*
G04 #@! TO.N,Net-(U10-Pad6)*
X214630000Y-37465000D03*
G04 #@! TO.P,U10,13*
G04 #@! TO.N,N/C*
X222250000Y-27305000D03*
G04 #@! TO.P,U10,7*
G04 #@! TO.N,GND*
X214630000Y-40005000D03*
G04 #@! TO.P,U10,14*
G04 #@! TO.N,+5V*
X222250000Y-24765000D03*
G04 #@! TD*
D10*
G04 #@! TO.P,U11,1*
G04 #@! TO.N,Net-(U1-Pad11)*
X51435000Y-55880000D03*
D11*
G04 #@! TO.P,U11,8*
G04 #@! TO.N,Net-(U11-Pad8)*
X59055000Y-71120000D03*
G04 #@! TO.P,U11,2*
G04 #@! TO.N,/Running(Out)*
X51435000Y-58420000D03*
G04 #@! TO.P,U11,9*
G04 #@! TO.N,Net-(U11-Pad9)*
X59055000Y-68580000D03*
G04 #@! TO.P,U11,3*
G04 #@! TO.N,Net-(U11-Pad3)*
X51435000Y-60960000D03*
G04 #@! TO.P,U11,10*
G04 #@! TO.N,/Mem.Comparison.Equal*
X59055000Y-66040000D03*
G04 #@! TO.P,U11,4*
G04 #@! TO.N,CLK_MIN*
X51435000Y-63500000D03*
G04 #@! TO.P,U11,11*
G04 #@! TO.N,Net-(U11-Pad11)*
X59055000Y-63500000D03*
G04 #@! TO.P,U11,5*
G04 #@! TO.N,/Running(Out)*
X51435000Y-66040000D03*
G04 #@! TO.P,U11,12*
G04 #@! TO.N,Net-(U11-Pad12)*
X59055000Y-60960000D03*
G04 #@! TO.P,U11,6*
G04 #@! TO.N,Net-(U11-Pad6)*
X51435000Y-68580000D03*
G04 #@! TO.P,U11,13*
G04 #@! TO.N,Net-(U11-Pad13)*
X59055000Y-58420000D03*
G04 #@! TO.P,U11,7*
G04 #@! TO.N,GND*
X51435000Y-71120000D03*
G04 #@! TO.P,U11,14*
G04 #@! TO.N,+5V*
X59055000Y-55880000D03*
G04 #@! TD*
G04 #@! TO.P,U13,14*
G04 #@! TO.N,Net-(U13-Pad14)*
X221615000Y-78740000D03*
G04 #@! TO.P,U13,7*
G04 #@! TO.N,Net-(U13-Pad7)*
X213995000Y-93980000D03*
G04 #@! TO.P,U13,13*
G04 #@! TO.N,Net-(U13-Pad13)*
X221615000Y-81280000D03*
G04 #@! TO.P,U13,6*
G04 #@! TO.N,Net-(U13-Pad6)*
X213995000Y-91440000D03*
G04 #@! TO.P,U13,12*
G04 #@! TO.N,Net-(U13-Pad12)*
X221615000Y-83820000D03*
G04 #@! TO.P,U13,5*
G04 #@! TO.N,+5V*
X213995000Y-88900000D03*
G04 #@! TO.P,U13,11*
G04 #@! TO.N,Net-(U13-Pad11)*
X221615000Y-86360000D03*
G04 #@! TO.P,U13,4*
G04 #@! TO.N,Net-(U13-Pad4)*
X213995000Y-86360000D03*
G04 #@! TO.P,U13,10*
G04 #@! TO.N,GND*
X221615000Y-88900000D03*
G04 #@! TO.P,U13,3*
G04 #@! TO.N,Net-(U13-Pad2)*
X213995000Y-83820000D03*
G04 #@! TO.P,U13,9*
G04 #@! TO.N,Net-(U13-Pad9)*
X221615000Y-91440000D03*
G04 #@! TO.P,U13,2*
G04 #@! TO.N,Net-(U13-Pad2)*
X213995000Y-81280000D03*
G04 #@! TO.P,U13,8*
G04 #@! TO.N,Net-(U13-Pad8)*
X221615000Y-93980000D03*
D10*
G04 #@! TO.P,U13,1*
G04 #@! TO.N,/Timer.End*
X213995000Y-78740000D03*
G04 #@! TD*
D11*
G04 #@! TO.P,U24,16*
G04 #@! TO.N,+5V*
X161290000Y-114300000D03*
G04 #@! TO.P,U24,8*
G04 #@! TO.N,GND*
X153670000Y-132080000D03*
G04 #@! TO.P,U24,15*
X161290000Y-116840000D03*
G04 #@! TO.P,U24,7*
G04 #@! TO.N,Net-(CONN_LED_LINE3_11-Pad2)*
X153670000Y-129540000D03*
G04 #@! TO.P,U24,14*
G04 #@! TO.N,Net-(U24-Pad14)*
X161290000Y-119380000D03*
G04 #@! TO.P,U24,6*
G04 #@! TO.N,Net-(U22-Pad5)*
X153670000Y-127000000D03*
G04 #@! TO.P,U24,13*
G04 #@! TO.N,Net-(U24-Pad13)*
X161290000Y-121920000D03*
G04 #@! TO.P,U24,5*
G04 #@! TO.N,Net-(CONN_LED_LINE2_10-Pad2)*
X153670000Y-124460000D03*
G04 #@! TO.P,U24,12*
G04 #@! TO.N,Net-(U24-Pad12)*
X161290000Y-124460000D03*
G04 #@! TO.P,U24,4*
G04 #@! TO.N,Net-(U22-Pad6)*
X153670000Y-121920000D03*
G04 #@! TO.P,U24,11*
G04 #@! TO.N,Net-(U24-Pad11)*
X161290000Y-127000000D03*
G04 #@! TO.P,U24,3*
G04 #@! TO.N,Net-(CONN_LED_LINE1_9-Pad2)*
X153670000Y-119380000D03*
G04 #@! TO.P,U24,10*
G04 #@! TO.N,Net-(U22-Pad4)*
X161290000Y-129540000D03*
G04 #@! TO.P,U24,2*
G04 #@! TO.N,Net-(U22-Pad7)*
X153670000Y-116840000D03*
G04 #@! TO.P,U24,9*
G04 #@! TO.N,Net-(CONN_LED_LINE4_12-Pad2)*
X161290000Y-132080000D03*
D10*
G04 #@! TO.P,U24,1*
G04 #@! TO.N,GND*
X153670000Y-114300000D03*
G04 #@! TD*
G04 #@! TO.P,U21,1*
G04 #@! TO.N,Net-(U14-Pad4)*
X215265000Y-107950000D03*
D11*
G04 #@! TO.P,U21,9*
G04 #@! TO.N,Net-(D1-Pad1)*
X222885000Y-125730000D03*
G04 #@! TO.P,U21,2*
G04 #@! TO.N,Net-(U18-Pad9)*
X215265000Y-110490000D03*
G04 #@! TO.P,U21,10*
G04 #@! TO.N,Net-(D6-Pad1)*
X222885000Y-123190000D03*
G04 #@! TO.P,U21,3*
G04 #@! TO.N,Net-(U18-Pad8)*
X215265000Y-113030000D03*
G04 #@! TO.P,U21,11*
G04 #@! TO.N,Net-(D2-Pad1)*
X222885000Y-120650000D03*
G04 #@! TO.P,U21,4*
G04 #@! TO.N,GND*
X215265000Y-115570000D03*
G04 #@! TO.P,U21,12*
G04 #@! TO.N,Net-(D7-Pad1)*
X222885000Y-118110000D03*
G04 #@! TO.P,U21,5*
G04 #@! TO.N,GND*
X215265000Y-118110000D03*
G04 #@! TO.P,U21,13*
G04 #@! TO.N,Net-(D3-Pad1)*
X222885000Y-115570000D03*
G04 #@! TO.P,U21,6*
G04 #@! TO.N,/Running(Out)*
X215265000Y-120650000D03*
G04 #@! TO.P,U21,14*
G04 #@! TO.N,Net-(D8-Pad1)*
X222885000Y-113030000D03*
G04 #@! TO.P,U21,7*
G04 #@! TO.N,Net-(D5-Pad1)*
X215265000Y-123190000D03*
G04 #@! TO.P,U21,15*
G04 #@! TO.N,Net-(D4-Pad1)*
X222885000Y-110490000D03*
G04 #@! TO.P,U21,8*
G04 #@! TO.N,GND*
X215265000Y-125730000D03*
G04 #@! TO.P,U21,16*
G04 #@! TO.N,+5V*
X222885000Y-107950000D03*
G04 #@! TD*
D15*
G04 #@! TO.P,U20,1*
G04 #@! TO.N,/D4*
X243840000Y-139065000D03*
D14*
G04 #@! TO.P,U20,9*
G04 #@! TO.N,Net-(U19-Pad1)*
X226060000Y-146685000D03*
G04 #@! TO.P,U20,2*
G04 #@! TO.N,+5V*
X241300000Y-139065000D03*
G04 #@! TO.P,U20,10*
G04 #@! TO.N,/D0*
X228600000Y-146685000D03*
G04 #@! TO.P,U20,3*
G04 #@! TO.N,+5V*
X238760000Y-139065000D03*
G04 #@! TO.P,U20,11*
G04 #@! TO.N,/D1*
X231140000Y-146685000D03*
G04 #@! TO.P,U20,4*
G04 #@! TO.N,+5V*
X236220000Y-139065000D03*
G04 #@! TO.P,U20,12*
G04 #@! TO.N,/D2*
X233680000Y-146685000D03*
G04 #@! TO.P,U20,5*
G04 #@! TO.N,/RunningInv(out)*
X233680000Y-139065000D03*
G04 #@! TO.P,U20,13*
G04 #@! TO.N,/D3*
X236220000Y-146685000D03*
G04 #@! TO.P,U20,6*
G04 #@! TO.N,Net-(U19-Pad9)*
X231140000Y-139065000D03*
G04 #@! TO.P,U20,14*
G04 #@! TO.N,Net-(U20-Pad14)*
X238760000Y-146685000D03*
G04 #@! TO.P,U20,7*
G04 #@! TO.N,Net-(U19-Pad4)*
X228600000Y-139065000D03*
G04 #@! TO.P,U20,15*
G04 #@! TO.N,Net-(U20-Pad15)*
X241300000Y-146685000D03*
G04 #@! TO.P,U20,8*
G04 #@! TO.N,GND*
X226060000Y-139065000D03*
G04 #@! TO.P,U20,16*
G04 #@! TO.N,+5V*
X243840000Y-146685000D03*
G04 #@! TD*
D10*
G04 #@! TO.P,U2,1*
G04 #@! TO.N,GND*
X73025000Y-122555000D03*
D11*
G04 #@! TO.P,U2,9*
G04 #@! TO.N,/Rain(In)*
X80645000Y-140335000D03*
G04 #@! TO.P,U2,2*
G04 #@! TO.N,/Control(Ext.)*
X73025000Y-125095000D03*
G04 #@! TO.P,U2,10*
G04 #@! TO.N,/Rain_Sensor(Ext.)*
X80645000Y-137795000D03*
G04 #@! TO.P,U2,3*
G04 #@! TO.N,/Control(In1)*
X73025000Y-127635000D03*
G04 #@! TO.P,U2,11*
G04 #@! TO.N,/Rain(Led)*
X80645000Y-135255000D03*
G04 #@! TO.P,U2,4*
G04 #@! TO.N,/Control(Ext.2)*
X73025000Y-130175000D03*
G04 #@! TO.P,U2,12*
G04 #@! TO.N,/Rain(In)*
X80645000Y-132715000D03*
G04 #@! TO.P,U2,5*
G04 #@! TO.N,/Control(In2)*
X73025000Y-132715000D03*
G04 #@! TO.P,U2,13*
G04 #@! TO.N,/Running(Led)*
X80645000Y-130175000D03*
G04 #@! TO.P,U2,6*
G04 #@! TO.N,/Mode(Ext.)*
X73025000Y-135255000D03*
G04 #@! TO.P,U2,14*
G04 #@! TO.N,/Running(Out)*
X80645000Y-127635000D03*
G04 #@! TO.P,U2,7*
G04 #@! TO.N,/Mode(In)*
X73025000Y-137795000D03*
G04 #@! TO.P,U2,15*
G04 #@! TO.N,GND*
X80645000Y-125095000D03*
G04 #@! TO.P,U2,8*
X73025000Y-140335000D03*
G04 #@! TO.P,U2,16*
G04 #@! TO.N,+5V*
X80645000Y-122555000D03*
G04 #@! TD*
D10*
G04 #@! TO.P,U17,1*
G04 #@! TO.N,Net-(U15-Pad4)*
X177800000Y-21590000D03*
D11*
G04 #@! TO.P,U17,9*
G04 #@! TO.N,Net-(U17-Pad9)*
X185420000Y-39370000D03*
G04 #@! TO.P,U17,2*
G04 #@! TO.N,/Comparison.Equal*
X177800000Y-24130000D03*
G04 #@! TO.P,U17,10*
G04 #@! TO.N,Net-(U17-Pad10)*
X185420000Y-36830000D03*
G04 #@! TO.P,U17,3*
G04 #@! TO.N,/Comparison.Equal*
X177800000Y-26670000D03*
G04 #@! TO.P,U17,11*
G04 #@! TO.N,Net-(U17-Pad11)*
X185420000Y-34290000D03*
G04 #@! TO.P,U17,4*
G04 #@! TO.N,Net-(U11-Pad3)*
X177800000Y-29210000D03*
G04 #@! TO.P,U17,12*
G04 #@! TO.N,Net-(U17-Pad12)*
X185420000Y-31750000D03*
G04 #@! TO.P,U17,5*
G04 #@! TO.N,+5V*
X177800000Y-31750000D03*
G04 #@! TO.P,U17,13*
G04 #@! TO.N,Net-(U17-Pad13)*
X185420000Y-29210000D03*
G04 #@! TO.P,U17,6*
G04 #@! TO.N,/Mem.Comparison.Equal*
X177800000Y-34290000D03*
G04 #@! TO.P,U17,14*
G04 #@! TO.N,Net-(U17-Pad14)*
X185420000Y-26670000D03*
G04 #@! TO.P,U17,7*
G04 #@! TO.N,Net-(U17-Pad7)*
X177800000Y-36830000D03*
G04 #@! TO.P,U17,15*
G04 #@! TO.N,Net-(U17-Pad15)*
X185420000Y-24130000D03*
G04 #@! TO.P,U17,8*
G04 #@! TO.N,GND*
X177800000Y-39370000D03*
G04 #@! TO.P,U17,16*
G04 #@! TO.N,PWR_ALW*
X185420000Y-21590000D03*
G04 #@! TD*
G04 #@! TO.P,U1,16*
G04 #@! TO.N,PWR_ALW*
X64770000Y-160020000D03*
G04 #@! TO.P,U1,8*
G04 #@! TO.N,GND*
X57150000Y-177800000D03*
G04 #@! TO.P,U1,15*
G04 #@! TO.N,Net-(U1-Pad15)*
X64770000Y-162560000D03*
G04 #@! TO.P,U1,7*
G04 #@! TO.N,Net-(U1-Pad4)*
X57150000Y-175260000D03*
G04 #@! TO.P,U1,14*
G04 #@! TO.N,Net-(U1-Pad14)*
X64770000Y-165100000D03*
G04 #@! TO.P,U1,6*
G04 #@! TO.N,CLK_SEC*
X57150000Y-172720000D03*
G04 #@! TO.P,U1,13*
G04 #@! TO.N,Net-(R6-Pad1)*
X64770000Y-167640000D03*
G04 #@! TO.P,U1,5*
G04 #@! TO.N,GND*
X57150000Y-170180000D03*
G04 #@! TO.P,U1,12*
G04 #@! TO.N,Net-(C2-Pad1)*
X64770000Y-170180000D03*
G04 #@! TO.P,U1,4*
G04 #@! TO.N,Net-(U1-Pad4)*
X57150000Y-167640000D03*
G04 #@! TO.P,U1,11*
G04 #@! TO.N,Net-(U1-Pad11)*
X64770000Y-172720000D03*
G04 #@! TO.P,U1,3*
G04 #@! TO.N,Net-(U1-Pad3)*
X57150000Y-165100000D03*
G04 #@! TO.P,U1,10*
G04 #@! TO.N,CLK_MIN*
X64770000Y-175260000D03*
G04 #@! TO.P,U1,2*
G04 #@! TO.N,Net-(U1-Pad2)*
X57150000Y-162560000D03*
G04 #@! TO.P,U1,9*
G04 #@! TO.N,GND*
X64770000Y-177800000D03*
D10*
G04 #@! TO.P,U1,1*
G04 #@! TO.N,Net-(U1-Pad1)*
X57150000Y-160020000D03*
G04 #@! TD*
G04 #@! TO.P,U22,1*
G04 #@! TO.N,/Running(Out)*
X177800000Y-114300000D03*
D11*
G04 #@! TO.P,U22,9*
G04 #@! TO.N,Net-(U22-Pad9)*
X185420000Y-132080000D03*
G04 #@! TO.P,U22,2*
G04 #@! TO.N,GND*
X177800000Y-116840000D03*
G04 #@! TO.P,U22,10*
G04 #@! TO.N,Net-(U22-Pad10)*
X185420000Y-129540000D03*
G04 #@! TO.P,U22,3*
G04 #@! TO.N,Net-(U18-Pad8)*
X177800000Y-119380000D03*
G04 #@! TO.P,U22,11*
G04 #@! TO.N,Net-(U22-Pad11)*
X185420000Y-127000000D03*
G04 #@! TO.P,U22,4*
G04 #@! TO.N,Net-(U22-Pad4)*
X177800000Y-121920000D03*
G04 #@! TO.P,U22,12*
G04 #@! TO.N,Net-(U22-Pad12)*
X185420000Y-124460000D03*
G04 #@! TO.P,U22,5*
G04 #@! TO.N,Net-(U22-Pad5)*
X177800000Y-124460000D03*
G04 #@! TO.P,U22,13*
G04 #@! TO.N,Net-(U18-Pad9)*
X185420000Y-121920000D03*
G04 #@! TO.P,U22,6*
G04 #@! TO.N,Net-(U22-Pad6)*
X177800000Y-127000000D03*
G04 #@! TO.P,U22,14*
G04 #@! TO.N,Net-(U22-Pad14)*
X185420000Y-119380000D03*
G04 #@! TO.P,U22,7*
G04 #@! TO.N,Net-(U22-Pad7)*
X177800000Y-129540000D03*
G04 #@! TO.P,U22,15*
G04 #@! TO.N,Net-(U22-Pad15)*
X185420000Y-116840000D03*
G04 #@! TO.P,U22,8*
G04 #@! TO.N,GND*
X177800000Y-132080000D03*
G04 #@! TO.P,U22,16*
G04 #@! TO.N,+5V*
X185420000Y-114300000D03*
G04 #@! TD*
D12*
G04 #@! TO.P,R5,1*
G04 #@! TO.N,Net-(CONN_LED_MODE_6-Pad2)*
X62865000Y-151765000D03*
D13*
G04 #@! TO.P,R5,2*
G04 #@! TO.N,GND*
X78105000Y-151765000D03*
G04 #@! TD*
G04 #@! TO.P,R6,2*
G04 #@! TO.N,Net-(R6-Pad2)*
X85090000Y-167640000D03*
D12*
G04 #@! TO.P,R6,1*
G04 #@! TO.N,Net-(R6-Pad1)*
X69850000Y-167640000D03*
G04 #@! TD*
D13*
G04 #@! TO.P,R8,2*
G04 #@! TO.N,Net-(C2-Pad1)*
X69850000Y-170180000D03*
D12*
G04 #@! TO.P,R8,1*
G04 #@! TO.N,Net-(R6-Pad2)*
X85090000Y-170180000D03*
G04 #@! TD*
D13*
G04 #@! TO.P,R9,2*
G04 #@! TO.N,Net-(R6-Pad1)*
X92710000Y-161290000D03*
D12*
G04 #@! TO.P,R9,1*
G04 #@! TO.N,Net-(C3-Pad1)*
X92710000Y-176530000D03*
G04 #@! TD*
D13*
G04 #@! TO.P,R10,2*
G04 #@! TO.N,+5V*
X184150000Y-143510000D03*
D12*
G04 #@! TO.P,R10,1*
G04 #@! TO.N,Net-(CONN_LED_LINE4_12-Pad1)*
X168910000Y-143510000D03*
G04 #@! TD*
G04 #@! TO.P,R11,1*
G04 #@! TO.N,Net-(CONN_LED_LINE3_11-Pad1)*
X168910000Y-147320000D03*
D13*
G04 #@! TO.P,R11,2*
G04 #@! TO.N,+5V*
X184150000Y-147320000D03*
G04 #@! TD*
G04 #@! TO.P,R12,2*
G04 #@! TO.N,+5V*
X184150000Y-151130000D03*
D12*
G04 #@! TO.P,R12,1*
G04 #@! TO.N,Net-(CONN_LED_LINE2_10-Pad1)*
X168910000Y-151130000D03*
G04 #@! TD*
G04 #@! TO.P,R13,1*
G04 #@! TO.N,Net-(CONN_LED_LINE1_9-Pad1)*
X168910000Y-154940000D03*
D13*
G04 #@! TO.P,R13,2*
G04 #@! TO.N,+5V*
X184150000Y-154940000D03*
G04 #@! TD*
D44*
G04 #@! TO.N,GND*
X100330000Y-76200000D03*
X102870000Y-82550000D03*
X106680000Y-99060000D03*
X240665000Y-97155000D03*
X78740000Y-44450000D03*
X78740000Y-48260000D03*
X53975000Y-37719999D03*
X191770000Y-106680000D03*
X102235000Y-152405001D03*
X209550000Y-115570000D03*
X229870000Y-96520000D03*
X247180010Y-147955000D03*
X191770000Y-183515000D03*
X58420000Y-118110000D03*
G04 #@! TO.N,+5V*
X121920000Y-110490000D03*
X240665000Y-107950000D03*
X50800000Y-36195000D03*
X48895000Y-34290000D03*
X102235000Y-155575000D03*
X211455000Y-105410000D03*
X209550000Y-105410000D03*
G04 #@! TO.N,/Running(Out)*
X53340000Y-90170000D03*
X55880000Y-90170000D03*
X95250000Y-78740000D03*
X128270000Y-110490000D03*
X128270000Y-90170000D03*
X95250000Y-113030000D03*
X95250000Y-83820000D03*
X92710000Y-59690000D03*
X91440000Y-74930000D03*
X209550000Y-120650000D03*
X208280000Y-130175000D03*
G04 #@! TO.N,Net-(U18-Pad8)*
X181610000Y-119380000D03*
X207010000Y-134620000D03*
X211455000Y-124460000D03*
G04 #@! TO.N,Net-(U22-Pad4)*
X144780000Y-135890000D03*
G04 #@! TO.N,Net-(U22-Pad5)*
X144780000Y-127000000D03*
G04 #@! TO.N,Net-(U18-Pad9)*
X203835000Y-117475000D03*
X212725000Y-121920000D03*
X212725000Y-131445000D03*
G04 #@! TO.N,Net-(U22-Pad6)*
X144780000Y-121920000D03*
X172720000Y-127000000D03*
X172720000Y-127000000D03*
X172720000Y-127000000D03*
G04 #@! TO.N,Net-(U22-Pad7)*
X173990000Y-111760000D03*
G04 #@! TO.N,Net-(U1-Pad11)*
X48895000Y-61595000D03*
X48895000Y-64770000D03*
X48895000Y-69215000D03*
X50800000Y-88900000D03*
X50800000Y-92710000D03*
X48260000Y-185420000D03*
X50800000Y-96520000D03*
G04 #@! TO.N,Net-(U11-Pad8)*
X194310000Y-66040000D03*
X194310000Y-72390000D03*
X198882000Y-72390000D03*
X146050000Y-45085000D03*
X127000000Y-51435000D03*
X193040000Y-44450000D03*
G04 #@! TO.N,Net-(U15-Pad4)*
X111760000Y-50165000D03*
X132080000Y-50165000D03*
X139700000Y-44450000D03*
X139700000Y-36195000D03*
X151130000Y-36195000D03*
X151130000Y-31750000D03*
X165100000Y-20320000D03*
X173355000Y-19050000D03*
X177800000Y-19050000D03*
X177800000Y-19050000D03*
G04 #@! TO.N,Net-(U11-Pad3)*
X119380000Y-44450000D03*
X133350000Y-74930000D03*
X133350000Y-99060000D03*
X119380000Y-29210000D03*
G04 #@! TO.N,Net-(U19-Pad1)*
X233680000Y-102870000D03*
X237490000Y-102870000D03*
G04 #@! TO.N,/RunningInv(out)*
X130810000Y-92710000D03*
X140335000Y-144780000D03*
G04 #@! TO.N,Net-(U16-Pad2)*
X148590000Y-54610000D03*
X140970000Y-54610000D03*
X128270000Y-54610000D03*
X146050000Y-54610000D03*
G04 #@! TO.N,Net-(U11-Pad12)*
X135890000Y-58420000D03*
X142240000Y-58420000D03*
G04 #@! TO.N,Net-(U12-Pad4)*
X161290000Y-78740000D03*
X161290000Y-83820000D03*
G04 #@! TO.N,Net-(U11-Pad13)*
X137160000Y-71120000D03*
X142240000Y-71120000D03*
G04 #@! TO.N,Net-(U12-Pad5)*
X173990000Y-77470000D03*
G04 #@! TO.N,Net-(U11-Pad6)*
X142240000Y-31750000D03*
X142240000Y-43180000D03*
X143510000Y-46990000D03*
X142240000Y-29210000D03*
G04 #@! TO.N,Net-(U11-Pad9)*
X115570000Y-40640000D03*
X134620000Y-74930000D03*
X134620000Y-101600000D03*
G04 #@! TO.N,Net-(U11-Pad11)*
X168910000Y-30480000D03*
X123190000Y-34290000D03*
X123190000Y-27940000D03*
X168910000Y-22860000D03*
X172720000Y-45720000D03*
G04 #@! TO.N,Net-(U10-Pad4)*
X227330000Y-76200000D03*
G04 #@! TO.N,Net-(U10-Pad3)*
X228600000Y-74930000D03*
G04 #@! TO.N,/Completed(In)*
X66040000Y-109220000D03*
X73025000Y-78740000D03*
G04 #@! TO.N,/Reset(Out)*
X193040000Y-16510000D03*
X149860000Y-16510000D03*
X194310000Y-38100000D03*
X196850000Y-48260000D03*
X196850000Y-55880000D03*
X195580000Y-58420000D03*
X195580000Y-66040000D03*
X195580000Y-71120000D03*
X126365000Y-39370000D03*
X97155000Y-37465000D03*
X89535000Y-59690000D03*
X89535000Y-57150000D03*
G04 #@! TO.N,/Next(Out)*
X195580000Y-93980000D03*
X195580000Y-90170000D03*
X195580000Y-107950000D03*
X138430000Y-107950000D03*
X195580000Y-100330000D03*
X138430000Y-90805000D03*
X208280000Y-71120000D03*
G04 #@! TO.N,Net-(U15-Pad2)*
X201930000Y-46990000D03*
G04 #@! TO.N,Net-(U14-Pad6)*
X194310000Y-106680000D03*
G04 #@! TO.N,Net-(U16-Pad1)*
X167640000Y-52070000D03*
X167640000Y-99060000D03*
G04 #@! TO.N,/D1*
X242570000Y-181610000D03*
G04 #@! TO.N,/D3*
X224790000Y-182880000D03*
G04 #@! TO.N,Net-(U31-Pad10)*
X86360000Y-64770000D03*
X91440000Y-64770000D03*
G04 #@! TO.N,Net-(U32-Pad2)*
X107950000Y-90170000D03*
X107950000Y-82550000D03*
X107950000Y-82550000D03*
X86360000Y-86360000D03*
G04 #@! TO.N,Net-(U32-Pad4)*
X105410000Y-92710000D03*
X105410000Y-82550000D03*
X105410000Y-82550000D03*
G04 #@! TO.N,Net-(U31-Pad11)*
X92710000Y-73660000D03*
X97790000Y-73660000D03*
X97790000Y-73660000D03*
X97790000Y-73660000D03*
X102870000Y-73660000D03*
G04 #@! TO.N,Net-(U31-Pad8)*
X102870000Y-66040000D03*
G04 #@! TO.N,Net-(U31-Pad1)*
X72390000Y-60960000D03*
X72390000Y-60960000D03*
X77470000Y-62230000D03*
X77470000Y-62230000D03*
X77470000Y-62230000D03*
X99060000Y-81280000D03*
X99060000Y-87630000D03*
X99060000Y-87630000D03*
X63500000Y-95250000D03*
X58420000Y-88265000D03*
X58420000Y-84455000D03*
G04 #@! TO.N,/Control(Ext.)*
X60960000Y-117944990D03*
G04 #@! TO.N,/Mode(In)*
X115570000Y-85090000D03*
X115570000Y-85090000D03*
G04 #@! TO.N,/Control(In2)*
X60960000Y-92710000D03*
X60960000Y-81280000D03*
X60960000Y-87630000D03*
G04 #@! TO.N,/Control(In1)*
X73025000Y-127635000D03*
X59690000Y-92710000D03*
X59690000Y-88900000D03*
X59690000Y-81915000D03*
G04 #@! TO.N,/Mem.Comparison.Equal*
X134620000Y-35560000D03*
G04 #@! TO.N,/Timer.End*
X158750000Y-50800000D03*
X194310000Y-48260000D03*
X213360000Y-72390000D03*
G04 #@! TO.N,Net-(U17-Pad1)*
X191770000Y-73660000D03*
X170180000Y-63500000D03*
G04 #@! TO.N,Net-(U14-Pad4)*
X187960000Y-59690000D03*
X127000000Y-58801000D03*
X118999000Y-57150000D03*
X142240000Y-52070000D03*
X165100000Y-53340000D03*
X198755000Y-104140000D03*
X195580000Y-102235000D03*
X191770000Y-74930000D03*
X184785000Y-72390000D03*
X207010000Y-101600000D03*
X165100000Y-60325000D03*
G04 #@! TO.N,Net-(R20-Pad2)*
X141759989Y-138584989D03*
X146050000Y-160020000D03*
G04 #@! TO.N,Net-(R21-Pad2)*
X142709990Y-137160000D03*
X168910000Y-160020000D03*
G04 #@! TO.N,Net-(R18-Pad2)*
X100330000Y-160655000D03*
G04 #@! TO.N,Net-(R19-Pad2)*
X141605000Y-141605000D03*
X141605000Y-157480000D03*
X123190000Y-160655000D03*
X123190000Y-157480000D03*
G04 #@! TO.N,PWR_ALW*
X172720000Y-21590000D03*
X50800000Y-14605000D03*
X95250000Y-17780000D03*
X113665000Y-18415000D03*
X45085000Y-54285299D03*
X69215000Y-185420000D03*
X73230000Y-114095000D03*
X54610000Y-116840000D03*
X45720000Y-111760000D03*
X48260000Y-111760000D03*
X180340000Y-72790000D03*
X180340000Y-66675000D03*
X182880000Y-64135000D03*
X44450000Y-185420000D03*
G04 #@! TO.N,VAC*
X111760000Y-168910000D03*
X133985000Y-168910000D03*
X156845000Y-169545000D03*
X188595000Y-171450000D03*
G04 #@! TO.N,+9V*
X259715000Y-33020000D03*
X259715000Y-12080010D03*
G04 #@! TO.N,Net-(C1-Pad1)*
X79375000Y-120015000D03*
X83185000Y-120015000D03*
X86360000Y-119585000D03*
X105879990Y-152234990D03*
G04 #@! TO.N,Net-(D11-Pad2)*
X259715000Y-82550000D03*
X43830010Y-55880000D03*
G04 #@! TO.N,CLK_MIN*
X46355000Y-63500000D03*
X73025000Y-45085000D03*
X71755000Y-49530000D03*
X62865000Y-109220000D03*
X55245000Y-109220000D03*
X53340000Y-105410000D03*
X46990000Y-105410000D03*
G04 #@! TO.N,Net-(U34-Pad8)*
X105410000Y-114300000D03*
X108585000Y-118110000D03*
X120650000Y-107950000D03*
X135890000Y-107950000D03*
X171450000Y-102235000D03*
X165265010Y-102235000D03*
X135890000Y-102870000D03*
X148590000Y-105410000D03*
G04 #@! TO.N,Net-(U34-Pad13)*
X76200000Y-34925000D03*
X76200000Y-38100000D03*
G04 #@! TO.N,Net-(U34-Pad1)*
X74930000Y-34925000D03*
X74930000Y-38100000D03*
X64770000Y-87630000D03*
X64770000Y-82550000D03*
X59055000Y-78740000D03*
G04 #@! TO.N,Net-(U34-Pad2)*
X73660000Y-34925000D03*
X73660000Y-38100000D03*
X58104999Y-79694999D03*
X63500000Y-83820000D03*
X64770000Y-90170000D03*
G04 #@! TO.N,CLK_SEC*
X99196002Y-80010000D03*
X47940001Y-103505000D03*
X53340000Y-103505000D03*
X57150000Y-110490000D03*
X67310000Y-110490000D03*
X92710000Y-110490000D03*
G04 #@! TO.N,Net-(U17-Pad9)*
X128270000Y-56515000D03*
X185420000Y-44450000D03*
X165100000Y-48260000D03*
X161925000Y-48260000D03*
X150495000Y-46990000D03*
G04 #@! TO.N,Net-(U17-Pad11)*
X69215000Y-33655000D03*
X140970000Y-24130000D03*
X171450000Y-18099999D03*
G04 #@! TO.N,Net-(U17-Pad15)*
X187960000Y-41275000D03*
X187960000Y-44450000D03*
X151765000Y-50800000D03*
X144780000Y-77470000D03*
X142240000Y-77470000D03*
X97155000Y-93980000D03*
X97155000Y-86360000D03*
X109220000Y-86360000D03*
X109855000Y-82550000D03*
X137160000Y-80645000D03*
G04 #@! TO.N,Net-(U18-Pad2)*
X147320000Y-105410000D03*
X164465000Y-113030000D03*
X193040000Y-133350000D03*
X188595000Y-133350000D03*
X174625000Y-140335000D03*
X164465000Y-140335000D03*
X167640000Y-113030000D03*
G04 #@! TO.N,Net-(U15-Pad3)*
X200660000Y-69850000D03*
X200660000Y-73660000D03*
X196850000Y-74930000D03*
G04 #@! TO.N,Net-(CONN_SW_DPST01_TIMER_1-Pad2)*
X107950000Y-77470000D03*
X115570000Y-78740000D03*
X168910000Y-49530000D03*
X168910000Y-59055000D03*
X163830000Y-60325000D03*
X137160000Y-78740000D03*
X142240000Y-78740000D03*
X144780000Y-83185000D03*
G04 #@! TO.N,Net-(U14-Pad10)*
X231455001Y-98105001D03*
X225105001Y-98105001D03*
X211455000Y-69850000D03*
G04 #@! TO.N,Net-(JCONN_SW_DPST02_TIMER_1-Pad1)*
X116840000Y-105410000D03*
X123190000Y-100965000D03*
X151130000Y-90805000D03*
X165100000Y-86995000D03*
X172720000Y-86995000D03*
G04 #@! TO.N,Net-(U32-Pad6)*
X93345000Y-100330000D03*
X96520000Y-100330000D03*
G04 #@! TO.N,Net-(U33-Pad4)*
X72390000Y-99695000D03*
X106680000Y-91440000D03*
X106680000Y-82550000D03*
G04 #@! TO.N,Net-(CONN_BATT_REPLACE_LED_1-Pad1)*
X125730000Y-88900000D03*
X121920000Y-85090000D03*
G04 #@! TO.N,Net-(CONN_SW_DPST01_TIMER_1-Pad1)*
X93345000Y-92710000D03*
G04 #@! TD*
D45*
G04 #@! TO.N,Net-(CONN_LED_RUNNING_8-Pad2)*
X112395000Y-140970000D02*
X116205000Y-140970000D01*
G04 #@! TO.N,GND*
X62905000Y-130135000D02*
X62865000Y-130175000D01*
X62905000Y-125095000D02*
X62905000Y-130135000D01*
X56750000Y-177800000D02*
X57150000Y-177800000D01*
X100330000Y-76200000D02*
X102870000Y-78740000D01*
X102870000Y-78740000D02*
X102870000Y-82550000D01*
X106680000Y-99060000D02*
X106680000Y-101600000D01*
X106680000Y-101600000D02*
X107950000Y-102870000D01*
X216965000Y-115570000D02*
X217805000Y-116410000D01*
X215265000Y-115570000D02*
X216965000Y-115570000D01*
X217805000Y-123590000D02*
X215665000Y-125730000D01*
X217805000Y-116410000D02*
X217805000Y-123590000D01*
X215265000Y-115570000D02*
X212725000Y-115570000D01*
X212725000Y-115570000D02*
X212725000Y-118110000D01*
X212725000Y-118110000D02*
X215265000Y-118110000D01*
X179500000Y-132080000D02*
X177800000Y-132080000D01*
X180340000Y-131240000D02*
X179500000Y-132080000D01*
X180340000Y-117680000D02*
X180340000Y-131240000D01*
X179500000Y-116840000D02*
X180340000Y-117680000D01*
X177800000Y-116840000D02*
X179500000Y-116840000D01*
X107950000Y-102870000D02*
X111760000Y-102870000D01*
X120108002Y-166370000D02*
X115578003Y-170899999D01*
X123190000Y-166370000D02*
X120108002Y-166370000D01*
X139820001Y-170899999D02*
X115578003Y-170899999D01*
X165828002Y-166370000D02*
X161383002Y-170815000D01*
X168910000Y-166370000D02*
X165828002Y-166370000D01*
X139905000Y-170815000D02*
X139820001Y-170899999D01*
X161383002Y-170815000D02*
X139905000Y-170815000D01*
X256620001Y-41910001D02*
X256620001Y-45544999D01*
X254860000Y-47305000D02*
X254860000Y-50105000D01*
X256620001Y-45544999D02*
X254860000Y-47305000D01*
X250270000Y-35560000D02*
X256620001Y-41910001D01*
X255910000Y-50105000D02*
X254860000Y-50105000D01*
X258429990Y-52624990D02*
X255910000Y-50105000D01*
X258429990Y-67880010D02*
X258429990Y-52624990D01*
X256460000Y-69850000D02*
X258429990Y-67880010D01*
X247650000Y-95885000D02*
X246380000Y-97155000D01*
X247650000Y-86995000D02*
X247650000Y-95885000D01*
X246380000Y-97155000D02*
X240665000Y-97155000D01*
X62150000Y-130890000D02*
X62865000Y-130175000D01*
X56515000Y-130890000D02*
X62150000Y-130890000D01*
X99460000Y-46990000D02*
X102000000Y-49530000D01*
X99060000Y-46990000D02*
X99460000Y-46990000D01*
X100760000Y-59690000D02*
X101395000Y-59055000D01*
X99060000Y-59690000D02*
X100760000Y-59690000D01*
X101395000Y-59055000D02*
X101395000Y-50370000D01*
X102000000Y-49530000D02*
X102235000Y-49530000D01*
X101395000Y-50370000D02*
X102235000Y-49530000D01*
X102235000Y-49530000D02*
X106680000Y-49530000D01*
X140875000Y-21590000D02*
X138430000Y-19145000D01*
X144780000Y-21590000D02*
X140875000Y-21590000D01*
X134445000Y-19145000D02*
X131445000Y-22145000D01*
X138430000Y-19145000D02*
X134445000Y-19145000D01*
X127000000Y-22145000D02*
X125650000Y-23495000D01*
X131445000Y-22145000D02*
X127000000Y-22145000D01*
X123745000Y-21590000D02*
X125650000Y-23495000D01*
X112315000Y-21590000D02*
X123745000Y-21590000D01*
X48895000Y-26035000D02*
X50395000Y-26035000D01*
X52070000Y-22225000D02*
X55880000Y-18415000D01*
X52070000Y-24360000D02*
X52070000Y-22225000D01*
X58625000Y-30480000D02*
X57990000Y-31115000D01*
X60325000Y-30480000D02*
X58625000Y-30480000D01*
X51435000Y-27059002D02*
X51435000Y-24995000D01*
X55490998Y-31115000D02*
X51435000Y-27059002D01*
X57990000Y-31115000D02*
X55490998Y-31115000D01*
X50395000Y-26035000D02*
X51435000Y-24995000D01*
X51435000Y-24995000D02*
X52070000Y-24360000D01*
X79844990Y-43345010D02*
X78740000Y-44450000D01*
X78740000Y-44450000D02*
X75040000Y-44450000D01*
X84569386Y-35445614D02*
X84569386Y-38620614D01*
X84569386Y-38620614D02*
X83820000Y-39370000D01*
X83820000Y-39370000D02*
X80645000Y-39370000D01*
X81992155Y-35445614D02*
X84569386Y-35445614D01*
X80645000Y-39370000D02*
X79844990Y-40170010D01*
X79844990Y-40170010D02*
X79844990Y-43345010D01*
X56515000Y-12700000D02*
X71755000Y-12700000D01*
X71755000Y-12700000D02*
X71755000Y-15875000D01*
X55880000Y-18415000D02*
X55880000Y-13335000D01*
X55880000Y-13335000D02*
X56515000Y-12700000D01*
X78740000Y-44450000D02*
X78740000Y-44450000D01*
X78740000Y-44450000D02*
X78740000Y-44450000D01*
X69850000Y-48260000D02*
X78740000Y-48260000D01*
X47344999Y-27182499D02*
X47344999Y-34644999D01*
X48895000Y-26035000D02*
X48492498Y-26035000D01*
X48492498Y-26035000D02*
X47344999Y-27182499D01*
X50419999Y-37719999D02*
X53975000Y-37719999D01*
X47344999Y-34644999D02*
X50419999Y-37719999D01*
X62203606Y-51269990D02*
X65874990Y-51269990D01*
X59309999Y-37719999D02*
X59257441Y-37772557D01*
X59257441Y-48323825D02*
X62203606Y-51269990D01*
X59257441Y-37772557D02*
X59257441Y-48323825D01*
X65874990Y-51269990D02*
X66675000Y-52070000D01*
X66675000Y-52070000D02*
X68580000Y-52070000D01*
X69850000Y-50800000D02*
X69850000Y-48260000D01*
X68580000Y-52070000D02*
X69850000Y-50800000D01*
X53975000Y-37719999D02*
X59309999Y-37719999D01*
X188595000Y-106045000D02*
X191135000Y-106045000D01*
X191135000Y-106045000D02*
X191770000Y-106680000D01*
X102235000Y-152405001D02*
X102235000Y-149860000D01*
X102870000Y-149225000D02*
X109220000Y-149225000D01*
X102235000Y-149860000D02*
X102870000Y-149225000D01*
X126365000Y-140970000D02*
X126365000Y-145415000D01*
X126365000Y-145415000D02*
X130175000Y-145415000D01*
X130175000Y-145415000D02*
X130175000Y-146765000D01*
X130890000Y-146765000D02*
X133350000Y-149225000D01*
X130175000Y-146765000D02*
X130890000Y-146765000D01*
X105259999Y-170899999D02*
X115578003Y-170899999D01*
X100730000Y-166370000D02*
X105259999Y-170899999D01*
X100330000Y-166370000D02*
X100730000Y-166370000D01*
X127165009Y-147074991D02*
X128825000Y-145415000D01*
X128825000Y-145415000D02*
X130175000Y-145415000D01*
X111370009Y-147074991D02*
X127165009Y-147074991D01*
X109220000Y-149225000D02*
X111370009Y-147074991D01*
X146050000Y-166370000D02*
X144350000Y-166370000D01*
X144350000Y-166370000D02*
X144145000Y-166575000D01*
X144145000Y-166575000D02*
X139820001Y-170899999D01*
X99930000Y-166370000D02*
X100330000Y-166370000D01*
X98579999Y-165019999D02*
X99930000Y-166370000D01*
X98579999Y-153821373D02*
X98579999Y-165019999D01*
X98865001Y-153536371D02*
X98579999Y-153821373D01*
X98865001Y-152405001D02*
X98865001Y-153536371D01*
X215665000Y-125730000D02*
X215265000Y-125730000D01*
X212725000Y-115570000D02*
X209550000Y-115570000D01*
X209550000Y-115570000D02*
X209550000Y-115570000D01*
X221615000Y-88900000D02*
X218440000Y-88900000D01*
X218440000Y-88900000D02*
X218440000Y-96520000D01*
X218440000Y-96520000D02*
X229870000Y-96520000D01*
X215265000Y-115570000D02*
X217170000Y-115570000D01*
X217170000Y-115570000D02*
X217805000Y-114935000D01*
X217805000Y-97155000D02*
X218440000Y-96520000D01*
X217805000Y-114935000D02*
X217805000Y-97155000D01*
X251460000Y-112395000D02*
X251460000Y-116205000D01*
X241935000Y-110490000D02*
X243840000Y-112395000D01*
X240665000Y-97155000D02*
X241935000Y-98425000D01*
X243840000Y-112395000D02*
X251460000Y-112395000D01*
X241935000Y-98425000D02*
X241935000Y-110490000D01*
X247180010Y-150025010D02*
X247180010Y-147955000D01*
X260350000Y-150025010D02*
X247180010Y-150025010D01*
X260350000Y-183515000D02*
X260350000Y-150025010D01*
X260034999Y-183830001D02*
X260350000Y-183515000D01*
X192085001Y-183830001D02*
X260034999Y-183830001D01*
X191770000Y-183515000D02*
X192085001Y-183830001D01*
X62905000Y-125095000D02*
X61773630Y-125095000D01*
X61773630Y-125095000D02*
X56515000Y-125095000D01*
X56515000Y-125095000D02*
X56515000Y-118745000D01*
X56515000Y-118745000D02*
X58420000Y-118110000D01*
G04 #@! TO.N,Net-(CONN_LED_LINE1_9-Pad1)*
X149860000Y-147320000D02*
X149860000Y-154940000D01*
X149860000Y-154940000D02*
X168910000Y-154940000D01*
G04 #@! TO.N,+5V*
X78105000Y-122555000D02*
X80645000Y-122555000D01*
X101600000Y-129540000D02*
X101600000Y-126365000D01*
X104140000Y-123825000D02*
X104140000Y-110490000D01*
X101600000Y-126365000D02*
X104140000Y-123825000D01*
X101600000Y-110490000D02*
X104140000Y-110490000D01*
X104140000Y-110490000D02*
X121920000Y-110490000D01*
X50800000Y-36195000D02*
X48895000Y-34290000D01*
X48895000Y-34290000D02*
X48895000Y-34290000D01*
X96520000Y-110626002D02*
X96520000Y-110490000D01*
X95386002Y-111760000D02*
X96520000Y-110626002D01*
X78105000Y-111760000D02*
X95386002Y-111760000D01*
X78105000Y-111760000D02*
X78105000Y-122555000D01*
X101600000Y-110490000D02*
X96520000Y-110490000D01*
X112395000Y-153670000D02*
X110490000Y-155575000D01*
X110490000Y-155575000D02*
X102235000Y-155575000D01*
X209550000Y-105410000D02*
X211455000Y-105410000D01*
X240665000Y-114300000D02*
X240665000Y-107950000D01*
X247015000Y-121920000D02*
X240665000Y-121920000D01*
X240665000Y-121920000D02*
X240665000Y-114300000D01*
X241300000Y-122555000D02*
X241300000Y-139065000D01*
X240665000Y-121920000D02*
X241300000Y-122555000D01*
X244475000Y-87133630D02*
X244475000Y-88265000D01*
X241300000Y-83820000D02*
X243840000Y-83820000D01*
X244475000Y-84455000D02*
X244475000Y-87133630D01*
X243840000Y-83820000D02*
X244475000Y-84455000D01*
G04 #@! TO.N,Net-(CONN_LED_LINE2_10-Pad1)*
X153670000Y-147320000D02*
X153670000Y-151130000D01*
X153670000Y-151130000D02*
X168910000Y-151130000D01*
G04 #@! TO.N,Net-(CONN_LED_LINE3_11-Pad1)*
X157480000Y-147320000D02*
X157480000Y-148590000D01*
X157610001Y-148720001D02*
X164969999Y-148720001D01*
X157480000Y-148590000D02*
X157610001Y-148720001D01*
X164969999Y-148720001D02*
X165100000Y-148590000D01*
X165100000Y-148590000D02*
X165100000Y-147320000D01*
X165100000Y-147320000D02*
X168910000Y-147320000D01*
G04 #@! TO.N,Net-(CONN_LED_LINE4_12-Pad1)*
X161290000Y-147320000D02*
X163830000Y-147320000D01*
X163830000Y-147320000D02*
X163830000Y-143510000D01*
X163830000Y-143510000D02*
X168910000Y-143510000D01*
G04 #@! TO.N,Net-(C3-Pad1)*
X91440000Y-175260000D02*
X92710000Y-176530000D01*
X83180000Y-177800000D02*
X85720000Y-175260000D01*
X85720000Y-175260000D02*
X91440000Y-175260000D01*
X92710000Y-182880000D02*
X92710000Y-176530000D01*
G04 #@! TO.N,Net-(R6-Pad1)*
X64770000Y-167640000D02*
X69850000Y-167640000D01*
X69850000Y-167640000D02*
X69850000Y-165100000D01*
X69850000Y-165100000D02*
X88900000Y-165100000D01*
X88900000Y-165100000D02*
X92710000Y-161290000D01*
G04 #@! TO.N,Net-(C2-Pad1)*
X64770000Y-170180000D02*
X69850000Y-170180000D01*
X69850000Y-170180000D02*
X69850000Y-172720000D01*
X69850000Y-172720000D02*
X72390000Y-175260000D01*
X78740000Y-175260000D02*
X81280000Y-177800000D01*
X73660000Y-182880000D02*
X73660000Y-175260000D01*
X72390000Y-175260000D02*
X73660000Y-175260000D01*
X73660000Y-175260000D02*
X78740000Y-175260000D01*
G04 #@! TO.N,Net-(R6-Pad2)*
X85090000Y-170180000D02*
X85090000Y-167640000D01*
G04 #@! TO.N,Net-(CONN_LED_MODE_6-Pad2)*
X62865000Y-150633630D02*
X61595000Y-149363630D01*
X62865000Y-151765000D02*
X62865000Y-150633630D01*
X61595000Y-140335000D02*
X62865000Y-139065000D01*
X61595000Y-149363630D02*
X61595000Y-140335000D01*
G04 #@! TO.N,Net-(CONN_LED_RAIN1_7-Pad2)*
X112395000Y-145415000D02*
X116205000Y-145415000D01*
G04 #@! TO.N,/Running(Out)*
X177800000Y-113000000D02*
X180310000Y-110490000D01*
X177800000Y-114300000D02*
X177800000Y-113000000D01*
X180310000Y-110490000D02*
X184150000Y-110490000D01*
X184150000Y-110490000D02*
X128270000Y-110490000D01*
X128270000Y-90170000D02*
X119380000Y-90170000D01*
X49530000Y-90170000D02*
X53340000Y-90170000D01*
X95250000Y-80010000D02*
X95250000Y-78740000D01*
X95250000Y-82423000D02*
X95250000Y-80010000D01*
X95250000Y-83820000D02*
X95250000Y-82423000D01*
X93980000Y-82423000D02*
X91440000Y-79883000D01*
X95250000Y-82423000D02*
X93980000Y-82423000D01*
X91440000Y-74930000D02*
X91440000Y-79883000D01*
X95250000Y-116840000D02*
X95250000Y-113030000D01*
X84455000Y-116840000D02*
X95250000Y-116840000D01*
X84455000Y-127635000D02*
X84455000Y-116840000D01*
X80645000Y-127635000D02*
X84455000Y-127635000D01*
X99060000Y-57150000D02*
X92710000Y-57150000D01*
X92710000Y-57150000D02*
X92710000Y-59690000D01*
X49530000Y-90170000D02*
X47790010Y-90170000D01*
X49530000Y-66040000D02*
X47790010Y-66040000D01*
X47790010Y-90170000D02*
X47790010Y-66040000D01*
X49530000Y-66040000D02*
X51435000Y-66040000D01*
X194310000Y-110490000D02*
X194310000Y-130340010D01*
X194310000Y-130340010D02*
X200991374Y-130340010D01*
X184150000Y-110490000D02*
X194310000Y-110490000D01*
X215265000Y-120650000D02*
X209550000Y-120650000D01*
X209550000Y-120650000D02*
X209550000Y-120650000D01*
X201156384Y-130175000D02*
X208280000Y-130175000D01*
X200991374Y-130340010D02*
X201156384Y-130175000D01*
X65405000Y-83820000D02*
X71120000Y-83820000D01*
X63500000Y-85725000D02*
X65405000Y-83820000D01*
X62230000Y-84455000D02*
X63500000Y-85725000D01*
X71120000Y-83820000D02*
X95250000Y-83820000D01*
X62230000Y-90170000D02*
X62230000Y-84455000D01*
X55880000Y-90170000D02*
X62230000Y-90170000D01*
X49530000Y-58420000D02*
X51435000Y-58420000D01*
X47790010Y-58420000D02*
X49530000Y-58420000D01*
X47790010Y-66040000D02*
X47790010Y-58420000D01*
G04 #@! TO.N,Net-(U18-Pad8)*
X181610000Y-134620000D02*
X181610000Y-125730000D01*
X181610000Y-125730000D02*
X181610000Y-119380000D01*
X207010000Y-134620000D02*
X181610000Y-134620000D01*
X211455000Y-124460000D02*
X207010000Y-124460000D01*
G04 #@! TO.N,Net-(U22-Pad4)*
X162990000Y-129540000D02*
X166370000Y-126160000D01*
X161290000Y-129540000D02*
X162990000Y-129540000D01*
X166370000Y-126160000D02*
X166370000Y-121920000D01*
X166370000Y-121920000D02*
X177800000Y-121920000D01*
X144145000Y-136525000D02*
X144780000Y-135890000D01*
X121080000Y-129540000D02*
X122985000Y-131445000D01*
X119380000Y-129540000D02*
X121080000Y-129540000D01*
X122985000Y-131445000D02*
X139065000Y-131445000D01*
X139065000Y-131445000D02*
X144145000Y-136525000D01*
G04 #@! TO.N,Net-(U22-Pad5)*
X113460000Y-127000000D02*
X115570000Y-124890000D01*
X111760000Y-127000000D02*
X113460000Y-127000000D01*
X115570000Y-124890000D02*
X115570000Y-114300000D01*
X115570000Y-114300000D02*
X140970000Y-114300000D01*
X140970000Y-114300000D02*
X140970000Y-123190000D01*
X140970000Y-123190000D02*
X144780000Y-127000000D01*
X173990000Y-124460000D02*
X177800000Y-124460000D01*
X173990000Y-138430000D02*
X173990000Y-124460000D01*
X156210000Y-138430000D02*
X173990000Y-138430000D01*
X153670000Y-127000000D02*
X156210000Y-127000000D01*
X156210000Y-127000000D02*
X156210000Y-138430000D01*
G04 #@! TO.N,Net-(U18-Pad9)*
X185820000Y-121920000D02*
X189230000Y-125330000D01*
X185420000Y-121920000D02*
X185820000Y-121920000D01*
X189230000Y-125330000D02*
X189230000Y-126722768D01*
X189230000Y-126722768D02*
X189230000Y-130810000D01*
X189230000Y-131445000D02*
X189230000Y-132080000D01*
X189230000Y-131445000D02*
X210820000Y-131445000D01*
X189230000Y-130810000D02*
X189230000Y-131445000D01*
X206440788Y-107480010D02*
X203835000Y-110085798D01*
X210555010Y-107480010D02*
X206440788Y-107480010D01*
X215265000Y-110490000D02*
X213565000Y-110490000D01*
X213565000Y-110490000D02*
X210555010Y-107480010D01*
X203835000Y-110085798D02*
X203835000Y-117475000D01*
X203835000Y-117475000D02*
X203835000Y-117475000D01*
X212725000Y-121920000D02*
X207010000Y-121920000D01*
X210820000Y-131445000D02*
X212725000Y-131445000D01*
G04 #@! TO.N,Net-(U22-Pad6)*
X142240000Y-119380000D02*
X144780000Y-121920000D01*
X114300000Y-113030000D02*
X142240000Y-113030000D01*
X142240000Y-113030000D02*
X142240000Y-119380000D01*
X111760000Y-121920000D02*
X112160000Y-121920000D01*
X114300000Y-119780000D02*
X114300000Y-113030000D01*
X112160000Y-121920000D02*
X114300000Y-119780000D01*
X170180000Y-129540000D02*
X172720000Y-127000000D01*
X157480000Y-121920000D02*
X157480000Y-134620000D01*
X153670000Y-121920000D02*
X157480000Y-121920000D01*
X157480000Y-134620000D02*
X160020000Y-137160000D01*
X160020000Y-137160000D02*
X168910000Y-137160000D01*
X168910000Y-137160000D02*
X170180000Y-135890000D01*
X170180000Y-135890000D02*
X170180000Y-129540000D01*
G04 #@! TO.N,Net-(U22-Pad7)*
X149860000Y-116840000D02*
X153670000Y-116840000D01*
X146050000Y-113030000D02*
X149860000Y-116840000D01*
X156210000Y-111760000D02*
X163830000Y-111760000D01*
X110060000Y-116840000D02*
X111760000Y-116840000D01*
X107950000Y-114730000D02*
X110060000Y-116840000D01*
X107950000Y-111760000D02*
X107950000Y-114730000D01*
X146130001Y-112949999D02*
X146130001Y-111840001D01*
X146050000Y-113030000D02*
X146130001Y-112949999D01*
X146130001Y-111840001D02*
X146050000Y-111760000D01*
X156210000Y-111760000D02*
X146050000Y-111760000D01*
X146050000Y-111760000D02*
X107950000Y-111760000D01*
X163830000Y-111760000D02*
X166370000Y-111760000D01*
X166370000Y-111760000D02*
X168910000Y-111760000D01*
X168910000Y-111760000D02*
X173990000Y-111760000D01*
G04 #@! TO.N,Net-(U1-Pad11)*
X48895000Y-61595000D02*
X48895000Y-64770000D01*
X48895000Y-64770000D02*
X48895000Y-64770000D01*
X48895000Y-69215000D02*
X48895000Y-73025000D01*
X48895000Y-73025000D02*
X50800000Y-74930000D01*
X50800000Y-74930000D02*
X50800000Y-88900000D01*
X50800000Y-88900000D02*
X50800000Y-88900000D01*
X50800000Y-92710000D02*
X50800000Y-96520000D01*
X68110010Y-184481374D02*
X67171384Y-185420000D01*
X68110010Y-174360010D02*
X68110010Y-184481374D01*
X64770000Y-172720000D02*
X66470000Y-172720000D01*
X66470000Y-172720000D02*
X68110010Y-174360010D01*
X67171384Y-185420000D02*
X59690000Y-185420000D01*
X59690000Y-185420000D02*
X48260000Y-185420000D01*
X48260000Y-185420000D02*
X48260000Y-185420000D01*
X50800000Y-96520000D02*
X50800000Y-96520000D01*
G04 #@! TO.N,Net-(U11-Pad8)*
X194310000Y-66040000D02*
X194310000Y-72390000D01*
X209931000Y-83820000D02*
X207010000Y-83820000D01*
X210439000Y-83312000D02*
X209931000Y-83820000D01*
X210439000Y-74803000D02*
X210439000Y-83312000D01*
X198882000Y-72390000D02*
X198882000Y-74803000D01*
X198882000Y-74803000D02*
X210439000Y-74803000D01*
X109855000Y-52070000D02*
X106680000Y-52070000D01*
X110490000Y-51435000D02*
X109855000Y-52070000D01*
X127000000Y-51435000D02*
X110490000Y-51435000D01*
X97155000Y-40005000D02*
X110490000Y-40005000D01*
X90805000Y-52705000D02*
X90805000Y-50165000D01*
X97155000Y-48895000D02*
X97155000Y-40005000D01*
X85090000Y-58420000D02*
X90805000Y-52705000D01*
X110490000Y-40005000D02*
X110490000Y-51435000D01*
X69380010Y-62563988D02*
X73523998Y-58420000D01*
X59055000Y-71120000D02*
X63295000Y-71120000D01*
X66205010Y-62699990D02*
X69380010Y-62699990D01*
X90805000Y-50165000D02*
X92075000Y-48895000D01*
X63295000Y-71120000D02*
X64604990Y-69810010D01*
X92075000Y-48895000D02*
X97155000Y-48895000D01*
X64604990Y-69810010D02*
X64604990Y-64300010D01*
X64604990Y-64300010D02*
X66205010Y-62699990D01*
X73523998Y-58420000D02*
X85090000Y-58420000D01*
X69380010Y-62699990D02*
X69380010Y-62563988D01*
X191135000Y-42545000D02*
X193040000Y-44450000D01*
X170180000Y-42545000D02*
X191135000Y-42545000D01*
X163830000Y-46355000D02*
X163830000Y-26670000D01*
X163825002Y-46355000D02*
X163830000Y-46355000D01*
X163830000Y-26670000D02*
X170180000Y-26670000D01*
X162875001Y-48716001D02*
X162875001Y-47305001D01*
X170180000Y-26670000D02*
X170180000Y-42545000D01*
X162875001Y-47305001D02*
X163825002Y-46355000D01*
X162381001Y-49210001D02*
X162875001Y-48716001D01*
X150495000Y-49530000D02*
X154940000Y-49530000D01*
X146050000Y-45085000D02*
X150495000Y-49530000D01*
X154940000Y-49530000D02*
X156044990Y-48425010D01*
X156044990Y-48425010D02*
X160655000Y-48425010D01*
X160655000Y-48425010D02*
X161439991Y-49210001D01*
X161439991Y-49210001D02*
X162381001Y-49210001D01*
G04 #@! TO.N,Net-(U15-Pad4)*
X193040000Y-19050000D02*
X193040000Y-31750000D01*
X193040000Y-31750000D02*
X198120000Y-31750000D01*
X180340000Y-21590000D02*
X177800000Y-21590000D01*
X182880000Y-19050000D02*
X180340000Y-21590000D01*
X111760000Y-50165000D02*
X132080000Y-50165000D01*
X132080000Y-50165000D02*
X132080000Y-50165000D01*
X139700000Y-44450000D02*
X139700000Y-36195000D01*
X139700000Y-36195000D02*
X139700000Y-36195000D01*
X151130000Y-36195000D02*
X151130000Y-31750000D01*
X151130000Y-31750000D02*
X151130000Y-31750000D01*
X165100000Y-20320000D02*
X172085000Y-20320000D01*
X172085000Y-20320000D02*
X173355000Y-19050000D01*
X173355000Y-19050000D02*
X173355000Y-19050000D01*
X177800000Y-19050000D02*
X184785000Y-19050000D01*
X182880000Y-19050000D02*
X184785000Y-19050000D01*
X184785000Y-19050000D02*
X193040000Y-19050000D01*
G04 #@! TO.N,Net-(U11-Pad3)*
X119380000Y-44450000D02*
X133350000Y-44450000D01*
X133350000Y-44450000D02*
X133350000Y-74930000D01*
X133350000Y-99060000D02*
X153670000Y-99060000D01*
X172720000Y-27940000D02*
X173990000Y-29210000D01*
X173990000Y-29210000D02*
X177800000Y-29210000D01*
X51435000Y-60960000D02*
X55079990Y-60960000D01*
X55079990Y-55548626D02*
X57288616Y-53340000D01*
X55079990Y-60960000D02*
X55079990Y-55548626D01*
X57288616Y-53340000D02*
X65266384Y-53340000D01*
X65266384Y-53340000D02*
X66371374Y-54444990D01*
X66371374Y-54444990D02*
X68883626Y-54444990D01*
X68883626Y-54444990D02*
X68883626Y-54306374D01*
X68883626Y-54306374D02*
X73660000Y-49530000D01*
X73660000Y-49530000D02*
X81557232Y-49530000D01*
X81557232Y-49530000D02*
X83793606Y-49530000D01*
X83793606Y-49530000D02*
X83793606Y-47016394D01*
X83793606Y-47016394D02*
X90805000Y-40005000D01*
X90805000Y-35698616D02*
X96520000Y-29983616D01*
X90805000Y-40005000D02*
X90805000Y-35698616D01*
X96520000Y-29983616D02*
X96520000Y-29845000D01*
X96520000Y-29845000D02*
X97155000Y-29210000D01*
X97155000Y-29210000D02*
X119380000Y-29210000D01*
X119380000Y-29210000D02*
X137160000Y-29210000D01*
X138110001Y-28259999D02*
X157795001Y-28259999D01*
X137160000Y-29210000D02*
X138110001Y-28259999D01*
X157795001Y-28259999D02*
X157795001Y-25084999D01*
X158750000Y-24130000D02*
X172720000Y-24130000D01*
X157795001Y-25084999D02*
X158750000Y-24130000D01*
X172720000Y-24130000D02*
X172720000Y-27940000D01*
G04 #@! TO.N,Net-(U19-Pad1)*
X237490000Y-78740000D02*
X233680000Y-78740000D01*
X237490000Y-102870000D02*
X237490000Y-78740000D01*
X226060000Y-144985000D02*
X226060000Y-146685000D01*
X224155000Y-143080000D02*
X226060000Y-144985000D01*
X224155000Y-138430000D02*
X224155000Y-143080000D01*
X231636384Y-134620000D02*
X229731384Y-136525000D01*
X229731384Y-136525000D02*
X226060000Y-136525000D01*
X226060000Y-136525000D02*
X224155000Y-138430000D01*
X232410000Y-134620000D02*
X233680000Y-133350000D01*
X233680000Y-102870000D02*
X233680000Y-133350000D01*
X232410000Y-134620000D02*
X231636384Y-134620000D01*
G04 #@! TO.N,/RunningInv(out)*
X119380000Y-92710000D02*
X130810000Y-92710000D01*
X140335000Y-144780000D02*
X140335000Y-144780000D01*
X140335000Y-161290000D02*
X140335000Y-144780000D01*
X190500000Y-161290000D02*
X140335000Y-161290000D01*
X233680000Y-143510000D02*
X234950000Y-144780000D01*
X234950000Y-144780000D02*
X248285000Y-144780000D01*
X233680000Y-139065000D02*
X233680000Y-143510000D01*
X248285000Y-144780000D02*
X248285000Y-148590000D01*
X190500000Y-185420000D02*
X190500000Y-161290000D01*
X261620000Y-185420000D02*
X190500000Y-185420000D01*
X261620000Y-148590000D02*
X261620000Y-185420000D01*
X248285000Y-148590000D02*
X261620000Y-148590000D01*
G04 #@! TO.N,Net-(U19-Pad9)*
X238760000Y-136525000D02*
X238760000Y-91440000D01*
X238760000Y-91440000D02*
X241300000Y-91440000D01*
X231140000Y-139065000D02*
X231140000Y-137795000D01*
X231775000Y-137160000D02*
X238125000Y-137160000D01*
X231140000Y-137795000D02*
X231775000Y-137160000D01*
X238125000Y-137160000D02*
X238760000Y-136525000D01*
G04 #@! TO.N,Net-(U19-Pad4)*
X231775000Y-135890000D02*
X228600000Y-139065000D01*
X234315000Y-135890000D02*
X231775000Y-135890000D01*
X236220000Y-86360000D02*
X236220000Y-133985000D01*
X236220000Y-133985000D02*
X234315000Y-135890000D01*
X233680000Y-86360000D02*
X236220000Y-86360000D01*
G04 #@! TO.N,Net-(U16-Pad2)*
X177800000Y-54610000D02*
X148590000Y-54610000D01*
X144780000Y-54610000D02*
X140970000Y-54610000D01*
X106680000Y-59690000D02*
X109220000Y-59690000D01*
X109220000Y-59690000D02*
X109220000Y-54610000D01*
X109220000Y-54610000D02*
X128270000Y-54610000D01*
X144780000Y-54610000D02*
X146050000Y-54610000D01*
G04 #@! TO.N,Net-(D1-Pad1)*
X198484850Y-141417853D02*
X198484850Y-138065150D01*
X220977386Y-125730000D02*
X210017376Y-136690010D01*
X222885000Y-125730000D02*
X220977386Y-125730000D01*
X199859990Y-136690010D02*
X198484850Y-138065150D01*
X210017376Y-136690010D02*
X199859990Y-136690010D01*
G04 #@! TO.N,Net-(D6-Pad1)*
X225425000Y-123190000D02*
X222885000Y-123190000D01*
X202294850Y-138395170D02*
X203200000Y-137490020D01*
X202294850Y-141417853D02*
X202294850Y-138395170D01*
X220980000Y-128270000D02*
X225425000Y-128270000D01*
X203200000Y-137490020D02*
X211759980Y-137490020D01*
X211759980Y-137490020D02*
X220980000Y-128270000D01*
X225425000Y-128270000D02*
X225425000Y-123190000D01*
G04 #@! TO.N,Net-(D2-Pad1)*
X226695000Y-129540000D02*
X226695000Y-120650000D01*
X226695000Y-120650000D02*
X222885000Y-120650000D01*
X223520000Y-129540000D02*
X224155000Y-129540000D01*
X224155000Y-129540000D02*
X226695000Y-129540000D01*
X206104850Y-139335150D02*
X206104850Y-141417853D01*
X207149970Y-138290030D02*
X206104850Y-139335150D01*
X212864970Y-138290030D02*
X207149970Y-138290030D01*
X224155000Y-129540000D02*
X221615000Y-129540000D01*
X221615000Y-129540000D02*
X212864970Y-138290030D01*
G04 #@! TO.N,Net-(D7-Pad1)*
X227965000Y-118110000D02*
X222885000Y-118110000D01*
X227965000Y-130810000D02*
X227965000Y-118110000D01*
X209914850Y-140017853D02*
X210842663Y-139090040D01*
X209914850Y-141417853D02*
X209914850Y-140017853D01*
X222250000Y-130810000D02*
X227965000Y-130810000D01*
X210842663Y-139090040D02*
X213995000Y-139090040D01*
X213995000Y-139090040D02*
X213995000Y-139065000D01*
X213995000Y-139065000D02*
X222250000Y-130810000D01*
G04 #@! TO.N,Net-(D3-Pad1)*
X213724850Y-141417853D02*
X213724850Y-140017853D01*
X228600000Y-132080000D02*
X229235000Y-132080000D01*
X229235000Y-132080000D02*
X229235000Y-115570000D01*
X229235000Y-115570000D02*
X222885000Y-115570000D01*
X226060000Y-132080000D02*
X229235000Y-132080000D01*
X213724850Y-140017853D02*
X214947147Y-140017853D01*
X222885000Y-132080000D02*
X226060000Y-132080000D01*
X214947147Y-140017853D02*
X222885000Y-132080000D01*
G04 #@! TO.N,Net-(D8-Pad1)*
X229870000Y-113030000D02*
X222885000Y-113030000D01*
X230505000Y-113030000D02*
X229870000Y-113030000D01*
X230505000Y-133350000D02*
X230505000Y-113030000D01*
X224202703Y-133350000D02*
X230505000Y-133350000D01*
X217534850Y-140017853D02*
X224202703Y-133350000D01*
X217534850Y-141417853D02*
X217534850Y-140017853D01*
G04 #@! TO.N,Net-(D5-Pad1)*
X194674850Y-140810150D02*
X194674850Y-141417853D01*
X213565000Y-123190000D02*
X215265000Y-123190000D01*
X213514990Y-123240010D02*
X213565000Y-123190000D01*
X213675001Y-130988999D02*
X213514990Y-130828988D01*
X194674850Y-136795150D02*
X195580000Y-135890000D01*
X194674850Y-141417853D02*
X194674850Y-136795150D01*
X195580000Y-135890000D02*
X208280000Y-135890000D01*
X213514990Y-130828988D02*
X213514990Y-123240010D01*
X211455000Y-132715000D02*
X212861002Y-132715000D01*
X212861002Y-132715000D02*
X213675001Y-131901001D01*
X213675001Y-131901001D02*
X213675001Y-130988999D01*
X208280000Y-135890000D02*
X211455000Y-132715000D01*
G04 #@! TO.N,Net-(D4-Pad1)*
X225425000Y-134620000D02*
X221344850Y-138700150D01*
X221344850Y-138700150D02*
X221344850Y-141417853D01*
X222885000Y-110490000D02*
X231775000Y-110490000D01*
X230505000Y-134620000D02*
X231775000Y-133350000D01*
X231775000Y-110490000D02*
X231775000Y-133350000D01*
X230505000Y-134620000D02*
X225425000Y-134620000D01*
G04 #@! TO.N,Net-(CONN_LED_LINE3_11-Pad2)*
X148590000Y-130810000D02*
X149860000Y-129540000D01*
X148590000Y-139700000D02*
X148590000Y-130810000D01*
X149860000Y-129540000D02*
X153670000Y-129540000D01*
X156210000Y-139700000D02*
X148590000Y-139700000D01*
X157480000Y-144780000D02*
X157480000Y-140970000D01*
X157480000Y-140970000D02*
X156210000Y-139700000D01*
G04 #@! TO.N,Net-(CONN_LED_LINE2_10-Pad2)*
X153670000Y-144780000D02*
X153670000Y-142240000D01*
X153670000Y-142240000D02*
X152400000Y-140970000D01*
X152400000Y-140970000D02*
X147320000Y-140970000D01*
X147320000Y-140970000D02*
X147320000Y-125730000D01*
X148590000Y-124460000D02*
X153670000Y-124460000D01*
X147320000Y-125730000D02*
X148590000Y-124460000D01*
G04 #@! TO.N,Net-(CONN_LED_LINE1_9-Pad2)*
X149860000Y-144780000D02*
X146050000Y-144780000D01*
X146050000Y-144780000D02*
X146050000Y-120650000D01*
X147320000Y-119380000D02*
X153670000Y-119380000D01*
X146050000Y-120650000D02*
X147320000Y-119380000D01*
G04 #@! TO.N,Net-(U11-Pad12)*
X135890000Y-33020000D02*
X135890000Y-58420000D01*
X142240000Y-58420000D02*
X153670000Y-58420000D01*
X153670000Y-58420000D02*
X154940000Y-58420000D01*
X154940000Y-58420000D02*
X156210000Y-59690000D01*
X156210000Y-59690000D02*
X157480000Y-59690000D01*
X157480000Y-59690000D02*
X157480000Y-63500000D01*
X157480000Y-63500000D02*
X161290000Y-63500000D01*
X161290000Y-63500000D02*
X168910000Y-63500000D01*
X168910000Y-63500000D02*
X168910000Y-73660000D01*
X168910000Y-73660000D02*
X177800000Y-73660000D01*
X59055000Y-60960000D02*
X62865000Y-60960000D01*
X62865000Y-60960000D02*
X66040000Y-57785000D01*
X66040000Y-57785000D02*
X69215000Y-57785000D01*
X69215000Y-57785000D02*
X73660000Y-53340000D01*
X73660000Y-53340000D02*
X85090000Y-53340000D01*
X86664980Y-51765020D02*
X86664980Y-51104980D01*
X85090000Y-53340000D02*
X86664980Y-51765020D01*
X86664980Y-51104980D02*
X86360000Y-50800000D01*
X86360000Y-48398616D02*
X90170000Y-44588616D01*
X86360000Y-50800000D02*
X86360000Y-48398616D01*
X90170000Y-44588616D02*
X90170000Y-44450000D01*
X90170000Y-44450000D02*
X90805000Y-43815000D01*
X90805000Y-43815000D02*
X93814990Y-43815000D01*
X93814990Y-43815000D02*
X93814990Y-36360010D01*
X93814990Y-36360010D02*
X97155000Y-33020000D01*
X97155000Y-33020000D02*
X98425000Y-33020000D01*
X98425000Y-33020000D02*
X135890000Y-33020000D01*
X177800000Y-73660000D02*
X177800000Y-77470000D01*
G04 #@! TO.N,Net-(U12-Pad4)*
X161290000Y-73660000D02*
X161290000Y-78740000D01*
X161290000Y-83820000D02*
X168910000Y-83820000D01*
X177800000Y-85090000D02*
X168910000Y-85090000D01*
X168910000Y-83820000D02*
X168910000Y-85090000D01*
G04 #@! TO.N,Net-(U4-Pad2)*
X151130000Y-60960000D02*
X151130000Y-63500000D01*
X153670000Y-60960000D02*
X151130000Y-60960000D01*
X151130000Y-63500000D02*
X153670000Y-63500000D01*
X140970000Y-86360000D02*
X140970000Y-60960000D01*
X141605000Y-86995000D02*
X140970000Y-86360000D01*
X140970000Y-60960000D02*
X151130000Y-60960000D01*
X156210000Y-86995000D02*
X141605000Y-86995000D01*
X153670000Y-91440000D02*
X156210000Y-91440000D01*
X156210000Y-91440000D02*
X156210000Y-86995000D01*
G04 #@! TO.N,Net-(U11-Pad13)*
X142240000Y-71120000D02*
X147320000Y-71120000D01*
X147320000Y-71120000D02*
X147320000Y-81280000D01*
X147320000Y-81280000D02*
X165100000Y-81280000D01*
X165100000Y-71120000D02*
X161290000Y-71120000D01*
X97155000Y-31750000D02*
X137160000Y-31750000D01*
X93014980Y-35890020D02*
X97155000Y-31750000D01*
X93014980Y-42545000D02*
X93014980Y-35890020D01*
X85559990Y-47790010D02*
X90805000Y-42545000D01*
X85559990Y-50965010D02*
X85559990Y-47790010D01*
X69215000Y-56515000D02*
X73660000Y-52070000D01*
X73660000Y-52070000D02*
X84455000Y-52070000D01*
X64273616Y-58420000D02*
X64273616Y-58281384D01*
X90805000Y-42545000D02*
X93014980Y-42545000D01*
X64273616Y-58281384D02*
X66040000Y-56515000D01*
X84455000Y-52070000D02*
X85559990Y-50965010D01*
X137160000Y-31750000D02*
X137160000Y-71120000D01*
X59055000Y-58420000D02*
X64273616Y-58420000D01*
X66040000Y-56515000D02*
X69215000Y-56515000D01*
X176100000Y-80010000D02*
X165100000Y-80010000D01*
X177800000Y-80010000D02*
X176100000Y-80010000D01*
X165100000Y-81280000D02*
X165100000Y-80010000D01*
X165100000Y-80010000D02*
X165100000Y-71120000D01*
G04 #@! TO.N,Net-(U12-Pad5)*
X161290000Y-66040000D02*
X167640000Y-66040000D01*
X167640000Y-73521384D02*
X171588616Y-77470000D01*
X167640000Y-66040000D02*
X167640000Y-73521384D01*
X171588616Y-77470000D02*
X173990000Y-77470000D01*
G04 #@! TO.N,Net-(U11-Pad6)*
X142240000Y-31750000D02*
X142240000Y-43180000D01*
X51435000Y-68580000D02*
X55880000Y-68580000D01*
X55880000Y-68580000D02*
X55880000Y-56745798D01*
X55880000Y-56745798D02*
X55880000Y-55880000D01*
X57230010Y-54529990D02*
X65324990Y-54529990D01*
X55880000Y-55880000D02*
X57230010Y-54529990D01*
X65324990Y-54529990D02*
X66040000Y-55245000D01*
X66040000Y-55245000D02*
X69215000Y-55245000D01*
X69215000Y-55245000D02*
X73660000Y-50800000D01*
X73660000Y-50800000D02*
X84593616Y-50800000D01*
X84593616Y-47625000D02*
X90943616Y-41275000D01*
X84593616Y-50800000D02*
X84593616Y-47625000D01*
X90943616Y-41275000D02*
X92214970Y-41275000D01*
X92214970Y-41275000D02*
X92214970Y-35420030D01*
X92214970Y-35420030D02*
X97155000Y-30480000D01*
X97155000Y-30480000D02*
X137160000Y-30480000D01*
X137160000Y-30480000D02*
X138430000Y-29210000D01*
X138430000Y-29210000D02*
X142240000Y-29210000D01*
X163830000Y-58420000D02*
X161290000Y-58420000D01*
X163830000Y-55880000D02*
X163830000Y-58420000D01*
X148453998Y-55880000D02*
X163830000Y-55880000D01*
X143510000Y-46990000D02*
X146050000Y-49530000D01*
X146050000Y-50165000D02*
X148590000Y-52705000D01*
X146050000Y-49530000D02*
X146050000Y-50165000D01*
X148590000Y-52705000D02*
X147320000Y-53975000D01*
X147320000Y-53975000D02*
X147320000Y-54746002D01*
X147320000Y-54746002D02*
X148453998Y-55880000D01*
G04 #@! TO.N,Net-(U13-Pad11)*
X240900000Y-88900000D02*
X241300000Y-88900000D01*
X238760000Y-86760000D02*
X240900000Y-88900000D01*
X238760000Y-76200000D02*
X238760000Y-86760000D01*
X227330000Y-86360000D02*
X227330000Y-81915000D01*
X221615000Y-86360000D02*
X227330000Y-86360000D01*
X227330000Y-81915000D02*
X229235000Y-80010000D01*
X229235000Y-80010000D02*
X231140000Y-80010000D01*
X231140000Y-80010000D02*
X231140000Y-76200000D01*
X231140000Y-76200000D02*
X238760000Y-76200000D01*
G04 #@! TO.N,Net-(U13-Pad2)*
X207010000Y-86360000D02*
X211455000Y-86360000D01*
X211455000Y-86360000D02*
X213995000Y-83820000D01*
X213995000Y-83820000D02*
X213995000Y-81280000D01*
G04 #@! TO.N,Net-(U13-Pad9)*
X229870000Y-81280000D02*
X233680000Y-81280000D01*
X228600000Y-82550000D02*
X229870000Y-81280000D01*
X228600000Y-87630000D02*
X228600000Y-82550000D01*
X221615000Y-91440000D02*
X227330000Y-91440000D01*
X227330000Y-91440000D02*
X227330000Y-87630000D01*
X227330000Y-87630000D02*
X228600000Y-87630000D01*
G04 #@! TO.N,Net-(U13-Pad8)*
X221615000Y-93980000D02*
X228600000Y-93980000D01*
X228600000Y-93980000D02*
X228600000Y-88900000D01*
X228600000Y-88900000D02*
X233680000Y-88900000D01*
G04 #@! TO.N,Net-(U11-Pad9)*
X115570000Y-40640000D02*
X134620000Y-40640000D01*
X134620000Y-40640000D02*
X134620000Y-74930000D01*
X134620000Y-101600000D02*
X153670000Y-101600000D01*
X111290010Y-38735000D02*
X111290010Y-41275000D01*
X114935000Y-41275000D02*
X115570000Y-40640000D01*
X69217614Y-61595000D02*
X73662614Y-57150000D01*
X73662614Y-57150000D02*
X85228616Y-57150000D01*
X96354990Y-38900010D02*
X96520000Y-38735000D01*
X96520000Y-38735000D02*
X111290010Y-38735000D01*
X66040000Y-61595000D02*
X69217614Y-61595000D01*
X96354990Y-47625000D02*
X96354990Y-38900010D01*
X63804980Y-63830020D02*
X66040000Y-61595000D01*
X63804980Y-68070020D02*
X63804980Y-63830020D01*
X59055000Y-68580000D02*
X63295000Y-68580000D01*
X85228616Y-57011384D02*
X90004990Y-52235010D01*
X91440000Y-47625000D02*
X96354990Y-47625000D01*
X90004990Y-52235010D02*
X89535000Y-51765020D01*
X111290010Y-41275000D02*
X114935000Y-41275000D01*
X89535000Y-51765020D02*
X89535000Y-49530000D01*
X63295000Y-68580000D02*
X63804980Y-68070020D01*
X85228616Y-57150000D02*
X85228616Y-57011384D01*
X89535000Y-49530000D02*
X91440000Y-47625000D01*
G04 #@! TO.N,Net-(U11-Pad11)*
X59055000Y-63500000D02*
X62204960Y-63500000D01*
X62204960Y-63500000D02*
X62204960Y-62890040D01*
X62204960Y-62890040D02*
X66040000Y-59055000D01*
X66040000Y-59055000D02*
X69215000Y-59055000D01*
X69215000Y-59055000D02*
X73660000Y-54610000D01*
X73660000Y-54610000D02*
X85090000Y-54610000D01*
X85090000Y-54610000D02*
X87464990Y-52235010D01*
X87464990Y-52235010D02*
X87464990Y-48425010D01*
X87464990Y-48425010D02*
X90805000Y-45085000D01*
X90805000Y-45085000D02*
X94615000Y-45085000D01*
X94615000Y-36968616D02*
X97293616Y-34290000D01*
X94615000Y-45085000D02*
X94615000Y-36968616D01*
X97293616Y-34290000D02*
X109220000Y-34290000D01*
X109220000Y-34290000D02*
X109220000Y-34290000D01*
X109220000Y-34290000D02*
X123190000Y-34290000D01*
X123190000Y-27940000D02*
X137160000Y-27940000D01*
X137160000Y-27940000D02*
X137795000Y-27305000D01*
X137795000Y-27305000D02*
X156845000Y-27305000D01*
X156845000Y-24903616D02*
X158888616Y-22860000D01*
X156845000Y-27305000D02*
X156845000Y-24903616D01*
X158888616Y-22860000D02*
X168910000Y-22860000D01*
X168910000Y-45720000D02*
X172720000Y-45720000D01*
X168910000Y-30480000D02*
X168910000Y-45720000D01*
X172720000Y-45720000D02*
X172720000Y-45720000D01*
G04 #@! TO.N,Net-(U10-Pad6)*
X198120000Y-34290000D02*
X195580000Y-34290000D01*
X195580000Y-34290000D02*
X195580000Y-43180000D01*
X195580000Y-43180000D02*
X208915000Y-43180000D01*
X208915000Y-43180000D02*
X208915000Y-37465000D01*
X208915000Y-37465000D02*
X214630000Y-37465000D01*
G04 #@! TO.N,Net-(U10-Pad5)*
X214230000Y-34925000D02*
X214630000Y-34925000D01*
X231140000Y-20320000D02*
X212090000Y-20320000D01*
X231140000Y-72390000D02*
X231140000Y-20320000D01*
X245825001Y-87616999D02*
X245745000Y-87536998D01*
X212090000Y-32785000D02*
X214230000Y-34925000D01*
X245745000Y-86360000D02*
X247015000Y-85090000D01*
X246214990Y-80479990D02*
X246214990Y-75095010D01*
X241300000Y-93980000D02*
X243000000Y-93980000D01*
X246214990Y-75095010D02*
X246380000Y-74930000D01*
X212090000Y-20320000D02*
X212090000Y-32785000D01*
X245745000Y-87536998D02*
X245745000Y-86360000D01*
X247015000Y-85090000D02*
X248920000Y-85090000D01*
X248920000Y-85090000D02*
X248920000Y-83185000D01*
X248920000Y-83185000D02*
X246214990Y-80479990D01*
X232410000Y-73660000D02*
X231140000Y-72390000D01*
X246380000Y-74930000D02*
X245110000Y-73660000D01*
X245110000Y-73660000D02*
X232410000Y-73660000D01*
X244905000Y-91725001D02*
X245825001Y-90805000D01*
X245825001Y-90805000D02*
X245825001Y-87616999D01*
X244905000Y-92075000D02*
X244905000Y-91725001D01*
X243000000Y-93980000D02*
X244905000Y-92075000D01*
X245745000Y-86360000D02*
X245745000Y-87630000D01*
G04 #@! TO.N,Net-(U10-Pad4)*
X227330000Y-48260000D02*
X227330000Y-76200000D01*
X215030000Y-32385000D02*
X214630000Y-32385000D01*
X217170000Y-45085000D02*
X217170000Y-34525000D01*
X217170000Y-34525000D02*
X215030000Y-32385000D01*
X217170000Y-45085000D02*
X227330000Y-45085000D01*
X227330000Y-45085000D02*
X227330000Y-48260000D01*
G04 #@! TO.N,Net-(U10-Pad3)*
X216330000Y-29845000D02*
X218670798Y-32185798D01*
X214630000Y-29845000D02*
X216330000Y-29845000D01*
X228600000Y-66040000D02*
X228600000Y-74930000D01*
X218670798Y-32185798D02*
X218670798Y-44219202D01*
X218670798Y-44219202D02*
X228369202Y-44219202D01*
X228369202Y-44219202D02*
X228600000Y-44450000D01*
X228600000Y-44450000D02*
X228600000Y-66040000D01*
G04 #@! TO.N,/Completed(In)*
X74500000Y-71120000D02*
X73660000Y-71960000D01*
X76200000Y-71120000D02*
X74500000Y-71120000D01*
X66040000Y-109220000D02*
X195580000Y-109220000D01*
X195580000Y-109220000D02*
X195580000Y-129540000D01*
X195580000Y-129540000D02*
X200660000Y-129540000D01*
X200660000Y-129540000D02*
X203200000Y-127000000D01*
X203200000Y-127000000D02*
X203200000Y-120250000D01*
X206610000Y-116840000D02*
X207010000Y-116840000D01*
X203200000Y-120250000D02*
X206610000Y-116840000D01*
X73660000Y-78105000D02*
X73025000Y-78740000D01*
X73660000Y-71960000D02*
X73660000Y-78105000D01*
G04 #@! TO.N,/Reset(Out)*
X193040000Y-16510000D02*
X149860000Y-16510000D01*
X201930000Y-114300000D02*
X201930000Y-105410000D01*
X194310000Y-38100000D02*
X194310000Y-45720000D01*
X194310000Y-45720000D02*
X195580000Y-46990000D01*
X195580000Y-66040000D02*
X195580000Y-71120000D01*
X195580000Y-58420000D02*
X196850000Y-58420000D01*
X196850000Y-58420000D02*
X196850000Y-55880000D01*
X195580000Y-71120000D02*
X195580000Y-88900000D01*
X195580000Y-46990000D02*
X196850000Y-48260000D01*
X115433998Y-39370000D02*
X114798998Y-40005000D01*
X126365000Y-39370000D02*
X115433998Y-39370000D01*
X112395000Y-40005000D02*
X112090020Y-39700020D01*
X114798998Y-40005000D02*
X112395000Y-40005000D01*
X112090020Y-39700020D02*
X112090020Y-38403626D01*
X112090020Y-38403626D02*
X111151394Y-37465000D01*
X111151394Y-37465000D02*
X97155000Y-37465000D01*
X97155000Y-37465000D02*
X97155000Y-37465000D01*
X89535000Y-59690000D02*
X89535000Y-57150000D01*
X195580000Y-88900000D02*
X199390000Y-88900000D01*
X194310000Y-88900000D02*
X195580000Y-88900000D01*
X194310000Y-97790000D02*
X194310000Y-88900000D01*
X194310000Y-97790000D02*
X198755000Y-97790000D01*
X198755000Y-97790000D02*
X198755000Y-102235000D01*
X201930000Y-105410000D02*
X198755000Y-102235000D01*
G04 #@! TO.N,/Next(Out)*
X138430000Y-30480000D02*
X153670000Y-30480000D01*
X119380000Y-76200000D02*
X138430000Y-76200000D01*
X195580000Y-107950000D02*
X138430000Y-107950000D01*
X195580000Y-93980000D02*
X195580000Y-90170000D01*
X194475010Y-103670010D02*
X195580000Y-104775000D01*
X194475010Y-100330000D02*
X194475010Y-103670010D01*
X195580000Y-104775000D02*
X195580000Y-107950000D01*
X195580000Y-100330000D02*
X194475010Y-100330000D01*
X138430000Y-90805000D02*
X138430000Y-75565000D01*
X138430000Y-76200000D02*
X138430000Y-75565000D01*
X138430000Y-75565000D02*
X138430000Y-30480000D01*
X216535000Y-57150000D02*
X219915000Y-57150000D01*
X219915000Y-57150000D02*
X221615000Y-57150000D01*
X215900000Y-57785000D02*
X216535000Y-57150000D01*
X215900000Y-71120000D02*
X215900000Y-57785000D01*
X208280000Y-71120000D02*
X215900000Y-71120000D01*
G04 #@! TO.N,Net-(U14-Pad5)*
X201930000Y-62230000D02*
X199390000Y-62230000D01*
X217335010Y-59690000D02*
X216700010Y-60325000D01*
X216700010Y-60325000D02*
X216700010Y-71589990D01*
X221615000Y-59690000D02*
X217335010Y-59690000D01*
X216700010Y-71589990D02*
X214630000Y-73660000D01*
X214630000Y-73660000D02*
X201930000Y-73660000D01*
X201930000Y-73660000D02*
X201930000Y-62230000D01*
G04 #@! TO.N,Net-(U15-Pad2)*
X210820000Y-46990000D02*
X201930000Y-46990000D01*
X218440000Y-46990000D02*
X218440000Y-54610000D01*
X210820000Y-46990000D02*
X218440000Y-46990000D01*
X218440000Y-54610000D02*
X221615000Y-54610000D01*
G04 #@! TO.N,Net-(U14-Pad6)*
X199390000Y-64770000D02*
X193040000Y-64770000D01*
X193040000Y-105410000D02*
X194310000Y-106680000D01*
X193040000Y-64770000D02*
X193040000Y-105410000D01*
G04 #@! TO.N,Net-(U14-Pad2)*
X194310000Y-54610000D02*
X199390000Y-54610000D01*
X191770000Y-52070000D02*
X194310000Y-54610000D01*
X182880000Y-62230000D02*
X182880000Y-52300798D01*
X191770000Y-49530000D02*
X191770000Y-52070000D01*
X180340000Y-64770000D02*
X182880000Y-62230000D01*
X177800000Y-64770000D02*
X180340000Y-64770000D01*
X185650798Y-49530000D02*
X191770000Y-49530000D01*
X182880000Y-52300798D02*
X185650798Y-49530000D01*
G04 #@! TO.N,Net-(U14-Pad1)*
X177800000Y-57150000D02*
X181610000Y-57150000D01*
X181610000Y-57150000D02*
X181610000Y-48260000D01*
X181610000Y-48260000D02*
X191770000Y-48260000D01*
X191770000Y-48260000D02*
X193040000Y-49530000D01*
X193040000Y-49530000D02*
X193040000Y-52070000D01*
X193040000Y-52070000D02*
X199390000Y-52070000D01*
G04 #@! TO.N,Net-(U16-Pad1)*
X167640000Y-52070000D02*
X177800000Y-52070000D01*
X167640000Y-99060000D02*
X161290000Y-99060000D01*
G04 #@! TO.N,Net-(U3-Pad6)*
X144780000Y-43180000D02*
X153670000Y-43180000D01*
X142240000Y-88900000D02*
X140970000Y-87630000D01*
X139700000Y-87630000D02*
X139700000Y-46990000D01*
X153670000Y-88900000D02*
X142240000Y-88900000D01*
X140970000Y-87630000D02*
X139700000Y-87630000D01*
X139700000Y-46990000D02*
X140970000Y-46990000D01*
X140970000Y-46990000D02*
X144780000Y-43180000D01*
G04 #@! TO.N,Net-(U12-Pad6)*
X161290000Y-96520000D02*
X170180000Y-96520000D01*
X170180000Y-96520000D02*
X170180000Y-91440000D01*
X177800000Y-90170000D02*
X170180000Y-90170000D01*
X170180000Y-90170000D02*
X170180000Y-91440000D01*
G04 #@! TO.N,/D4*
X201930000Y-157320000D02*
X201930000Y-158670000D01*
X200820000Y-156210000D02*
X201930000Y-157320000D01*
X195420000Y-156210000D02*
X200820000Y-156210000D01*
X194310000Y-157320000D02*
X195420000Y-156210000D01*
X194310000Y-158670000D02*
X194310000Y-157320000D01*
X210820000Y-157320000D02*
X210820000Y-158670000D01*
X209710000Y-156210000D02*
X210820000Y-157320000D01*
X203200000Y-156210000D02*
X209710000Y-156210000D01*
X202090000Y-157320000D02*
X203200000Y-156210000D01*
X201930000Y-157320000D02*
X202090000Y-157320000D01*
X217330000Y-156210000D02*
X218440000Y-157320000D01*
X218440000Y-157320000D02*
X218440000Y-158670000D01*
X211930000Y-156210000D02*
X217330000Y-156210000D01*
X210820000Y-157320000D02*
X211930000Y-156210000D01*
X227330000Y-157320000D02*
X227330000Y-158670000D01*
X226220000Y-156210000D02*
X227330000Y-157320000D01*
X219550000Y-156210000D02*
X226220000Y-156210000D01*
X218440000Y-157320000D02*
X219550000Y-156210000D01*
X235110000Y-156210000D02*
X236220000Y-157320000D01*
X228440000Y-156210000D02*
X235110000Y-156210000D01*
X236220000Y-157320000D02*
X236220000Y-158670000D01*
X227330000Y-157320000D02*
X228440000Y-156210000D01*
X245110000Y-157320000D02*
X245110000Y-158670000D01*
X244000000Y-156210000D02*
X245110000Y-157320000D01*
X237330000Y-156210000D02*
X244000000Y-156210000D01*
X236220000Y-157320000D02*
X237330000Y-156210000D01*
X252730000Y-157320000D02*
X252730000Y-158670000D01*
X251620000Y-156210000D02*
X252730000Y-157320000D01*
X246220000Y-156210000D02*
X251620000Y-156210000D01*
X245110000Y-157320000D02*
X246220000Y-156210000D01*
G04 #@! TO.N,/D0*
X201930000Y-177640000D02*
X201930000Y-178990000D01*
X200820000Y-176530000D02*
X201930000Y-177640000D01*
X195420000Y-176530000D02*
X200820000Y-176530000D01*
X194310000Y-177640000D02*
X195420000Y-176530000D01*
X194310000Y-178990000D02*
X194310000Y-177640000D01*
X210820000Y-177640000D02*
X210820000Y-178990000D01*
X209710000Y-176530000D02*
X210820000Y-177640000D01*
X203040000Y-176530000D02*
X209710000Y-176530000D01*
X201930000Y-177640000D02*
X203040000Y-176530000D01*
X218440000Y-177640000D02*
X218440000Y-178990000D01*
X217330000Y-176530000D02*
X218440000Y-177640000D01*
X211930000Y-176530000D02*
X217330000Y-176530000D01*
X210820000Y-177640000D02*
X211930000Y-176530000D01*
X227330000Y-177640000D02*
X227330000Y-178990000D01*
X226220000Y-176530000D02*
X227330000Y-177640000D01*
X219550000Y-176530000D02*
X226220000Y-176530000D01*
X218440000Y-177640000D02*
X219550000Y-176530000D01*
X236220000Y-177640000D02*
X236220000Y-178990000D01*
X235110000Y-176530000D02*
X236220000Y-177640000D01*
X228440000Y-176530000D02*
X235110000Y-176530000D01*
X227330000Y-177640000D02*
X228440000Y-176530000D01*
X245110000Y-177640000D02*
X245110000Y-178990000D01*
X244000000Y-176530000D02*
X245110000Y-177640000D01*
X237330000Y-176530000D02*
X244000000Y-176530000D01*
X236220000Y-177640000D02*
X237330000Y-176530000D01*
X252730000Y-177640000D02*
X252730000Y-178990000D01*
X251620000Y-176530000D02*
X252730000Y-177640000D01*
X246220000Y-176530000D02*
X251620000Y-176530000D01*
X245110000Y-177640000D02*
X246220000Y-176530000D01*
G04 #@! TO.N,/D1*
X201930000Y-172560000D02*
X201930000Y-173910000D01*
X200820000Y-171450000D02*
X201930000Y-172560000D01*
X195420000Y-171450000D02*
X200820000Y-171450000D01*
X194310000Y-172560000D02*
X195420000Y-171450000D01*
X194310000Y-173910000D02*
X194310000Y-172560000D01*
X203040000Y-171450000D02*
X209710000Y-171450000D01*
X210820000Y-172560000D02*
X210820000Y-173910000D01*
X209710000Y-171450000D02*
X210820000Y-172560000D01*
X201930000Y-172560000D02*
X203040000Y-171450000D01*
X218440000Y-172560000D02*
X218440000Y-173910000D01*
X217330000Y-171450000D02*
X218440000Y-172560000D01*
X211930000Y-171450000D02*
X217330000Y-171450000D01*
X210820000Y-172560000D02*
X211930000Y-171450000D01*
X226220000Y-171450000D02*
X227330000Y-172560000D01*
X219550000Y-171450000D02*
X226220000Y-171450000D01*
X227330000Y-172560000D02*
X227330000Y-173910000D01*
X218440000Y-172560000D02*
X219550000Y-171450000D01*
X235110000Y-171450000D02*
X236220000Y-172560000D01*
X236220000Y-172560000D02*
X236220000Y-173910000D01*
X228440000Y-171450000D02*
X235110000Y-171450000D01*
X227330000Y-172560000D02*
X228440000Y-171450000D01*
X245110000Y-172560000D02*
X245110000Y-173910000D01*
X244000000Y-171450000D02*
X245110000Y-172560000D01*
X237330000Y-171450000D02*
X244000000Y-171450000D01*
X236220000Y-172560000D02*
X237330000Y-171450000D01*
X252730000Y-172560000D02*
X252730000Y-173910000D01*
X251620000Y-171450000D02*
X252730000Y-172560000D01*
X246220000Y-171450000D02*
X251620000Y-171450000D01*
X245110000Y-172560000D02*
X246220000Y-171450000D01*
X231140000Y-146685000D02*
X231140000Y-150495000D01*
X231140000Y-150495000D02*
X233045000Y-152400000D01*
X257810000Y-152400000D02*
X257810000Y-181610000D01*
X257810000Y-181610000D02*
X242570000Y-181610000D01*
X233045000Y-152400000D02*
X257810000Y-152400000D01*
G04 #@! TO.N,/D2*
X200820000Y-166370000D02*
X201930000Y-167480000D01*
X195420000Y-166370000D02*
X200820000Y-166370000D01*
X201930000Y-167480000D02*
X201930000Y-168830000D01*
X194310000Y-167480000D02*
X195420000Y-166370000D01*
X194310000Y-168830000D02*
X194310000Y-167480000D01*
X210820000Y-167480000D02*
X210820000Y-168830000D01*
X203040000Y-166370000D02*
X209710000Y-166370000D01*
X209710000Y-166370000D02*
X210820000Y-167480000D01*
X201930000Y-167480000D02*
X203040000Y-166370000D01*
X218440000Y-167480000D02*
X218440000Y-168830000D01*
X217330000Y-166370000D02*
X218440000Y-167480000D01*
X211930000Y-166370000D02*
X217330000Y-166370000D01*
X210820000Y-167480000D02*
X211930000Y-166370000D01*
X227330000Y-167480000D02*
X227330000Y-168830000D01*
X219550000Y-166370000D02*
X226220000Y-166370000D01*
X226220000Y-166370000D02*
X227330000Y-167480000D01*
X218440000Y-167480000D02*
X219550000Y-166370000D01*
X236220000Y-167480000D02*
X236220000Y-168830000D01*
X235110000Y-166370000D02*
X236220000Y-167480000D01*
X228440000Y-166370000D02*
X235110000Y-166370000D01*
X227330000Y-167480000D02*
X228440000Y-166370000D01*
X245110000Y-167480000D02*
X245110000Y-168830000D01*
X244000000Y-166370000D02*
X245110000Y-167480000D01*
X237330000Y-166370000D02*
X244000000Y-166370000D01*
X236220000Y-167480000D02*
X237330000Y-166370000D01*
X252730000Y-167480000D02*
X252730000Y-168830000D01*
X251620000Y-166370000D02*
X252730000Y-167480000D01*
X246220000Y-166370000D02*
X251620000Y-166370000D01*
X245110000Y-167480000D02*
X246220000Y-166370000D01*
G04 #@! TO.N,/D3*
X200820000Y-161290000D02*
X201930000Y-162400000D01*
X201930000Y-162400000D02*
X201930000Y-163750000D01*
X195420000Y-161290000D02*
X200820000Y-161290000D01*
X194310000Y-162400000D02*
X195420000Y-161290000D01*
X194310000Y-163750000D02*
X194310000Y-162400000D01*
X210820000Y-162400000D02*
X210820000Y-163750000D01*
X209710000Y-161290000D02*
X210820000Y-162400000D01*
X203040000Y-161290000D02*
X209710000Y-161290000D01*
X201930000Y-162400000D02*
X203040000Y-161290000D01*
X217330000Y-161290000D02*
X218440000Y-162400000D01*
X211930000Y-161290000D02*
X217330000Y-161290000D01*
X218440000Y-162400000D02*
X218440000Y-163750000D01*
X210820000Y-162400000D02*
X211930000Y-161290000D01*
X227330000Y-162400000D02*
X227330000Y-163750000D01*
X219550000Y-161290000D02*
X226220000Y-161290000D01*
X226220000Y-161290000D02*
X227330000Y-162400000D01*
X218440000Y-162400000D02*
X219550000Y-161290000D01*
X236220000Y-162400000D02*
X236220000Y-163750000D01*
X235110000Y-161290000D02*
X236220000Y-162400000D01*
X228440000Y-161290000D02*
X235110000Y-161290000D01*
X227330000Y-162400000D02*
X228440000Y-161290000D01*
X245110000Y-162400000D02*
X245110000Y-163750000D01*
X244000000Y-161290000D02*
X245110000Y-162400000D01*
X237330000Y-161290000D02*
X244000000Y-161290000D01*
X236220000Y-162400000D02*
X237330000Y-161290000D01*
X252730000Y-162400000D02*
X252730000Y-163750000D01*
X251620000Y-161290000D02*
X252730000Y-162400000D01*
X246220000Y-161290000D02*
X251620000Y-161290000D01*
X245110000Y-162400000D02*
X246220000Y-161290000D01*
X236220000Y-148385000D02*
X236220000Y-146685000D01*
X236220000Y-151130000D02*
X236220000Y-148385000D01*
X259080000Y-151130000D02*
X236220000Y-151130000D01*
X259080000Y-182880000D02*
X259080000Y-151130000D01*
X224790000Y-182880000D02*
X259080000Y-182880000D01*
G04 #@! TO.N,Net-(U31-Pad10)*
X86360000Y-64770000D02*
X91440000Y-64770000D01*
G04 #@! TO.N,Net-(U31-Pad4)*
X92710000Y-52070000D02*
X99060000Y-52070000D01*
X75068616Y-59690000D02*
X85090000Y-59690000D01*
X71120000Y-63638616D02*
X75068616Y-59690000D01*
X68580000Y-73660000D02*
X71120000Y-73660000D01*
X85090000Y-59690000D02*
X92710000Y-52070000D01*
X71120000Y-73660000D02*
X71120000Y-63638616D01*
G04 #@! TO.N,Net-(U32-Pad2)*
X115570000Y-73660000D02*
X119380000Y-73660000D01*
X107950000Y-90170000D02*
X111760000Y-90170000D01*
X109220000Y-81280000D02*
X107950000Y-82550000D01*
X86360000Y-86360000D02*
X86360000Y-87630000D01*
X114300000Y-81280000D02*
X109220000Y-81280000D01*
X111760000Y-60960000D02*
X114300000Y-60960000D01*
X114300000Y-60960000D02*
X114300000Y-73660000D01*
X115570000Y-73660000D02*
X114300000Y-73660000D01*
X114300000Y-73660000D02*
X114300000Y-81280000D01*
X86360000Y-87630000D02*
X97155000Y-87630000D01*
X97155000Y-87630000D02*
X99695000Y-90170000D01*
X99695000Y-90170000D02*
X107950000Y-90170000D01*
G04 #@! TO.N,Net-(U32-Pad4)*
X111360000Y-95250000D02*
X108820000Y-92710000D01*
X111760000Y-95250000D02*
X111360000Y-95250000D01*
X108820000Y-92710000D02*
X105410000Y-92710000D01*
X105010001Y-82150001D02*
X105010001Y-63899999D01*
X105410000Y-82550000D02*
X105010001Y-82150001D01*
X105410000Y-63500000D02*
X111760000Y-63500000D01*
X105010001Y-63899999D02*
X105410000Y-63500000D01*
G04 #@! TO.N,Net-(U31-Pad11)*
X97790000Y-73660000D02*
X102870000Y-73660000D01*
G04 #@! TO.N,Net-(U31-Pad8)*
X73660000Y-62368616D02*
X73660000Y-62230000D01*
X73660000Y-62230000D02*
X74610001Y-61279999D01*
X74610001Y-61279999D02*
X101919999Y-61279999D01*
X72859990Y-77470000D02*
X72859990Y-63168626D01*
X101919999Y-61279999D02*
X102870000Y-62230000D01*
X102870000Y-62230000D02*
X102870000Y-66040000D01*
X73660000Y-81280000D02*
X72859990Y-80479990D01*
X72859990Y-63168626D02*
X73660000Y-62368616D01*
X76200000Y-81280000D02*
X73660000Y-81280000D01*
X72859990Y-77470000D02*
X71755000Y-77470000D01*
X71755000Y-77470000D02*
X71120000Y-78105000D01*
X71120000Y-78105000D02*
X71120000Y-79375000D01*
X71755000Y-80010000D02*
X72859990Y-80010000D01*
X71120000Y-79375000D02*
X71755000Y-80010000D01*
X72859990Y-80479990D02*
X72859990Y-80010000D01*
G04 #@! TO.N,Net-(U31-Pad1)*
X77470000Y-62230000D02*
X95250000Y-62230000D01*
X95250000Y-62230000D02*
X95250000Y-74930000D01*
X99060000Y-87630000D02*
X111760000Y-87630000D01*
X97790000Y-80010000D02*
X97790000Y-74930000D01*
X97790000Y-80010000D02*
X99060000Y-81280000D01*
X97790000Y-74930000D02*
X95250000Y-74930000D01*
X65405000Y-66040000D02*
X65405000Y-64770000D01*
X68580000Y-66040000D02*
X65405000Y-66040000D01*
X65405000Y-64770000D02*
X66675000Y-63500000D01*
X69850000Y-63500000D02*
X72390000Y-60960000D01*
X66675000Y-63500000D02*
X69850000Y-63500000D01*
X68580000Y-95250000D02*
X66880000Y-95250000D01*
X66880000Y-95250000D02*
X63500000Y-95250000D01*
X63500000Y-95250000D02*
X63500000Y-95250000D01*
X58420000Y-84455000D02*
X58420000Y-88265000D01*
G04 #@! TO.N,Net-(U31-Pad13)*
X91440000Y-68580000D02*
X76200000Y-68580000D01*
X93980000Y-68580000D02*
X91440000Y-68580000D01*
X93980000Y-76200000D02*
X93980000Y-68580000D01*
X119380000Y-100330000D02*
X116840000Y-100330000D01*
X116840000Y-100330000D02*
X116840000Y-83820000D01*
X116840000Y-83820000D02*
X97790000Y-83820000D01*
X96520000Y-76200000D02*
X93980000Y-76200000D01*
X97790000Y-83820000D02*
X97790000Y-81416002D01*
X97790000Y-81416002D02*
X96520000Y-80146002D01*
X96520000Y-80146002D02*
X96520000Y-76200000D01*
G04 #@! TO.N,/Control(Ext.2)*
X73025000Y-130175000D02*
X65405000Y-130175000D01*
X56515000Y-135890000D02*
X59690000Y-132715000D01*
X65405000Y-131525000D02*
X65405000Y-130175000D01*
X64215000Y-132715000D02*
X65405000Y-131525000D01*
X59690000Y-132715000D02*
X64215000Y-132715000D01*
G04 #@! TO.N,/Running(Led)*
X82345000Y-130175000D02*
X83615000Y-131445000D01*
X80645000Y-130175000D02*
X82345000Y-130175000D01*
X102870000Y-131445000D02*
X85090000Y-131445000D01*
X83615000Y-131445000D02*
X85090000Y-131445000D01*
X85090000Y-131445000D02*
X85725000Y-131445000D01*
X102870000Y-131445000D02*
X102870000Y-134620000D01*
X102870000Y-134620000D02*
X105410000Y-137160000D01*
X105410000Y-137160000D02*
X109855000Y-137160000D01*
X109855000Y-137160000D02*
X109855000Y-140970000D01*
G04 #@! TO.N,/Rain(Led)*
X101600000Y-135255000D02*
X83820000Y-135255000D01*
X80645000Y-135255000D02*
X83820000Y-135255000D01*
X83820000Y-135255000D02*
X84455000Y-135255000D01*
X101600000Y-135255000D02*
X101600000Y-142240000D01*
X104775000Y-145415000D02*
X109855000Y-145415000D01*
X101600000Y-142240000D02*
X104775000Y-145415000D01*
G04 #@! TO.N,/Control(Ext.)*
X67945000Y-121285000D02*
X67945000Y-123855000D01*
X66675000Y-120015000D02*
X67945000Y-121285000D01*
X69185000Y-125095000D02*
X73025000Y-125095000D01*
X67945000Y-123855000D02*
X69185000Y-125095000D01*
X60325000Y-120015000D02*
X66675000Y-120015000D01*
X59055000Y-119849990D02*
X59055000Y-120015000D01*
X60960000Y-117944990D02*
X59055000Y-119849990D01*
X59055000Y-120015000D02*
X60325000Y-120015000D01*
G04 #@! TO.N,/Rain_Sensor(Ext.)*
X80645000Y-137795000D02*
X83185000Y-137795000D01*
X100330000Y-137795000D02*
X80645000Y-137795000D01*
X109855000Y-153670000D02*
X100330000Y-153670000D01*
X100330000Y-153670000D02*
X100330000Y-137795000D01*
G04 #@! TO.N,/Mode(Ext.)*
X73025000Y-135255000D02*
X65405000Y-135255000D01*
X65405000Y-135255000D02*
X65405000Y-139065000D01*
X64215000Y-140255000D02*
X65405000Y-139065000D01*
X64215000Y-143510000D02*
X64215000Y-140255000D01*
G04 #@! TO.N,/Mode(In)*
X115570000Y-92710000D02*
X111760000Y-92710000D01*
X115570000Y-85090000D02*
X115570000Y-92710000D01*
X76835000Y-146685000D02*
X76835000Y-137795000D01*
X80645000Y-146685000D02*
X76835000Y-146685000D01*
X53975000Y-155575000D02*
X80645000Y-155575000D01*
X80645000Y-155575000D02*
X80645000Y-146685000D01*
X52705000Y-154305000D02*
X53975000Y-155575000D01*
X52705000Y-114300000D02*
X52705000Y-154305000D01*
X76835000Y-137795000D02*
X73025000Y-137795000D01*
X63500000Y-91440000D02*
X58420000Y-91440000D01*
X58420000Y-91440000D02*
X58420000Y-114300000D01*
X58420000Y-114300000D02*
X52705000Y-114300000D01*
X63500000Y-86995000D02*
X63500000Y-91440000D01*
X65405000Y-85090000D02*
X66040000Y-85090000D01*
X63500000Y-86995000D02*
X65405000Y-85090000D01*
X115570000Y-85090000D02*
X66040000Y-85090000D01*
G04 #@! TO.N,/Control(In2)*
X75565000Y-132715000D02*
X73025000Y-132715000D01*
X76835000Y-131445000D02*
X75565000Y-132715000D01*
X60960000Y-111760000D02*
X60960000Y-92710000D01*
X60960000Y-81280000D02*
X60960000Y-87630000D01*
X76835000Y-131445000D02*
X76835000Y-111760000D01*
X76835000Y-111760000D02*
X60960000Y-111760000D01*
G04 #@! TO.N,/Rain(In)*
X78945000Y-132715000D02*
X80645000Y-132715000D01*
X78105000Y-133555000D02*
X78945000Y-132715000D01*
X78105000Y-139495000D02*
X78105000Y-133555000D01*
X78945000Y-140335000D02*
X78105000Y-139495000D01*
X80645000Y-140335000D02*
X78945000Y-140335000D01*
X68580000Y-76200000D02*
X59690000Y-76200000D01*
X59690000Y-76200000D02*
X54610000Y-81280000D01*
X54610000Y-98425000D02*
X51435000Y-98425000D01*
X54610000Y-81280000D02*
X54610000Y-98425000D01*
X51435000Y-98425000D02*
X51435000Y-119380000D01*
X51435000Y-118745000D02*
X51435000Y-119380000D01*
X78105000Y-139495000D02*
X78105000Y-145553616D01*
X81915000Y-145692232D02*
X81915000Y-156845000D01*
X81776384Y-145553616D02*
X81915000Y-145692232D01*
X78105000Y-145553616D02*
X81776384Y-145553616D01*
X51435000Y-154940000D02*
X53340000Y-156845000D01*
X81915000Y-156845000D02*
X53340000Y-156845000D01*
X51435000Y-154940000D02*
X51435000Y-119380000D01*
G04 #@! TO.N,/Control(In1)*
X74725000Y-127635000D02*
X75565000Y-126795000D01*
X73025000Y-127635000D02*
X74725000Y-127635000D01*
X75565000Y-126795000D02*
X75565000Y-117475000D01*
X59690000Y-113030000D02*
X59690000Y-93980000D01*
X59690000Y-93980000D02*
X59690000Y-92710000D01*
X59690000Y-83820000D02*
X59690000Y-88900000D01*
X75565000Y-117475000D02*
X75565000Y-113030000D01*
X75565000Y-113030000D02*
X59690000Y-113030000D01*
X59690000Y-83820000D02*
X59690000Y-81915000D01*
X59690000Y-81915000D02*
X59690000Y-81915000D01*
G04 #@! TO.N,/Comparison.Equal*
X177400000Y-24130000D02*
X177800000Y-24130000D01*
X175260000Y-21990000D02*
X177400000Y-24130000D01*
X175260000Y-17780000D02*
X175260000Y-21990000D01*
X200660000Y-17780000D02*
X175260000Y-17780000D01*
X200660000Y-36830000D02*
X200660000Y-17780000D01*
X198120000Y-36830000D02*
X200660000Y-36830000D01*
X177800000Y-26670000D02*
X177800000Y-24130000D01*
G04 #@! TO.N,/Mem.Comparison.Equal*
X153670000Y-40640000D02*
X158750000Y-40640000D01*
X158750000Y-40640000D02*
X158750000Y-25400000D01*
X158750000Y-25400000D02*
X171450000Y-25400000D01*
X171450000Y-25400000D02*
X171450000Y-34290000D01*
X171450000Y-34290000D02*
X177800000Y-34290000D01*
X63004970Y-63360030D02*
X66040000Y-60325000D01*
X73660000Y-55880000D02*
X85090000Y-55880000D01*
X59055000Y-66040000D02*
X63004970Y-66040000D01*
X85090000Y-55880000D02*
X88265000Y-52705000D01*
X66040000Y-60325000D02*
X69215000Y-60325000D01*
X63004970Y-66040000D02*
X63004970Y-63360030D01*
X101600000Y-35560000D02*
X134620000Y-35560000D01*
X88265000Y-52705000D02*
X88265000Y-49668616D01*
X69215000Y-60325000D02*
X73660000Y-55880000D01*
X97155000Y-35560000D02*
X101600000Y-35560000D01*
X88265000Y-49668616D02*
X90805000Y-47128616D01*
X95554980Y-37160020D02*
X97155000Y-35560000D01*
X90805000Y-46990000D02*
X91440000Y-46355000D01*
X90805000Y-47128616D02*
X90805000Y-46990000D01*
X91440000Y-46355000D02*
X95554980Y-46355000D01*
X95554980Y-46355000D02*
X95554980Y-37160020D01*
G04 #@! TO.N,/Timer.End*
X199390000Y-57150000D02*
X203200000Y-57150000D01*
X203200000Y-57150000D02*
X203200000Y-72390000D01*
X203200000Y-72390000D02*
X213360000Y-72390000D01*
X176060010Y-47459990D02*
X193509990Y-47459990D01*
X175260000Y-48260000D02*
X176060010Y-47459990D01*
X158750000Y-50800000D02*
X160020000Y-52070000D01*
X167503998Y-50800000D02*
X175260000Y-50800000D01*
X160020000Y-52070000D02*
X166370000Y-52070000D01*
X193509990Y-47459990D02*
X194310000Y-48260000D01*
X175260000Y-50800000D02*
X175260000Y-48260000D01*
X166370000Y-52070000D02*
X166370000Y-51933998D01*
X166370000Y-51933998D02*
X167503998Y-50800000D01*
G04 #@! TO.N,Net-(U17-Pad1)*
X191770000Y-73660000D02*
X186055000Y-73660000D01*
X186055000Y-73660000D02*
X186055000Y-71120000D01*
X186055000Y-71120000D02*
X170180000Y-71120000D01*
X170180000Y-71120000D02*
X170180000Y-63500000D01*
X170180000Y-64135000D02*
X170180000Y-63500000D01*
X170180000Y-63500000D02*
X170180000Y-64135000D01*
G04 #@! TO.N,Net-(U14-Pad4)*
X187960000Y-59690000D02*
X194310000Y-59690000D01*
X194310000Y-59690000D02*
X199390000Y-59690000D01*
X151511000Y-52959000D02*
X144591999Y-46039999D01*
X144591999Y-46039999D02*
X143053999Y-46039999D01*
X127000000Y-58801000D02*
X121920000Y-58801000D01*
X121920000Y-58801000D02*
X120523000Y-57404000D01*
X120523000Y-57404000D02*
X119253000Y-57404000D01*
X119253000Y-57404000D02*
X118999000Y-57150000D01*
X143051385Y-46039999D02*
X142240000Y-46851384D01*
X143053999Y-46039999D02*
X143051385Y-46039999D01*
X142240000Y-46851384D02*
X142240000Y-52070000D01*
X151511000Y-52959000D02*
X152019000Y-52959000D01*
X152019000Y-52959000D02*
X152400000Y-53340000D01*
X152400000Y-53340000D02*
X165100000Y-53340000D01*
X177800000Y-62230000D02*
X165735000Y-62230000D01*
X165735000Y-62230000D02*
X165100000Y-61595000D01*
X198755000Y-104140000D02*
X196850000Y-102235000D01*
X196850000Y-102235000D02*
X195580000Y-102235000D01*
X191770000Y-74930000D02*
X184785000Y-74930000D01*
X184785000Y-74930000D02*
X184785000Y-72390000D01*
X165100000Y-61595000D02*
X165100000Y-60325000D01*
X165100000Y-60325000D02*
X165100000Y-60960000D01*
X213360000Y-106680000D02*
X214630000Y-107950000D01*
X207010000Y-101600000D02*
X207010000Y-106680000D01*
X207010000Y-106680000D02*
X213360000Y-106680000D01*
G04 #@! TO.N,Net-(R20-Pad2)*
X141759989Y-138584989D02*
X143510000Y-140335000D01*
X143510000Y-140335000D02*
X144145000Y-140335000D01*
X144145000Y-140335000D02*
X144145000Y-146685000D01*
X146050000Y-146685000D02*
X146050000Y-160020000D01*
X144145000Y-146685000D02*
X146050000Y-146685000D01*
G04 #@! TO.N,Net-(R21-Pad2)*
X142709990Y-137725685D02*
X144049305Y-139065000D01*
X142709990Y-137160000D02*
X142709990Y-137725685D01*
X144049305Y-139065000D02*
X145249990Y-139065000D01*
X145249990Y-139065000D02*
X145249990Y-145249990D01*
X145580010Y-145580010D02*
X147485010Y-145580010D01*
X145249990Y-145249990D02*
X145580010Y-145580010D01*
X147485010Y-145580010D02*
X147955000Y-146050000D01*
X147955000Y-146050000D02*
X147955000Y-154166384D01*
X147955000Y-154166384D02*
X147955000Y-156845000D01*
X147955000Y-156845000D02*
X168910000Y-156845000D01*
X168910000Y-156845000D02*
X168910000Y-160020000D01*
X168910000Y-160020000D02*
X168910000Y-160020000D01*
G04 #@! TO.N,Net-(R18-Pad2)*
X137865001Y-135184999D02*
X137865001Y-156139999D01*
X139065000Y-133985000D02*
X137865001Y-135184999D01*
X123123999Y-156139999D02*
X122418998Y-156845000D01*
X137865001Y-156139999D02*
X123123999Y-156139999D01*
X122418998Y-156845000D02*
X100330000Y-156845000D01*
X100330000Y-156845000D02*
X100330000Y-160655000D01*
X100330000Y-160655000D02*
X100330000Y-160655000D01*
G04 #@! TO.N,Net-(R19-Pad2)*
X141605000Y-141605000D02*
X141605000Y-153670000D01*
X141605000Y-153670000D02*
X141605000Y-157480000D01*
X123190000Y-160655000D02*
X123190000Y-157480000D01*
G04 #@! TO.N,PWR_ALW*
X107315000Y-23290000D02*
X107315000Y-21590000D01*
X107520000Y-23495000D02*
X107315000Y-23290000D01*
X120650000Y-23495000D02*
X107520000Y-23495000D01*
X123013629Y-26989999D02*
X124779999Y-26989999D01*
X120650000Y-23495000D02*
X120650000Y-24626370D01*
X120650000Y-24626370D02*
X123013629Y-26989999D01*
X124779999Y-26989999D02*
X125099998Y-26670000D01*
X125099998Y-26670000D02*
X125734998Y-26035000D01*
X125734998Y-26035000D02*
X156044990Y-26035000D01*
X156044990Y-26035000D02*
X156044990Y-24295010D01*
X156044990Y-24295010D02*
X158750000Y-21590000D01*
X158750000Y-21590000D02*
X172720000Y-21590000D01*
X172720000Y-21590000D02*
X172720000Y-21590000D01*
X47447440Y-44400857D02*
X47447440Y-39370000D01*
X49097441Y-50272858D02*
X46665299Y-52705000D01*
X47447440Y-44400857D02*
X47447440Y-46000857D01*
X49097441Y-47650858D02*
X49097441Y-50272858D01*
X47447440Y-46000857D02*
X49097441Y-47650858D01*
X50800000Y-14605000D02*
X53324990Y-12080010D01*
X109015000Y-21590000D02*
X112190000Y-18415000D01*
X107315000Y-21590000D02*
X109015000Y-21590000D01*
X112190000Y-18415000D02*
X113665000Y-18415000D01*
X53324990Y-12080010D02*
X54610000Y-10795000D01*
X87445002Y-10795000D02*
X94430002Y-17780000D01*
X54610000Y-10795000D02*
X87445002Y-10795000D01*
X94430002Y-17780000D02*
X95250000Y-17780000D01*
X95250000Y-17780000D02*
X95250000Y-17780000D01*
X113665000Y-18415000D02*
X113665000Y-18415000D01*
X46665299Y-52705000D02*
X45085000Y-54285299D01*
X49097441Y-50272858D02*
X48425010Y-50945289D01*
X45085000Y-54285299D02*
X45085000Y-54285299D01*
X73230000Y-114095000D02*
X73230000Y-116635000D01*
X73230000Y-116635000D02*
X73025000Y-116840000D01*
X73025000Y-116840000D02*
X54610000Y-116840000D01*
X54610000Y-116840000D02*
X54610000Y-116840000D01*
X45720000Y-111760000D02*
X48260000Y-111760000D01*
X48260000Y-111760000D02*
X48260000Y-111760000D01*
X170980010Y-98259990D02*
X170815000Y-98425000D01*
X185420000Y-77470000D02*
X183720000Y-77470000D01*
X183720000Y-77470000D02*
X179705000Y-81485000D01*
X171450000Y-94615000D02*
X170980010Y-95084990D01*
X179705000Y-81485000D02*
X179705000Y-94615000D01*
X179705000Y-94615000D02*
X171450000Y-94615000D01*
X170980010Y-95084990D02*
X170980010Y-98259990D01*
X185020000Y-77470000D02*
X180340000Y-72790000D01*
X185420000Y-77470000D02*
X185020000Y-77470000D01*
X180340000Y-72790000D02*
X180340000Y-72790000D01*
X180340000Y-66675000D02*
X182880000Y-64135000D01*
X182880000Y-64135000D02*
X182880000Y-64135000D01*
X47625000Y-188595000D02*
X69215000Y-188595000D01*
X44450000Y-185420000D02*
X47625000Y-188595000D01*
X69215000Y-185420000D02*
X69215000Y-188595000D01*
G04 #@! TO.N,Net-(R17-Pad1)*
X93349425Y-26030575D02*
X93349425Y-24609756D01*
X92710000Y-26670000D02*
X93349425Y-26030575D01*
X77470000Y-41910000D02*
X77470000Y-39370000D01*
X77470000Y-39370000D02*
X78740000Y-38100000D01*
X78740000Y-33020000D02*
X80645000Y-31115000D01*
X75040000Y-41910000D02*
X77470000Y-41910000D01*
X80725001Y-30399999D02*
X85009999Y-30399999D01*
X80645000Y-30480000D02*
X80725001Y-30399999D01*
X80645000Y-31115000D02*
X80645000Y-30480000D01*
X85009999Y-30399999D02*
X86995000Y-32385000D01*
X86995000Y-32385000D02*
X87630000Y-32385000D01*
X92710000Y-27305000D02*
X92710000Y-26670000D01*
X87630000Y-32385000D02*
X92710000Y-27305000D01*
X78740000Y-38100000D02*
X78740000Y-33020000D01*
G04 #@! TO.N,VAC*
X138430000Y-164235000D02*
X138430000Y-165735000D01*
X136674999Y-162479999D02*
X138430000Y-164235000D01*
X118777501Y-162479999D02*
X136674999Y-162479999D01*
X115570000Y-165687500D02*
X118777501Y-162479999D01*
X115570000Y-165735000D02*
X115570000Y-165687500D01*
X159534999Y-162479999D02*
X161290000Y-164235000D01*
X138430000Y-165687500D02*
X141637501Y-162479999D01*
X141637501Y-162479999D02*
X159534999Y-162479999D01*
X138430000Y-165735000D02*
X138430000Y-165687500D01*
X184150000Y-164235000D02*
X184150000Y-165735000D01*
X182394999Y-162479999D02*
X184150000Y-164235000D01*
X163045001Y-162479999D02*
X182394999Y-162479999D01*
X161290000Y-164235000D02*
X163045001Y-162479999D01*
X161290000Y-165735000D02*
X161290000Y-164235000D01*
X160158630Y-168910000D02*
X159523630Y-169545000D01*
X161290000Y-168910000D02*
X160158630Y-168910000D01*
X159523630Y-169545000D02*
X156845000Y-169545000D01*
X138430000Y-168910000D02*
X137298630Y-168910000D01*
X137298630Y-168910000D02*
X133985000Y-168910000D01*
X115570000Y-168910000D02*
X111760000Y-168910000D01*
X180340000Y-172720000D02*
X179070000Y-172720000D01*
X184150000Y-168910000D02*
X180340000Y-168910000D01*
X180340000Y-168910000D02*
X180340000Y-172720000D01*
X249555000Y-125730000D02*
X249555000Y-147320000D01*
X188595000Y-186690000D02*
X188595000Y-171450000D01*
X245190000Y-28575000D02*
X245190000Y-29989213D01*
X260985000Y-31750000D02*
X260985000Y-122555000D01*
X257810000Y-125730000D02*
X249555000Y-125730000D01*
X245190000Y-29989213D02*
X246950787Y-31750000D01*
X246950787Y-31750000D02*
X260985000Y-31750000D01*
X260985000Y-122555000D02*
X257810000Y-125730000D01*
X262890000Y-147320000D02*
X262890000Y-186690000D01*
X262890000Y-186690000D02*
X188595000Y-186690000D01*
X249555000Y-147320000D02*
X262890000Y-147320000D01*
G04 #@! TO.N,Net-(C_PWR_6-Pad2)*
X253160000Y-52905000D02*
X253160000Y-50105000D01*
X253210001Y-52955001D02*
X253160000Y-52905000D01*
X257410001Y-54114999D02*
X256250003Y-52955001D01*
X257410001Y-64395001D02*
X257410001Y-54114999D01*
X254000000Y-72390000D02*
X254000000Y-67805002D01*
X247015000Y-75565000D02*
X250190000Y-72390000D01*
X250190000Y-72390000D02*
X254000000Y-72390000D01*
X247015000Y-79375000D02*
X247015000Y-75565000D01*
X256250003Y-52955001D02*
X253210001Y-52955001D01*
X250190000Y-82550000D02*
X247015000Y-79375000D01*
X250190000Y-99695000D02*
X250190000Y-82550000D01*
X254000000Y-67805002D02*
X257410001Y-64395001D01*
X247650000Y-102235000D02*
X250190000Y-99695000D01*
G04 #@! TO.N,+9V*
X251460000Y-80240000D02*
X254000000Y-82780000D01*
X251460000Y-78740000D02*
X251460000Y-80240000D01*
X254000000Y-82780000D02*
X254000000Y-86995000D01*
X251460000Y-89535000D02*
X254000000Y-86995000D01*
X248285000Y-108585000D02*
X251460000Y-105410000D01*
X251460000Y-105410000D02*
X251460000Y-89535000D01*
X248920000Y-67310000D02*
X251460000Y-69850000D01*
X248920000Y-67310000D02*
X248920000Y-64770000D01*
X248920000Y-64770000D02*
X242595000Y-64770000D01*
X97159425Y-14449756D02*
X100334425Y-14449756D01*
X97159425Y-20315575D02*
X97159425Y-14449756D01*
X89565000Y-28575000D02*
X91440000Y-26700000D01*
X91440000Y-26700000D02*
X91440000Y-24130000D01*
X91440000Y-24130000D02*
X92710000Y-22860000D01*
X92710000Y-22860000D02*
X94615000Y-22860000D01*
X88265000Y-28575000D02*
X89565000Y-28575000D01*
X94615000Y-22860000D02*
X97159425Y-20315575D01*
X248920000Y-64770000D02*
X248920000Y-64770000D01*
X252960000Y-78740000D02*
X256770000Y-74930000D01*
X251460000Y-78740000D02*
X252960000Y-78740000D01*
X256770000Y-74930000D02*
X259715000Y-74930000D01*
X259715000Y-74930000D02*
X259715000Y-59055000D01*
X259715000Y-59055000D02*
X259715000Y-33020000D01*
X259715000Y-33020000D02*
X259715000Y-33020000D01*
X101134424Y-13649757D02*
X100334425Y-14449756D01*
X259715000Y-12080010D02*
X253856496Y-12080010D01*
X77939990Y-32550010D02*
X79844990Y-30645010D01*
X82464991Y-27224999D02*
X88214999Y-27224999D01*
X77939990Y-34124990D02*
X77939990Y-32550010D01*
X76200000Y-40640000D02*
X76200000Y-39508616D01*
X77939990Y-37768626D02*
X77939990Y-34124990D01*
X76200000Y-39508616D02*
X77939990Y-37768626D01*
X79844990Y-30645010D02*
X79844990Y-29845000D01*
X75040000Y-40640000D02*
X76200000Y-40640000D01*
X79844990Y-29845000D02*
X82464991Y-27224999D01*
X88265000Y-27275000D02*
X88265000Y-28575000D01*
X88214999Y-27224999D02*
X88265000Y-27275000D01*
X102265020Y-12700000D02*
X102084181Y-12700000D01*
X102885010Y-12080010D02*
X102265020Y-12700000D01*
X102704171Y-12080010D02*
X102084181Y-12700000D01*
X102084181Y-12700000D02*
X101134424Y-13649757D01*
X233680000Y-12080010D02*
X233710020Y-12049990D01*
X233680000Y-12080010D02*
X102885010Y-12080010D01*
X233710020Y-12049990D02*
X243220010Y-12049990D01*
X243220010Y-12049990D02*
X243840000Y-11430000D01*
X243840000Y-11430000D02*
X251460000Y-11430000D01*
X252110010Y-12080010D02*
X253856496Y-12080010D01*
X251460000Y-11430000D02*
X252110010Y-12080010D01*
G04 #@! TO.N,Net-(C1-Pad1)*
X79375000Y-120015000D02*
X83185000Y-120015000D01*
X101600000Y-120220000D02*
X100965000Y-119585000D01*
X100965000Y-119585000D02*
X86360000Y-119585000D01*
X86360000Y-119585000D02*
X86155000Y-119585000D01*
X114134990Y-152234990D02*
X115570000Y-153670000D01*
X105879990Y-152234990D02*
X114134990Y-152234990D01*
X118731999Y-147874999D02*
X115570000Y-151036998D01*
X115570000Y-152538630D02*
X115570000Y-153670000D01*
X129956383Y-147874999D02*
X118731999Y-147874999D01*
X132656385Y-150575001D02*
X129956383Y-147874999D01*
X133998001Y-150575001D02*
X132656385Y-150575001D01*
X134700001Y-149873001D02*
X133998001Y-150575001D01*
X115570000Y-151036998D02*
X115570000Y-152538630D01*
X134700001Y-147400001D02*
X134700001Y-149873001D01*
X132715000Y-145415000D02*
X134700001Y-147400001D01*
X101600000Y-121920000D02*
X101600000Y-120220000D01*
G04 #@! TO.N,Net-(C13-Pad1)*
X241300000Y-81280000D02*
X243840000Y-81280000D01*
X244475000Y-80645000D02*
X244475000Y-78105000D01*
X243840000Y-81280000D02*
X244475000Y-80645000D01*
G04 #@! TO.N,Net-(R26-Pad2)*
X87630000Y-34925000D02*
X88900000Y-33655000D01*
X87630000Y-39370000D02*
X87630000Y-34925000D01*
X86995000Y-40005000D02*
X87630000Y-39370000D01*
X83953616Y-41910000D02*
X85858616Y-40005000D01*
X85858616Y-40005000D02*
X86995000Y-40005000D01*
X82440000Y-41910000D02*
X83953616Y-41910000D01*
X88900000Y-33655000D02*
X94615000Y-27940000D01*
X96359426Y-26195574D02*
X95250000Y-27305000D01*
X96359426Y-25409755D02*
X96359426Y-26195574D01*
X97159425Y-24609756D02*
X96359426Y-25409755D01*
X94615000Y-27940000D02*
X95250000Y-27305000D01*
X95250000Y-27305000D02*
X96520000Y-26035000D01*
G04 #@! TO.N,Net-(R27-Pad2)*
X100330000Y-26670000D02*
X100334425Y-26665575D01*
X83815000Y-43180000D02*
X85720000Y-41275000D01*
X97155000Y-26670000D02*
X100330000Y-26670000D01*
X82440000Y-43180000D02*
X83815000Y-43180000D01*
X85720000Y-41275000D02*
X86995000Y-41275000D01*
X100334425Y-26665575D02*
X100334425Y-24609756D01*
X88734990Y-39535010D02*
X88734990Y-35090010D01*
X86995000Y-41275000D02*
X88734990Y-39535010D01*
X88734990Y-35090010D02*
X97155000Y-26670000D01*
G04 #@! TO.N,Net-(R29-Pad2)*
X79044980Y-42240020D02*
X79044980Y-39700020D01*
X78105000Y-43180000D02*
X79044980Y-42240020D01*
X79044980Y-39700020D02*
X80010000Y-38735000D01*
X75040000Y-43180000D02*
X78105000Y-43180000D01*
X80010000Y-33655000D02*
X81915000Y-31750000D01*
X80010000Y-38735000D02*
X80010000Y-33655000D01*
G04 #@! TO.N,Net-(R28-Pad2)*
X71755000Y-35368459D02*
X71832155Y-35445614D01*
X71755000Y-31750000D02*
X71755000Y-35368459D01*
X76835000Y-31750000D02*
X71755000Y-31750000D01*
X76835000Y-23495000D02*
X76835000Y-31750000D01*
G04 #@! TO.N,Net-(CONN_BATT_REPLACE_LED_1-Pad2)*
X132080000Y-151130000D02*
X132080000Y-153670000D01*
X119380000Y-149225000D02*
X119380000Y-151130000D01*
X119380000Y-151130000D02*
X132080000Y-151130000D01*
G04 #@! TO.N,Net-(Q3-Pad3)*
X155370000Y-168910000D02*
X156210000Y-168070000D01*
X153670000Y-168910000D02*
X155370000Y-168910000D01*
X156210000Y-168070000D02*
X156210000Y-167640000D01*
X163830000Y-165782500D02*
X163830000Y-165735000D01*
X162052501Y-167559999D02*
X163830000Y-165782500D01*
X156290001Y-167559999D02*
X162052501Y-167559999D01*
X156210000Y-167640000D02*
X156290001Y-167559999D01*
G04 #@! TO.N,Net-(Q4-Pad3)*
X186690000Y-165782500D02*
X186690000Y-165735000D01*
X185187490Y-167285010D02*
X186690000Y-165782500D01*
X178554990Y-167285010D02*
X185187490Y-167285010D01*
X176930000Y-168910000D02*
X178554990Y-167285010D01*
X176530000Y-168910000D02*
X176930000Y-168910000D01*
G04 #@! TO.N,Net-(Q2-Pad3)*
X140970000Y-165782500D02*
X140970000Y-165735000D01*
X139467490Y-167285010D02*
X140970000Y-165782500D01*
X134134990Y-167285010D02*
X139467490Y-167285010D01*
X132510000Y-168910000D02*
X134134990Y-167285010D01*
X130810000Y-168910000D02*
X132510000Y-168910000D01*
G04 #@! TO.N,Net-(Q1-Pad3)*
X118110000Y-165782500D02*
X118110000Y-165735000D01*
X116332501Y-167559999D02*
X118110000Y-165782500D01*
X111000001Y-167559999D02*
X116332501Y-167559999D01*
X109650000Y-168910000D02*
X111000001Y-167559999D01*
X107950000Y-168910000D02*
X109650000Y-168910000D01*
G04 #@! TO.N,Net-(D11-Pad2)*
X254000000Y-118745000D02*
X257175000Y-121920000D01*
X254000000Y-116205000D02*
X254000000Y-118745000D01*
X257175000Y-121920000D02*
X258274999Y-120820001D01*
X258274999Y-120820001D02*
X259715000Y-119380000D01*
X259715000Y-119380000D02*
X259715000Y-82550000D01*
X259715000Y-82550000D02*
X259715000Y-82550000D01*
X54610000Y-42367440D02*
X57607440Y-39370000D01*
X54610000Y-52705000D02*
X54610000Y-42367440D01*
X48260000Y-52705000D02*
X54610000Y-52705000D01*
X43830010Y-55880000D02*
X48260000Y-55880000D01*
X48260000Y-55880000D02*
X48260000Y-52705000D01*
G04 #@! TO.N,Net-(D10-Pad2)*
X46347441Y-48380858D02*
X47447440Y-49480857D01*
X45797439Y-47830856D02*
X46347441Y-48380858D01*
X45797439Y-26545061D02*
X45797439Y-47830856D01*
X48847500Y-23495000D02*
X45797439Y-26545061D01*
X48895000Y-23495000D02*
X48847500Y-23495000D01*
G04 #@! TO.N,BATT_OUT_+*
X144145000Y-17145000D02*
X144780000Y-16510000D01*
X138430000Y-17145000D02*
X144145000Y-17145000D01*
X131445000Y-17145000D02*
X138430000Y-17145000D01*
X125730000Y-17145000D02*
X125095000Y-16510000D01*
X131445000Y-17145000D02*
X125730000Y-17145000D01*
X50395000Y-28575000D02*
X53975000Y-32155000D01*
X48895000Y-28575000D02*
X50395000Y-28575000D01*
X55880000Y-32790000D02*
X55880000Y-34290000D01*
X55245000Y-32155000D02*
X55880000Y-32790000D01*
X53975000Y-32155000D02*
X55245000Y-32155000D01*
X125095000Y-15010000D02*
X125095000Y-16510000D01*
X124055000Y-13970000D02*
X125095000Y-15010000D01*
X97790000Y-20955000D02*
X100965000Y-20955000D01*
X95250000Y-23495000D02*
X97790000Y-20955000D01*
X95250000Y-26173616D02*
X95250000Y-23495000D01*
X118110000Y-13970000D02*
X124055000Y-13970000D01*
X106680000Y-15240000D02*
X116840000Y-15240000D01*
X82440000Y-40640000D02*
X83815000Y-40640000D01*
X116840000Y-15240000D02*
X118110000Y-13970000D01*
X100965000Y-20955000D02*
X106680000Y-15240000D01*
X83815000Y-40640000D02*
X85720000Y-38735000D01*
X86360000Y-34290000D02*
X87133616Y-34290000D01*
X86360000Y-38735000D02*
X86360000Y-34290000D01*
X85720000Y-38735000D02*
X86360000Y-38735000D01*
X87133616Y-34290000D02*
X95250000Y-26173616D01*
X81065000Y-40640000D02*
X82440000Y-40640000D01*
X69850000Y-40640000D02*
X70250000Y-40640000D01*
X80645000Y-41060000D02*
X81065000Y-40640000D01*
X72155000Y-46755000D02*
X80410000Y-46755000D01*
X80410000Y-46755000D02*
X80645000Y-46520000D01*
X80645000Y-46520000D02*
X80645000Y-41060000D01*
X69850000Y-36779998D02*
X69850000Y-40640000D01*
X55880000Y-34290000D02*
X57380000Y-34290000D01*
X57380000Y-34290000D02*
X57460001Y-34209999D01*
X61675001Y-34209999D02*
X62865000Y-33020000D01*
X62865000Y-33020000D02*
X66090002Y-33020000D01*
X57460001Y-34209999D02*
X61675001Y-34209999D01*
X66090002Y-33020000D02*
X69850000Y-36779998D01*
X71755000Y-46355000D02*
X72155000Y-46755000D01*
X71755000Y-42145000D02*
X71755000Y-46355000D01*
X70250000Y-40640000D02*
X71755000Y-42145000D01*
G04 #@! TO.N,Net-(D_PWR_1-Pad1)*
X238735000Y-57810000D02*
X238760000Y-57785000D01*
X251460000Y-50105000D02*
X251460000Y-59255000D01*
X249990000Y-57785000D02*
X251460000Y-59255000D01*
X238760000Y-57785000D02*
X249990000Y-57785000D01*
X233680000Y-64770000D02*
X236195000Y-64770000D01*
X233680000Y-57785000D02*
X233680000Y-64770000D01*
X238760000Y-57785000D02*
X233680000Y-57785000D01*
G04 #@! TO.N,BATT_OUT_MID*
X55880000Y-24995000D02*
X55880000Y-29210000D01*
X55880000Y-23495000D02*
X55880000Y-24995000D01*
G04 #@! TO.N,Net-(D_BATT_1-Pad2)*
X82440000Y-44450000D02*
X83815000Y-44450000D01*
X85720000Y-42545000D02*
X86995000Y-42545000D01*
X83815000Y-44450000D02*
X85720000Y-42545000D01*
X86995000Y-42545000D02*
X89535000Y-40005000D01*
X89535000Y-40005000D02*
X89535000Y-35560000D01*
X89535000Y-35560000D02*
X97155000Y-27940000D01*
X97155000Y-27940000D02*
X102870000Y-27940000D01*
X109004998Y-16510000D02*
X118600787Y-16510000D01*
X102870000Y-22644998D02*
X109004998Y-16510000D01*
X118600787Y-16510000D02*
X120015000Y-16510000D01*
X102870000Y-27940000D02*
X102870000Y-22644998D01*
G04 #@! TO.N,Net-(C_PWR_3-Pad2)*
X249760000Y-43055000D02*
X250270000Y-42545000D01*
X249760000Y-50105000D02*
X249760000Y-43055000D01*
G04 #@! TO.N,Net-(C_PWR_1-Pad1)*
X248060000Y-50105000D02*
X248060000Y-40865000D01*
X248060000Y-40865000D02*
X248920000Y-40005000D01*
X252730000Y-40005000D02*
X255270000Y-42545000D01*
X248920000Y-40005000D02*
X252730000Y-40005000D01*
G04 #@! TO.N,Net-(C10-Pad1)*
X66040000Y-35560000D02*
X66040000Y-41910000D01*
X66040000Y-41910000D02*
X64770000Y-43180000D01*
X64770000Y-43180000D02*
X62230000Y-43180000D01*
G04 #@! TO.N,Net-(C10-Pad2)*
X63540000Y-35560000D02*
X60960000Y-35560000D01*
X60325000Y-36195000D02*
X60960000Y-35560000D01*
X60325000Y-48260000D02*
X60325000Y-36195000D01*
X60325000Y-48260000D02*
X62230000Y-48260000D01*
G04 #@! TO.N,CLK_MIN*
X74295000Y-23495000D02*
X74295000Y-29845000D01*
X74295000Y-29845000D02*
X70485000Y-29845000D01*
X70404999Y-36203613D02*
X70650010Y-36448624D01*
X70485000Y-29845000D02*
X70404999Y-29925001D01*
X70404999Y-29925001D02*
X70404999Y-36203613D01*
X70650010Y-36448624D02*
X70650010Y-37630010D01*
X70650010Y-37630010D02*
X73025000Y-40005000D01*
X73025000Y-40005000D02*
X73025000Y-42283616D01*
X73025000Y-42283616D02*
X73025000Y-45085000D01*
X73025000Y-45085000D02*
X73025000Y-45085000D01*
X73025000Y-45085000D02*
X73025000Y-45085000D01*
X66675000Y-53340000D02*
X68718616Y-53340000D01*
X52520002Y-53975000D02*
X55245000Y-53975000D01*
X65405000Y-52070000D02*
X66675000Y-53340000D01*
X57150000Y-52070000D02*
X65405000Y-52070000D01*
X55245000Y-53975000D02*
X57150000Y-52070000D01*
X68718616Y-53340000D02*
X68718616Y-53201384D01*
X46990000Y-57150000D02*
X49530000Y-57150000D01*
X49530000Y-57150000D02*
X49530000Y-53975000D01*
X52520002Y-53975000D02*
X49530000Y-53975000D01*
X65170000Y-175260000D02*
X64770000Y-175260000D01*
X46990000Y-108585000D02*
X49530000Y-111125000D01*
X46990000Y-114935000D02*
X46990000Y-184150000D01*
X67310000Y-184150000D02*
X67310000Y-177400000D01*
X49530000Y-111125000D02*
X49530000Y-112395000D01*
X46990000Y-184150000D02*
X67310000Y-184150000D01*
X67310000Y-177400000D02*
X65170000Y-175260000D01*
X49530000Y-112395000D02*
X46990000Y-114935000D01*
X62865000Y-109220000D02*
X62865000Y-109220000D01*
X55245000Y-109220000D02*
X55245000Y-107315000D01*
X55245000Y-107315000D02*
X53340000Y-105410000D01*
X53340000Y-105410000D02*
X53340000Y-105410000D01*
X46990000Y-105410000D02*
X46990000Y-108585000D01*
X62865000Y-107950000D02*
X62865000Y-109220000D01*
X186055000Y-100965000D02*
X163830000Y-100965000D01*
X186055000Y-98425000D02*
X186055000Y-100965000D01*
X163830000Y-100965000D02*
X163830000Y-106680000D01*
X163830000Y-106680000D02*
X92710000Y-106680000D01*
X92710000Y-106680000D02*
X92710000Y-107950000D01*
X92710000Y-107950000D02*
X62865000Y-107950000D01*
X46990000Y-57150000D02*
X46355000Y-57150000D01*
X46355000Y-104775000D02*
X46990000Y-105410000D01*
X46355000Y-57150000D02*
X46355000Y-104775000D01*
X71755000Y-49530000D02*
X71755000Y-50165000D01*
X68718616Y-53201384D02*
X71755000Y-50165000D01*
G04 #@! TO.N,Net-(U34-Pad8)*
X105410000Y-114300000D02*
X105410000Y-118110000D01*
X105410000Y-118110000D02*
X108585000Y-118110000D01*
X108585000Y-118110000D02*
X108585000Y-118110000D01*
X120650000Y-107950000D02*
X135890000Y-107950000D01*
X135890000Y-107950000D02*
X135890000Y-107950000D01*
X171450000Y-102235000D02*
X165265010Y-102235000D01*
X165265010Y-102235000D02*
X165265010Y-102235000D01*
X148590000Y-102870000D02*
X135890000Y-102870000D01*
X135890000Y-102870000D02*
X135890000Y-102870000D01*
X148590000Y-102870000D02*
X148590000Y-105410000D01*
G04 #@! TO.N,Net-(U12-Pad9)*
X179275000Y-103505000D02*
X190500000Y-103505000D01*
X178435000Y-106045000D02*
X178435000Y-104345000D01*
X190500000Y-103505000D02*
X190500000Y-91440000D01*
X178435000Y-104345000D02*
X179275000Y-103505000D01*
X185420000Y-90170000D02*
X190500000Y-90170000D01*
X190500000Y-90170000D02*
X190500000Y-91440000D01*
G04 #@! TO.N,Net-(U12-Pad10)*
X182245000Y-87630000D02*
X185420000Y-87630000D01*
X178944980Y-96215020D02*
X180367748Y-96215020D01*
X178435000Y-96725000D02*
X178944980Y-96215020D01*
X178435000Y-98425000D02*
X178435000Y-96725000D01*
X180367748Y-96215020D02*
X181305020Y-95277748D01*
X181305020Y-88569980D02*
X182245000Y-87630000D01*
X181305020Y-95277748D02*
X181305020Y-88569980D01*
G04 #@! TO.N,Net-(U12-Pad13)*
X173355000Y-96725000D02*
X173394990Y-96685010D01*
X173355000Y-98425000D02*
X173355000Y-96725000D01*
X185420000Y-80010000D02*
X182311384Y-80010000D01*
X174195000Y-95885000D02*
X173355000Y-96725000D01*
X182311384Y-80010000D02*
X180505010Y-81816374D01*
X180505010Y-94946374D02*
X180036374Y-95415010D01*
X180505010Y-81816374D02*
X180505010Y-94946374D01*
X174664990Y-95415010D02*
X174195000Y-95885000D01*
X180036374Y-95415010D02*
X174664990Y-95415010D01*
G04 #@! TO.N,Net-(U34-Pad13)*
X76200000Y-34925000D02*
X76200000Y-38100000D01*
X76200000Y-38100000D02*
X76200000Y-38100000D01*
G04 #@! TO.N,Net-(U34-Pad1)*
X74930000Y-34925000D02*
X74930000Y-38100000D01*
X74930000Y-38100000D02*
X74930000Y-38100000D01*
X68580000Y-87630000D02*
X64770000Y-87630000D01*
X64770000Y-87630000D02*
X64770000Y-87630000D01*
X60960000Y-78740000D02*
X64770000Y-82550000D01*
X59055000Y-78740000D02*
X60960000Y-78740000D01*
G04 #@! TO.N,Net-(U34-Pad2)*
X73660000Y-34925000D02*
X73660000Y-38100000D01*
X73660000Y-38100000D02*
X73660000Y-38100000D01*
X60781001Y-79694999D02*
X63500000Y-82413998D01*
X58104999Y-79694999D02*
X60781001Y-79694999D01*
X63500000Y-82413998D02*
X63500000Y-82413998D01*
X64770000Y-90170000D02*
X68580000Y-90170000D01*
X63500000Y-82413998D02*
X63500000Y-83820000D01*
G04 #@! TO.N,CLK_SEC*
X57150000Y-172720000D02*
X48895000Y-172720000D01*
X48895000Y-172720000D02*
X48895000Y-120015000D01*
X48895000Y-120015000D02*
X48895000Y-119878998D01*
X48895000Y-120015000D02*
X48895000Y-114935000D01*
X48895000Y-114935000D02*
X48895000Y-114300000D01*
X50330010Y-112864990D02*
X50330010Y-110655010D01*
X48895000Y-114300000D02*
X50330010Y-112864990D01*
X50330010Y-110655010D02*
X49530000Y-109855000D01*
X49530000Y-109855000D02*
X47790010Y-108115010D01*
X47790010Y-108115010D02*
X47940001Y-107965019D01*
X47940001Y-107965019D02*
X47940001Y-103505000D01*
X119380000Y-66040000D02*
X119780000Y-66040000D01*
X100010001Y-80823999D02*
X100010001Y-82869999D01*
X99196002Y-80010000D02*
X100010001Y-80823999D01*
X53340000Y-103505000D02*
X57150000Y-103505000D01*
X57150000Y-103505000D02*
X57150000Y-110490000D01*
X57150000Y-110490000D02*
X57150000Y-110490000D01*
X67310000Y-110490000D02*
X92710000Y-110490000D01*
X92710000Y-110490000D02*
X92710000Y-110490000D01*
X114081383Y-59609999D02*
X115570000Y-61098616D01*
X115570000Y-61098616D02*
X115570000Y-66040000D01*
X110020010Y-59609999D02*
X114081383Y-59609999D01*
X107341394Y-62699990D02*
X110020010Y-60021374D01*
X105078626Y-62699990D02*
X107341394Y-62699990D01*
X115570000Y-66040000D02*
X119380000Y-66040000D01*
X98590010Y-79404008D02*
X98590010Y-75399990D01*
X110020010Y-60021374D02*
X110020010Y-59609999D01*
X104140000Y-63638616D02*
X105078626Y-62699990D01*
X99196002Y-80010000D02*
X98590010Y-79404008D01*
X98590010Y-75399990D02*
X99060000Y-74930000D01*
X99060000Y-74930000D02*
X103006002Y-74930000D01*
X103006002Y-74930000D02*
X104140000Y-73796002D01*
X104140000Y-73796002D02*
X104140000Y-63638616D01*
G04 #@! TO.N,Net-(U17-Pad9)*
X119380000Y-63500000D02*
X127000000Y-63500000D01*
X127000000Y-63500000D02*
X127635000Y-63500000D01*
X127635000Y-63500000D02*
X128270000Y-62865000D01*
X128270000Y-62865000D02*
X128270000Y-56515000D01*
X128270000Y-56515000D02*
X128270000Y-56515000D01*
X175537232Y-45720000D02*
X172997232Y-48260000D01*
X172997232Y-48260000D02*
X165100000Y-48260000D01*
X165735000Y-48260000D02*
X165100000Y-48260000D01*
X165100000Y-48260000D02*
X165735000Y-48260000D01*
X151765000Y-48260000D02*
X150495000Y-46990000D01*
X151765000Y-48260000D02*
X154940000Y-48260000D01*
X154940000Y-48260000D02*
X155575000Y-47625000D01*
X161290000Y-47625000D02*
X161925000Y-48260000D01*
X155575000Y-47625000D02*
X161290000Y-47625000D01*
X184150000Y-45720000D02*
X185420000Y-44450000D01*
X183515000Y-45720000D02*
X184150000Y-45720000D01*
X183515000Y-45720000D02*
X175537232Y-45720000D01*
G04 #@! TO.N,Net-(U17-Pad11)*
X62865000Y-18620000D02*
X62865000Y-32219990D01*
X60325000Y-17145000D02*
X61390000Y-17145000D01*
X62865000Y-32219990D02*
X66509990Y-32219990D01*
X61390000Y-17145000D02*
X62865000Y-18620000D01*
X161108617Y-18099999D02*
X171450000Y-18099999D01*
X140970000Y-24130000D02*
X155078616Y-24130000D01*
X155078616Y-24130000D02*
X161108617Y-18099999D01*
X67945000Y-33655000D02*
X69215000Y-33655000D01*
X66509990Y-32219990D02*
X67945000Y-33655000D01*
G04 #@! TO.N,Net-(U17-Pad15)*
X187960000Y-24130000D02*
X187960000Y-41275000D01*
X185420000Y-24130000D02*
X187960000Y-24130000D01*
X144780000Y-77470000D02*
X142240000Y-77470000D01*
X142240000Y-77470000D02*
X142240000Y-77470000D01*
X77900000Y-92710000D02*
X79170000Y-93980000D01*
X76200000Y-92710000D02*
X77900000Y-92710000D01*
X79170000Y-93980000D02*
X97155000Y-93980000D01*
X97155000Y-93980000D02*
X97155000Y-93980000D01*
X97155000Y-86360000D02*
X109220000Y-86360000D01*
X109220000Y-86360000D02*
X109220000Y-86360000D01*
X114161384Y-82550000D02*
X115100010Y-81611374D01*
X115100010Y-81280000D02*
X135255000Y-81280000D01*
X115100010Y-81611374D02*
X115100010Y-81280000D01*
X135255000Y-81280000D02*
X135890000Y-80645000D01*
X135890000Y-80645000D02*
X137160000Y-80645000D01*
X137160000Y-80645000D02*
X137160000Y-80645000D01*
X114161384Y-82550000D02*
X109855000Y-82550000D01*
X186220010Y-43345010D02*
X186690000Y-43815000D01*
X160655000Y-50165000D02*
X162864980Y-50165000D01*
X156376364Y-49225020D02*
X159715020Y-49225020D01*
X164465000Y-46990000D02*
X172856002Y-46990000D01*
X184150000Y-43815000D02*
X184619990Y-43345010D01*
X152234990Y-50330010D02*
X155271374Y-50330010D01*
X186690000Y-43815000D02*
X186690000Y-44450000D01*
X163830000Y-49999990D02*
X163830000Y-47625000D01*
X186690000Y-44450000D02*
X187960000Y-44450000D01*
X163830000Y-47625000D02*
X164465000Y-46990000D01*
X172856002Y-46990000D02*
X175396002Y-44450000D01*
X184619990Y-43345010D02*
X186220010Y-43345010D01*
X159715020Y-49225020D02*
X160655000Y-50165000D01*
X155271374Y-50330010D02*
X156376364Y-49225020D01*
X163029990Y-49999990D02*
X163830000Y-49999990D01*
X151765000Y-50800000D02*
X152234990Y-50330010D01*
X162864980Y-50165000D02*
X163029990Y-49999990D01*
X175396002Y-44450000D02*
X184150000Y-44450000D01*
X184150000Y-44450000D02*
X184150000Y-43815000D01*
G04 #@! TO.N,Net-(U18-Pad2)*
X119380000Y-102870000D02*
X119380000Y-104170000D01*
X119380000Y-104170000D02*
X119380000Y-105410000D01*
X119380000Y-105410000D02*
X134620000Y-105410000D01*
X134620000Y-105410000D02*
X147320000Y-105410000D01*
X147320000Y-105410000D02*
X147320000Y-105410000D01*
X199390000Y-114300000D02*
X199390000Y-111760000D01*
X164465000Y-113030000D02*
X167640000Y-113030000D01*
X193040000Y-133350000D02*
X188595000Y-133350000D01*
X188595000Y-133350000D02*
X188595000Y-133350000D01*
X174625000Y-140335000D02*
X164465000Y-140335000D01*
X164465000Y-140335000D02*
X164465000Y-140335000D01*
G04 #@! TO.N,Net-(U15-Pad3)*
X199790000Y-91440000D02*
X202565000Y-88665000D01*
X199390000Y-91440000D02*
X199790000Y-91440000D01*
X206610000Y-81280000D02*
X207010000Y-81280000D01*
X202565000Y-85325000D02*
X206610000Y-81280000D01*
X202565000Y-88665000D02*
X202565000Y-85325000D01*
X200660000Y-69850000D02*
X200660000Y-73660000D01*
X200660000Y-73660000D02*
X200660000Y-73660000D01*
X205105000Y-81075000D02*
X205310000Y-81280000D01*
X205310000Y-81280000D02*
X207010000Y-81280000D01*
X205105000Y-76200000D02*
X205105000Y-81075000D01*
X198120000Y-76200000D02*
X205105000Y-76200000D01*
X196850000Y-74930000D02*
X198120000Y-76200000D01*
G04 #@! TO.N,Net-(CONN_SW_DPST01_TIMER_1-Pad2)*
X76200000Y-78740000D02*
X81915000Y-78740000D01*
X82550000Y-79375000D02*
X82550000Y-81280000D01*
X81915000Y-78740000D02*
X82550000Y-79375000D01*
X107950000Y-77470000D02*
X107950000Y-74930000D01*
X109220000Y-73660000D02*
X111760000Y-73660000D01*
X107950000Y-74930000D02*
X109220000Y-73660000D01*
X115570000Y-78740000D02*
X137160000Y-78740000D01*
X207010000Y-64770000D02*
X205105000Y-64770000D01*
X205105000Y-64770000D02*
X205105000Y-54794998D01*
X205105000Y-54794998D02*
X205105000Y-48895000D01*
X195260001Y-47803999D02*
X194446002Y-46990000D01*
X195260001Y-48716001D02*
X195260001Y-47803999D01*
X195754001Y-49210001D02*
X195260001Y-48716001D01*
X205105000Y-48895000D02*
X204789999Y-49210001D01*
X204789999Y-49210001D02*
X195754001Y-49210001D01*
X175728636Y-46659980D02*
X173990000Y-48398616D01*
X194446002Y-46990000D02*
X194115982Y-46659980D01*
X194115982Y-46659980D02*
X175728636Y-46659980D01*
X173990000Y-48398616D02*
X173990000Y-49530000D01*
X173990000Y-49530000D02*
X168910000Y-49530000D01*
X168910000Y-49530000D02*
X168910000Y-49530000D01*
X164326384Y-59055000D02*
X163830000Y-59551384D01*
X168910000Y-59055000D02*
X164326384Y-59055000D01*
X163830000Y-59551384D02*
X163830000Y-60325000D01*
X163830000Y-60325000D02*
X163830000Y-60325000D01*
X142240000Y-83185000D02*
X144780000Y-83185000D01*
X142240000Y-78740000D02*
X142240000Y-83185000D01*
G04 #@! TO.N,Net-(U14-Pad10)*
X231455001Y-98105001D02*
X225105001Y-98105001D01*
X225105001Y-98105001D02*
X225105001Y-98105001D01*
X211455000Y-62230000D02*
X211455000Y-69850000D01*
X207010000Y-62230000D02*
X211455000Y-62230000D01*
G04 #@! TO.N,Net-(JCONN_SW_DPST02_TIMER_1-Pad1)*
X76200000Y-95250000D02*
X83820000Y-95250000D01*
X83820000Y-95250000D02*
X83820000Y-103505000D01*
X83820000Y-95250000D02*
X93980000Y-95250000D01*
X93980000Y-95250000D02*
X97790000Y-95250000D01*
X97790000Y-95250000D02*
X107950000Y-105410000D01*
X107950000Y-105410000D02*
X116840000Y-105410000D01*
X116840000Y-105410000D02*
X116840000Y-105410000D01*
X123190000Y-100965000D02*
X132080000Y-100965000D01*
X132080000Y-100965000D02*
X132080000Y-98425000D01*
X132395001Y-98109999D02*
X150814999Y-98109999D01*
X132080000Y-98425000D02*
X132395001Y-98109999D01*
X150814999Y-98109999D02*
X151130000Y-97794998D01*
X151130000Y-97794998D02*
X151130000Y-90805000D01*
X151130000Y-90805000D02*
X151130000Y-90805000D01*
X172720000Y-86995000D02*
X165100000Y-86995000D01*
G04 #@! TO.N,Net-(JCONN_SW_DPST02_TIMER_1-Pad2)*
X68580000Y-92710000D02*
X70280000Y-92710000D01*
X70280000Y-92710000D02*
X71120000Y-93550000D01*
X86360000Y-106680000D02*
X71120000Y-106680000D01*
X71120000Y-93550000D02*
X71120000Y-106680000D01*
X86360000Y-106680000D02*
X86360000Y-103505000D01*
G04 #@! TO.N,Net-(U32-Pad6)*
X93345000Y-100330000D02*
X96520000Y-100330000D01*
G04 #@! TO.N,Net-(U33-Pad4)*
X72390000Y-89130798D02*
X75630788Y-85890010D01*
X72390000Y-99695000D02*
X72390000Y-89130798D01*
X75630788Y-85890010D02*
X85090000Y-85890010D01*
X85090000Y-87491384D02*
X86498616Y-88900000D01*
X85090000Y-85890010D02*
X85090000Y-87491384D01*
X86498616Y-88900000D02*
X87630000Y-88900000D01*
X97293616Y-88900000D02*
X99833616Y-91440000D01*
X87630000Y-88900000D02*
X97293616Y-88900000D01*
X99833616Y-91440000D02*
X106680000Y-91440000D01*
X106680000Y-91440000D02*
X106680000Y-91440000D01*
X106680000Y-82550000D02*
X106680000Y-68580000D01*
X106680000Y-68580000D02*
X111760000Y-68580000D01*
G04 #@! TO.N,Net-(CONN_BATT_REPLACE_LED_1-Pad1)*
X125730000Y-88900000D02*
X121920000Y-88900000D01*
X121920000Y-88900000D02*
X121920000Y-85090000D01*
G04 #@! TO.N,Net-(CONN_SW_DPST01_TIMER_1-Pad1)*
X99060000Y-94615000D02*
X108185000Y-94615000D01*
X111360000Y-97790000D02*
X111760000Y-97790000D01*
X99060000Y-93980000D02*
X99060000Y-94615000D01*
X108185000Y-94615000D02*
X111360000Y-97790000D01*
X97790000Y-92710000D02*
X99060000Y-93980000D01*
X93345000Y-92710000D02*
X97790000Y-92710000D01*
G04 #@! TO.N,Net-(D10-Pad1)*
X57607440Y-44400857D02*
X57607440Y-49480857D01*
G04 #@! TD*
M02*
