G04 #@! TF.GenerationSoftware,KiCad,Pcbnew,5.0.2-5.fc29*
G04 #@! TF.CreationDate,2020-04-01T19:18:32+03:00*
G04 #@! TF.ProjectId,circuit_design,63697263-7569-4745-9f64-657369676e2e,rev?*
G04 #@! TF.SameCoordinates,Original*
G04 #@! TF.FileFunction,Legend,Bot*
G04 #@! TF.FilePolarity,Positive*
%FSLAX46Y46*%
G04 Gerber Fmt 4.6, Leading zero omitted, Abs format (unit mm)*
G04 Created by KiCad (PCBNEW 5.0.2-5.fc29) date Wed 01 Apr 2020 07:18:32 PM EEST*
%MOMM*%
%LPD*%
G01*
G04 APERTURE LIST*
%ADD10C,0.120000*%
%ADD11C,0.150000*%
G04 APERTURE END LIST*
D10*
G04 #@! TO.C,U41*
X84074000Y9966000D02*
X84074000Y7306000D01*
X84074000Y9966000D02*
X99374000Y9966000D01*
X99374000Y9966000D02*
X99374000Y7306000D01*
X84074000Y7306000D02*
X99374000Y7306000D01*
X81474000Y7306000D02*
X82804000Y7306000D01*
X81474000Y8636000D02*
X81474000Y7306000D01*
G04 #@! TO.C,U43*
X108966000Y9966000D02*
X108966000Y7306000D01*
X108966000Y9966000D02*
X124266000Y9966000D01*
X124266000Y9966000D02*
X124266000Y7306000D01*
X108966000Y7306000D02*
X124266000Y7306000D01*
X106366000Y7306000D02*
X107696000Y7306000D01*
X106366000Y8636000D02*
X106366000Y7306000D01*
G04 #@! TO.C,U45*
X133858000Y9966000D02*
X133858000Y7306000D01*
X133858000Y9966000D02*
X149158000Y9966000D01*
X149158000Y9966000D02*
X149158000Y7306000D01*
X133858000Y7306000D02*
X149158000Y7306000D01*
X131258000Y7306000D02*
X132588000Y7306000D01*
X131258000Y8636000D02*
X131258000Y7306000D01*
G04 #@! TO.C,U47*
X159258000Y9966000D02*
X159258000Y7306000D01*
X159258000Y9966000D02*
X174558000Y9966000D01*
X174558000Y9966000D02*
X174558000Y7306000D01*
X159258000Y7306000D02*
X174558000Y7306000D01*
X156658000Y7306000D02*
X157988000Y7306000D01*
X156658000Y8636000D02*
X156658000Y7306000D01*
G04 #@! TO.C,U41*
D11*
X91662095Y2579619D02*
X91662095Y1770095D01*
X91614476Y1674857D01*
X91566857Y1627238D01*
X91471619Y1579619D01*
X91281142Y1579619D01*
X91185904Y1627238D01*
X91138285Y1674857D01*
X91090666Y1770095D01*
X91090666Y2579619D01*
X90185904Y2246285D02*
X90185904Y1579619D01*
X90424000Y2627238D02*
X90662095Y1912952D01*
X90043047Y1912952D01*
X89138285Y1579619D02*
X89709714Y1579619D01*
X89424000Y1579619D02*
X89424000Y2579619D01*
X89519238Y2436761D01*
X89614476Y2341523D01*
X89709714Y2293904D01*
G04 #@! TO.C,U43*
X116554095Y2579619D02*
X116554095Y1770095D01*
X116506476Y1674857D01*
X116458857Y1627238D01*
X116363619Y1579619D01*
X116173142Y1579619D01*
X116077904Y1627238D01*
X116030285Y1674857D01*
X115982666Y1770095D01*
X115982666Y2579619D01*
X115077904Y2246285D02*
X115077904Y1579619D01*
X115316000Y2627238D02*
X115554095Y1912952D01*
X114935047Y1912952D01*
X114649333Y2579619D02*
X114030285Y2579619D01*
X114363619Y2198666D01*
X114220761Y2198666D01*
X114125523Y2151047D01*
X114077904Y2103428D01*
X114030285Y2008190D01*
X114030285Y1770095D01*
X114077904Y1674857D01*
X114125523Y1627238D01*
X114220761Y1579619D01*
X114506476Y1579619D01*
X114601714Y1627238D01*
X114649333Y1674857D01*
G04 #@! TO.C,U45*
X141446095Y2579619D02*
X141446095Y1770095D01*
X141398476Y1674857D01*
X141350857Y1627238D01*
X141255619Y1579619D01*
X141065142Y1579619D01*
X140969904Y1627238D01*
X140922285Y1674857D01*
X140874666Y1770095D01*
X140874666Y2579619D01*
X139969904Y2246285D02*
X139969904Y1579619D01*
X140208000Y2627238D02*
X140446095Y1912952D01*
X139827047Y1912952D01*
X138969904Y2579619D02*
X139446095Y2579619D01*
X139493714Y2103428D01*
X139446095Y2151047D01*
X139350857Y2198666D01*
X139112761Y2198666D01*
X139017523Y2151047D01*
X138969904Y2103428D01*
X138922285Y2008190D01*
X138922285Y1770095D01*
X138969904Y1674857D01*
X139017523Y1627238D01*
X139112761Y1579619D01*
X139350857Y1579619D01*
X139446095Y1627238D01*
X139493714Y1674857D01*
G04 #@! TO.C,U47*
X166846095Y2579619D02*
X166846095Y1770095D01*
X166798476Y1674857D01*
X166750857Y1627238D01*
X166655619Y1579619D01*
X166465142Y1579619D01*
X166369904Y1627238D01*
X166322285Y1674857D01*
X166274666Y1770095D01*
X166274666Y2579619D01*
X165369904Y2246285D02*
X165369904Y1579619D01*
X165608000Y2627238D02*
X165846095Y1912952D01*
X165227047Y1912952D01*
X164941333Y2579619D02*
X164274666Y2579619D01*
X164703238Y1579619D01*
G04 #@! TD*
M02*
