G04 #@! TF.GenerationSoftware,KiCad,Pcbnew,5.0.2-5.fc29*
G04 #@! TF.CreationDate,2020-04-01T19:18:32+03:00*
G04 #@! TF.ProjectId,circuit_design,63697263-7569-4745-9f64-657369676e2e,rev?*
G04 #@! TF.SameCoordinates,Original*
G04 #@! TF.FileFunction,Profile,NP*
%FSLAX46Y46*%
G04 Gerber Fmt 4.6, Leading zero omitted, Abs format (unit mm)*
G04 Created by KiCad (PCBNEW 5.0.2-5.fc29) date Wed 01 Apr 2020 07:18:32 PM EEST*
%MOMM*%
%LPD*%
G01*
G04 APERTURE LIST*
%ADD10C,0.150000*%
%ADD11C,0.200000*%
G04 APERTURE END LIST*
D10*
X93757498Y-74764734D02*
G75*
G03X93757498Y-74764734I-1666666J0D01*
G01*
X89590832Y-74764734D02*
X94590832Y-74764734D01*
X92090832Y-72264734D02*
X92090832Y-77264734D01*
X53752930Y-176167592D02*
G75*
G03X53752930Y-176167592I-1666666J0D01*
G01*
X49586264Y-176167592D02*
X54586264Y-176167592D01*
X52086264Y-173667592D02*
X52086264Y-178667592D01*
X53428202Y-2455654D02*
G75*
G03X53428202Y-2455654I-1666666J0D01*
G01*
X49261536Y-2455654D02*
X54261536Y-2455654D01*
X51761536Y44346D02*
X51761536Y-4955654D01*
X239925598Y-11569812D02*
G75*
G03X239925598Y-11569812I-1666666J0D01*
G01*
X235758932Y-11569812D02*
X240758932Y-11569812D01*
X238258932Y-9069812D02*
X238258932Y-14069812D01*
X239838188Y-47238753D02*
G75*
G03X239838188Y-47238753I-1666666J0D01*
G01*
X235671522Y-47238753D02*
X240671522Y-47238753D01*
X238171522Y-44738753D02*
X238171522Y-49738753D01*
X239915304Y-59895492D02*
G75*
G03X239915304Y-59895492I-1666666J0D01*
G01*
X235748638Y-59895492D02*
X240748638Y-59895492D01*
X238248638Y-57395492D02*
X238248638Y-62395492D01*
X239915304Y-2701982D02*
G75*
G03X239915304Y-2701982I-1666666J0D01*
G01*
X235748638Y-2701982D02*
X240748638Y-2701982D01*
X238248638Y-201982D02*
X238248638Y-5201982D01*
X239915304Y-174913982D02*
G75*
G03X239915304Y-174913982I-1666666J0D01*
G01*
X235748638Y-174913982D02*
X240748638Y-174913982D01*
X238248638Y-172413982D02*
X238248638Y-177413982D01*
X239872579Y-166841183D02*
G75*
G03X239872579Y-166841183I-1666666J0D01*
G01*
X235705913Y-166841183D02*
X240705913Y-166841183D01*
X238205913Y-164341183D02*
X238205913Y-169341183D01*
X181390753Y-157939922D02*
G75*
G03X181390753Y-157939922I-1666666J0D01*
G01*
X177224087Y-157939922D02*
X182224087Y-157939922D01*
X179724087Y-155439922D02*
X179724087Y-160439922D01*
D11*
X240792000Y10668000D02*
X240792000Y-188976000D01*
X49276000Y-188976000D02*
X49276000Y10668000D01*
X49276000Y10668000D02*
X240792000Y10668000D01*
D10*
X63734649Y-136866354D02*
G75*
G03X63734649Y-136866354I-1666666J0D01*
G01*
X59567983Y-136866354D02*
X64567983Y-136866354D01*
X62067983Y-134366354D02*
X62067983Y-139366354D01*
X53465080Y-11108658D02*
G75*
G03X53465080Y-11108658I-1666666J0D01*
G01*
X49298414Y-11108658D02*
X54298414Y-11108658D01*
X51798414Y-8608658D02*
X51798414Y-13608658D01*
D11*
X240792000Y-188976000D02*
X49276000Y-188976000D01*
M02*
