G04 #@! TF.GenerationSoftware,KiCad,Pcbnew,5.0.2-5.fc29*
G04 #@! TF.CreationDate,2020-04-01T19:18:32+03:00*
G04 #@! TF.ProjectId,circuit_design,63697263-7569-4745-9f64-657369676e2e,rev?*
G04 #@! TF.SameCoordinates,Original*
G04 #@! TF.FileFunction,Copper,L2,Bot*
G04 #@! TF.FilePolarity,Positive*
%FSLAX46Y46*%
G04 Gerber Fmt 4.6, Leading zero omitted, Abs format (unit mm)*
G04 Created by KiCad (PCBNEW 5.0.2-5.fc29) date Wed 01 Apr 2020 07:18:32 PM EEST*
%MOMM*%
%LPD*%
G01*
G04 APERTURE LIST*
G04 #@! TA.AperFunction,ComponentPad*
%ADD10C,3.200000*%
G04 #@! TD*
G04 #@! TA.AperFunction,ComponentPad*
%ADD11R,3.200000X3.200000*%
G04 #@! TD*
G04 #@! TA.AperFunction,ComponentPad*
%ADD12C,2.400000*%
G04 #@! TD*
G04 #@! TA.AperFunction,ComponentPad*
%ADD13R,2.400000X2.400000*%
G04 #@! TD*
G04 #@! TA.AperFunction,ComponentPad*
%ADD14R,2.600000X2.600000*%
G04 #@! TD*
G04 #@! TA.AperFunction,ComponentPad*
%ADD15C,2.600000*%
G04 #@! TD*
G04 #@! TA.AperFunction,ComponentPad*
%ADD16C,1.524000*%
G04 #@! TD*
G04 #@! TA.AperFunction,ComponentPad*
%ADD17C,1.800000*%
G04 #@! TD*
G04 #@! TA.AperFunction,ComponentPad*
%ADD18R,1.800000X1.800000*%
G04 #@! TD*
G04 #@! TA.AperFunction,ComponentPad*
%ADD19C,2.000000*%
G04 #@! TD*
G04 #@! TA.AperFunction,ComponentPad*
%ADD20O,1.905000X2.000000*%
G04 #@! TD*
G04 #@! TA.AperFunction,ComponentPad*
%ADD21R,1.905000X2.000000*%
G04 #@! TD*
G04 #@! TA.AperFunction,ComponentPad*
%ADD22O,1.600000X1.600000*%
G04 #@! TD*
G04 #@! TA.AperFunction,ComponentPad*
%ADD23C,1.600000*%
G04 #@! TD*
G04 #@! TA.AperFunction,ComponentPad*
%ADD24R,1.700000X1.700000*%
G04 #@! TD*
G04 #@! TA.AperFunction,ComponentPad*
%ADD25O,1.700000X1.700000*%
G04 #@! TD*
G04 #@! TA.AperFunction,ComponentPad*
%ADD26O,1.800000X1.800000*%
G04 #@! TD*
G04 #@! TA.AperFunction,ComponentPad*
%ADD27R,1.600000X1.600000*%
G04 #@! TD*
G04 #@! TA.AperFunction,ComponentPad*
%ADD28O,2.400000X1.600000*%
G04 #@! TD*
G04 #@! TA.AperFunction,ComponentPad*
%ADD29R,2.400000X1.600000*%
G04 #@! TD*
G04 #@! TA.AperFunction,ComponentPad*
%ADD30O,1.600000X2.400000*%
G04 #@! TD*
G04 #@! TA.AperFunction,ComponentPad*
%ADD31R,1.600000X2.400000*%
G04 #@! TD*
G04 #@! TA.AperFunction,ComponentPad*
%ADD32R,2.000000X2.000000*%
G04 #@! TD*
G04 #@! TA.AperFunction,ComponentPad*
%ADD33C,1.200000*%
G04 #@! TD*
G04 #@! TA.AperFunction,ComponentPad*
%ADD34R,1.200000X1.200000*%
G04 #@! TD*
G04 #@! TA.AperFunction,Conductor*
%ADD35C,0.100000*%
G04 #@! TD*
G04 #@! TA.AperFunction,ComponentPad*
%ADD36C,3.500000*%
G04 #@! TD*
G04 #@! TA.AperFunction,ComponentPad*
%ADD37C,3.000000*%
G04 #@! TD*
G04 #@! TA.AperFunction,ComponentPad*
%ADD38R,3.500000X3.500000*%
G04 #@! TD*
G04 #@! TA.AperFunction,ComponentPad*
%ADD39O,2.200000X2.200000*%
G04 #@! TD*
G04 #@! TA.AperFunction,ComponentPad*
%ADD40R,2.200000X2.200000*%
G04 #@! TD*
G04 #@! TA.AperFunction,ComponentPad*
%ADD41O,2.000000X2.000000*%
G04 #@! TD*
G04 #@! TA.AperFunction,ComponentPad*
%ADD42O,2.000000X1.905000*%
G04 #@! TD*
G04 #@! TA.AperFunction,ComponentPad*
%ADD43R,2.000000X1.905000*%
G04 #@! TD*
G04 #@! TA.AperFunction,ComponentPad*
%ADD44C,1.000000*%
G04 #@! TD*
G04 #@! TA.AperFunction,ViaPad*
%ADD45C,0.800000*%
G04 #@! TD*
G04 #@! TA.AperFunction,Conductor*
%ADD46C,0.500000*%
G04 #@! TD*
G04 #@! TA.AperFunction,Conductor*
%ADD47C,0.250000*%
G04 #@! TD*
G04 APERTURE END LIST*
D10*
G04 #@! TO.P,DB_PWR_1,4*
G04 #@! TO.N,GND*
X221488000Y-160528000D03*
G04 #@! TO.P,DB_PWR_1,3*
G04 #@! TO.N,VAC*
X221488000Y-165608000D03*
G04 #@! TO.P,DB_PWR_1,2*
G04 #@! TO.N,GNDREF*
X221488000Y-170688000D03*
D11*
G04 #@! TO.P,DB_PWR_1,1*
G04 #@! TO.N,Net-(C_PWR_1-Pad1)*
X221488000Y-175768000D03*
G04 #@! TD*
D12*
G04 #@! TO.P,C7,2*
G04 #@! TO.N,GND*
X119300000Y-21590000D03*
D13*
G04 #@! TO.P,C7,1*
G04 #@! TO.N,PWR_ALW*
X114300000Y-21590000D03*
G04 #@! TD*
D12*
G04 #@! TO.P,C_PWR_1,2*
G04 #@! TO.N,GND*
X228680000Y-161544000D03*
D13*
G04 #@! TO.P,C_PWR_1,1*
G04 #@! TO.N,Net-(C_PWR_1-Pad1)*
X233680000Y-161544000D03*
G04 #@! TD*
D14*
G04 #@! TO.P,CONN_OUT_FINISHED1,1*
G04 #@! TO.N,Net-(CONN_OUT_FINISHED1-Pad1)*
X228600000Y8128000D03*
D15*
G04 #@! TO.P,CONN_OUT_FINISHED1,2*
G04 #@! TO.N,GND*
X233680000Y8128000D03*
G04 #@! TD*
D14*
G04 #@! TO.P,CONN_PWR_LINE_3,1*
G04 #@! TO.N,Net-(CONN_PWR_LINE_3-Pad1)*
X147828000Y-186436000D03*
D15*
G04 #@! TO.P,CONN_PWR_LINE_3,2*
G04 #@! TO.N,GNDREF*
X142748000Y-186436000D03*
G04 #@! TD*
D16*
G04 #@! TO.P,SW_TIMER1,6*
G04 #@! TO.N,Net-(SW_TIMER1-Pad6)*
X105156000Y-135128000D03*
G04 #@! TO.P,SW_TIMER1,5*
G04 #@! TO.N,Net-(SW_TIMER1-Pad5)*
X105156000Y-132588000D03*
G04 #@! TO.P,SW_TIMER1,4*
G04 #@! TO.N,Net-(SW_TIMER1-Pad4)*
X105156000Y-130048000D03*
G04 #@! TO.P,SW_TIMER1,3*
G04 #@! TO.N,PWR_ALW*
X100076000Y-135128000D03*
G04 #@! TO.P,SW_TIMER1,2*
G04 #@! TO.N,Net-(R16-Pad1)*
X100076000Y-132588000D03*
G04 #@! TO.P,SW_TIMER1,1*
G04 #@! TO.N,Net-(SW_TIMER1-Pad1)*
X100076000Y-130048000D03*
G04 #@! TD*
G04 #@! TO.P,SW_MODE1,6*
G04 #@! TO.N,N/C*
X105156000Y-127000000D03*
G04 #@! TO.P,SW_MODE1,5*
X105156000Y-124460000D03*
G04 #@! TO.P,SW_MODE1,4*
X105156000Y-121920000D03*
G04 #@! TO.P,SW_MODE1,3*
G04 #@! TO.N,/Mode_Raw*
X100076000Y-127000000D03*
G04 #@! TO.P,SW_MODE1,2*
G04 #@! TO.N,GND*
X100076000Y-124460000D03*
G04 #@! TO.P,SW_MODE1,1*
G04 #@! TO.N,Net-(SW_MODE1-Pad1)*
X100076000Y-121920000D03*
G04 #@! TD*
D17*
G04 #@! TO.P,D_LED_RUNNING1,2*
G04 #@! TO.N,/Running(Led)*
X111760000Y-140716000D03*
D18*
G04 #@! TO.P,D_LED_RUNNING1,1*
G04 #@! TO.N,Net-(D_LED_RUNNING1-Pad1)*
X114300000Y-140716000D03*
G04 #@! TD*
D17*
G04 #@! TO.P,D_LED_BATT_REP1,2*
G04 #@! TO.N,Net-(D_LED_BATT_REP1-Pad2)*
X111760000Y-153924000D03*
D18*
G04 #@! TO.P,D_LED_BATT_REP1,1*
G04 #@! TO.N,Net-(D_LED_BATT_REP1-Pad1)*
X114300000Y-153924000D03*
G04 #@! TD*
D19*
G04 #@! TO.P,SW_CONTROL_PUSH1,2*
G04 #@! TO.N,Net-(C1-Pad1)*
X100076000Y-118800000D03*
G04 #@! TO.P,SW_CONTROL_PUSH1,1*
G04 #@! TO.N,GND*
X100076000Y-114300000D03*
G04 #@! TO.P,SW_CONTROL_PUSH1,2*
G04 #@! TO.N,Net-(C1-Pad1)*
X106576000Y-118800000D03*
G04 #@! TO.P,SW_CONTROL_PUSH1,1*
G04 #@! TO.N,GND*
X106576000Y-114300000D03*
G04 #@! TD*
D18*
G04 #@! TO.P,D_LED_LINE1,1*
G04 #@! TO.N,Net-(D_LED_LINE1-Pad1)*
X92964000Y-165100000D03*
D17*
G04 #@! TO.P,D_LED_LINE1,2*
G04 #@! TO.N,Net-(D_LED_LINE1-Pad2)*
X95504000Y-165100000D03*
G04 #@! TD*
G04 #@! TO.P,D_LED_LINE2,2*
G04 #@! TO.N,Net-(D_LED_LINE2-Pad2)*
X120396000Y-165100000D03*
D18*
G04 #@! TO.P,D_LED_LINE2,1*
G04 #@! TO.N,Net-(D_LED_LINE2-Pad1)*
X117856000Y-165100000D03*
G04 #@! TD*
D17*
G04 #@! TO.P,D_LED_LINE3,2*
G04 #@! TO.N,Net-(D_LED_LINE3-Pad2)*
X144272000Y-165100000D03*
D18*
G04 #@! TO.P,D_LED_LINE3,1*
G04 #@! TO.N,Net-(D_LED_LINE3-Pad1)*
X141732000Y-165100000D03*
G04 #@! TD*
D17*
G04 #@! TO.P,D_LED_LINE4,2*
G04 #@! TO.N,Net-(D_LED_LINE4-Pad2)*
X168148000Y-165100000D03*
D18*
G04 #@! TO.P,D_LED_LINE4,1*
G04 #@! TO.N,Net-(D_LED_LINE4-Pad1)*
X165608000Y-165100000D03*
G04 #@! TD*
D17*
G04 #@! TO.P,D_LED_MODE1,2*
G04 #@! TO.N,Net-(D_LED_MODE1-Pad2)*
X114300000Y-124460000D03*
D18*
G04 #@! TO.P,D_LED_MODE1,1*
G04 #@! TO.N,/Mode_Raw*
X111760000Y-124460000D03*
G04 #@! TD*
D17*
G04 #@! TO.P,D_LED_PWR1,2*
G04 #@! TO.N,Net-(D_LED_PWR1-Pad2)*
X114300000Y-116840000D03*
D18*
G04 #@! TO.P,D_LED_PWR1,1*
G04 #@! TO.N,+5V*
X111760000Y-116840000D03*
G04 #@! TD*
D17*
G04 #@! TO.P,D_LED_RAIN1,2*
G04 #@! TO.N,/Rain(Led)*
X111760000Y-147320000D03*
D18*
G04 #@! TO.P,D_LED_RAIN1,1*
G04 #@! TO.N,Net-(D_LED_RAIN1-Pad1)*
X114300000Y-147320000D03*
G04 #@! TD*
D17*
G04 #@! TO.P,D_LED_TIMER1,2*
G04 #@! TO.N,Net-(D_LED_TIMER1-Pad2)*
X114300000Y-132080000D03*
D18*
G04 #@! TO.P,D_LED_TIMER1,1*
G04 #@! TO.N,GND*
X111760000Y-132080000D03*
G04 #@! TD*
D15*
G04 #@! TO.P,CONN_CONTROL_3,2*
G04 #@! TO.N,GND*
X207264000Y8128000D03*
D14*
G04 #@! TO.P,CONN_CONTROL_3,1*
G04 #@! TO.N,/Conn_Control_Raw*
X202184000Y8128000D03*
G04 #@! TD*
G04 #@! TO.P,CONN_PWR_LINE_1,1*
G04 #@! TO.N,Net-(CONN_PWR_LINE_1-Pad1)*
X99060000Y-186436000D03*
D15*
G04 #@! TO.P,CONN_PWR_LINE_1,2*
G04 #@! TO.N,GNDREF*
X93980000Y-186436000D03*
G04 #@! TD*
D14*
G04 #@! TO.P,CONN_PWR_LINE_2,1*
G04 #@! TO.N,Net-(CONN_PWR_LINE_2-Pad1)*
X123444000Y-186436000D03*
D15*
G04 #@! TO.P,CONN_PWR_LINE_2,2*
G04 #@! TO.N,GNDREF*
X118364000Y-186436000D03*
G04 #@! TD*
D14*
G04 #@! TO.P,CONN_PWR_LINE_4,1*
G04 #@! TO.N,Net-(CONN_PWR_LINE_4-Pad1)*
X172212000Y-186436000D03*
D15*
G04 #@! TO.P,CONN_PWR_LINE_4,2*
G04 #@! TO.N,GNDREF*
X167132000Y-186436000D03*
G04 #@! TD*
G04 #@! TO.P,CONN_RAIN_SENSOR_5,2*
G04 #@! TO.N,GND*
X194564000Y8128000D03*
D14*
G04 #@! TO.P,CONN_RAIN_SENSOR_5,1*
G04 #@! TO.N,/Rain_Sensor_Raw*
X189484000Y8128000D03*
G04 #@! TD*
D20*
G04 #@! TO.P,U38,3*
G04 #@! TO.N,Net-(D11-Pad2)*
X182372000Y-174752000D03*
G04 #@! TO.P,U38,2*
G04 #@! TO.N,GND*
X179832000Y-174752000D03*
D21*
G04 #@! TO.P,U38,1*
G04 #@! TO.N,+9V*
X177292000Y-174752000D03*
G04 #@! TD*
D22*
G04 #@! TO.P,R30,2*
G04 #@! TO.N,Net-(C13-Pad1)*
X223012000Y-73152000D03*
D23*
G04 #@! TO.P,R30,1*
G04 #@! TO.N,+5V*
X233172000Y-73152000D03*
G04 #@! TD*
D24*
G04 #@! TO.P,U40,1*
G04 #@! TO.N,Net-(D4-Pad2)*
X82804000Y5080000D03*
D25*
G04 #@! TO.P,U40,2*
G04 #@! TO.N,/D0*
X85344000Y5080000D03*
G04 #@! TO.P,U40,3*
G04 #@! TO.N,/D1*
X87884000Y5080000D03*
G04 #@! TO.P,U40,4*
G04 #@! TO.N,/D2*
X90424000Y5080000D03*
G04 #@! TO.P,U40,5*
G04 #@! TO.N,/D3*
X92964000Y5080000D03*
G04 #@! TO.P,U40,6*
G04 #@! TO.N,/D4*
X95504000Y5080000D03*
G04 #@! TO.P,U40,7*
G04 #@! TO.N,Net-(U40-Pad7)*
X98044000Y5080000D03*
G04 #@! TD*
D24*
G04 #@! TO.P,U41,1*
G04 #@! TO.N,Net-(D8-Pad2)*
X82804000Y8636000D03*
D25*
G04 #@! TO.P,U41,2*
G04 #@! TO.N,/D0*
X85344000Y8636000D03*
G04 #@! TO.P,U41,3*
G04 #@! TO.N,/D1*
X87884000Y8636000D03*
G04 #@! TO.P,U41,4*
G04 #@! TO.N,/D2*
X90424000Y8636000D03*
G04 #@! TO.P,U41,5*
G04 #@! TO.N,/D3*
X92964000Y8636000D03*
G04 #@! TO.P,U41,6*
G04 #@! TO.N,/D4*
X95504000Y8636000D03*
G04 #@! TO.P,U41,7*
G04 #@! TO.N,Net-(U41-Pad7)*
X98044000Y8636000D03*
G04 #@! TD*
D24*
G04 #@! TO.P,U42,1*
G04 #@! TO.N,Net-(D3-Pad2)*
X107696000Y5080000D03*
D25*
G04 #@! TO.P,U42,2*
G04 #@! TO.N,/D0*
X110236000Y5080000D03*
G04 #@! TO.P,U42,3*
G04 #@! TO.N,/D1*
X112776000Y5080000D03*
G04 #@! TO.P,U42,4*
G04 #@! TO.N,/D2*
X115316000Y5080000D03*
G04 #@! TO.P,U42,5*
G04 #@! TO.N,/D3*
X117856000Y5080000D03*
G04 #@! TO.P,U42,6*
G04 #@! TO.N,/D4*
X120396000Y5080000D03*
G04 #@! TO.P,U42,7*
G04 #@! TO.N,Net-(U42-Pad7)*
X122936000Y5080000D03*
G04 #@! TD*
D24*
G04 #@! TO.P,U43,1*
G04 #@! TO.N,Net-(D7-Pad2)*
X107696000Y8636000D03*
D25*
G04 #@! TO.P,U43,2*
G04 #@! TO.N,/D0*
X110236000Y8636000D03*
G04 #@! TO.P,U43,3*
G04 #@! TO.N,/D1*
X112776000Y8636000D03*
G04 #@! TO.P,U43,4*
G04 #@! TO.N,/D2*
X115316000Y8636000D03*
G04 #@! TO.P,U43,5*
G04 #@! TO.N,/D3*
X117856000Y8636000D03*
G04 #@! TO.P,U43,6*
G04 #@! TO.N,/D4*
X120396000Y8636000D03*
G04 #@! TO.P,U43,7*
G04 #@! TO.N,Net-(U43-Pad7)*
X122936000Y8636000D03*
G04 #@! TD*
D24*
G04 #@! TO.P,U44,1*
G04 #@! TO.N,Net-(D2-Pad2)*
X132588000Y5080000D03*
D25*
G04 #@! TO.P,U44,2*
G04 #@! TO.N,/D0*
X135128000Y5080000D03*
G04 #@! TO.P,U44,3*
G04 #@! TO.N,/D1*
X137668000Y5080000D03*
G04 #@! TO.P,U44,4*
G04 #@! TO.N,/D2*
X140208000Y5080000D03*
G04 #@! TO.P,U44,5*
G04 #@! TO.N,/D3*
X142748000Y5080000D03*
G04 #@! TO.P,U44,6*
G04 #@! TO.N,/D4*
X145288000Y5080000D03*
G04 #@! TO.P,U44,7*
G04 #@! TO.N,Net-(U44-Pad7)*
X147828000Y5080000D03*
G04 #@! TD*
D24*
G04 #@! TO.P,U45,1*
G04 #@! TO.N,Net-(D6-Pad2)*
X132588000Y8636000D03*
D25*
G04 #@! TO.P,U45,2*
G04 #@! TO.N,/D0*
X135128000Y8636000D03*
G04 #@! TO.P,U45,3*
G04 #@! TO.N,/D1*
X137668000Y8636000D03*
G04 #@! TO.P,U45,4*
G04 #@! TO.N,/D2*
X140208000Y8636000D03*
G04 #@! TO.P,U45,5*
G04 #@! TO.N,/D3*
X142748000Y8636000D03*
G04 #@! TO.P,U45,6*
G04 #@! TO.N,/D4*
X145288000Y8636000D03*
G04 #@! TO.P,U45,7*
G04 #@! TO.N,Net-(U45-Pad7)*
X147828000Y8636000D03*
G04 #@! TD*
D24*
G04 #@! TO.P,U46,1*
G04 #@! TO.N,Net-(D1-Pad2)*
X157988000Y5080000D03*
D25*
G04 #@! TO.P,U46,2*
G04 #@! TO.N,/D0*
X160528000Y5080000D03*
G04 #@! TO.P,U46,3*
G04 #@! TO.N,/D1*
X163068000Y5080000D03*
G04 #@! TO.P,U46,4*
G04 #@! TO.N,/D2*
X165608000Y5080000D03*
G04 #@! TO.P,U46,5*
G04 #@! TO.N,/D3*
X168148000Y5080000D03*
G04 #@! TO.P,U46,6*
G04 #@! TO.N,/D4*
X170688000Y5080000D03*
G04 #@! TO.P,U46,7*
G04 #@! TO.N,Net-(U46-Pad7)*
X173228000Y5080000D03*
G04 #@! TD*
D24*
G04 #@! TO.P,U47,1*
G04 #@! TO.N,Net-(D5-Pad2)*
X157988000Y8636000D03*
D25*
G04 #@! TO.P,U47,2*
G04 #@! TO.N,/D0*
X160528000Y8636000D03*
G04 #@! TO.P,U47,3*
G04 #@! TO.N,/D1*
X163068000Y8636000D03*
G04 #@! TO.P,U47,4*
G04 #@! TO.N,/D2*
X165608000Y8636000D03*
G04 #@! TO.P,U47,5*
G04 #@! TO.N,/D3*
X168148000Y8636000D03*
G04 #@! TO.P,U47,6*
G04 #@! TO.N,/D4*
X170688000Y8636000D03*
G04 #@! TO.P,U47,7*
G04 #@! TO.N,Net-(U47-Pad7)*
X173228000Y8636000D03*
G04 #@! TD*
D22*
G04 #@! TO.P,R16,2*
G04 #@! TO.N,Net-(D_LED_TIMER1-Pad2)*
X121920000Y-138176000D03*
D23*
G04 #@! TO.P,R16,1*
G04 #@! TO.N,Net-(R16-Pad1)*
X132080000Y-138176000D03*
G04 #@! TD*
D22*
G04 #@! TO.P,R32,2*
G04 #@! TO.N,GND*
X98044000Y-103632000D03*
D23*
G04 #@! TO.P,R32,1*
G04 #@! TO.N,Net-(R16-Pad1)*
X87884000Y-103632000D03*
G04 #@! TD*
D22*
G04 #@! TO.P,R21,2*
G04 #@! TO.N,Net-(R21-Pad2)*
X140970000Y-118745000D03*
D23*
G04 #@! TO.P,R21,1*
G04 #@! TO.N,Net-(R21-Pad1)*
X130810000Y-118745000D03*
G04 #@! TD*
D22*
G04 #@! TO.P,R20,2*
G04 #@! TO.N,Net-(R20-Pad2)*
X140970000Y-123825000D03*
D23*
G04 #@! TO.P,R20,1*
G04 #@! TO.N,Net-(R20-Pad1)*
X130810000Y-123825000D03*
G04 #@! TD*
D22*
G04 #@! TO.P,R19,2*
G04 #@! TO.N,Net-(R19-Pad2)*
X140970000Y-128905000D03*
D23*
G04 #@! TO.P,R19,1*
G04 #@! TO.N,Net-(R19-Pad1)*
X130810000Y-128905000D03*
G04 #@! TD*
D22*
G04 #@! TO.P,R18,2*
G04 #@! TO.N,Net-(R18-Pad2)*
X140970000Y-133985000D03*
D23*
G04 #@! TO.P,R18,1*
G04 #@! TO.N,Net-(R18-Pad1)*
X130810000Y-133985000D03*
G04 #@! TD*
D22*
G04 #@! TO.P,R_PWR_1,2*
G04 #@! TO.N,Net-(C_PWR_6-Pad2)*
X224536000Y-155448000D03*
D23*
G04 #@! TO.P,R_PWR_1,1*
G04 #@! TO.N,+9V*
X214376000Y-155448000D03*
G04 #@! TD*
D22*
G04 #@! TO.P,R_PWR_2,2*
G04 #@! TO.N,GND*
X190500000Y-164084000D03*
D23*
G04 #@! TO.P,R_PWR_2,1*
G04 #@! TO.N,Net-(C_PWR_6-Pad2)*
X190500000Y-174244000D03*
G04 #@! TD*
D22*
G04 #@! TO.P,R10,2*
G04 #@! TO.N,+5V*
X176530000Y-139065000D03*
D23*
G04 #@! TO.P,R10,1*
G04 #@! TO.N,Net-(D_LED_LINE4-Pad2)*
X166370000Y-139065000D03*
G04 #@! TD*
D22*
G04 #@! TO.P,R11,2*
G04 #@! TO.N,+5V*
X176530000Y-142240000D03*
D23*
G04 #@! TO.P,R11,1*
G04 #@! TO.N,Net-(D_LED_LINE3-Pad2)*
X166370000Y-142240000D03*
G04 #@! TD*
D22*
G04 #@! TO.P,R13,2*
G04 #@! TO.N,+5V*
X176530000Y-148590000D03*
D23*
G04 #@! TO.P,R13,1*
G04 #@! TO.N,Net-(D_LED_LINE1-Pad2)*
X166370000Y-148590000D03*
G04 #@! TD*
D22*
G04 #@! TO.P,R12,2*
G04 #@! TO.N,+5V*
X176530000Y-145415000D03*
D23*
G04 #@! TO.P,R12,1*
G04 #@! TO.N,Net-(D_LED_LINE2-Pad2)*
X166370000Y-145415000D03*
G04 #@! TD*
D22*
G04 #@! TO.P,R8,2*
G04 #@! TO.N,Net-(C2-Pad1)*
X77470000Y-158115000D03*
D23*
G04 #@! TO.P,R8,1*
G04 #@! TO.N,Net-(R6-Pad2)*
X77470000Y-147955000D03*
G04 #@! TD*
D22*
G04 #@! TO.P,R6,2*
G04 #@! TO.N,Net-(R6-Pad2)*
X72390000Y-147955000D03*
D23*
G04 #@! TO.P,R6,1*
G04 #@! TO.N,Net-(R6-Pad1)*
X72390000Y-158115000D03*
G04 #@! TD*
D22*
G04 #@! TO.P,R9,2*
G04 #@! TO.N,Net-(R6-Pad1)*
X81280000Y-145796000D03*
D23*
G04 #@! TO.P,R9,1*
G04 #@! TO.N,Net-(C3-Pad1)*
X91440000Y-145796000D03*
G04 #@! TD*
D18*
G04 #@! TO.P,Q1,1*
G04 #@! TO.N,Net-(CONN_PWR_LINE_1-Pad1)*
X90932000Y-171831000D03*
D26*
G04 #@! TO.P,Q1,2*
G04 #@! TO.N,VAC*
X93472000Y-171831000D03*
G04 #@! TO.P,Q1,3*
G04 #@! TO.N,Net-(Q1-Pad3)*
X96012000Y-171831000D03*
G04 #@! TD*
D18*
G04 #@! TO.P,Q2,1*
G04 #@! TO.N,Net-(CONN_PWR_LINE_2-Pad1)*
X113792000Y-171831000D03*
D26*
G04 #@! TO.P,Q2,2*
G04 #@! TO.N,VAC*
X116332000Y-171831000D03*
G04 #@! TO.P,Q2,3*
G04 #@! TO.N,Net-(Q2-Pad3)*
X118872000Y-171831000D03*
G04 #@! TD*
D18*
G04 #@! TO.P,Q4,1*
G04 #@! TO.N,Net-(CONN_PWR_LINE_4-Pad1)*
X159512000Y-171831000D03*
D26*
G04 #@! TO.P,Q4,2*
G04 #@! TO.N,VAC*
X162052000Y-171831000D03*
G04 #@! TO.P,Q4,3*
G04 #@! TO.N,Net-(Q4-Pad3)*
X164592000Y-171831000D03*
G04 #@! TD*
D18*
G04 #@! TO.P,Q3,1*
G04 #@! TO.N,Net-(CONN_PWR_LINE_3-Pad1)*
X136652000Y-171831000D03*
D26*
G04 #@! TO.P,Q3,2*
G04 #@! TO.N,VAC*
X139192000Y-171831000D03*
G04 #@! TO.P,Q3,3*
G04 #@! TO.N,Net-(Q3-Pad3)*
X141732000Y-171831000D03*
G04 #@! TD*
D23*
G04 #@! TO.P,C14,2*
G04 #@! TO.N,GND*
X214376000Y3516000D03*
D27*
G04 #@! TO.P,C14,1*
G04 #@! TO.N,/Rain_Sensor_Raw*
X214376000Y1016000D03*
G04 #@! TD*
D22*
G04 #@! TO.P,R31,2*
G04 #@! TO.N,/Rain_Sensor_Raw*
X218948000Y1016000D03*
D23*
G04 #@! TO.P,R31,1*
G04 #@! TO.N,+5V*
X229108000Y1016000D03*
G04 #@! TD*
D22*
G04 #@! TO.P,R5,2*
G04 #@! TO.N,Net-(D_LED_MODE1-Pad2)*
X132080000Y-144272000D03*
D23*
G04 #@! TO.P,R5,1*
G04 #@! TO.N,+5V*
X121920000Y-144272000D03*
G04 #@! TD*
D28*
G04 #@! TO.P,U32,14*
G04 #@! TO.N,+5V*
X126365000Y-87630000D03*
G04 #@! TO.P,U32,7*
G04 #@! TO.N,GND*
X118745000Y-102870000D03*
G04 #@! TO.P,U32,13*
G04 #@! TO.N,/Running(Out)*
X126365000Y-90170000D03*
G04 #@! TO.P,U32,6*
G04 #@! TO.N,N/C*
X118745000Y-100330000D03*
G04 #@! TO.P,U32,12*
G04 #@! TO.N,/RunningInv(out)*
X126365000Y-92710000D03*
G04 #@! TO.P,U32,5*
G04 #@! TO.N,N/C*
X118745000Y-97790000D03*
G04 #@! TO.P,U32,11*
X126365000Y-95250000D03*
G04 #@! TO.P,U32,4*
G04 #@! TO.N,Net-(U32-Pad4)*
X118745000Y-95250000D03*
G04 #@! TO.P,U32,10*
G04 #@! TO.N,N/C*
X126365000Y-97790000D03*
G04 #@! TO.P,U32,3*
G04 #@! TO.N,/Mode(In)*
X118745000Y-92710000D03*
G04 #@! TO.P,U32,9*
G04 #@! TO.N,Net-(U31-Pad13)*
X126365000Y-100330000D03*
G04 #@! TO.P,U32,2*
G04 #@! TO.N,Net-(U32-Pad2)*
X118745000Y-90170000D03*
G04 #@! TO.P,U32,8*
G04 #@! TO.N,Net-(U18-Pad2)*
X126365000Y-102870000D03*
D29*
G04 #@! TO.P,U32,1*
G04 #@! TO.N,Net-(U31-Pad1)*
X118745000Y-87630000D03*
G04 #@! TD*
D22*
G04 #@! TO.P,R14,2*
G04 #@! TO.N,GND*
X222504000Y7620000D03*
D23*
G04 #@! TO.P,R14,1*
G04 #@! TO.N,/Conn_Control_Raw*
X212344000Y7620000D03*
G04 #@! TD*
D28*
G04 #@! TO.P,U36,14*
G04 #@! TO.N,+5V*
X108204000Y-138684000D03*
G04 #@! TO.P,U36,7*
G04 #@! TO.N,GND*
X100584000Y-153924000D03*
G04 #@! TO.P,U36,13*
G04 #@! TO.N,N/C*
X108204000Y-141224000D03*
G04 #@! TO.P,U36,6*
G04 #@! TO.N,/Mode(Ext.)*
X100584000Y-151384000D03*
G04 #@! TO.P,U36,12*
G04 #@! TO.N,N/C*
X108204000Y-143764000D03*
G04 #@! TO.P,U36,5*
G04 #@! TO.N,/Mode_Raw*
X100584000Y-148844000D03*
G04 #@! TO.P,U36,11*
G04 #@! TO.N,N/C*
X108204000Y-146304000D03*
G04 #@! TO.P,U36,4*
G04 #@! TO.N,Net-(U36-Pad4)*
X100584000Y-146304000D03*
G04 #@! TO.P,U36,10*
G04 #@! TO.N,N/C*
X108204000Y-148844000D03*
G04 #@! TO.P,U36,3*
G04 #@! TO.N,/Conn_Control_Raw*
X100584000Y-143764000D03*
G04 #@! TO.P,U36,9*
G04 #@! TO.N,/Rain_Sensor_Raw*
X108204000Y-151384000D03*
G04 #@! TO.P,U36,2*
G04 #@! TO.N,/Control(Ext.)*
X100584000Y-141224000D03*
G04 #@! TO.P,U36,8*
G04 #@! TO.N,/Rain_Sensor(Ext.)*
X108204000Y-153924000D03*
D29*
G04 #@! TO.P,U36,1*
G04 #@! TO.N,Net-(C1-Pad1)*
X100584000Y-138684000D03*
G04 #@! TD*
D22*
G04 #@! TO.P,R15,2*
G04 #@! TO.N,/Mode_Raw*
X97028000Y-133096000D03*
D23*
G04 #@! TO.P,R15,1*
G04 #@! TO.N,+5V*
X97028000Y-122936000D03*
G04 #@! TD*
G04 #@! TO.P,C4,2*
G04 #@! TO.N,GND*
X180340000Y7580000D03*
D27*
G04 #@! TO.P,C4,1*
G04 #@! TO.N,/Conn_Control_Raw*
X180340000Y5080000D03*
G04 #@! TD*
D23*
G04 #@! TO.P,C5,2*
G04 #@! TO.N,GND*
X90972000Y-141224000D03*
D27*
G04 #@! TO.P,C5,1*
G04 #@! TO.N,/Mode_Raw*
X93472000Y-141224000D03*
G04 #@! TD*
D23*
G04 #@! TO.P,C8,2*
G04 #@! TO.N,GND*
X90250000Y-27432000D03*
G04 #@! TO.P,C8,1*
G04 #@! TO.N,+9V*
X95250000Y-27432000D03*
G04 #@! TD*
D28*
G04 #@! TO.P,U9,14*
G04 #@! TO.N,Net-(U11-Pad6)*
X161290000Y-58420000D03*
G04 #@! TO.P,U9,7*
G04 #@! TO.N,Net-(U9-Pad7)*
X153670000Y-73660000D03*
G04 #@! TO.P,U9,13*
G04 #@! TO.N,Net-(U9-Pad13)*
X161290000Y-60960000D03*
G04 #@! TO.P,U9,6*
G04 #@! TO.N,Net-(U9-Pad6)*
X153670000Y-71120000D03*
G04 #@! TO.P,U9,12*
G04 #@! TO.N,Net-(U11-Pad12)*
X161290000Y-63500000D03*
G04 #@! TO.P,U9,5*
G04 #@! TO.N,+5V*
X153670000Y-68580000D03*
G04 #@! TO.P,U9,11*
G04 #@! TO.N,Net-(U12-Pad5)*
X161290000Y-66040000D03*
G04 #@! TO.P,U9,4*
G04 #@! TO.N,Net-(U9-Pad4)*
X153670000Y-66040000D03*
G04 #@! TO.P,U9,10*
G04 #@! TO.N,GND*
X161290000Y-68580000D03*
G04 #@! TO.P,U9,3*
G04 #@! TO.N,Net-(U4-Pad2)*
X153670000Y-63500000D03*
G04 #@! TO.P,U9,9*
G04 #@! TO.N,Net-(U11-Pad13)*
X161290000Y-71120000D03*
G04 #@! TO.P,U9,2*
G04 #@! TO.N,Net-(U4-Pad2)*
X153670000Y-60960000D03*
G04 #@! TO.P,U9,8*
G04 #@! TO.N,Net-(U12-Pad4)*
X161290000Y-73660000D03*
D29*
G04 #@! TO.P,U9,1*
G04 #@! TO.N,Net-(U11-Pad12)*
X153670000Y-58420000D03*
G04 #@! TD*
D23*
G04 #@! TO.P,R_OUT_4,1*
G04 #@! TO.N,Net-(C_OUT_4-Pad2)*
X162560000Y-184912000D03*
D22*
G04 #@! TO.P,R_OUT_4,2*
G04 #@! TO.N,Net-(CONN_PWR_LINE_4-Pad1)*
X152400000Y-184912000D03*
G04 #@! TD*
D23*
G04 #@! TO.P,R_OUT_3,1*
G04 #@! TO.N,Net-(C_OUT_3-Pad2)*
X138176000Y-184912000D03*
D22*
G04 #@! TO.P,R_OUT_3,2*
G04 #@! TO.N,Net-(CONN_PWR_LINE_3-Pad1)*
X128016000Y-184912000D03*
G04 #@! TD*
D23*
G04 #@! TO.P,R_OUT_2,1*
G04 #@! TO.N,Net-(C_OUT_2-Pad2)*
X113792000Y-184912000D03*
D22*
G04 #@! TO.P,R_OUT_2,2*
G04 #@! TO.N,Net-(CONN_PWR_LINE_2-Pad1)*
X103632000Y-184912000D03*
G04 #@! TD*
D23*
G04 #@! TO.P,R_OUT_1,1*
G04 #@! TO.N,Net-(C_OUT_1-Pad2)*
X88392000Y-184912000D03*
D22*
G04 #@! TO.P,R_OUT_1,2*
G04 #@! TO.N,Net-(CONN_PWR_LINE_1-Pad1)*
X78232000Y-184912000D03*
G04 #@! TD*
D23*
G04 #@! TO.P,R4,1*
G04 #@! TO.N,+5V*
X93980000Y-133096000D03*
D22*
G04 #@! TO.P,R4,2*
G04 #@! TO.N,Net-(C1-Pad1)*
X93980000Y-122936000D03*
G04 #@! TD*
G04 #@! TO.P,R7,2*
G04 #@! TO.N,GND*
X108204000Y-132080000D03*
D23*
G04 #@! TO.P,R7,1*
G04 #@! TO.N,Net-(D_LED_PWR1-Pad2)*
X108204000Y-121920000D03*
G04 #@! TD*
D22*
G04 #@! TO.P,R3,2*
G04 #@! TO.N,GND*
X132080000Y-147320000D03*
D23*
G04 #@! TO.P,R3,1*
G04 #@! TO.N,Net-(D_LED_RAIN1-Pad1)*
X121920000Y-147320000D03*
G04 #@! TD*
D22*
G04 #@! TO.P,R2,2*
G04 #@! TO.N,GND*
X132080000Y-141224000D03*
D23*
G04 #@! TO.P,R2,1*
G04 #@! TO.N,Net-(D_LED_RUNNING1-Pad1)*
X121920000Y-141224000D03*
G04 #@! TD*
D28*
G04 #@! TO.P,U39,14*
G04 #@! TO.N,+5V*
X74930000Y-14605000D03*
G04 #@! TO.P,U39,7*
G04 #@! TO.N,GND*
X67310000Y-29845000D03*
G04 #@! TO.P,U39,13*
G04 #@! TO.N,N/C*
X74930000Y-17145000D03*
G04 #@! TO.P,U39,6*
X67310000Y-27305000D03*
G04 #@! TO.P,U39,12*
X74930000Y-19685000D03*
G04 #@! TO.P,U39,5*
X67310000Y-24765000D03*
G04 #@! TO.P,U39,11*
X74930000Y-22225000D03*
G04 #@! TO.P,U39,4*
G04 #@! TO.N,/Control(Ext.2)*
X67310000Y-22225000D03*
G04 #@! TO.P,U39,10*
G04 #@! TO.N,N/C*
X74930000Y-24765000D03*
G04 #@! TO.P,U39,3*
G04 #@! TO.N,Net-(U36-Pad4)*
X67310000Y-19685000D03*
G04 #@! TO.P,U39,9*
G04 #@! TO.N,N/C*
X74930000Y-27305000D03*
G04 #@! TO.P,U39,2*
G04 #@! TO.N,Net-(U17-Pad11)*
X67310000Y-17145000D03*
G04 #@! TO.P,U39,8*
G04 #@! TO.N,N/C*
X74930000Y-29845000D03*
D29*
G04 #@! TO.P,U39,1*
G04 #@! TO.N,Net-(U14-Pad11)*
X67310000Y-14605000D03*
G04 #@! TD*
D30*
G04 #@! TO.P,U7,16*
G04 #@! TO.N,+5V*
X96520000Y-23495000D03*
G04 #@! TO.P,U7,8*
G04 #@! TO.N,GND*
X78740000Y-15875000D03*
G04 #@! TO.P,U7,15*
G04 #@! TO.N,Net-(U7-Pad15)*
X93980000Y-23495000D03*
G04 #@! TO.P,U7,7*
G04 #@! TO.N,Net-(U7-Pad7)*
X81280000Y-15875000D03*
G04 #@! TO.P,U7,14*
G04 #@! TO.N,Net-(U34-Pad13)*
X91440000Y-23495000D03*
G04 #@! TO.P,U7,6*
G04 #@! TO.N,Net-(U7-Pad6)*
X83820000Y-15875000D03*
G04 #@! TO.P,U7,13*
G04 #@! TO.N,Net-(U34-Pad1)*
X88900000Y-23495000D03*
G04 #@! TO.P,U7,5*
G04 #@! TO.N,Net-(U7-Pad5)*
X86360000Y-15875000D03*
G04 #@! TO.P,U7,12*
G04 #@! TO.N,Net-(U34-Pad2)*
X86360000Y-23495000D03*
G04 #@! TO.P,U7,4*
G04 #@! TO.N,Net-(U7-Pad4)*
X88900000Y-15875000D03*
G04 #@! TO.P,U7,11*
G04 #@! TO.N,Net-(U5-Pad6)*
X83820000Y-23495000D03*
G04 #@! TO.P,U7,3*
G04 #@! TO.N,Net-(U7-Pad3)*
X91440000Y-15875000D03*
G04 #@! TO.P,U7,10*
G04 #@! TO.N,CLK_MIN*
X81280000Y-23495000D03*
G04 #@! TO.P,U7,2*
G04 #@! TO.N,Net-(U7-Pad2)*
X93980000Y-15875000D03*
G04 #@! TO.P,U7,9*
G04 #@! TO.N,Net-(U7-Pad9)*
X78740000Y-23495000D03*
D31*
G04 #@! TO.P,U7,1*
G04 #@! TO.N,Net-(U7-Pad1)*
X96520000Y-15875000D03*
G04 #@! TD*
D22*
G04 #@! TO.P,R17,2*
G04 #@! TO.N,GND*
X100334425Y-14449756D03*
D23*
G04 #@! TO.P,R17,1*
G04 #@! TO.N,Net-(R17-Pad1)*
X100334425Y-24609756D03*
G04 #@! TD*
G04 #@! TO.P,R25,1*
G04 #@! TO.N,Net-(R25-Pad1)*
X146812000Y-178816000D03*
D22*
G04 #@! TO.P,R25,2*
G04 #@! TO.N,VAC*
X156972000Y-178816000D03*
G04 #@! TD*
D23*
G04 #@! TO.P,R24,1*
G04 #@! TO.N,Net-(R24-Pad1)*
X120142000Y-178816000D03*
D22*
G04 #@! TO.P,R24,2*
G04 #@! TO.N,VAC*
X130302000Y-178816000D03*
G04 #@! TD*
D23*
G04 #@! TO.P,R23,1*
G04 #@! TO.N,Net-(R23-Pad1)*
X97282000Y-179451000D03*
D22*
G04 #@! TO.P,R23,2*
G04 #@! TO.N,VAC*
X107442000Y-179451000D03*
G04 #@! TD*
D23*
G04 #@! TO.P,R22,1*
G04 #@! TO.N,Net-(R22-Pad1)*
X77597000Y-179451000D03*
D22*
G04 #@! TO.P,R22,2*
G04 #@! TO.N,VAC*
X87757000Y-179451000D03*
G04 #@! TD*
D19*
G04 #@! TO.P,C_PWR_5,2*
G04 #@! TO.N,GND*
X164592000Y-152988000D03*
D32*
G04 #@! TO.P,C_PWR_5,1*
G04 #@! TO.N,+9V*
X164592000Y-157988000D03*
G04 #@! TD*
D33*
G04 #@! TO.P,C12,2*
G04 #@! TO.N,GND*
X145415000Y-19145000D03*
D34*
G04 #@! TO.P,C12,1*
G04 #@! TO.N,BATT_OUT_+*
X145415000Y-17145000D03*
G04 #@! TD*
D23*
G04 #@! TO.P,C10,2*
G04 #@! TO.N,Net-(C10-Pad2)*
X68620000Y-35560000D03*
D27*
G04 #@! TO.P,C10,1*
G04 #@! TO.N,Net-(C10-Pad1)*
X71120000Y-35560000D03*
G04 #@! TD*
D23*
G04 #@! TO.P,C13,2*
G04 #@! TO.N,GND*
X234696000Y-67604000D03*
D27*
G04 #@! TO.P,C13,1*
G04 #@! TO.N,Net-(C13-Pad1)*
X234696000Y-70104000D03*
G04 #@! TD*
D23*
G04 #@! TO.P,C_PWR_6,2*
G04 #@! TO.N,Net-(C_PWR_6-Pad2)*
X211916000Y-171704000D03*
G04 #@! TO.P,C_PWR_6,1*
G04 #@! TO.N,+9V*
X216916000Y-171704000D03*
G04 #@! TD*
G04 #@! TO.P,C11,2*
G04 #@! TO.N,GND*
X138430000Y-22145000D03*
G04 #@! TO.P,C11,1*
G04 #@! TO.N,BATT_OUT_+*
X138430000Y-17145000D03*
G04 #@! TD*
G04 #@! TO.P,C_OUT_1,1*
G04 #@! TO.N,VAC*
X93472000Y-175006000D03*
G04 #@! TO.P,C_OUT_1,2*
G04 #@! TO.N,Net-(C_OUT_1-Pad2)*
X93472000Y-180006000D03*
G04 #@! TD*
G04 #@! TO.P,C9,2*
G04 #@! TO.N,GND*
X132635000Y-23495000D03*
G04 #@! TO.P,C9,1*
G04 #@! TO.N,PWR_ALW*
X127635000Y-23495000D03*
G04 #@! TD*
G04 #@! TO.P,C_OUT_2,1*
G04 #@! TO.N,VAC*
X116332000Y-175006000D03*
G04 #@! TO.P,C_OUT_2,2*
G04 #@! TO.N,Net-(C_OUT_2-Pad2)*
X116332000Y-180006000D03*
G04 #@! TD*
G04 #@! TO.P,C_OUT_3,1*
G04 #@! TO.N,VAC*
X139192000Y-175006000D03*
G04 #@! TO.P,C_OUT_3,2*
G04 #@! TO.N,Net-(C_OUT_3-Pad2)*
X139192000Y-180006000D03*
G04 #@! TD*
G04 #@! TO.P,C_OUT_4,1*
G04 #@! TO.N,VAC*
X162052000Y-175006000D03*
G04 #@! TO.P,C_OUT_4,2*
G04 #@! TO.N,Net-(C_OUT_4-Pad2)*
X162052000Y-180006000D03*
G04 #@! TD*
G04 #@! TO.P,C_PWR_2,2*
G04 #@! TO.N,GND*
X211916000Y-175768000D03*
G04 #@! TO.P,C_PWR_2,1*
G04 #@! TO.N,Net-(C_PWR_1-Pad1)*
X216916000Y-175768000D03*
G04 #@! TD*
G04 #@! TO.P,C_PWR_3,2*
G04 #@! TO.N,Net-(C_PWR_3-Pad2)*
X211916000Y-167640000D03*
G04 #@! TO.P,C_PWR_3,1*
G04 #@! TO.N,Net-(C_PWR_1-Pad1)*
X216916000Y-167640000D03*
G04 #@! TD*
G04 #@! TO.P,C_PWR_4,2*
G04 #@! TO.N,GND*
X215900000Y-159084000D03*
G04 #@! TO.P,C_PWR_4,1*
G04 #@! TO.N,+9V*
X215900000Y-164084000D03*
G04 #@! TD*
D35*
G04 #@! TO.N,N/C*
G04 #@! TO.C,J_PWR_1*
G36*
X237816765Y-180070213D02*
X237901704Y-180082813D01*
X237984999Y-180103677D01*
X238065848Y-180132605D01*
X238143472Y-180169319D01*
X238217124Y-180213464D01*
X238286094Y-180264616D01*
X238349718Y-180322282D01*
X238407384Y-180385906D01*
X238458536Y-180454876D01*
X238502681Y-180528528D01*
X238539395Y-180606152D01*
X238568323Y-180687001D01*
X238589187Y-180770296D01*
X238601787Y-180855235D01*
X238606000Y-180941000D01*
X238606000Y-182691000D01*
X238601787Y-182776765D01*
X238589187Y-182861704D01*
X238568323Y-182944999D01*
X238539395Y-183025848D01*
X238502681Y-183103472D01*
X238458536Y-183177124D01*
X238407384Y-183246094D01*
X238349718Y-183309718D01*
X238286094Y-183367384D01*
X238217124Y-183418536D01*
X238143472Y-183462681D01*
X238065848Y-183499395D01*
X237984999Y-183528323D01*
X237901704Y-183549187D01*
X237816765Y-183561787D01*
X237731000Y-183566000D01*
X235981000Y-183566000D01*
X235895235Y-183561787D01*
X235810296Y-183549187D01*
X235727001Y-183528323D01*
X235646152Y-183499395D01*
X235568528Y-183462681D01*
X235494876Y-183418536D01*
X235425906Y-183367384D01*
X235362282Y-183309718D01*
X235304616Y-183246094D01*
X235253464Y-183177124D01*
X235209319Y-183103472D01*
X235172605Y-183025848D01*
X235143677Y-182944999D01*
X235122813Y-182861704D01*
X235110213Y-182776765D01*
X235106000Y-182691000D01*
X235106000Y-180941000D01*
X235110213Y-180855235D01*
X235122813Y-180770296D01*
X235143677Y-180687001D01*
X235172605Y-180606152D01*
X235209319Y-180528528D01*
X235253464Y-180454876D01*
X235304616Y-180385906D01*
X235362282Y-180322282D01*
X235425906Y-180264616D01*
X235494876Y-180213464D01*
X235568528Y-180169319D01*
X235646152Y-180132605D01*
X235727001Y-180103677D01*
X235810296Y-180082813D01*
X235895235Y-180070213D01*
X235981000Y-180066000D01*
X237731000Y-180066000D01*
X237816765Y-180070213D01*
X237816765Y-180070213D01*
G37*
D36*
G04 #@! TD*
G04 #@! TO.P,J_PWR_1,3*
G04 #@! TO.N,N/C*
X236856000Y-181816000D03*
D35*
G04 #@! TO.N,GNDREF*
G04 #@! TO.C,J_PWR_1*
G36*
X233229513Y-183319611D02*
X233302318Y-183330411D01*
X233373714Y-183348295D01*
X233443013Y-183373090D01*
X233509548Y-183404559D01*
X233572678Y-183442398D01*
X233631795Y-183486242D01*
X233686330Y-183535670D01*
X233735758Y-183590205D01*
X233779602Y-183649322D01*
X233817441Y-183712452D01*
X233848910Y-183778987D01*
X233873705Y-183848286D01*
X233891589Y-183919682D01*
X233902389Y-183992487D01*
X233906000Y-184066000D01*
X233906000Y-185566000D01*
X233902389Y-185639513D01*
X233891589Y-185712318D01*
X233873705Y-185783714D01*
X233848910Y-185853013D01*
X233817441Y-185919548D01*
X233779602Y-185982678D01*
X233735758Y-186041795D01*
X233686330Y-186096330D01*
X233631795Y-186145758D01*
X233572678Y-186189602D01*
X233509548Y-186227441D01*
X233443013Y-186258910D01*
X233373714Y-186283705D01*
X233302318Y-186301589D01*
X233229513Y-186312389D01*
X233156000Y-186316000D01*
X231156000Y-186316000D01*
X231082487Y-186312389D01*
X231009682Y-186301589D01*
X230938286Y-186283705D01*
X230868987Y-186258910D01*
X230802452Y-186227441D01*
X230739322Y-186189602D01*
X230680205Y-186145758D01*
X230625670Y-186096330D01*
X230576242Y-186041795D01*
X230532398Y-185982678D01*
X230494559Y-185919548D01*
X230463090Y-185853013D01*
X230438295Y-185783714D01*
X230420411Y-185712318D01*
X230409611Y-185639513D01*
X230406000Y-185566000D01*
X230406000Y-184066000D01*
X230409611Y-183992487D01*
X230420411Y-183919682D01*
X230438295Y-183848286D01*
X230463090Y-183778987D01*
X230494559Y-183712452D01*
X230532398Y-183649322D01*
X230576242Y-183590205D01*
X230625670Y-183535670D01*
X230680205Y-183486242D01*
X230739322Y-183442398D01*
X230802452Y-183404559D01*
X230868987Y-183373090D01*
X230938286Y-183348295D01*
X231009682Y-183330411D01*
X231082487Y-183319611D01*
X231156000Y-183316000D01*
X233156000Y-183316000D01*
X233229513Y-183319611D01*
X233229513Y-183319611D01*
G37*
D37*
G04 #@! TD*
G04 #@! TO.P,J_PWR_1,2*
G04 #@! TO.N,GNDREF*
X232156000Y-184816000D03*
D38*
G04 #@! TO.P,J_PWR_1,1*
G04 #@! TO.N,VAC*
X232156000Y-178816000D03*
G04 #@! TD*
D25*
G04 #@! TO.P,J1,3*
G04 #@! TO.N,GND*
X151765000Y-21590000D03*
G04 #@! TO.P,J1,2*
G04 #@! TO.N,BATT_OUT_MID*
X151765000Y-19050000D03*
D24*
G04 #@! TO.P,J1,1*
G04 #@! TO.N,BATT_OUT_+*
X151765000Y-16510000D03*
G04 #@! TD*
D39*
G04 #@! TO.P,D9,2*
G04 #@! TO.N,Net-(D10-Pad1)*
X64592440Y-44400857D03*
D40*
G04 #@! TO.P,D9,1*
G04 #@! TO.N,PWR_ALW*
X54432440Y-44400857D03*
G04 #@! TD*
D39*
G04 #@! TO.P,D11,2*
G04 #@! TO.N,Net-(D11-Pad2)*
X64592440Y-39370000D03*
D40*
G04 #@! TO.P,D11,1*
G04 #@! TO.N,PWR_ALW*
X54432440Y-39370000D03*
G04 #@! TD*
D39*
G04 #@! TO.P,D12,2*
G04 #@! TO.N,Net-(D11-Pad2)*
X172212000Y-174752000D03*
D40*
G04 #@! TO.P,D12,1*
G04 #@! TO.N,+5V*
X172212000Y-164592000D03*
G04 #@! TD*
D39*
G04 #@! TO.P,D10,2*
G04 #@! TO.N,Net-(D10-Pad2)*
X54432440Y-49480857D03*
D40*
G04 #@! TO.P,D10,1*
G04 #@! TO.N,Net-(D10-Pad1)*
X64592440Y-49480857D03*
G04 #@! TD*
D30*
G04 #@! TO.P,U37,16*
G04 #@! TO.N,PWR_ALW*
X170815000Y-98425000D03*
G04 #@! TO.P,U37,8*
G04 #@! TO.N,GND*
X188595000Y-106045000D03*
G04 #@! TO.P,U37,15*
G04 #@! TO.N,Net-(U12-Pad13)*
X173355000Y-98425000D03*
G04 #@! TO.P,U37,7*
G04 #@! TO.N,Net-(U37-Pad7)*
X186055000Y-106045000D03*
G04 #@! TO.P,U37,14*
G04 #@! TO.N,Net-(U37-Pad14)*
X175895000Y-98425000D03*
G04 #@! TO.P,U37,6*
G04 #@! TO.N,Net-(U37-Pad6)*
X183515000Y-106045000D03*
G04 #@! TO.P,U37,13*
G04 #@! TO.N,Net-(U12-Pad10)*
X178435000Y-98425000D03*
G04 #@! TO.P,U37,5*
G04 #@! TO.N,Net-(U37-Pad5)*
X180975000Y-106045000D03*
G04 #@! TO.P,U37,12*
G04 #@! TO.N,Net-(U12-Pad12)*
X180975000Y-98425000D03*
G04 #@! TO.P,U37,4*
G04 #@! TO.N,Net-(U12-Pad9)*
X178435000Y-106045000D03*
G04 #@! TO.P,U37,11*
G04 #@! TO.N,Net-(U34-Pad8)*
X183515000Y-98425000D03*
G04 #@! TO.P,U37,3*
G04 #@! TO.N,Net-(U37-Pad3)*
X175895000Y-106045000D03*
G04 #@! TO.P,U37,10*
G04 #@! TO.N,CLK_MIN*
X186055000Y-98425000D03*
G04 #@! TO.P,U37,2*
G04 #@! TO.N,Net-(U37-Pad2)*
X173355000Y-106045000D03*
G04 #@! TO.P,U37,9*
G04 #@! TO.N,Net-(U37-Pad9)*
X188595000Y-98425000D03*
D31*
G04 #@! TO.P,U37,1*
G04 #@! TO.N,Net-(U37-Pad1)*
X170815000Y-106045000D03*
G04 #@! TD*
D29*
G04 #@! TO.P,U25,1*
G04 #@! TO.N,Net-(R18-Pad2)*
X78232000Y-169926000D03*
D28*
G04 #@! TO.P,U25,4*
G04 #@! TO.N,Net-(Q1-Pad3)*
X85852000Y-175006000D03*
G04 #@! TO.P,U25,2*
G04 #@! TO.N,GND*
X78232000Y-172466000D03*
G04 #@! TO.P,U25,5*
G04 #@! TO.N,Net-(U25-Pad5)*
X85852000Y-172466000D03*
G04 #@! TO.P,U25,3*
G04 #@! TO.N,Net-(U25-Pad3)*
X78232000Y-175006000D03*
G04 #@! TO.P,U25,6*
G04 #@! TO.N,Net-(R22-Pad1)*
X85852000Y-169926000D03*
G04 #@! TD*
D29*
G04 #@! TO.P,U26,1*
G04 #@! TO.N,Net-(R19-Pad2)*
X101092000Y-169926000D03*
D28*
G04 #@! TO.P,U26,4*
G04 #@! TO.N,Net-(Q2-Pad3)*
X108712000Y-175006000D03*
G04 #@! TO.P,U26,2*
G04 #@! TO.N,GND*
X101092000Y-172466000D03*
G04 #@! TO.P,U26,5*
G04 #@! TO.N,Net-(U26-Pad5)*
X108712000Y-172466000D03*
G04 #@! TO.P,U26,3*
G04 #@! TO.N,Net-(U26-Pad3)*
X101092000Y-175006000D03*
G04 #@! TO.P,U26,6*
G04 #@! TO.N,Net-(R23-Pad1)*
X108712000Y-169926000D03*
G04 #@! TD*
D29*
G04 #@! TO.P,U28,1*
G04 #@! TO.N,Net-(R21-Pad2)*
X146812000Y-169926000D03*
D28*
G04 #@! TO.P,U28,4*
G04 #@! TO.N,Net-(Q4-Pad3)*
X154432000Y-175006000D03*
G04 #@! TO.P,U28,2*
G04 #@! TO.N,GND*
X146812000Y-172466000D03*
G04 #@! TO.P,U28,5*
G04 #@! TO.N,Net-(U28-Pad5)*
X154432000Y-172466000D03*
G04 #@! TO.P,U28,3*
G04 #@! TO.N,Net-(U28-Pad3)*
X146812000Y-175006000D03*
G04 #@! TO.P,U28,6*
G04 #@! TO.N,Net-(R25-Pad1)*
X154432000Y-169926000D03*
G04 #@! TD*
D29*
G04 #@! TO.P,U27,1*
G04 #@! TO.N,Net-(R20-Pad2)*
X123952000Y-169926000D03*
D28*
G04 #@! TO.P,U27,4*
G04 #@! TO.N,Net-(Q3-Pad3)*
X131572000Y-175006000D03*
G04 #@! TO.P,U27,2*
G04 #@! TO.N,GND*
X123952000Y-172466000D03*
G04 #@! TO.P,U27,5*
G04 #@! TO.N,Net-(U27-Pad5)*
X131572000Y-172466000D03*
G04 #@! TO.P,U27,3*
G04 #@! TO.N,Net-(U27-Pad3)*
X123952000Y-175006000D03*
G04 #@! TO.P,U27,6*
G04 #@! TO.N,Net-(R24-Pad1)*
X131572000Y-169926000D03*
G04 #@! TD*
G04 #@! TO.P,U8,8*
G04 #@! TO.N,BATT_OUT_+*
X76835000Y-40640000D03*
G04 #@! TO.P,U8,4*
G04 #@! TO.N,Net-(C10-Pad2)*
X69215000Y-48260000D03*
G04 #@! TO.P,U8,7*
G04 #@! TO.N,Net-(U8-Pad7)*
X76835000Y-43180000D03*
G04 #@! TO.P,U8,3*
G04 #@! TO.N,BATT_OUT_MID*
X69215000Y-45720000D03*
G04 #@! TO.P,U8,6*
G04 #@! TO.N,Net-(U8-Pad6)*
X76835000Y-45720000D03*
G04 #@! TO.P,U8,2*
G04 #@! TO.N,Net-(C10-Pad1)*
X69215000Y-43180000D03*
G04 #@! TO.P,U8,5*
G04 #@! TO.N,GND*
X76835000Y-48260000D03*
D29*
G04 #@! TO.P,U8,1*
G04 #@! TO.N,Net-(U8-Pad1)*
X69215000Y-40640000D03*
G04 #@! TD*
D41*
G04 #@! TO.P,D_BATT_1,2*
G04 #@! TO.N,Net-(D_BATT_1-Pad2)*
X127000000Y-17272000D03*
D32*
G04 #@! TO.P,D_BATT_1,1*
G04 #@! TO.N,BATT_OUT_+*
X132080000Y-17272000D03*
G04 #@! TD*
D41*
G04 #@! TO.P,D_BATT_2,2*
G04 #@! TO.N,BATT_OUT_MID*
X62865000Y-29210000D03*
D32*
G04 #@! TO.P,D_BATT_2,1*
G04 #@! TO.N,BATT_OUT_+*
X62865000Y-34290000D03*
G04 #@! TD*
D41*
G04 #@! TO.P,D_BATT_3,2*
G04 #@! TO.N,GND*
X62865000Y-18415000D03*
D32*
G04 #@! TO.P,D_BATT_3,1*
G04 #@! TO.N,BATT_OUT_MID*
X62865000Y-23495000D03*
G04 #@! TD*
D41*
G04 #@! TO.P,D_PWR_1,2*
G04 #@! TO.N,GND*
X211328000Y-157480000D03*
D32*
G04 #@! TO.P,D_PWR_1,1*
G04 #@! TO.N,Net-(D_PWR_1-Pad1)*
X211328000Y-162560000D03*
G04 #@! TD*
D42*
G04 #@! TO.P,U29,3*
G04 #@! TO.N,Net-(D10-Pad2)*
X55880000Y-23495000D03*
G04 #@! TO.P,U29,2*
G04 #@! TO.N,GND*
X55880000Y-26035000D03*
D43*
G04 #@! TO.P,U29,1*
G04 #@! TO.N,BATT_OUT_+*
X55880000Y-28575000D03*
G04 #@! TD*
D22*
G04 #@! TO.P,R1,2*
G04 #@! TO.N,Net-(D_LED_BATT_REP1-Pad1)*
X132080000Y-150368000D03*
D23*
G04 #@! TO.P,R1,1*
G04 #@! TO.N,GND*
X121920000Y-150368000D03*
G04 #@! TD*
D22*
G04 #@! TO.P,R28,2*
G04 #@! TO.N,Net-(R28-Pad2)*
X78817155Y-35445614D03*
D23*
G04 #@! TO.P,R28,1*
G04 #@! TO.N,GND*
X88977155Y-35445614D03*
G04 #@! TD*
D22*
G04 #@! TO.P,R29,2*
G04 #@! TO.N,Net-(R29-Pad2)*
X88900000Y-31750000D03*
D23*
G04 #@! TO.P,R29,1*
G04 #@! TO.N,Net-(R28-Pad2)*
X78740000Y-31750000D03*
G04 #@! TD*
D22*
G04 #@! TO.P,R27,2*
G04 #@! TO.N,Net-(R27-Pad2)*
X107319425Y-24609756D03*
D23*
G04 #@! TO.P,R27,1*
G04 #@! TO.N,+9V*
X107319425Y-14449756D03*
G04 #@! TD*
D22*
G04 #@! TO.P,R26,2*
G04 #@! TO.N,Net-(R26-Pad2)*
X104144425Y-24609756D03*
D23*
G04 #@! TO.P,R26,1*
G04 #@! TO.N,+9V*
X104144425Y-14449756D03*
G04 #@! TD*
D26*
G04 #@! TO.P,D1,2*
G04 #@! TO.N,Net-(D1-Pad2)*
X183498850Y-149037853D03*
D18*
G04 #@! TO.P,D1,1*
G04 #@! TO.N,Net-(D1-Pad1)*
X183498850Y-138877853D03*
G04 #@! TD*
D26*
G04 #@! TO.P,D3,2*
G04 #@! TO.N,Net-(D3-Pad2)*
X198738850Y-149037853D03*
D18*
G04 #@! TO.P,D3,1*
G04 #@! TO.N,Net-(D3-Pad1)*
X198738850Y-138877853D03*
G04 #@! TD*
D26*
G04 #@! TO.P,D5,2*
G04 #@! TO.N,Net-(D5-Pad2)*
X179688850Y-149037853D03*
D18*
G04 #@! TO.P,D5,1*
G04 #@! TO.N,Net-(D5-Pad1)*
X179688850Y-138877853D03*
G04 #@! TD*
D26*
G04 #@! TO.P,D4,2*
G04 #@! TO.N,Net-(D4-Pad2)*
X206358850Y-149037853D03*
D18*
G04 #@! TO.P,D4,1*
G04 #@! TO.N,Net-(D4-Pad1)*
X206358850Y-138877853D03*
G04 #@! TD*
D26*
G04 #@! TO.P,D8,2*
G04 #@! TO.N,Net-(D8-Pad2)*
X202548850Y-149037853D03*
D18*
G04 #@! TO.P,D8,1*
G04 #@! TO.N,Net-(D8-Pad1)*
X202548850Y-138877853D03*
G04 #@! TD*
D26*
G04 #@! TO.P,D6,2*
G04 #@! TO.N,Net-(D6-Pad2)*
X187308850Y-149037853D03*
D18*
G04 #@! TO.P,D6,1*
G04 #@! TO.N,Net-(D6-Pad1)*
X187308850Y-138877853D03*
G04 #@! TD*
D26*
G04 #@! TO.P,D7,2*
G04 #@! TO.N,Net-(D7-Pad2)*
X194928850Y-149037853D03*
D18*
G04 #@! TO.P,D7,1*
G04 #@! TO.N,Net-(D7-Pad1)*
X194928850Y-138877853D03*
G04 #@! TD*
D26*
G04 #@! TO.P,D2,2*
G04 #@! TO.N,Net-(D2-Pad2)*
X191118850Y-149037853D03*
D18*
G04 #@! TO.P,D2,1*
G04 #@! TO.N,Net-(D2-Pad1)*
X191118850Y-138877853D03*
G04 #@! TD*
D28*
G04 #@! TO.P,U35,16*
G04 #@! TO.N,+5V*
X113665000Y-41910000D03*
G04 #@! TO.P,U35,8*
G04 #@! TO.N,GND*
X106045000Y-59690000D03*
G04 #@! TO.P,U35,15*
G04 #@! TO.N,Net-(U15-Pad4)*
X113665000Y-44450000D03*
G04 #@! TO.P,U35,7*
G04 #@! TO.N,/Running(Out)*
X106045000Y-57150000D03*
G04 #@! TO.P,U35,14*
G04 #@! TO.N,+5V*
X113665000Y-46990000D03*
G04 #@! TO.P,U35,6*
G04 #@! TO.N,Net-(U33-Pad5)*
X106045000Y-54610000D03*
G04 #@! TO.P,U35,13*
G04 #@! TO.N,GND*
X113665000Y-49530000D03*
G04 #@! TO.P,U35,5*
G04 #@! TO.N,Net-(U31-Pad4)*
X106045000Y-52070000D03*
G04 #@! TO.P,U35,12*
G04 #@! TO.N,Net-(U11-Pad8)*
X113665000Y-52070000D03*
G04 #@! TO.P,U35,4*
G04 #@! TO.N,Net-(U31-Pad10)*
X106045000Y-49530000D03*
G04 #@! TO.P,U35,11*
G04 #@! TO.N,+5V*
X113665000Y-54610000D03*
G04 #@! TO.P,U35,3*
G04 #@! TO.N,GND*
X106045000Y-46990000D03*
G04 #@! TO.P,U35,10*
G04 #@! TO.N,Net-(U14-Pad4)*
X113665000Y-57150000D03*
G04 #@! TO.P,U35,2*
G04 #@! TO.N,+5V*
X106045000Y-44450000D03*
G04 #@! TO.P,U35,9*
G04 #@! TO.N,Net-(U16-Pad2)*
X113665000Y-59690000D03*
D29*
G04 #@! TO.P,U35,1*
G04 #@! TO.N,+5V*
X106045000Y-41910000D03*
G04 #@! TD*
D28*
G04 #@! TO.P,U31,14*
G04 #@! TO.N,+5V*
X83185000Y-66040000D03*
G04 #@! TO.P,U31,7*
G04 #@! TO.N,GND*
X75565000Y-81280000D03*
G04 #@! TO.P,U31,13*
G04 #@! TO.N,Net-(U31-Pad13)*
X83185000Y-68580000D03*
G04 #@! TO.P,U31,6*
G04 #@! TO.N,/Completed(In)*
X75565000Y-78740000D03*
G04 #@! TO.P,U31,12*
G04 #@! TO.N,Finished*
X83185000Y-71120000D03*
G04 #@! TO.P,U31,5*
G04 #@! TO.N,/Rain(In)*
X75565000Y-76200000D03*
G04 #@! TO.P,U31,11*
G04 #@! TO.N,/Reset(Out)*
X83185000Y-73660000D03*
G04 #@! TO.P,U31,4*
G04 #@! TO.N,Net-(U31-Pad4)*
X75565000Y-73660000D03*
G04 #@! TO.P,U31,10*
G04 #@! TO.N,Net-(U31-Pad10)*
X83185000Y-76200000D03*
G04 #@! TO.P,U31,3*
G04 #@! TO.N,/Control(In2)*
X75565000Y-71120000D03*
G04 #@! TO.P,U31,9*
G04 #@! TO.N,Net-(U14-Pad9)*
X83185000Y-78740000D03*
G04 #@! TO.P,U31,2*
G04 #@! TO.N,/Control(In1)*
X75565000Y-68580000D03*
G04 #@! TO.P,U31,8*
G04 #@! TO.N,Net-(U31-Pad8)*
X83185000Y-81280000D03*
D29*
G04 #@! TO.P,U31,1*
G04 #@! TO.N,Net-(U31-Pad1)*
X75565000Y-66040000D03*
G04 #@! TD*
D28*
G04 #@! TO.P,U33,14*
G04 #@! TO.N,+5V*
X126365000Y-60960000D03*
G04 #@! TO.P,U33,7*
G04 #@! TO.N,GND*
X118745000Y-76200000D03*
G04 #@! TO.P,U33,13*
G04 #@! TO.N,Net-(U17-Pad9)*
X126365000Y-63500000D03*
G04 #@! TO.P,U33,6*
G04 #@! TO.N,Net-(U14-Pad9)*
X118745000Y-73660000D03*
G04 #@! TO.P,U33,12*
G04 #@! TO.N,CLK_SEC*
X126365000Y-66040000D03*
G04 #@! TO.P,U33,5*
G04 #@! TO.N,Net-(U33-Pad5)*
X118745000Y-71120000D03*
G04 #@! TO.P,U33,11*
G04 #@! TO.N,Net-(D_LED_BATT_REP1-Pad2)*
X126365000Y-68580000D03*
G04 #@! TO.P,U33,4*
G04 #@! TO.N,Net-(U33-Pad4)*
X118745000Y-68580000D03*
G04 #@! TO.P,U33,10*
G04 #@! TO.N,/Mode(In)*
X126365000Y-71120000D03*
G04 #@! TO.P,U33,3*
G04 #@! TO.N,Net-(U31-Pad8)*
X118745000Y-66040000D03*
G04 #@! TO.P,U33,9*
G04 #@! TO.N,Net-(U32-Pad2)*
X126365000Y-73660000D03*
G04 #@! TO.P,U33,2*
G04 #@! TO.N,Net-(U32-Pad4)*
X118745000Y-63500000D03*
G04 #@! TO.P,U33,8*
G04 #@! TO.N,/Next(Out)*
X126365000Y-76200000D03*
D29*
G04 #@! TO.P,U33,1*
G04 #@! TO.N,Net-(U32-Pad2)*
X118745000Y-60960000D03*
G04 #@! TD*
D28*
G04 #@! TO.P,U34,14*
G04 #@! TO.N,PWR_ALW*
X83185000Y-87630000D03*
G04 #@! TO.P,U34,7*
G04 #@! TO.N,GND*
X75565000Y-102870000D03*
G04 #@! TO.P,U34,13*
G04 #@! TO.N,Net-(U34-Pad13)*
X83185000Y-90170000D03*
G04 #@! TO.P,U34,6*
G04 #@! TO.N,Net-(U33-Pad4)*
X75565000Y-100330000D03*
G04 #@! TO.P,U34,12*
G04 #@! TO.N,Net-(U17-Pad15)*
X83185000Y-92710000D03*
G04 #@! TO.P,U34,5*
G04 #@! TO.N,PWR_ALW*
X75565000Y-97790000D03*
G04 #@! TO.P,U34,11*
G04 #@! TO.N,Net-(SW_TIMER1-Pad5)*
X83185000Y-95250000D03*
G04 #@! TO.P,U34,4*
G04 #@! TO.N,Net-(U31-Pad1)*
X75565000Y-95250000D03*
G04 #@! TO.P,U34,10*
G04 #@! TO.N,Net-(R16-Pad1)*
X83185000Y-97790000D03*
G04 #@! TO.P,U34,3*
G04 #@! TO.N,Net-(SW_TIMER1-Pad6)*
X75565000Y-92710000D03*
G04 #@! TO.P,U34,9*
G04 #@! TO.N,PWR_ALW*
X83185000Y-100330000D03*
G04 #@! TO.P,U34,2*
G04 #@! TO.N,Net-(U34-Pad2)*
X75565000Y-90170000D03*
G04 #@! TO.P,U34,8*
G04 #@! TO.N,Net-(U34-Pad8)*
X83185000Y-102870000D03*
D29*
G04 #@! TO.P,U34,1*
G04 #@! TO.N,Net-(U34-Pad1)*
X75565000Y-87630000D03*
G04 #@! TD*
D27*
G04 #@! TO.P,C1,1*
G04 #@! TO.N,Net-(C1-Pad1)*
X95504000Y-115316000D03*
D23*
G04 #@! TO.P,C1,2*
G04 #@! TO.N,GND*
X93004000Y-115316000D03*
G04 #@! TD*
G04 #@! TO.P,C2,2*
G04 #@! TO.N,GND*
X81280000Y-153590000D03*
G04 #@! TO.P,C2,1*
G04 #@! TO.N,Net-(C2-Pad1)*
X81280000Y-148590000D03*
G04 #@! TD*
G04 #@! TO.P,C3,2*
G04 #@! TO.N,GND*
X91440000Y-153590000D03*
G04 #@! TO.P,C3,1*
G04 #@! TO.N,Net-(C3-Pad1)*
X91440000Y-148590000D03*
G04 #@! TD*
D44*
G04 #@! TO.P,Y1,2*
G04 #@! TO.N,Net-(C3-Pad1)*
X87216053Y-148590000D03*
G04 #@! TO.P,Y1,1*
G04 #@! TO.N,Net-(C2-Pad1)*
X85316053Y-148590000D03*
G04 #@! TD*
D28*
G04 #@! TO.P,U4,14*
G04 #@! TO.N,+5V*
X161290000Y-88900000D03*
G04 #@! TO.P,U4,7*
G04 #@! TO.N,GND*
X153670000Y-104140000D03*
G04 #@! TO.P,U4,13*
G04 #@! TO.N,N/C*
X161290000Y-91440000D03*
G04 #@! TO.P,U4,6*
G04 #@! TO.N,Net-(U11-Pad9)*
X153670000Y-101600000D03*
G04 #@! TO.P,U4,12*
G04 #@! TO.N,N/C*
X161290000Y-93980000D03*
G04 #@! TO.P,U4,5*
G04 #@! TO.N,Net-(U11-Pad3)*
X153670000Y-99060000D03*
G04 #@! TO.P,U4,11*
G04 #@! TO.N,Net-(U12-Pad6)*
X161290000Y-96520000D03*
G04 #@! TO.P,U4,4*
G04 #@! TO.N,N/C*
X153670000Y-96520000D03*
G04 #@! TO.P,U4,10*
G04 #@! TO.N,Net-(U16-Pad1)*
X161290000Y-99060000D03*
G04 #@! TO.P,U4,3*
G04 #@! TO.N,N/C*
X153670000Y-93980000D03*
G04 #@! TO.P,U4,9*
X161290000Y-101600000D03*
G04 #@! TO.P,U4,2*
G04 #@! TO.N,Net-(U4-Pad2)*
X153670000Y-91440000D03*
G04 #@! TO.P,U4,8*
G04 #@! TO.N,N/C*
X161290000Y-104140000D03*
D29*
G04 #@! TO.P,U4,1*
G04 #@! TO.N,Net-(U3-Pad6)*
X153670000Y-88900000D03*
G04 #@! TD*
D28*
G04 #@! TO.P,U12,14*
G04 #@! TO.N,PWR_ALW*
X185420000Y-77470000D03*
G04 #@! TO.P,U12,7*
G04 #@! TO.N,GND*
X177800000Y-92710000D03*
G04 #@! TO.P,U12,13*
G04 #@! TO.N,Net-(U12-Pad13)*
X185420000Y-80010000D03*
G04 #@! TO.P,U12,6*
G04 #@! TO.N,Net-(U12-Pad6)*
X177800000Y-90170000D03*
G04 #@! TO.P,U12,12*
G04 #@! TO.N,Net-(U12-Pad12)*
X185420000Y-82550000D03*
G04 #@! TO.P,U12,5*
G04 #@! TO.N,Net-(U12-Pad5)*
X177800000Y-87630000D03*
G04 #@! TO.P,U12,11*
G04 #@! TO.N,N/C*
X185420000Y-85090000D03*
G04 #@! TO.P,U12,4*
G04 #@! TO.N,Net-(U12-Pad4)*
X177800000Y-85090000D03*
G04 #@! TO.P,U12,10*
G04 #@! TO.N,Net-(U12-Pad10)*
X185420000Y-87630000D03*
G04 #@! TO.P,U12,3*
G04 #@! TO.N,N/C*
X177800000Y-82550000D03*
G04 #@! TO.P,U12,9*
G04 #@! TO.N,Net-(U12-Pad9)*
X185420000Y-90170000D03*
G04 #@! TO.P,U12,2*
G04 #@! TO.N,Net-(U11-Pad13)*
X177800000Y-80010000D03*
G04 #@! TO.P,U12,8*
G04 #@! TO.N,Net-(SW_TIMER1-Pad5)*
X185420000Y-92710000D03*
D29*
G04 #@! TO.P,U12,1*
G04 #@! TO.N,Net-(U11-Pad12)*
X177800000Y-77470000D03*
G04 #@! TD*
D28*
G04 #@! TO.P,U3,14*
G04 #@! TO.N,+5V*
X161290000Y-30480000D03*
G04 #@! TO.P,U3,7*
G04 #@! TO.N,GND*
X153670000Y-45720000D03*
G04 #@! TO.P,U3,13*
G04 #@! TO.N,N/C*
X161290000Y-33020000D03*
G04 #@! TO.P,U3,6*
G04 #@! TO.N,Net-(U3-Pad6)*
X153670000Y-43180000D03*
G04 #@! TO.P,U3,12*
G04 #@! TO.N,N/C*
X161290000Y-35560000D03*
G04 #@! TO.P,U3,5*
G04 #@! TO.N,/Mem.Comparison.Equal*
X153670000Y-40640000D03*
G04 #@! TO.P,U3,11*
G04 #@! TO.N,N/C*
X161290000Y-38100000D03*
G04 #@! TO.P,U3,4*
G04 #@! TO.N,/Timer.End*
X153670000Y-38100000D03*
G04 #@! TO.P,U3,10*
G04 #@! TO.N,N/C*
X161290000Y-40640000D03*
G04 #@! TO.P,U3,3*
G04 #@! TO.N,+5V*
X153670000Y-35560000D03*
G04 #@! TO.P,U3,9*
G04 #@! TO.N,N/C*
X161290000Y-43180000D03*
G04 #@! TO.P,U3,2*
G04 #@! TO.N,/Reset(Out)*
X153670000Y-33020000D03*
G04 #@! TO.P,U3,8*
G04 #@! TO.N,N/C*
X161290000Y-45720000D03*
D29*
G04 #@! TO.P,U3,1*
G04 #@! TO.N,/Next(Out)*
X153670000Y-30480000D03*
G04 #@! TD*
D28*
G04 #@! TO.P,U14,14*
G04 #@! TO.N,+5V*
X207010000Y-52070000D03*
G04 #@! TO.P,U14,7*
G04 #@! TO.N,GND*
X199390000Y-67310000D03*
G04 #@! TO.P,U14,13*
G04 #@! TO.N,Net-(R28-Pad2)*
X207010000Y-54610000D03*
G04 #@! TO.P,U14,6*
G04 #@! TO.N,Net-(U14-Pad6)*
X199390000Y-64770000D03*
G04 #@! TO.P,U14,12*
G04 #@! TO.N,Init*
X207010000Y-57150000D03*
G04 #@! TO.P,U14,5*
G04 #@! TO.N,Net-(U14-Pad5)*
X199390000Y-62230000D03*
G04 #@! TO.P,U14,11*
G04 #@! TO.N,Net-(U14-Pad11)*
X207010000Y-59690000D03*
G04 #@! TO.P,U14,4*
G04 #@! TO.N,Net-(U14-Pad4)*
X199390000Y-59690000D03*
G04 #@! TO.P,U14,10*
G04 #@! TO.N,Init*
X207010000Y-62230000D03*
G04 #@! TO.P,U14,3*
G04 #@! TO.N,/Timer.End*
X199390000Y-57150000D03*
G04 #@! TO.P,U14,9*
G04 #@! TO.N,Net-(U14-Pad9)*
X207010000Y-64770000D03*
G04 #@! TO.P,U14,2*
G04 #@! TO.N,Net-(U14-Pad2)*
X199390000Y-54610000D03*
G04 #@! TO.P,U14,8*
G04 #@! TO.N,/Reset(Out)*
X207010000Y-67310000D03*
D29*
G04 #@! TO.P,U14,1*
G04 #@! TO.N,Net-(U14-Pad1)*
X199390000Y-52070000D03*
G04 #@! TD*
D28*
G04 #@! TO.P,U19,14*
G04 #@! TO.N,+5V*
X233680000Y-78740000D03*
G04 #@! TO.P,U19,7*
G04 #@! TO.N,GND*
X226060000Y-93980000D03*
G04 #@! TO.P,U19,13*
G04 #@! TO.N,Net-(C13-Pad1)*
X233680000Y-81280000D03*
G04 #@! TO.P,U19,6*
G04 #@! TO.N,Net-(U10-Pad4)*
X226060000Y-91440000D03*
G04 #@! TO.P,U19,12*
G04 #@! TO.N,+5V*
X233680000Y-83820000D03*
G04 #@! TO.P,U19,5*
G04 #@! TO.N,Net-(U13-Pad8)*
X226060000Y-88900000D03*
G04 #@! TO.P,U19,11*
G04 #@! TO.N,Init*
X233680000Y-86360000D03*
G04 #@! TO.P,U19,4*
G04 #@! TO.N,Net-(U19-Pad4)*
X226060000Y-86360000D03*
G04 #@! TO.P,U19,10*
G04 #@! TO.N,Net-(U13-Pad11)*
X233680000Y-88900000D03*
G04 #@! TO.P,U19,3*
G04 #@! TO.N,Net-(U10-Pad3)*
X226060000Y-83820000D03*
G04 #@! TO.P,U19,9*
G04 #@! TO.N,Net-(U19-Pad9)*
X233680000Y-91440000D03*
G04 #@! TO.P,U19,2*
G04 #@! TO.N,Net-(U13-Pad9)*
X226060000Y-81280000D03*
G04 #@! TO.P,U19,8*
G04 #@! TO.N,Net-(U10-Pad5)*
X233680000Y-93980000D03*
D29*
G04 #@! TO.P,U19,1*
G04 #@! TO.N,Net-(U19-Pad1)*
X226060000Y-78740000D03*
G04 #@! TD*
D28*
G04 #@! TO.P,U15,14*
G04 #@! TO.N,+5V*
X205740000Y-24130000D03*
G04 #@! TO.P,U15,7*
G04 #@! TO.N,GND*
X198120000Y-39370000D03*
G04 #@! TO.P,U15,13*
G04 #@! TO.N,N/C*
X205740000Y-26670000D03*
G04 #@! TO.P,U15,6*
G04 #@! TO.N,/Comparison.Equal*
X198120000Y-36830000D03*
G04 #@! TO.P,U15,12*
G04 #@! TO.N,N/C*
X205740000Y-29210000D03*
G04 #@! TO.P,U15,5*
G04 #@! TO.N,Net-(U10-Pad6)*
X198120000Y-34290000D03*
G04 #@! TO.P,U15,11*
G04 #@! TO.N,N/C*
X205740000Y-31750000D03*
G04 #@! TO.P,U15,4*
G04 #@! TO.N,Net-(U15-Pad4)*
X198120000Y-31750000D03*
G04 #@! TO.P,U15,10*
G04 #@! TO.N,N/C*
X205740000Y-34290000D03*
G04 #@! TO.P,U15,3*
G04 #@! TO.N,Net-(U15-Pad3)*
X198120000Y-29210000D03*
G04 #@! TO.P,U15,9*
G04 #@! TO.N,N/C*
X205740000Y-36830000D03*
G04 #@! TO.P,U15,2*
G04 #@! TO.N,Net-(U15-Pad2)*
X198120000Y-26670000D03*
G04 #@! TO.P,U15,8*
G04 #@! TO.N,N/C*
X205740000Y-39370000D03*
D29*
G04 #@! TO.P,U15,1*
G04 #@! TO.N,/Reset(Out)*
X198120000Y-24130000D03*
G04 #@! TD*
D28*
G04 #@! TO.P,U16,14*
G04 #@! TO.N,+5V*
X185420000Y-52070000D03*
G04 #@! TO.P,U16,7*
G04 #@! TO.N,GND*
X177800000Y-67310000D03*
G04 #@! TO.P,U16,13*
G04 #@! TO.N,N/C*
X185420000Y-54610000D03*
G04 #@! TO.P,U16,6*
G04 #@! TO.N,Net-(U14-Pad2)*
X177800000Y-64770000D03*
G04 #@! TO.P,U16,12*
G04 #@! TO.N,N/C*
X185420000Y-57150000D03*
G04 #@! TO.P,U16,5*
G04 #@! TO.N,Net-(U14-Pad4)*
X177800000Y-62230000D03*
G04 #@! TO.P,U16,11*
G04 #@! TO.N,N/C*
X185420000Y-59690000D03*
G04 #@! TO.P,U16,4*
G04 #@! TO.N,Net-(U11-Pad11)*
X177800000Y-59690000D03*
G04 #@! TO.P,U16,10*
G04 #@! TO.N,N/C*
X185420000Y-62230000D03*
G04 #@! TO.P,U16,3*
G04 #@! TO.N,Net-(U14-Pad1)*
X177800000Y-57150000D03*
G04 #@! TO.P,U16,9*
G04 #@! TO.N,N/C*
X185420000Y-64770000D03*
G04 #@! TO.P,U16,2*
G04 #@! TO.N,Net-(U16-Pad2)*
X177800000Y-54610000D03*
G04 #@! TO.P,U16,8*
G04 #@! TO.N,N/C*
X185420000Y-67310000D03*
D29*
G04 #@! TO.P,U16,1*
G04 #@! TO.N,Net-(U16-Pad1)*
X177800000Y-52070000D03*
G04 #@! TD*
D28*
G04 #@! TO.P,U18,14*
G04 #@! TO.N,Net-(U18-Pad14)*
X207010000Y-109220000D03*
G04 #@! TO.P,U18,7*
G04 #@! TO.N,Net-(U18-Pad7)*
X199390000Y-124460000D03*
G04 #@! TO.P,U18,13*
G04 #@! TO.N,Net-(U18-Pad13)*
X207010000Y-111760000D03*
G04 #@! TO.P,U18,6*
G04 #@! TO.N,Net-(U18-Pad6)*
X199390000Y-121920000D03*
G04 #@! TO.P,U18,12*
G04 #@! TO.N,Net-(U18-Pad12)*
X207010000Y-114300000D03*
G04 #@! TO.P,U18,5*
G04 #@! TO.N,+5V*
X199390000Y-119380000D03*
G04 #@! TO.P,U18,11*
G04 #@! TO.N,Finished*
X207010000Y-116840000D03*
G04 #@! TO.P,U18,4*
G04 #@! TO.N,Net-(U18-Pad4)*
X199390000Y-116840000D03*
G04 #@! TO.P,U18,10*
G04 #@! TO.N,GND*
X207010000Y-119380000D03*
G04 #@! TO.P,U18,3*
G04 #@! TO.N,Net-(U18-Pad2)*
X199390000Y-114300000D03*
G04 #@! TO.P,U18,9*
G04 #@! TO.N,Net-(U18-Pad9)*
X207010000Y-121920000D03*
G04 #@! TO.P,U18,2*
G04 #@! TO.N,Net-(U18-Pad2)*
X199390000Y-111760000D03*
G04 #@! TO.P,U18,8*
G04 #@! TO.N,Net-(U18-Pad8)*
X207010000Y-124460000D03*
D29*
G04 #@! TO.P,U18,1*
G04 #@! TO.N,Net-(U14-Pad6)*
X199390000Y-109220000D03*
G04 #@! TD*
D28*
G04 #@! TO.P,U23,14*
G04 #@! TO.N,+5V*
X127000000Y-116840000D03*
G04 #@! TO.P,U23,7*
G04 #@! TO.N,GND*
X119380000Y-132080000D03*
G04 #@! TO.P,U23,13*
G04 #@! TO.N,N/C*
X127000000Y-119380000D03*
G04 #@! TO.P,U23,6*
G04 #@! TO.N,Net-(R20-Pad1)*
X119380000Y-129540000D03*
G04 #@! TO.P,U23,12*
G04 #@! TO.N,N/C*
X127000000Y-121920000D03*
G04 #@! TO.P,U23,5*
G04 #@! TO.N,Net-(U22-Pad5)*
X119380000Y-127000000D03*
G04 #@! TO.P,U23,11*
G04 #@! TO.N,N/C*
X127000000Y-124460000D03*
G04 #@! TO.P,U23,4*
G04 #@! TO.N,Net-(R19-Pad1)*
X119380000Y-124460000D03*
G04 #@! TO.P,U23,10*
G04 #@! TO.N,N/C*
X127000000Y-127000000D03*
G04 #@! TO.P,U23,3*
G04 #@! TO.N,Net-(U22-Pad6)*
X119380000Y-121920000D03*
G04 #@! TO.P,U23,9*
G04 #@! TO.N,Net-(U22-Pad4)*
X127000000Y-129540000D03*
G04 #@! TO.P,U23,2*
G04 #@! TO.N,Net-(R18-Pad1)*
X119380000Y-119380000D03*
G04 #@! TO.P,U23,8*
G04 #@! TO.N,Net-(R21-Pad1)*
X127000000Y-132080000D03*
D29*
G04 #@! TO.P,U23,1*
G04 #@! TO.N,Net-(U22-Pad7)*
X119380000Y-116840000D03*
G04 #@! TD*
D28*
G04 #@! TO.P,U5,14*
G04 #@! TO.N,+5V*
X221615000Y-52070000D03*
G04 #@! TO.P,U5,7*
G04 #@! TO.N,GND*
X213995000Y-67310000D03*
G04 #@! TO.P,U5,13*
G04 #@! TO.N,Net-(U15-Pad2)*
X221615000Y-54610000D03*
G04 #@! TO.P,U5,6*
G04 #@! TO.N,Net-(U5-Pad6)*
X213995000Y-64770000D03*
G04 #@! TO.P,U5,12*
G04 #@! TO.N,/Next(Out)*
X221615000Y-57150000D03*
G04 #@! TO.P,U5,5*
G04 #@! TO.N,Net-(R16-Pad1)*
X213995000Y-62230000D03*
G04 #@! TO.P,U5,11*
G04 #@! TO.N,Net-(U5-Pad10)*
X221615000Y-59690000D03*
G04 #@! TO.P,U5,4*
G04 #@! TO.N,Net-(U5-Pad3)*
X213995000Y-59690000D03*
G04 #@! TO.P,U5,10*
G04 #@! TO.N,Net-(U5-Pad10)*
X221615000Y-62230000D03*
G04 #@! TO.P,U5,3*
G04 #@! TO.N,Net-(U5-Pad3)*
X213995000Y-57150000D03*
G04 #@! TO.P,U5,9*
G04 #@! TO.N,Net-(U5-Pad10)*
X221615000Y-64770000D03*
G04 #@! TO.P,U5,2*
G04 #@! TO.N,Net-(R28-Pad2)*
X213995000Y-54610000D03*
G04 #@! TO.P,U5,8*
G04 #@! TO.N,Net-(U14-Pad5)*
X221615000Y-67310000D03*
D29*
G04 #@! TO.P,U5,1*
G04 #@! TO.N,Net-(R28-Pad2)*
X213995000Y-52070000D03*
G04 #@! TD*
D28*
G04 #@! TO.P,U6,14*
G04 #@! TO.N,+5V*
X207010000Y-78740000D03*
G04 #@! TO.P,U6,7*
G04 #@! TO.N,GND*
X199390000Y-93980000D03*
G04 #@! TO.P,U6,13*
G04 #@! TO.N,Net-(U15-Pad3)*
X207010000Y-81280000D03*
G04 #@! TO.P,U6,6*
X199390000Y-91440000D03*
G04 #@! TO.P,U6,12*
G04 #@! TO.N,Net-(U11-Pad8)*
X207010000Y-83820000D03*
G04 #@! TO.P,U6,5*
G04 #@! TO.N,/Reset(Out)*
X199390000Y-88900000D03*
G04 #@! TO.P,U6,11*
G04 #@! TO.N,Net-(U13-Pad2)*
X207010000Y-86360000D03*
G04 #@! TO.P,U6,4*
G04 #@! TO.N,/Next(Out)*
X199390000Y-86360000D03*
G04 #@! TO.P,U6,10*
G04 #@! TO.N,Init*
X207010000Y-88900000D03*
G04 #@! TO.P,U6,3*
G04 #@! TO.N,N/C*
X199390000Y-83820000D03*
G04 #@! TO.P,U6,9*
G04 #@! TO.N,Finished*
X207010000Y-91440000D03*
G04 #@! TO.P,U6,2*
G04 #@! TO.N,N/C*
X199390000Y-81280000D03*
G04 #@! TO.P,U6,8*
G04 #@! TO.N,/Completed(In)*
X207010000Y-93980000D03*
D29*
G04 #@! TO.P,U6,1*
G04 #@! TO.N,N/C*
X199390000Y-78740000D03*
G04 #@! TD*
D28*
G04 #@! TO.P,U10,14*
G04 #@! TO.N,+5V*
X222250000Y-24765000D03*
G04 #@! TO.P,U10,7*
G04 #@! TO.N,GND*
X214630000Y-40005000D03*
G04 #@! TO.P,U10,13*
G04 #@! TO.N,N/C*
X222250000Y-27305000D03*
G04 #@! TO.P,U10,6*
G04 #@! TO.N,Net-(U10-Pad6)*
X214630000Y-37465000D03*
G04 #@! TO.P,U10,12*
G04 #@! TO.N,N/C*
X222250000Y-29845000D03*
G04 #@! TO.P,U10,5*
G04 #@! TO.N,Net-(U10-Pad5)*
X214630000Y-34925000D03*
G04 #@! TO.P,U10,11*
G04 #@! TO.N,N/C*
X222250000Y-32385000D03*
G04 #@! TO.P,U10,4*
G04 #@! TO.N,Net-(U10-Pad4)*
X214630000Y-32385000D03*
G04 #@! TO.P,U10,10*
G04 #@! TO.N,N/C*
X222250000Y-34925000D03*
G04 #@! TO.P,U10,3*
G04 #@! TO.N,Net-(U10-Pad3)*
X214630000Y-29845000D03*
G04 #@! TO.P,U10,9*
G04 #@! TO.N,N/C*
X222250000Y-37465000D03*
G04 #@! TO.P,U10,2*
X214630000Y-27305000D03*
G04 #@! TO.P,U10,8*
X222250000Y-40005000D03*
D29*
G04 #@! TO.P,U10,1*
X214630000Y-24765000D03*
G04 #@! TD*
D28*
G04 #@! TO.P,U11,14*
G04 #@! TO.N,+5V*
X66040000Y-55880000D03*
G04 #@! TO.P,U11,7*
G04 #@! TO.N,GND*
X58420000Y-71120000D03*
G04 #@! TO.P,U11,13*
G04 #@! TO.N,Net-(U11-Pad13)*
X66040000Y-58420000D03*
G04 #@! TO.P,U11,6*
G04 #@! TO.N,Net-(U11-Pad6)*
X58420000Y-68580000D03*
G04 #@! TO.P,U11,12*
G04 #@! TO.N,Net-(U11-Pad12)*
X66040000Y-60960000D03*
G04 #@! TO.P,U11,5*
G04 #@! TO.N,/Running(Out)*
X58420000Y-66040000D03*
G04 #@! TO.P,U11,11*
G04 #@! TO.N,Net-(U11-Pad11)*
X66040000Y-63500000D03*
G04 #@! TO.P,U11,4*
G04 #@! TO.N,CLK_MIN*
X58420000Y-63500000D03*
G04 #@! TO.P,U11,10*
G04 #@! TO.N,/Mem.Comparison.Equal*
X66040000Y-66040000D03*
G04 #@! TO.P,U11,3*
G04 #@! TO.N,Net-(U11-Pad3)*
X58420000Y-60960000D03*
G04 #@! TO.P,U11,9*
G04 #@! TO.N,Net-(U11-Pad9)*
X66040000Y-68580000D03*
G04 #@! TO.P,U11,2*
G04 #@! TO.N,/Running(Out)*
X58420000Y-58420000D03*
G04 #@! TO.P,U11,8*
G04 #@! TO.N,Net-(U11-Pad8)*
X66040000Y-71120000D03*
D29*
G04 #@! TO.P,U11,1*
G04 #@! TO.N,Net-(U1-Pad11)*
X58420000Y-55880000D03*
G04 #@! TD*
D28*
G04 #@! TO.P,U13,14*
G04 #@! TO.N,Net-(U13-Pad14)*
X221615000Y-78740000D03*
G04 #@! TO.P,U13,7*
G04 #@! TO.N,Net-(U13-Pad7)*
X213995000Y-93980000D03*
G04 #@! TO.P,U13,13*
G04 #@! TO.N,Net-(U13-Pad13)*
X221615000Y-81280000D03*
G04 #@! TO.P,U13,6*
G04 #@! TO.N,Net-(U13-Pad6)*
X213995000Y-91440000D03*
G04 #@! TO.P,U13,12*
G04 #@! TO.N,Net-(U13-Pad12)*
X221615000Y-83820000D03*
G04 #@! TO.P,U13,5*
G04 #@! TO.N,+5V*
X213995000Y-88900000D03*
G04 #@! TO.P,U13,11*
G04 #@! TO.N,Net-(U13-Pad11)*
X221615000Y-86360000D03*
G04 #@! TO.P,U13,4*
G04 #@! TO.N,Net-(U13-Pad4)*
X213995000Y-86360000D03*
G04 #@! TO.P,U13,10*
G04 #@! TO.N,GND*
X221615000Y-88900000D03*
G04 #@! TO.P,U13,3*
G04 #@! TO.N,Net-(U13-Pad2)*
X213995000Y-83820000D03*
G04 #@! TO.P,U13,9*
G04 #@! TO.N,Net-(U13-Pad9)*
X221615000Y-91440000D03*
G04 #@! TO.P,U13,2*
G04 #@! TO.N,Net-(U13-Pad2)*
X213995000Y-81280000D03*
G04 #@! TO.P,U13,8*
G04 #@! TO.N,Net-(U13-Pad8)*
X221615000Y-93980000D03*
D29*
G04 #@! TO.P,U13,1*
G04 #@! TO.N,/Timer.End*
X213995000Y-78740000D03*
G04 #@! TD*
D28*
G04 #@! TO.P,U24,16*
G04 #@! TO.N,+5V*
X161290000Y-114300000D03*
G04 #@! TO.P,U24,8*
G04 #@! TO.N,GND*
X153670000Y-132080000D03*
G04 #@! TO.P,U24,15*
X161290000Y-116840000D03*
G04 #@! TO.P,U24,7*
G04 #@! TO.N,Net-(D_LED_LINE3-Pad1)*
X153670000Y-129540000D03*
G04 #@! TO.P,U24,14*
G04 #@! TO.N,Net-(U24-Pad14)*
X161290000Y-119380000D03*
G04 #@! TO.P,U24,6*
G04 #@! TO.N,Net-(U22-Pad5)*
X153670000Y-127000000D03*
G04 #@! TO.P,U24,13*
G04 #@! TO.N,Net-(U24-Pad13)*
X161290000Y-121920000D03*
G04 #@! TO.P,U24,5*
G04 #@! TO.N,Net-(D_LED_LINE2-Pad1)*
X153670000Y-124460000D03*
G04 #@! TO.P,U24,12*
G04 #@! TO.N,Finished*
X161290000Y-124460000D03*
G04 #@! TO.P,U24,4*
G04 #@! TO.N,Net-(U22-Pad6)*
X153670000Y-121920000D03*
G04 #@! TO.P,U24,11*
G04 #@! TO.N,Net-(CONN_OUT_FINISHED1-Pad1)*
X161290000Y-127000000D03*
G04 #@! TO.P,U24,3*
G04 #@! TO.N,Net-(D_LED_LINE1-Pad1)*
X153670000Y-119380000D03*
G04 #@! TO.P,U24,10*
G04 #@! TO.N,Net-(U22-Pad4)*
X161290000Y-129540000D03*
G04 #@! TO.P,U24,2*
G04 #@! TO.N,Net-(U22-Pad7)*
X153670000Y-116840000D03*
G04 #@! TO.P,U24,9*
G04 #@! TO.N,Net-(D_LED_LINE4-Pad1)*
X161290000Y-132080000D03*
D29*
G04 #@! TO.P,U24,1*
G04 #@! TO.N,GND*
X153670000Y-114300000D03*
G04 #@! TD*
D28*
G04 #@! TO.P,U21,16*
G04 #@! TO.N,+5V*
X222885000Y-107950000D03*
G04 #@! TO.P,U21,8*
G04 #@! TO.N,GND*
X215265000Y-125730000D03*
G04 #@! TO.P,U21,15*
G04 #@! TO.N,Net-(D4-Pad1)*
X222885000Y-110490000D03*
G04 #@! TO.P,U21,7*
G04 #@! TO.N,Net-(D5-Pad1)*
X215265000Y-123190000D03*
G04 #@! TO.P,U21,14*
G04 #@! TO.N,Net-(D8-Pad1)*
X222885000Y-113030000D03*
G04 #@! TO.P,U21,6*
G04 #@! TO.N,/Running(Out)*
X215265000Y-120650000D03*
G04 #@! TO.P,U21,13*
G04 #@! TO.N,Net-(D3-Pad1)*
X222885000Y-115570000D03*
G04 #@! TO.P,U21,5*
G04 #@! TO.N,GND*
X215265000Y-118110000D03*
G04 #@! TO.P,U21,12*
G04 #@! TO.N,Net-(D7-Pad1)*
X222885000Y-118110000D03*
G04 #@! TO.P,U21,4*
G04 #@! TO.N,GND*
X215265000Y-115570000D03*
G04 #@! TO.P,U21,11*
G04 #@! TO.N,Net-(D2-Pad1)*
X222885000Y-120650000D03*
G04 #@! TO.P,U21,3*
G04 #@! TO.N,Net-(U18-Pad8)*
X215265000Y-113030000D03*
G04 #@! TO.P,U21,10*
G04 #@! TO.N,Net-(D6-Pad1)*
X222885000Y-123190000D03*
G04 #@! TO.P,U21,2*
G04 #@! TO.N,Net-(U18-Pad9)*
X215265000Y-110490000D03*
G04 #@! TO.P,U21,9*
G04 #@! TO.N,Net-(D1-Pad1)*
X222885000Y-125730000D03*
D29*
G04 #@! TO.P,U21,1*
G04 #@! TO.N,Net-(U14-Pad4)*
X215265000Y-107950000D03*
G04 #@! TD*
D30*
G04 #@! TO.P,U20,16*
G04 #@! TO.N,+5V*
X231775000Y-146685000D03*
G04 #@! TO.P,U20,8*
G04 #@! TO.N,GND*
X213995000Y-139065000D03*
G04 #@! TO.P,U20,15*
G04 #@! TO.N,Net-(U20-Pad15)*
X229235000Y-146685000D03*
G04 #@! TO.P,U20,7*
G04 #@! TO.N,Net-(U19-Pad4)*
X216535000Y-139065000D03*
G04 #@! TO.P,U20,14*
G04 #@! TO.N,Net-(U20-Pad14)*
X226695000Y-146685000D03*
G04 #@! TO.P,U20,6*
G04 #@! TO.N,Net-(U19-Pad9)*
X219075000Y-139065000D03*
G04 #@! TO.P,U20,13*
G04 #@! TO.N,/D3*
X224155000Y-146685000D03*
G04 #@! TO.P,U20,5*
G04 #@! TO.N,/RunningInv(out)*
X221615000Y-139065000D03*
G04 #@! TO.P,U20,12*
G04 #@! TO.N,/D2*
X221615000Y-146685000D03*
G04 #@! TO.P,U20,4*
G04 #@! TO.N,+5V*
X224155000Y-139065000D03*
G04 #@! TO.P,U20,11*
G04 #@! TO.N,/D1*
X219075000Y-146685000D03*
G04 #@! TO.P,U20,3*
G04 #@! TO.N,+5V*
X226695000Y-139065000D03*
G04 #@! TO.P,U20,10*
G04 #@! TO.N,/D0*
X216535000Y-146685000D03*
G04 #@! TO.P,U20,2*
G04 #@! TO.N,+5V*
X229235000Y-139065000D03*
G04 #@! TO.P,U20,9*
G04 #@! TO.N,Net-(U19-Pad1)*
X213995000Y-146685000D03*
D31*
G04 #@! TO.P,U20,1*
G04 #@! TO.N,/D4*
X231775000Y-139065000D03*
G04 #@! TD*
D28*
G04 #@! TO.P,U2,16*
G04 #@! TO.N,+5V*
X87630000Y-122555000D03*
G04 #@! TO.P,U2,8*
G04 #@! TO.N,GND*
X80010000Y-140335000D03*
G04 #@! TO.P,U2,15*
X87630000Y-125095000D03*
G04 #@! TO.P,U2,7*
G04 #@! TO.N,/Mode(In)*
X80010000Y-137795000D03*
G04 #@! TO.P,U2,14*
G04 #@! TO.N,/Running(Out)*
X87630000Y-127635000D03*
G04 #@! TO.P,U2,6*
G04 #@! TO.N,/Mode(Ext.)*
X80010000Y-135255000D03*
G04 #@! TO.P,U2,13*
G04 #@! TO.N,/Running(Led)*
X87630000Y-130175000D03*
G04 #@! TO.P,U2,5*
G04 #@! TO.N,/Control(In2)*
X80010000Y-132715000D03*
G04 #@! TO.P,U2,12*
G04 #@! TO.N,/Rain(In)*
X87630000Y-132715000D03*
G04 #@! TO.P,U2,4*
G04 #@! TO.N,/Control(Ext.2)*
X80010000Y-130175000D03*
G04 #@! TO.P,U2,11*
G04 #@! TO.N,/Rain(Led)*
X87630000Y-135255000D03*
G04 #@! TO.P,U2,3*
G04 #@! TO.N,/Control(In1)*
X80010000Y-127635000D03*
G04 #@! TO.P,U2,10*
G04 #@! TO.N,/Rain_Sensor(Ext.)*
X87630000Y-137795000D03*
G04 #@! TO.P,U2,2*
G04 #@! TO.N,/Control(Ext.)*
X80010000Y-125095000D03*
G04 #@! TO.P,U2,9*
G04 #@! TO.N,/Rain(In)*
X87630000Y-140335000D03*
D29*
G04 #@! TO.P,U2,1*
G04 #@! TO.N,GND*
X80010000Y-122555000D03*
G04 #@! TD*
D28*
G04 #@! TO.P,U17,16*
G04 #@! TO.N,PWR_ALW*
X185420000Y-21590000D03*
G04 #@! TO.P,U17,8*
G04 #@! TO.N,GND*
X177800000Y-39370000D03*
G04 #@! TO.P,U17,15*
G04 #@! TO.N,Net-(U17-Pad15)*
X185420000Y-24130000D03*
G04 #@! TO.P,U17,7*
G04 #@! TO.N,Net-(U17-Pad7)*
X177800000Y-36830000D03*
G04 #@! TO.P,U17,14*
G04 #@! TO.N,Net-(U17-Pad14)*
X185420000Y-26670000D03*
G04 #@! TO.P,U17,6*
G04 #@! TO.N,/Mem.Comparison.Equal*
X177800000Y-34290000D03*
G04 #@! TO.P,U17,13*
G04 #@! TO.N,Net-(U17-Pad13)*
X185420000Y-29210000D03*
G04 #@! TO.P,U17,5*
G04 #@! TO.N,+5V*
X177800000Y-31750000D03*
G04 #@! TO.P,U17,12*
G04 #@! TO.N,Net-(U17-Pad12)*
X185420000Y-31750000D03*
G04 #@! TO.P,U17,4*
G04 #@! TO.N,Net-(U11-Pad3)*
X177800000Y-29210000D03*
G04 #@! TO.P,U17,11*
G04 #@! TO.N,Net-(U17-Pad11)*
X185420000Y-34290000D03*
G04 #@! TO.P,U17,3*
G04 #@! TO.N,/Comparison.Equal*
X177800000Y-26670000D03*
G04 #@! TO.P,U17,10*
G04 #@! TO.N,Net-(U17-Pad10)*
X185420000Y-36830000D03*
G04 #@! TO.P,U17,2*
G04 #@! TO.N,/Comparison.Equal*
X177800000Y-24130000D03*
G04 #@! TO.P,U17,9*
G04 #@! TO.N,Net-(U17-Pad9)*
X185420000Y-39370000D03*
D29*
G04 #@! TO.P,U17,1*
G04 #@! TO.N,Net-(U15-Pad4)*
X177800000Y-21590000D03*
G04 #@! TD*
D28*
G04 #@! TO.P,U1,16*
G04 #@! TO.N,PWR_ALW*
X67310000Y-149860000D03*
G04 #@! TO.P,U1,8*
G04 #@! TO.N,GND*
X59690000Y-167640000D03*
G04 #@! TO.P,U1,15*
G04 #@! TO.N,Net-(U1-Pad15)*
X67310000Y-152400000D03*
G04 #@! TO.P,U1,7*
G04 #@! TO.N,Net-(U1-Pad4)*
X59690000Y-165100000D03*
G04 #@! TO.P,U1,14*
G04 #@! TO.N,Net-(U1-Pad14)*
X67310000Y-154940000D03*
G04 #@! TO.P,U1,6*
G04 #@! TO.N,CLK_SEC*
X59690000Y-162560000D03*
G04 #@! TO.P,U1,13*
G04 #@! TO.N,Net-(R6-Pad1)*
X67310000Y-157480000D03*
G04 #@! TO.P,U1,5*
G04 #@! TO.N,GND*
X59690000Y-160020000D03*
G04 #@! TO.P,U1,12*
G04 #@! TO.N,Net-(C2-Pad1)*
X67310000Y-160020000D03*
G04 #@! TO.P,U1,4*
G04 #@! TO.N,Net-(U1-Pad4)*
X59690000Y-157480000D03*
G04 #@! TO.P,U1,11*
G04 #@! TO.N,Net-(U1-Pad11)*
X67310000Y-162560000D03*
G04 #@! TO.P,U1,3*
G04 #@! TO.N,Net-(U1-Pad3)*
X59690000Y-154940000D03*
G04 #@! TO.P,U1,10*
G04 #@! TO.N,CLK_MIN*
X67310000Y-165100000D03*
G04 #@! TO.P,U1,2*
G04 #@! TO.N,Net-(U1-Pad2)*
X59690000Y-152400000D03*
G04 #@! TO.P,U1,9*
G04 #@! TO.N,GND*
X67310000Y-167640000D03*
D29*
G04 #@! TO.P,U1,1*
G04 #@! TO.N,Net-(U1-Pad1)*
X59690000Y-149860000D03*
G04 #@! TD*
D28*
G04 #@! TO.P,U22,16*
G04 #@! TO.N,+5V*
X185420000Y-114300000D03*
G04 #@! TO.P,U22,8*
G04 #@! TO.N,GND*
X177800000Y-132080000D03*
G04 #@! TO.P,U22,15*
G04 #@! TO.N,Net-(U22-Pad15)*
X185420000Y-116840000D03*
G04 #@! TO.P,U22,7*
G04 #@! TO.N,Net-(U22-Pad7)*
X177800000Y-129540000D03*
G04 #@! TO.P,U22,14*
G04 #@! TO.N,Net-(U22-Pad14)*
X185420000Y-119380000D03*
G04 #@! TO.P,U22,6*
G04 #@! TO.N,Net-(U22-Pad6)*
X177800000Y-127000000D03*
G04 #@! TO.P,U22,13*
G04 #@! TO.N,Net-(U18-Pad9)*
X185420000Y-121920000D03*
G04 #@! TO.P,U22,5*
G04 #@! TO.N,Net-(U22-Pad5)*
X177800000Y-124460000D03*
G04 #@! TO.P,U22,12*
G04 #@! TO.N,Net-(U22-Pad12)*
X185420000Y-124460000D03*
G04 #@! TO.P,U22,4*
G04 #@! TO.N,Net-(U22-Pad4)*
X177800000Y-121920000D03*
G04 #@! TO.P,U22,11*
G04 #@! TO.N,Net-(U22-Pad11)*
X185420000Y-127000000D03*
G04 #@! TO.P,U22,3*
G04 #@! TO.N,Net-(U18-Pad8)*
X177800000Y-119380000D03*
G04 #@! TO.P,U22,10*
G04 #@! TO.N,Net-(U22-Pad10)*
X185420000Y-129540000D03*
G04 #@! TO.P,U22,2*
G04 #@! TO.N,GND*
X177800000Y-116840000D03*
G04 #@! TO.P,U22,9*
G04 #@! TO.N,Net-(U22-Pad9)*
X185420000Y-132080000D03*
D29*
G04 #@! TO.P,U22,1*
G04 #@! TO.N,/Running(Out)*
X177800000Y-114300000D03*
G04 #@! TD*
D45*
G04 #@! TO.N,GND*
X107315000Y-76200000D03*
X108585000Y-82550000D03*
X113665000Y-99060000D03*
X85725000Y-44450000D03*
X85725000Y-48260000D03*
X60960000Y-37719999D03*
X191770000Y-106680000D03*
X209550000Y-115570000D03*
X178435000Y-136525000D03*
X162560000Y-138430000D03*
X69215000Y-145415000D03*
X64770000Y-145415000D03*
X223012000Y-70612000D03*
X228600000Y-70104000D03*
X106005000Y-104140000D03*
X74676000Y-130175000D03*
X73025000Y-118999000D03*
X100076000Y-8636000D03*
X74676000Y-6096000D03*
X83312000Y1016000D03*
X97028000Y1016000D03*
X113284000Y1016000D03*
X116332000Y1016000D03*
X147828000Y1016000D03*
X151384000Y1016000D03*
X157988000Y1016000D03*
X175768000Y1016000D03*
X181864000Y1016000D03*
X184404000Y7620000D03*
G04 #@! TO.N,+5V*
X128905000Y-110490000D03*
X57785000Y-36195000D03*
X55880000Y-34290000D03*
X211455000Y-105410000D03*
X209550000Y-105410000D03*
X70485000Y-156845000D03*
X229108000Y-142240000D03*
X55372000Y-17145000D03*
X97536000Y-136652000D03*
X84328000Y2032000D03*
X96012000Y2032000D03*
X111760000Y2032000D03*
X116840000Y2032000D03*
X146812000Y2032000D03*
X151892000Y2032000D03*
X156972000Y2032000D03*
X174752000Y2032000D03*
X207010000Y-45720000D03*
G04 #@! TO.N,/Running(Out)*
X60325000Y-90170000D03*
X62865000Y-90170000D03*
X102235000Y-78740000D03*
X135255000Y-110490000D03*
X132715000Y-90170000D03*
X102235000Y-83820000D03*
X99695000Y-59690000D03*
X98425000Y-74930000D03*
X209550000Y-120650000D03*
X200025000Y-130175000D03*
X85090000Y-123825000D03*
X86360000Y-120015000D03*
X91440000Y-113665000D03*
G04 #@! TO.N,Net-(U18-Pad8)*
X181610000Y-119380000D03*
X211455000Y-124460000D03*
X196850000Y-132715000D03*
G04 #@! TO.N,Net-(U22-Pad4)*
X147320000Y-134620000D03*
G04 #@! TO.N,Net-(U22-Pad5)*
X146050000Y-127000000D03*
G04 #@! TO.N,Net-(U18-Pad9)*
X203835000Y-117475000D03*
X195249980Y-126669980D03*
G04 #@! TO.N,Net-(U22-Pad6)*
X147320000Y-121920000D03*
X172720000Y-127000000D03*
X172720000Y-127000000D03*
X172720000Y-127000000D03*
G04 #@! TO.N,Net-(U22-Pad7)*
X173990000Y-111760000D03*
G04 #@! TO.N,Net-(U1-Pad11)*
X55880000Y-61595000D03*
X55880000Y-64770000D03*
X55880000Y-69215000D03*
X59055000Y-88900000D03*
X59055000Y-92710000D03*
X59055000Y-96520000D03*
G04 #@! TO.N,Net-(U11-Pad8)*
X194310000Y-66040000D03*
X194310000Y-72390000D03*
X198882000Y-72390000D03*
X146050000Y-45085000D03*
X130810000Y-51435000D03*
X193040000Y-44450000D03*
G04 #@! TO.N,Net-(U15-Pad4)*
X118745000Y-50165000D03*
X132080000Y-50165000D03*
X139700000Y-44450000D03*
X139700000Y-36195000D03*
X151130000Y-36195000D03*
X151130000Y-31750000D03*
X165100000Y-20320000D03*
X173355000Y-19050000D03*
X177800000Y-19050000D03*
X177800000Y-19050000D03*
G04 #@! TO.N,Net-(U11-Pad3)*
X126365000Y-44450000D03*
X133350000Y-74930000D03*
X139700000Y-99060000D03*
X126365000Y-29210000D03*
G04 #@! TO.N,Net-(U19-Pad1)*
X229616000Y-102870000D03*
X230632000Y-100584000D03*
G04 #@! TO.N,/RunningInv(out)*
X135255000Y-92710000D03*
X144780000Y-139700000D03*
X144780000Y-156210000D03*
X144780000Y-161290000D03*
X233680000Y-156972000D03*
X224576616Y-134112000D03*
X228092000Y-134112000D03*
X150368000Y-161290000D03*
X236220000Y-175260000D03*
G04 #@! TO.N,Net-(U16-Pad2)*
X148590000Y-54610000D03*
X140970000Y-54610000D03*
X132080000Y-54610000D03*
X146050000Y-54610000D03*
G04 #@! TO.N,Net-(D5-Pad1)*
X190500000Y-129540000D03*
X190500000Y-134620000D03*
G04 #@! TO.N,Net-(U11-Pad12)*
X135890000Y-58420000D03*
X142240000Y-58420000D03*
G04 #@! TO.N,Net-(U12-Pad4)*
X161290000Y-78740000D03*
X161290000Y-83820000D03*
G04 #@! TO.N,Net-(U11-Pad13)*
X137160000Y-71120000D03*
X142240000Y-71120000D03*
G04 #@! TO.N,Net-(U12-Pad5)*
X173990000Y-77470000D03*
G04 #@! TO.N,Net-(U11-Pad6)*
X142240000Y-31750000D03*
X142240000Y-43180000D03*
X143510000Y-46990000D03*
X142240000Y-29210000D03*
G04 #@! TO.N,Net-(U11-Pad9)*
X122555000Y-40640000D03*
X134620000Y-74930000D03*
X140970000Y-101600000D03*
G04 #@! TO.N,Net-(U11-Pad11)*
X168910000Y-30480000D03*
X130175000Y-34290000D03*
X130175000Y-27940000D03*
X168910000Y-22860000D03*
X172720000Y-45720000D03*
G04 #@! TO.N,Net-(U10-Pad4)*
X223520000Y-68580000D03*
G04 #@! TO.N,Net-(U10-Pad3)*
X228600000Y-74676000D03*
G04 #@! TO.N,/Completed(In)*
X73025000Y-109220000D03*
G04 #@! TO.N,/Reset(Out)*
X193040000Y-16510000D03*
X163830000Y-16510000D03*
X194310000Y-38100000D03*
X196850000Y-48260000D03*
X196850000Y-55880000D03*
X195580000Y-58420000D03*
X195580000Y-66040000D03*
X195580000Y-71120000D03*
X132715000Y-39370000D03*
X104140000Y-37465000D03*
X96520000Y-59690000D03*
X96520000Y-57150000D03*
G04 #@! TO.N,/Next(Out)*
X195580000Y-93980000D03*
X195580000Y-90170000D03*
X195580000Y-107950000D03*
X142240000Y-107950000D03*
X195580000Y-100330000D03*
X142240000Y-90805000D03*
X208280000Y-71120000D03*
G04 #@! TO.N,Net-(U15-Pad2)*
X201930000Y-46990000D03*
G04 #@! TO.N,Net-(U14-Pad6)*
X194310000Y-106680000D03*
G04 #@! TO.N,Net-(U16-Pad1)*
X167640000Y-52070000D03*
X167640000Y-99060000D03*
G04 #@! TO.N,Net-(D3-Pad2)*
X240284000Y-155956000D03*
X159512000Y-3048000D03*
X128016000Y-3048000D03*
G04 #@! TO.N,Net-(D1-Pad2)*
X238252000Y-151892000D03*
X230632000Y-151892000D03*
G04 #@! TO.N,Net-(D2-Pad2)*
X237236000Y-149860000D03*
X230632000Y-149860000D03*
G04 #@! TO.N,Net-(D4-Pad2)*
X239268000Y-153924000D03*
X159512000Y-5080000D03*
X103124000Y-5080000D03*
G04 #@! TO.N,Net-(D5-Pad2)*
X229616000Y-152908000D03*
X224536000Y-4064000D03*
X158496000Y-4064000D03*
X154940000Y-4064000D03*
G04 #@! TO.N,Net-(D6-Pad2)*
X229616000Y-150876000D03*
X224536000Y-6096000D03*
X131064000Y-6096000D03*
X158496000Y-6096000D03*
G04 #@! TO.N,Net-(D7-Pad2)*
X229616000Y-148844000D03*
X224028000Y-8128000D03*
X131064000Y-8128000D03*
X144272000Y-8128000D03*
G04 #@! TO.N,Net-(D8-Pad2)*
X224536000Y-2032000D03*
X77724000Y-2032000D03*
X157480000Y-2032000D03*
G04 #@! TO.N,/D4*
X229616000Y-133096000D03*
X223520000Y-133604000D03*
X221488000Y-17272000D03*
X221488000Y-13716000D03*
X221488000Y-11176000D03*
X101092000Y5080000D03*
X101092000Y-3556000D03*
X129032000Y-4064000D03*
X152908000Y-4064000D03*
G04 #@! TO.N,/D0*
X208280000Y-133604000D03*
X218948000Y-133604000D03*
X214376000Y-17272000D03*
X214376000Y-13716000D03*
X214376000Y-11176000D03*
X160528000Y-9144000D03*
G04 #@! TO.N,/D1*
X211328000Y-134112000D03*
X215392000Y-134112000D03*
X215900000Y-17272000D03*
X215900000Y-13716000D03*
X215900000Y-11176000D03*
X150368000Y6604000D03*
X155448000Y6604000D03*
G04 #@! TO.N,/D2*
X212852000Y-135128000D03*
X216408000Y-135128000D03*
X217980021Y-17272000D03*
X217980021Y-13764021D03*
X217980021Y-11224021D03*
X150368000Y4064000D03*
X158496000Y-1016000D03*
X140208000Y-1016000D03*
G04 #@! TO.N,/D3*
X211836000Y-136144000D03*
X215392000Y-136144000D03*
X219964000Y-17272000D03*
X219964000Y-13716000D03*
X219964000Y-11176000D03*
X103124000Y6604000D03*
X105664000Y6604000D03*
X117856000Y-6096000D03*
X136652000Y-7620000D03*
G04 #@! TO.N,Net-(U31-Pad10)*
X93345000Y-64770000D03*
X98425000Y-64770000D03*
G04 #@! TO.N,Net-(U32-Pad2)*
X114935000Y-90170000D03*
X114935000Y-82550000D03*
X114935000Y-82550000D03*
G04 #@! TO.N,Net-(U32-Pad4)*
X112395000Y-92710000D03*
X112395000Y-82550000D03*
X112395000Y-82550000D03*
G04 #@! TO.N,Net-(U31-Pad8)*
X109855000Y-66040000D03*
G04 #@! TO.N,Net-(U31-Pad1)*
X79375000Y-60960000D03*
X84455000Y-62230000D03*
X106045000Y-81280000D03*
X106045000Y-87630000D03*
X70485000Y-95250000D03*
X65405000Y-88265000D03*
X65405000Y-84455000D03*
X79375000Y-60960000D03*
X106045000Y-87630000D03*
X84455000Y-62230000D03*
X84455000Y-62230000D03*
G04 #@! TO.N,/Control(Ext.2)*
X59055000Y-19685000D03*
X55245000Y-113665000D03*
X61595000Y-118745000D03*
X64135000Y-118745000D03*
G04 #@! TO.N,/Running(Led)*
X109728000Y-160528000D03*
X97525980Y-139700000D03*
X97536000Y-160528000D03*
X97536000Y-152908000D03*
X97536000Y-149352000D03*
G04 #@! TO.N,/Rain(Led)*
X96062002Y-140716000D03*
X96062002Y-150317998D03*
X96062002Y-154940000D03*
X96062002Y-157480000D03*
G04 #@! TO.N,/Control(Ext.)*
X89535000Y-120015000D03*
X90424000Y-136652000D03*
G04 #@! TO.N,/Rain_Sensor(Ext.)*
X94996000Y-143764000D03*
X94996000Y-153924000D03*
X94996000Y-161544000D03*
X108204000Y-161544000D03*
G04 #@! TO.N,/Mode(Ext.)*
X73152000Y-134620000D03*
G04 #@! TO.N,/Mode(In)*
X122555000Y-85090000D03*
X122555000Y-85090000D03*
G04 #@! TO.N,/Control(In2)*
X67945000Y-92710000D03*
X67945000Y-81280000D03*
X67945000Y-87630000D03*
G04 #@! TO.N,/Control(In1)*
X80010000Y-127635000D03*
X66675000Y-92710000D03*
X66675000Y-88900000D03*
X66675000Y-81915000D03*
G04 #@! TO.N,/Mem.Comparison.Equal*
X134620000Y-35560000D03*
G04 #@! TO.N,/Timer.End*
X158750000Y-50800000D03*
X194310000Y-48260000D03*
X212852000Y-72390000D03*
G04 #@! TO.N,Net-(U14-Pad4)*
X187960000Y-59690000D03*
X130810000Y-56515000D03*
X125984000Y-57150000D03*
X142240000Y-52070000D03*
X165100000Y-53340000D03*
X198755000Y-104140000D03*
X195580000Y-102235000D03*
X191770000Y-74930000D03*
X184785000Y-72390000D03*
X207010000Y-101600000D03*
X165100000Y-60325000D03*
G04 #@! TO.N,Net-(R20-Pad2)*
X146050000Y-137160000D03*
X124460000Y-167132000D03*
G04 #@! TO.N,Net-(R21-Pad2)*
X147320000Y-135890000D03*
X147320000Y-160020000D03*
G04 #@! TO.N,Net-(R19-Pad2)*
X145415000Y-138430000D03*
X141605000Y-157480000D03*
X101600000Y-166624000D03*
X110236000Y-166624000D03*
G04 #@! TO.N,PWR_ALW*
X172720000Y-21590000D03*
X57785000Y-14605000D03*
X102235000Y-17780000D03*
X80215000Y-114095000D03*
X61595000Y-116840000D03*
X52705000Y-111760000D03*
X55245000Y-111760000D03*
X180340000Y-72790000D03*
X180340000Y-66675000D03*
X182880000Y-64135000D03*
X120650000Y-18415000D03*
X53015299Y-53340000D03*
X71755000Y-136525000D03*
X91948000Y-127000000D03*
X81318010Y-116370010D03*
G04 #@! TO.N,VAC*
X89662000Y-175006000D03*
X111887000Y-175006000D03*
X134747000Y-175641000D03*
X166624000Y-177292000D03*
G04 #@! TO.N,+9V*
X235712000Y-147828000D03*
X235712000Y-159512000D03*
G04 #@! TO.N,Net-(C13-Pad1)*
X230124000Y-71120000D03*
G04 #@! TO.N,Net-(D11-Pad2)*
X53340000Y-55245000D03*
G04 #@! TO.N,CLK_MIN*
X53848000Y-76708000D03*
X80010000Y-45085000D03*
X78740000Y-49530000D03*
X69850000Y-109220000D03*
X62230000Y-109220000D03*
X60325000Y-105410000D03*
X56388000Y-105410000D03*
G04 #@! TO.N,Net-(U34-Pad8)*
X99695000Y-100330000D03*
X104140000Y-100330000D03*
X111760000Y-99060000D03*
X132715000Y-104775000D03*
X148590000Y-105410000D03*
X136525000Y-102870000D03*
X165265010Y-102235000D03*
X171450000Y-102235000D03*
X136525000Y-107950000D03*
X132383626Y-107950000D03*
G04 #@! TO.N,Net-(U34-Pad13)*
X83185000Y-34925000D03*
X83185000Y-38100000D03*
G04 #@! TO.N,Net-(U34-Pad1)*
X81915000Y-34925000D03*
X81915000Y-38100000D03*
X71755000Y-87630000D03*
X71755000Y-82550000D03*
X69850000Y-76835000D03*
G04 #@! TO.N,Net-(U34-Pad2)*
X80645000Y-34925000D03*
X80645000Y-38100000D03*
X68580000Y-75565000D03*
X70485000Y-83820000D03*
X71755000Y-90170000D03*
G04 #@! TO.N,CLK_SEC*
X106181002Y-80010000D03*
X60325000Y-103505000D03*
X64135000Y-110490000D03*
X74295000Y-110490000D03*
X99695000Y-108585000D03*
X57404000Y-103505000D03*
G04 #@! TO.N,Net-(U17-Pad9)*
X132080000Y-57150000D03*
X185420000Y-44450000D03*
X165100000Y-48260000D03*
X161925000Y-48260000D03*
X150495000Y-46990000D03*
G04 #@! TO.N,Net-(U17-Pad11)*
X76200000Y-33655000D03*
X140970000Y-24130000D03*
X171450000Y-18099999D03*
G04 #@! TO.N,Net-(U17-Pad15)*
X187960000Y-41275000D03*
X187960000Y-44450000D03*
X151765000Y-50800000D03*
X144780000Y-77470000D03*
X142240000Y-77470000D03*
X104140000Y-93980000D03*
X104140000Y-86360000D03*
X116205000Y-86360000D03*
X116840000Y-82550000D03*
X136209999Y-81280000D03*
G04 #@! TO.N,Net-(U18-Pad2)*
X147320000Y-105410000D03*
X193040000Y-130810000D03*
X188595000Y-130810000D03*
X174625000Y-137160000D03*
X164465000Y-137160000D03*
X167640000Y-113030000D03*
X164465000Y-113030000D03*
G04 #@! TO.N,Net-(U15-Pad3)*
X200660000Y-69850000D03*
X200660000Y-73660000D03*
X196850000Y-74930000D03*
G04 #@! TO.N,Net-(U33-Pad4)*
X79375000Y-99695000D03*
X113665000Y-91440000D03*
X113665000Y-82550000D03*
G04 #@! TO.N,GNDREF*
X180848000Y-184912000D03*
G04 #@! TO.N,Init*
X211455000Y-69850000D03*
X211455000Y-87630000D03*
X220472000Y-71628000D03*
X211455000Y-75692000D03*
G04 #@! TO.N,Net-(U14-Pad11)*
X60960000Y-14605000D03*
X93980000Y-11595010D03*
X207645000Y-41910000D03*
X207010000Y-13970000D03*
G04 #@! TO.N,Net-(U36-Pad4)*
X60325000Y-18169002D03*
X55245000Y-114935000D03*
X61595000Y-120650000D03*
X75184000Y-120904000D03*
G04 #@! TO.N,/Rain_Sensor_Raw*
X101600000Y-158496000D03*
X77431990Y-162344010D03*
X75692000Y-8636000D03*
X84328000Y0D03*
X96012000Y0D03*
X111760000Y0D03*
X116840000Y0D03*
X146812000Y0D03*
X151892000Y0D03*
X156972000Y0D03*
X174752000Y0D03*
X182880000Y0D03*
G04 #@! TO.N,/Mode_Raw*
X102108000Y-130048000D03*
X103124000Y-140208000D03*
X102108000Y-135128000D03*
G04 #@! TO.N,/Conn_Control_Raw*
X100076000Y-158496000D03*
X81788000Y-161036000D03*
X73152000Y-171196000D03*
X83312000Y3048000D03*
X97028000Y3048000D03*
X113284000Y3048000D03*
X116332000Y3048000D03*
X147828000Y3048000D03*
X151384000Y3048000D03*
X157988000Y3048000D03*
X175768000Y3048000D03*
G04 #@! TO.N,Net-(U14-Pad9)*
X114935000Y-77470000D03*
X122555000Y-78740000D03*
X168910000Y-49530000D03*
X168910000Y-59055000D03*
X163830000Y-60325000D03*
X137160000Y-78740000D03*
X142240000Y-78740000D03*
X144780000Y-83185000D03*
G04 #@! TO.N,Net-(R16-Pad1)*
X87945001Y-112714999D03*
X117856000Y-148844000D03*
X213868000Y-69596000D03*
X213868000Y-76708000D03*
X136144000Y-138176000D03*
X156346002Y-137042002D03*
X162560000Y-137160000D03*
X163576000Y-115824000D03*
X163176001Y-112884001D03*
X163068000Y-109728000D03*
X208280000Y-101092000D03*
X206756000Y-98552000D03*
G04 #@! TO.N,Net-(D_LED_LINE4-Pad2)*
X162560000Y-147320000D03*
X162560000Y-152908000D03*
G04 #@! TO.N,Net-(D_LED_LINE2-Pad2)*
X153670000Y-150495000D03*
G04 #@! TO.N,Net-(D_LED_LINE3-Pad2)*
X156972000Y-149225000D03*
X156972000Y-153369000D03*
G04 #@! TO.N,Net-(D_LED_LINE1-Pad2)*
X149860000Y-151765000D03*
X136652000Y-155956000D03*
X110236000Y-163576000D03*
X108712000Y-165608000D03*
X100584000Y-165608000D03*
G04 #@! TO.N,Net-(D_LED_LINE3-Pad1)*
X153924000Y-153416000D03*
X155956000Y-139700000D03*
G04 #@! TO.N,Net-(D_LED_LINE2-Pad1)*
X153416000Y-149352000D03*
G04 #@! TO.N,Net-(D_LED_LINE1-Pad1)*
X149860000Y-144780000D03*
X99060000Y-163576000D03*
X108712000Y-163576000D03*
G04 #@! TO.N,Net-(D_LED_LINE4-Pad1)*
X161290000Y-153162000D03*
G04 #@! TO.N,Net-(D_LED_BATT_REP1-Pad2)*
X132715000Y-88900000D03*
X128270000Y-85090000D03*
G04 #@! TO.N,Net-(SW_TIMER1-Pad6)*
X88265000Y-86995000D03*
X109554001Y-114126001D03*
X112268000Y-110744000D03*
X106680000Y-98044000D03*
X106680000Y-92964000D03*
G04 #@! TO.N,Net-(SW_TIMER1-Pad5)*
X123825000Y-105410000D03*
X130175000Y-100965000D03*
X151130000Y-90805000D03*
X165100000Y-86995000D03*
X172720000Y-86995000D03*
X108126001Y-116409999D03*
X109220000Y-110744000D03*
X104648000Y-98044000D03*
X105664000Y-94488000D03*
G04 #@! TO.N,Net-(CONN_OUT_FINISHED1-Pad1)*
X159004000Y-132588000D03*
X159004000Y-152908000D03*
X49926010Y-117348000D03*
X223012000Y-11176000D03*
X223012000Y-13716000D03*
X212852000Y-14224000D03*
X212852000Y-11176000D03*
X78740000Y-7620000D03*
G04 #@! TO.N,Finished*
X104775000Y-73660000D03*
X99695000Y-73660000D03*
X108585000Y-73660000D03*
X110490000Y-72390000D03*
X110490000Y-80645000D03*
X120015000Y-80010000D03*
X137160000Y-80010000D03*
X142240000Y-84455000D03*
X169545000Y-81915000D03*
X169545000Y-71120000D03*
X191770000Y-73660000D03*
X194310000Y-98425000D03*
X104775000Y-73660000D03*
X104775000Y-73660000D03*
X198120000Y-128524000D03*
X194056000Y-128524000D03*
X188468000Y-128524000D03*
X188468000Y-116332000D03*
X184912000Y-111760000D03*
X172720000Y-120396000D03*
G04 #@! TO.N,Net-(R28-Pad2)*
X208280000Y-48260000D03*
X209550000Y-26035000D03*
X208915000Y-13970000D03*
X99060000Y-10795000D03*
X77216000Y-25908000D03*
G04 #@! TO.N,Net-(U5-Pad6)*
X83820000Y-29972000D03*
X209296000Y-55880000D03*
X208280000Y-49784000D03*
X195580000Y-44704000D03*
X193040000Y-42164000D03*
X191516000Y-22352000D03*
X195072000Y-22352000D03*
X195072000Y-18796000D03*
X195072000Y-16764000D03*
X105156000Y-18796000D03*
X101600000Y-19812000D03*
X99060000Y-21844000D03*
X94996000Y-32004000D03*
X91948000Y-31496000D03*
G04 #@! TD*
D46*
G04 #@! TO.N,GND*
X77470000Y-140335000D02*
X80010000Y-140335000D01*
X76200000Y-139065000D02*
X77470000Y-140335000D01*
X76200000Y-136525000D02*
X76200000Y-139065000D01*
X84250000Y-125095000D02*
X87630000Y-125095000D01*
X80010000Y-122555000D02*
X81710000Y-122555000D01*
X81710000Y-122555000D02*
X84250000Y-125095000D01*
X75565000Y-81280000D02*
X70485000Y-81280000D01*
X70485000Y-81280000D02*
X64135000Y-87630000D01*
X64135000Y-87630000D02*
X64135000Y-93980000D01*
X64135000Y-93980000D02*
X57785000Y-93980000D01*
X106045000Y-59690000D02*
X103505000Y-59690000D01*
X103505000Y-59690000D02*
X103505000Y-67310000D01*
X103505000Y-67310000D02*
X107315000Y-71120000D01*
X107315000Y-71120000D02*
X107315000Y-76200000D01*
X107315000Y-76200000D02*
X118745000Y-76200000D01*
X109855000Y-82550000D02*
X109855000Y-95250000D01*
X109855000Y-95250000D02*
X113665000Y-99060000D01*
X147320000Y-104140000D02*
X153670000Y-104140000D01*
X171450000Y-96520000D02*
X173990000Y-93980000D01*
X194310000Y-104140000D02*
X196850000Y-104140000D01*
X194310000Y-39370000D02*
X198120000Y-39370000D01*
X191770000Y-41910000D02*
X194310000Y-39370000D01*
X171450000Y-96520000D02*
X171450000Y-69850000D01*
X173990000Y-67310000D02*
X177800000Y-67310000D01*
X171450000Y-69850000D02*
X173990000Y-67310000D01*
X171450000Y-69850000D02*
X171450000Y-41910000D01*
X171450000Y-41910000D02*
X173990000Y-39370000D01*
X173990000Y-39370000D02*
X177800000Y-39370000D01*
X161290000Y-68580000D02*
X163830000Y-68580000D01*
X163830000Y-68580000D02*
X163830000Y-85090000D01*
X191770000Y-67310000D02*
X199390000Y-67310000D01*
X191770000Y-67310000D02*
X191770000Y-41910000D01*
X196850000Y-104140000D02*
X196850000Y-93980000D01*
X196850000Y-93980000D02*
X199390000Y-93980000D01*
X175260000Y-132080000D02*
X177800000Y-132080000D01*
X171450000Y-135890000D02*
X175260000Y-132080000D01*
X75565000Y-109250000D02*
X75565000Y-107950000D01*
X75565000Y-107950000D02*
X75565000Y-102870000D01*
X207010000Y-119380000D02*
X209550000Y-119380000D01*
D47*
X213995000Y-139065000D02*
X213995000Y-137795000D01*
D46*
X161290000Y-116840000D02*
X157480000Y-116840000D01*
X157480000Y-116840000D02*
X157480000Y-114300000D01*
X157480000Y-114300000D02*
X153670000Y-114300000D01*
X191770000Y-71755000D02*
X191770000Y-67310000D01*
X189865000Y-73660000D02*
X191770000Y-71755000D01*
X189865000Y-75565000D02*
X189865000Y-73660000D01*
X191770000Y-77470000D02*
X189865000Y-75565000D01*
X191770000Y-106680000D02*
X191770000Y-77470000D01*
X58420000Y-71120000D02*
X55880000Y-71120000D01*
X58420000Y-71120000D02*
X57785000Y-71120000D01*
X59260000Y-71120000D02*
X58420000Y-71120000D01*
X85725000Y-44450000D02*
X85725000Y-48260000D01*
X78740000Y-15875000D02*
X78740000Y-15475000D01*
X78740000Y-16275000D02*
X80880000Y-18415000D01*
X78740000Y-15875000D02*
X78740000Y-16275000D01*
X80880000Y-18415000D02*
X100334425Y-18415000D01*
X100334425Y-18415000D02*
X100334425Y-14449756D01*
X119300000Y-18335000D02*
X119300000Y-21590000D01*
X101604425Y-22220575D02*
X103505000Y-20320000D01*
X110490000Y-17780000D02*
X118745000Y-17780000D01*
X100334425Y-22220575D02*
X101604425Y-22220575D01*
X107950000Y-20320000D02*
X110490000Y-17780000D01*
X103505000Y-20320000D02*
X107950000Y-20320000D01*
X118745000Y-17780000D02*
X119300000Y-18335000D01*
X60960000Y-53975000D02*
X60960000Y-71120000D01*
X60960000Y-71120000D02*
X58420000Y-71120000D01*
X168910000Y-113665000D02*
X171450000Y-113665000D01*
X168910000Y-96520000D02*
X168910000Y-113665000D01*
X171450000Y-96520000D02*
X168910000Y-96520000D01*
X191770000Y-106680000D02*
X194310000Y-104140000D01*
X177800000Y-92710000D02*
X175260000Y-92710000D01*
X63361384Y-107315000D02*
X63196374Y-107480010D01*
X64135000Y-107315000D02*
X63361384Y-107315000D01*
X64135000Y-93980000D02*
X64135000Y-107315000D01*
X63196374Y-107480010D02*
X61291374Y-107480010D01*
X61291374Y-107480010D02*
X60490010Y-108281374D01*
X60490010Y-108281374D02*
X60490010Y-111290010D01*
X60490010Y-111290010D02*
X60960000Y-111760000D01*
X60960000Y-111760000D02*
X64135000Y-111760000D01*
X143510000Y-104140000D02*
X143510000Y-82550000D01*
X161153998Y-85090000D02*
X159385000Y-83321002D01*
X163830000Y-85090000D02*
X161153998Y-85090000D01*
X159385000Y-83321002D02*
X159385000Y-83185000D01*
X158115000Y-81915000D02*
X143510000Y-81915000D01*
X159385000Y-83185000D02*
X158115000Y-81915000D01*
X144780000Y-52705000D02*
X143510000Y-53975000D01*
X143510000Y-81915000D02*
X143510000Y-53975000D01*
X144780000Y-48260000D02*
X144780000Y-52705000D01*
X144780000Y-48260000D02*
X151130000Y-48260000D01*
X151130000Y-48260000D02*
X153670000Y-45720000D01*
X209550000Y-115570000D02*
X209550000Y-119380000D01*
X212090000Y-40005000D02*
X212090000Y-67310000D01*
X214630000Y-40005000D02*
X212090000Y-40005000D01*
X212090000Y-67310000D02*
X210504999Y-67310000D01*
X106005000Y-109180000D02*
X106045000Y-109220000D01*
X76200000Y-130175000D02*
X74676000Y-130175000D01*
X143510000Y-82550000D02*
X143510000Y-81915000D01*
X60960000Y-53975000D02*
X60960000Y-37465000D01*
X75565000Y-115570000D02*
X75565000Y-114300000D01*
X175260000Y-92710000D02*
X173990000Y-93980000D01*
X147320000Y-104140000D02*
X143510000Y-104140000D01*
X76200000Y-136525000D02*
X76200000Y-130175000D01*
X80146002Y-115570000D02*
X80010000Y-115570000D01*
X80781002Y-114935000D02*
X80146002Y-115570000D01*
X80010000Y-115570000D02*
X75565000Y-115570000D01*
X81915000Y-114935000D02*
X80781002Y-114935000D01*
X109855000Y-82550000D02*
X108585000Y-82550000D01*
X55880000Y-74295000D02*
X57785000Y-76200000D01*
X55880000Y-74295000D02*
X55880000Y-71120000D01*
X57785000Y-76200000D02*
X57785000Y-93980000D01*
X78232000Y-172466000D02*
X77832000Y-172466000D01*
X191770000Y-135890000D02*
X191770000Y-106680000D01*
X213995000Y-139065000D02*
X213995000Y-137160000D01*
X171450000Y-113665000D02*
X171450000Y-132715000D01*
X171450000Y-132715000D02*
X171450000Y-135890000D01*
X210504999Y-114615001D02*
X209550000Y-115570000D01*
X210504999Y-114300000D02*
X210504999Y-114615001D01*
X210504999Y-67310000D02*
X210504999Y-114300000D01*
X178834999Y-136924999D02*
X178435000Y-136525000D01*
X186012769Y-136924999D02*
X178834999Y-136924999D01*
X191770000Y-136525000D02*
X186412768Y-136525000D01*
X191770000Y-135890000D02*
X191770000Y-136525000D01*
X118980000Y-132080000D02*
X119380000Y-132080000D01*
X117629990Y-130729990D02*
X118980000Y-132080000D01*
X117659998Y-118110000D02*
X117629990Y-118140008D01*
X117629990Y-118140008D02*
X117629990Y-124460000D01*
X155370000Y-132080000D02*
X156210000Y-131240000D01*
X153670000Y-132080000D02*
X155370000Y-132080000D01*
X154070000Y-114300000D02*
X153670000Y-114300000D01*
X156210000Y-116440000D02*
X154070000Y-114300000D01*
X156210000Y-131240000D02*
X156210000Y-116440000D01*
X171450000Y-132715000D02*
X171450000Y-153035000D01*
X59690000Y-160020000D02*
X62230000Y-160020000D01*
X62230000Y-160020000D02*
X62230000Y-167640000D01*
X67310000Y-167640000D02*
X62230000Y-167640000D01*
X62230000Y-167640000D02*
X59690000Y-167640000D01*
X80010000Y-140335000D02*
X80010000Y-141635000D01*
X143510000Y-107950000D02*
X143510000Y-104140000D01*
X143510000Y-113030000D02*
X143510000Y-107950000D01*
X144780000Y-114300000D02*
X143510000Y-113030000D01*
X153670000Y-114300000D02*
X144780000Y-114300000D01*
X62230000Y-145415000D02*
X64770000Y-145415000D01*
X62230000Y-160020000D02*
X62230000Y-145415000D01*
X76230000Y-145415000D02*
X69215000Y-145415000D01*
X171450000Y-153035000D02*
X170815000Y-153670000D01*
X208788000Y-175768000D02*
X211916000Y-175768000D01*
X209804000Y-160528000D02*
X208788000Y-161544000D01*
X215900000Y-159084000D02*
X214456000Y-160528000D01*
X214456000Y-160528000D02*
X209804000Y-160528000D01*
X190500000Y-164084000D02*
X208788000Y-164084000D01*
X208788000Y-161544000D02*
X208788000Y-164084000D01*
X208788000Y-164084000D02*
X208788000Y-175768000D01*
X186412768Y-136525000D02*
X186012769Y-136924999D01*
X213995000Y-132715000D02*
X213995000Y-139065000D01*
X202692000Y-133096000D02*
X202692000Y-135890000D01*
X202692000Y-135890000D02*
X191770000Y-135890000D01*
X213995000Y-132715000D02*
X213995000Y-129159000D01*
X213868000Y-129032000D02*
X210504999Y-129032000D01*
X213995000Y-129159000D02*
X213868000Y-129032000D01*
X210504999Y-114300000D02*
X210504999Y-129032000D01*
X202780990Y-130975010D02*
X202692000Y-131064000D01*
X202692000Y-131064000D02*
X202692000Y-133096000D01*
X208611374Y-130975010D02*
X202780990Y-130975010D01*
X210504999Y-129032000D02*
X210504999Y-129081385D01*
X210504999Y-129081385D02*
X208611374Y-130975010D01*
X224028000Y-70612000D02*
X228600000Y-70612000D01*
X228600000Y-70612000D02*
X228600000Y-70104000D01*
X224028000Y-70612000D02*
X223012000Y-70612000D01*
X179832000Y-174752000D02*
X179832000Y-177292000D01*
X119380000Y-133380000D02*
X119888000Y-133888000D01*
X119380000Y-132080000D02*
X119380000Y-133380000D01*
X92456000Y-115570000D02*
X92390001Y-115504001D01*
X97470001Y-111825999D02*
X98552000Y-110744000D01*
X170180000Y-177292000D02*
X170180000Y-167132000D01*
X170815000Y-153670000D02*
X170180000Y-153670000D01*
X179832000Y-177292000D02*
X170180000Y-177292000D01*
X98552000Y-110744000D02*
X100076000Y-110744000D01*
X100076000Y-114300000D02*
X100076000Y-110744000D01*
X106576000Y-114300000D02*
X100076000Y-114300000D01*
X90464000Y-142240000D02*
X79405000Y-142240000D01*
X80010000Y-141635000D02*
X79248000Y-142397000D01*
X79405000Y-142240000D02*
X79248000Y-142397000D01*
X79248000Y-142397000D02*
X76230000Y-145415000D01*
X118745000Y-104170000D02*
X118745000Y-102870000D01*
X117629990Y-105285010D02*
X118745000Y-104170000D01*
X113284000Y-109220000D02*
X113665000Y-109220000D01*
X106045000Y-109220000D02*
X113284000Y-109220000D01*
X117629990Y-109220000D02*
X113284000Y-109220000D01*
X117629990Y-109220000D02*
X117629990Y-105285010D01*
X117629990Y-118140008D02*
X117629990Y-109220000D01*
X111760000Y-132080000D02*
X111760000Y-130680000D01*
X111760000Y-130680000D02*
X112392000Y-130048000D01*
X112392000Y-130048000D02*
X117629990Y-130048000D01*
X117629990Y-124460000D02*
X117629990Y-130048000D01*
X117629990Y-130048000D02*
X117629990Y-130729990D01*
X132080000Y-141224000D02*
X130048000Y-141224000D01*
X130048000Y-141224000D02*
X130048000Y-147320000D01*
X130048000Y-147320000D02*
X132080000Y-147320000D01*
X108204000Y-132080000D02*
X111760000Y-132080000D01*
X106005000Y-104140000D02*
X106005000Y-109180000D01*
X106172000Y-109347000D02*
X106005000Y-109180000D01*
X106172000Y-110744000D02*
X106172000Y-109347000D01*
X100076000Y-110744000D02*
X106172000Y-110744000D01*
X143510000Y-158750000D02*
X138684000Y-158750000D01*
X100076000Y-153924000D02*
X98552000Y-153924000D01*
X90464000Y-141732000D02*
X90972000Y-141224000D01*
X90464000Y-142240000D02*
X90464000Y-141732000D01*
X91440000Y-159004000D02*
X91440000Y-153590000D01*
X146544000Y-154940000D02*
X143510000Y-154940000D01*
X143510000Y-154940000D02*
X143510000Y-158750000D01*
X170180000Y-154940000D02*
X170180000Y-153670000D01*
X170180000Y-167132000D02*
X170180000Y-154940000D01*
X158496000Y-154940000D02*
X146544000Y-154940000D01*
X162560000Y-138430000D02*
X163830000Y-138430000D01*
X119888000Y-148844000D02*
X132080000Y-148844000D01*
X132080000Y-148844000D02*
X132080000Y-147320000D01*
X119888000Y-133888000D02*
X119888000Y-148844000D01*
X121920000Y-150368000D02*
X119888000Y-150368000D01*
X119888000Y-148844000D02*
X119888000Y-150368000D01*
X73152000Y-115570000D02*
X73025000Y-115697000D01*
X73025000Y-115697000D02*
X73025000Y-118999000D01*
X75565000Y-115570000D02*
X73152000Y-115570000D01*
X75565000Y-114300000D02*
X75565000Y-111760000D01*
X64135000Y-111760000D02*
X75565000Y-111760000D01*
X75565000Y-111760000D02*
X75565000Y-107950000D01*
X100076000Y-8636000D02*
X100076000Y-6096000D01*
X100076000Y-6096000D02*
X89408000Y-6096000D01*
X89408000Y-6096000D02*
X74676000Y-6096000D01*
X74676000Y-6096000D02*
X74676000Y-6096000D01*
X83312000Y1016000D02*
X96127384Y1016000D01*
X96127384Y1016000D02*
X97028000Y1016000D01*
X97028000Y1016000D02*
X97028000Y1016000D01*
X113284000Y1016000D02*
X116332000Y1016000D01*
X116332000Y1016000D02*
X116332000Y1016000D01*
X147828000Y1016000D02*
X151384000Y1016000D01*
X151384000Y1016000D02*
X151384000Y1016000D01*
X157988000Y1016000D02*
X174867384Y1016000D01*
X174867384Y1016000D02*
X175768000Y1016000D01*
X175768000Y1016000D02*
X175768000Y1016000D01*
X181864000Y1016000D02*
X184404000Y1016000D01*
X184404000Y1016000D02*
X184404000Y4064000D01*
X184404000Y4064000D02*
X184404000Y4064000D01*
X184364000Y7580000D02*
X184404000Y7540000D01*
X213828000Y4064000D02*
X214376000Y3516000D01*
X215175999Y4315999D02*
X222252001Y4315999D01*
X214376000Y3516000D02*
X215175999Y4315999D01*
X222504000Y4567998D02*
X222504000Y7620000D01*
X222252001Y4315999D02*
X222504000Y4567998D01*
X91440000Y-162560000D02*
X98552000Y-162560000D01*
X98552000Y-153924000D02*
X98552000Y-162560000D01*
X91440000Y-162560000D02*
X91440000Y-159004000D01*
X98552000Y-162560000D02*
X103124000Y-162560000D01*
X109220000Y-167640000D02*
X103124000Y-167640000D01*
X103124000Y-162560000D02*
X103124000Y-167640000D01*
X146812000Y-172466000D02*
X146412000Y-172466000D01*
X158576000Y-155020000D02*
X158496000Y-154940000D01*
X138684000Y-158750000D02*
X138684000Y-166116000D01*
X122543384Y-167640000D02*
X122428000Y-167640000D01*
X123444000Y-167640000D02*
X121920000Y-167640000D01*
X123444000Y-166116000D02*
X123444000Y-167640000D01*
X138684000Y-166116000D02*
X123444000Y-166116000D01*
X109220000Y-167640000D02*
X121920000Y-167640000D01*
X121920000Y-167640000D02*
X122428000Y-167640000D01*
X144634000Y-171988000D02*
X145112000Y-172466000D01*
X144634000Y-168002000D02*
X144634000Y-171988000D01*
X145112000Y-172466000D02*
X146812000Y-172466000D01*
X144272000Y-167640000D02*
X144634000Y-168002000D01*
X138684000Y-167640000D02*
X144272000Y-167640000D01*
X138684000Y-166116000D02*
X138684000Y-167640000D01*
X184404000Y4064000D02*
X184404000Y7620000D01*
X180380000Y7620000D02*
X180340000Y7580000D01*
X184404000Y7620000D02*
X180380000Y7620000D01*
X233680000Y8636000D02*
X233680000Y6797523D01*
X233680000Y6797523D02*
X233680000Y5588000D01*
X233680000Y5588000D02*
X233680000Y5080000D01*
X233680000Y4572000D02*
X233680000Y5588000D01*
X233423999Y4315999D02*
X233680000Y4572000D01*
X222252001Y4315999D02*
X233423999Y4315999D01*
X163576000Y-154940000D02*
X158496000Y-154940000D01*
X170180000Y-153670000D02*
X169672000Y-153670000D01*
X170180000Y-154940000D02*
X163576000Y-154940000D01*
X163576000Y-154004000D02*
X163576000Y-154940000D01*
X164592000Y-152988000D02*
X163576000Y-154004000D01*
X164592000Y-139192000D02*
X163830000Y-138430000D01*
X164592000Y-152988000D02*
X164592000Y-139192000D01*
X100334425Y-22220575D02*
X100330000Y-22225000D01*
X97870010Y-24049990D02*
X97870010Y-26035000D01*
X97870010Y-26035000D02*
X92790000Y-26035000D01*
X92790000Y-26035000D02*
X92750000Y-26075000D01*
X92750000Y-27432000D02*
X90250000Y-27432000D01*
X92750000Y-26075000D02*
X92750000Y-27432000D01*
X97870010Y-24049990D02*
X97870010Y-20493990D01*
X97870010Y-20493990D02*
X98044000Y-20320000D01*
X98044000Y-20320000D02*
X100334425Y-20320000D01*
X100334425Y-22220575D02*
X100334425Y-20320000D01*
X100334425Y-20320000D02*
X100334425Y-18415000D01*
X92750000Y-27432000D02*
X92750000Y-28956000D01*
X89916000Y-36068000D02*
X89293614Y-35445614D01*
X89293614Y-35445614D02*
X88977155Y-35445614D01*
X93980000Y-36068000D02*
X89916000Y-36068000D01*
X93980000Y-28956000D02*
X93980000Y-36068000D01*
X92750000Y-28956000D02*
X93980000Y-28956000D01*
X212090000Y-67310000D02*
X213995000Y-67310000D01*
X93004000Y-115316000D02*
X93004000Y-112293999D01*
X93004000Y-112293999D02*
X93472000Y-111825999D01*
X93472000Y-111825999D02*
X97470001Y-111825999D01*
X93004000Y-115316000D02*
X82296000Y-115316000D01*
X82296000Y-115316000D02*
X81915000Y-114935000D01*
G04 #@! TO.N,+5V*
X118745000Y-41910000D02*
X113665000Y-41910000D01*
X120015000Y-40640000D02*
X118745000Y-41910000D01*
X128905000Y-87630000D02*
X126365000Y-87630000D01*
X83185000Y-66040000D02*
X88265000Y-66040000D01*
X88265000Y-66040000D02*
X95885000Y-58420000D01*
X111125000Y-46150000D02*
X111965000Y-46990000D01*
X111125000Y-42750000D02*
X111125000Y-46150000D01*
X111965000Y-41910000D02*
X111125000Y-42750000D01*
X111965000Y-46990000D02*
X113665000Y-46990000D01*
X113665000Y-41910000D02*
X111965000Y-41910000D01*
X110695000Y-46150000D02*
X111125000Y-46150000D01*
X109855000Y-46990000D02*
X110695000Y-46150000D01*
X108585000Y-46990000D02*
X109855000Y-46990000D01*
X165100000Y-30480000D02*
X161290000Y-30480000D01*
X166370000Y-29210000D02*
X165100000Y-30480000D01*
X153270000Y-68580000D02*
X149860000Y-65170000D01*
X153670000Y-68580000D02*
X153270000Y-68580000D01*
X149860000Y-65170000D02*
X149860000Y-54610000D01*
X149860000Y-54610000D02*
X152400000Y-52070000D01*
X152400000Y-52070000D02*
X163830000Y-52070000D01*
X163830000Y-52070000D02*
X166370000Y-49530000D01*
X153670000Y-35560000D02*
X156210000Y-35560000D01*
X156210000Y-35560000D02*
X156210000Y-31750000D01*
X157480000Y-30480000D02*
X161290000Y-30480000D01*
X156210000Y-31750000D02*
X157480000Y-30480000D01*
X166370000Y-49530000D02*
X166370000Y-87630000D01*
X166370000Y-87630000D02*
X165100000Y-88900000D01*
X165100000Y-88900000D02*
X161290000Y-88900000D01*
X189230000Y-52070000D02*
X185420000Y-52070000D01*
X190500000Y-50800000D02*
X189230000Y-52070000D01*
X167640000Y-31750000D02*
X166370000Y-33020000D01*
X177800000Y-31750000D02*
X167640000Y-31750000D01*
X166370000Y-49530000D02*
X166370000Y-33020000D01*
X166370000Y-33020000D02*
X166370000Y-29210000D01*
X201930000Y-119380000D02*
X199390000Y-119380000D01*
X201930000Y-105410000D02*
X201930000Y-119380000D01*
X187960000Y-114300000D02*
X185420000Y-114300000D01*
X190500000Y-77470000D02*
X190500000Y-111760000D01*
X190500000Y-111760000D02*
X187960000Y-114300000D01*
X166370000Y-87630000D02*
X166370000Y-113030000D01*
X165100000Y-114300000D02*
X161290000Y-114300000D01*
X166370000Y-113030000D02*
X165100000Y-114300000D01*
X128905000Y-106680000D02*
X128905000Y-110490000D01*
X131445000Y-106680000D02*
X128905000Y-106680000D01*
X190500000Y-77470000D02*
X189865000Y-77470000D01*
X188760010Y-72859990D02*
X190500000Y-71120000D01*
X188760010Y-76365010D02*
X188760010Y-72859990D01*
X189865000Y-77470000D02*
X188760010Y-76365010D01*
X190500000Y-50800000D02*
X190500000Y-71120000D01*
X108585000Y-46990000D02*
X106045000Y-44450000D01*
X113265000Y-54610000D02*
X113665000Y-54610000D01*
X111125000Y-52470000D02*
X113265000Y-54610000D01*
X111125000Y-47830000D02*
X111125000Y-52470000D01*
X111965000Y-46990000D02*
X111125000Y-47830000D01*
X106045000Y-41910000D02*
X106045000Y-44450000D01*
X120015000Y-28575000D02*
X121600001Y-26989999D01*
X120015000Y-28575000D02*
X120015000Y-40640000D01*
X103505000Y-44450000D02*
X106045000Y-44450000D01*
X103505000Y-48260000D02*
X103505000Y-44450000D01*
X99695000Y-48260000D02*
X103505000Y-48260000D01*
X97624990Y-50330010D02*
X99695000Y-48260000D01*
X95885000Y-58420000D02*
X97624990Y-58420000D01*
X97624990Y-58420000D02*
X97624990Y-50330010D01*
X64340000Y-55880000D02*
X62230000Y-53770000D01*
X66040000Y-55880000D02*
X64340000Y-55880000D01*
X62230000Y-37603616D02*
X60821384Y-36195000D01*
X62230000Y-53770000D02*
X62230000Y-37603616D01*
X60821384Y-36195000D02*
X57785000Y-36195000D01*
X54610000Y-34290000D02*
X52705000Y-36195000D01*
X55880000Y-34290000D02*
X54610000Y-34290000D01*
X209550000Y-78740000D02*
X207010000Y-78740000D01*
X209550000Y-78740000D02*
X209550000Y-105410000D01*
X209550000Y-105410000D02*
X201930000Y-105410000D01*
X222250000Y-24765000D02*
X223950000Y-24765000D01*
X211455000Y-88900000D02*
X213995000Y-88900000D01*
X211455000Y-101600000D02*
X211455000Y-105410000D01*
X93745000Y-20320000D02*
X96520000Y-23095000D01*
X96520000Y-23095000D02*
X96520000Y-23495000D01*
X76835000Y-18084980D02*
X79070020Y-20320000D01*
X209550000Y-65405000D02*
X210820000Y-65405000D01*
X209550000Y-65405000D02*
X209550000Y-78740000D01*
X205740000Y-15240000D02*
X209550000Y-15240000D01*
X205105000Y-14605000D02*
X205740000Y-15240000D01*
X209550000Y-24130000D02*
X210820000Y-24130000D01*
X205740000Y-24130000D02*
X209550000Y-24130000D01*
X211455000Y-101600000D02*
X211455000Y-88900000D01*
X211455000Y-100330000D02*
X211455000Y-101600000D01*
X223950000Y-24765000D02*
X226060000Y-24765000D01*
X59690000Y-12700000D02*
X74930000Y-12700000D01*
X52705000Y-36195000D02*
X52705000Y-17145000D01*
X52705000Y-17145000D02*
X55372000Y-17145000D01*
X58283998Y-12700000D02*
X59690000Y-12700000D01*
X56834999Y-16995009D02*
X56834999Y-14148999D01*
X56834999Y-14148999D02*
X58283998Y-12700000D01*
X56984990Y-17145000D02*
X56834999Y-16995009D01*
X189545001Y-112714999D02*
X190500000Y-111760000D01*
X189545001Y-131445000D02*
X189545001Y-112714999D01*
X189395010Y-131594991D02*
X189545001Y-131445000D01*
X189395010Y-131594991D02*
X189395010Y-132411374D01*
X176530000Y-139065000D02*
X176530000Y-148590000D01*
X128700000Y-116840000D02*
X127000000Y-116840000D01*
X128905000Y-116635000D02*
X128700000Y-116840000D01*
X128905000Y-110490000D02*
X128905000Y-116635000D01*
X126365000Y-60960000D02*
X128065000Y-60960000D01*
X128065000Y-60960000D02*
X129540000Y-59485000D01*
X129540000Y-86995000D02*
X128905000Y-87630000D01*
X121600001Y-26989999D02*
X129540000Y-26989999D01*
X129224999Y-27305000D02*
X129540000Y-26989999D01*
X129224999Y-59169999D02*
X129224999Y-27305000D01*
X129540000Y-59485000D02*
X129224999Y-59169999D01*
X130311002Y-99695000D02*
X131445000Y-99695000D01*
X129540000Y-98923998D02*
X130311002Y-99695000D01*
X129540000Y-86360000D02*
X129540000Y-98923998D01*
X129540000Y-86995000D02*
X129540000Y-86360000D01*
X129540000Y-86360000D02*
X129540000Y-59485000D01*
X131445000Y-99695000D02*
X131445000Y-106680000D01*
X150495000Y-25400000D02*
X162560000Y-25400000D01*
X137795000Y-26035000D02*
X149860000Y-26035000D01*
X129540000Y-26989999D02*
X136840001Y-26989999D01*
X149860000Y-26035000D02*
X150495000Y-25400000D01*
X136840001Y-26989999D02*
X137795000Y-26035000D01*
X70485000Y-156845000D02*
X70485000Y-156845000D01*
X235380000Y-78740000D02*
X235712000Y-79072000D01*
X235204000Y-83820000D02*
X235712000Y-83312000D01*
X235712000Y-79072000D02*
X235712000Y-83312000D01*
X235204000Y-83820000D02*
X233680000Y-83820000D01*
X226060000Y-135460000D02*
X226900000Y-135460000D01*
X226695000Y-135665000D02*
X226695000Y-139065000D01*
X226900000Y-135460000D02*
X226695000Y-135665000D01*
X226900000Y-135460000D02*
X228932000Y-135460000D01*
X229235000Y-135763000D02*
X229235000Y-139065000D01*
X228932000Y-135460000D02*
X229235000Y-135763000D01*
X226060000Y-135460000D02*
X224360000Y-135460000D01*
X224155000Y-135665000D02*
X224155000Y-139065000D01*
X224360000Y-135460000D02*
X224155000Y-135665000D01*
X229235000Y-140765000D02*
X229108000Y-140892000D01*
X229235000Y-139065000D02*
X229235000Y-140765000D01*
X229108000Y-140892000D02*
X229108000Y-142240000D01*
X229108000Y-142240000D02*
X229108000Y-142240000D01*
X187186384Y-134620000D02*
X176784000Y-134620000D01*
X187186384Y-134620000D02*
X189395010Y-132411374D01*
X185916384Y-135890000D02*
X187186384Y-134620000D01*
X176530000Y-134874000D02*
X176530000Y-139065000D01*
X176784000Y-134620000D02*
X176530000Y-134874000D01*
X233172000Y-78232000D02*
X233680000Y-78740000D01*
X232251344Y-67564000D02*
X232156000Y-67564000D01*
X233172000Y-68484656D02*
X232251344Y-67564000D01*
X233172000Y-73152000D02*
X233172000Y-68484656D01*
X226060000Y-67564000D02*
X232156000Y-67564000D01*
X226060000Y-24765000D02*
X226060000Y-51308000D01*
X226060000Y-51308000D02*
X226060000Y-67564000D01*
X235712000Y-95896616D02*
X234696000Y-96912616D01*
X235712000Y-83312000D02*
X235712000Y-95896616D01*
X234696000Y-96912616D02*
X234696000Y-107696000D01*
X234442000Y-107950000D02*
X225806000Y-107950000D01*
X234696000Y-107696000D02*
X234442000Y-107950000D01*
X226060000Y-108458000D02*
X225552000Y-107950000D01*
X226060000Y-135460000D02*
X226060000Y-108458000D01*
X225806000Y-107950000D02*
X225552000Y-107950000D01*
X225552000Y-107950000D02*
X222885000Y-107950000D01*
X233172000Y-73152000D02*
X233172000Y-76708000D01*
X233680000Y-77216000D02*
X233680000Y-78740000D01*
X233172000Y-76708000D02*
X233680000Y-77216000D01*
X235380000Y-78740000D02*
X233680000Y-78740000D01*
X209550000Y-15240000D02*
X210820000Y-15240000D01*
X210820000Y-24130000D02*
X210820000Y-15240000D01*
X210820000Y-15240000D02*
X226060000Y-15240000D01*
X226060000Y-15240000D02*
X226060000Y-24765000D01*
X190627000Y-14605000D02*
X190500000Y-14732000D01*
X205105000Y-14605000D02*
X190627000Y-14605000D01*
X190500000Y-14732000D02*
X190500000Y-50800000D01*
X190500000Y-14732000D02*
X166370000Y-14732000D01*
X166370000Y-13970000D02*
X166370000Y-14732000D01*
X166370000Y-14732000D02*
X166370000Y-29210000D01*
X93980000Y-135636000D02*
X94996000Y-136652000D01*
X94996000Y-136652000D02*
X97536000Y-136652000D01*
X93980000Y-133096000D02*
X93980000Y-135636000D01*
X94779999Y-132296001D02*
X95287999Y-132296001D01*
X93980000Y-133096000D02*
X94779999Y-132296001D01*
X95287999Y-132296001D02*
X95504000Y-132080000D01*
X95504000Y-125984000D02*
X97028000Y-124460000D01*
X95504000Y-132080000D02*
X95504000Y-125984000D01*
X55372000Y-17145000D02*
X56984990Y-17145000D01*
X97028000Y-124460000D02*
X97028000Y-122936000D01*
X109728000Y-13716000D02*
X109728000Y-12700000D01*
X109728000Y-12700000D02*
X92075000Y-12700000D01*
X109982000Y-13716000D02*
X110236000Y-13970000D01*
X109728000Y-13716000D02*
X109982000Y-13716000D01*
X162560000Y-25400000D02*
X162560000Y-13970000D01*
X166370000Y-13970000D02*
X162560000Y-13970000D01*
X162560000Y-13970000D02*
X110236000Y-13970000D01*
X84328000Y2032000D02*
X96012000Y2032000D01*
X96012000Y2032000D02*
X96012000Y2032000D01*
X111760000Y2032000D02*
X116840000Y2032000D01*
X116840000Y2032000D02*
X116840000Y2032000D01*
X146812000Y2032000D02*
X151892000Y2032000D01*
X151892000Y2032000D02*
X151892000Y2032000D01*
X156972000Y2032000D02*
X158378002Y2032000D01*
X158378002Y2032000D02*
X174752000Y2032000D01*
X174752000Y2032000D02*
X174752000Y2032000D01*
X53975000Y-110490000D02*
X53975000Y-113030000D01*
X52415030Y-108930030D02*
X53975000Y-110490000D01*
X54610000Y-60960000D02*
X52415030Y-60960000D01*
X53975000Y-113030000D02*
X52705000Y-114300000D01*
X52415030Y-60960000D02*
X52415030Y-108930030D01*
X52705000Y-52070000D02*
X56515000Y-52070000D01*
X56515000Y-52070000D02*
X56515000Y-56253616D01*
X56515000Y-56253616D02*
X56141384Y-56253616D01*
X52705000Y-36195000D02*
X52705000Y-52070000D01*
X56141384Y-56253616D02*
X54610000Y-57785000D01*
X54610000Y-57785000D02*
X54610000Y-60960000D01*
X53213000Y-171196000D02*
X52705000Y-170688000D01*
X70485000Y-171196000D02*
X53213000Y-171196000D01*
X52705000Y-114300000D02*
X52705000Y-170688000D01*
X70485000Y-171196000D02*
X70485000Y-156845000D01*
X79070020Y-20320000D02*
X93745000Y-20320000D01*
X76835000Y-16256000D02*
X76835000Y-18084980D01*
X92075000Y-12700000D02*
X77216000Y-12700000D01*
X76835000Y-12827000D02*
X76708000Y-12700000D01*
X76835000Y-16256000D02*
X76835000Y-12827000D01*
X77216000Y-12700000D02*
X76708000Y-12700000D01*
X76708000Y-12700000D02*
X74930000Y-12700000D01*
X210820000Y-49276000D02*
X210820000Y-24130000D01*
X210820000Y-49276000D02*
X211289990Y-49276000D01*
X211289990Y-64935010D02*
X210820000Y-65405000D01*
X211289990Y-49276000D02*
X211289990Y-64935010D01*
X203835000Y-45720000D02*
X207010000Y-45720000D01*
X207010000Y-45720000D02*
X207010000Y-52070000D01*
X74930000Y-14605000D02*
X75330000Y-14605000D01*
X221615000Y-52070000D02*
X222250000Y-52070000D01*
X203835000Y-45720000D02*
X203200000Y-45720000D01*
X207010000Y-45720000D02*
X207010000Y-45720000D01*
X205740000Y-24130000D02*
X203454000Y-24130000D01*
X203200000Y-45720000D02*
X203200000Y-24384000D01*
X203454000Y-24130000D02*
X203200000Y-24384000D01*
X74930000Y-13305000D02*
X74930000Y-12700000D01*
X74930000Y-14605000D02*
X74930000Y-13305000D01*
G04 #@! TO.N,Net-(C2-Pad1)*
X81280000Y-151765000D02*
X81280000Y-148590000D01*
X77470000Y-152400000D02*
X77470000Y-151765000D01*
X77470000Y-158115000D02*
X77470000Y-152400000D01*
X77470000Y-151765000D02*
X78105000Y-151765000D01*
X78105000Y-151765000D02*
X81280000Y-151765000D01*
X69215000Y-160020000D02*
X67310000Y-160020000D01*
X78105000Y-151765000D02*
X69215000Y-151765000D01*
X69215000Y-151765000D02*
X69215000Y-160020000D01*
G04 #@! TO.N,/Running(Out)*
X60325000Y-90170000D02*
X62865000Y-90170000D01*
X126365000Y-90170000D02*
X121285000Y-90170000D01*
X121285000Y-78740000D02*
X102235000Y-78740000D01*
X121285000Y-90170000D02*
X121285000Y-78740000D01*
X99695000Y-72253998D02*
X98425000Y-73523998D01*
X99695000Y-59690000D02*
X99695000Y-72253998D01*
X98425000Y-73523998D02*
X98425000Y-74930000D01*
X209550000Y-120650000D02*
X209550000Y-128905000D01*
X209550000Y-128905000D02*
X208280000Y-130175000D01*
X85090000Y-123825000D02*
X85090000Y-121285000D01*
X85090000Y-121285000D02*
X86360000Y-120015000D01*
X97155000Y-110490000D02*
X97155000Y-109855000D01*
X97155000Y-110490000D02*
X92075000Y-110490000D01*
X100965000Y-102235000D02*
X102235000Y-100965000D01*
X100965000Y-109855000D02*
X100965000Y-102235000D01*
X102235000Y-83820000D02*
X102235000Y-100965000D01*
X97155000Y-109855000D02*
X100965000Y-109855000D01*
X91440000Y-113665000D02*
X91440000Y-111125000D01*
X92075000Y-110490000D02*
X91440000Y-111125000D01*
X86360000Y-120015000D02*
X86360000Y-120015000D01*
X208280000Y-130175000D02*
X200025000Y-130175000D01*
X133985000Y-110490000D02*
X135255000Y-110490000D01*
X133985000Y-102870000D02*
X133985000Y-110490000D01*
X132715000Y-90170000D02*
X132715000Y-102870000D01*
X132715000Y-102870000D02*
X133985000Y-102870000D01*
G04 #@! TO.N,Net-(U18-Pad8)*
X181610000Y-119380000D02*
X177800000Y-119380000D01*
X215265000Y-113030000D02*
X211455000Y-113030000D01*
X211455000Y-113030000D02*
X211455000Y-116205000D01*
X211455000Y-116205000D02*
X211455000Y-124460000D01*
X198120000Y-129540000D02*
X199136000Y-129540000D01*
X198120000Y-129540000D02*
X198120000Y-131572000D01*
X205105000Y-128270000D02*
X207010000Y-126365000D01*
X196850000Y-131572000D02*
X196850000Y-132715000D01*
X199390000Y-128270000D02*
X205105000Y-128270000D01*
X198120000Y-131572000D02*
X196850000Y-131572000D01*
X199390000Y-128270000D02*
X199136000Y-128524000D01*
X199136000Y-129540000D02*
X199136000Y-128524000D01*
X207010000Y-126365000D02*
X207010000Y-124460000D01*
X199136000Y-128524000D02*
X199136000Y-128181010D01*
G04 #@! TO.N,Net-(U22-Pad4)*
X157480000Y-129540000D02*
X157480000Y-134620000D01*
X157480000Y-134620000D02*
X147320000Y-134620000D01*
X161290000Y-129540000D02*
X157480000Y-129540000D01*
G04 #@! TO.N,Net-(U22-Pad5)*
X146050000Y-127000000D02*
X153670000Y-127000000D01*
G04 #@! TO.N,Net-(U18-Pad9)*
X206610000Y-121920000D02*
X207010000Y-121920000D01*
X203835000Y-119145000D02*
X206610000Y-121920000D01*
X203835000Y-117475000D02*
X203835000Y-119145000D01*
X203835000Y-126365000D02*
X203835000Y-119145000D01*
X203530020Y-126669980D02*
X203835000Y-126365000D01*
X203200000Y-126669980D02*
X203530020Y-126669980D01*
X195249980Y-126669980D02*
X195249980Y-126669980D01*
X203835000Y-126365000D02*
X203835000Y-127381000D01*
X203835000Y-127381000D02*
X195199000Y-127381000D01*
X195249980Y-127330020D02*
X195249980Y-126669980D01*
X195199000Y-127381000D02*
X195249980Y-127330020D01*
G04 #@! TO.N,Net-(U22-Pad6)*
X172720000Y-127000000D02*
X177800000Y-127000000D01*
X147320000Y-121920000D02*
X153670000Y-121920000D01*
G04 #@! TO.N,Net-(U22-Pad7)*
X177800000Y-129540000D02*
X182880000Y-129540000D01*
X182880000Y-129540000D02*
X182880000Y-111760000D01*
X182880000Y-111760000D02*
X173990000Y-111760000D01*
G04 #@! TO.N,Net-(U1-Pad4)*
X57990000Y-157480000D02*
X57150000Y-158320000D01*
X59690000Y-157480000D02*
X57990000Y-157480000D01*
X57150000Y-158320000D02*
X57150000Y-164465000D01*
X57150000Y-164465000D02*
X57785000Y-165100000D01*
X57785000Y-165100000D02*
X59690000Y-165100000D01*
G04 #@! TO.N,Net-(U1-Pad11)*
X58020000Y-55880000D02*
X55880000Y-58020000D01*
X58420000Y-55880000D02*
X58020000Y-55880000D01*
X55880000Y-58020000D02*
X55880000Y-61595000D01*
X55880000Y-64770000D02*
X55880000Y-69215000D01*
X59055000Y-88900000D02*
X59055000Y-92710000D01*
X55880000Y-128270000D02*
X55880000Y-132080000D01*
X61595000Y-128270000D02*
X55880000Y-128270000D01*
X69215000Y-162560000D02*
X67310000Y-162560000D01*
X62865000Y-127000000D02*
X61595000Y-128270000D01*
X62865000Y-113030000D02*
X62865000Y-127000000D01*
X60960000Y-113030000D02*
X62865000Y-113030000D01*
X59055000Y-96520000D02*
X62865000Y-96520000D01*
X55880000Y-132080000D02*
X54610000Y-132080000D01*
X62865000Y-96520000D02*
X62865000Y-106680000D01*
X62865000Y-106680000D02*
X60960000Y-106680000D01*
X60960000Y-106680000D02*
X59690000Y-107950000D01*
X59690000Y-107950000D02*
X59690000Y-111760000D01*
X59690000Y-111760000D02*
X60960000Y-113030000D01*
X69215000Y-170180000D02*
X54610000Y-170180000D01*
X54610000Y-132080000D02*
X54610000Y-170180000D01*
X69215000Y-170180000D02*
X69215000Y-162560000D01*
G04 #@! TO.N,Net-(U11-Pad8)*
X114065000Y-52070000D02*
X113665000Y-52070000D01*
X194310000Y-72390000D02*
X198882000Y-72390000D01*
X194310000Y-66040000D02*
X193040000Y-64770000D01*
X193040000Y-64770000D02*
X193040000Y-45720000D01*
X146050000Y-45085000D02*
X146050000Y-41910000D01*
X193040000Y-45720000D02*
X193040000Y-44450000D01*
X130810000Y-51435000D02*
X130810000Y-41910000D01*
X130810000Y-41910000D02*
X133985000Y-41910000D01*
X146050000Y-41910000D02*
X133985000Y-41910000D01*
X133985000Y-41910000D02*
X133350000Y-41910000D01*
G04 #@! TO.N,Net-(U15-Pad4)*
X113665000Y-44450000D02*
X114065000Y-44450000D01*
X114065000Y-44450000D02*
X118110000Y-44450000D01*
X118745000Y-44450000D02*
X118745000Y-50165000D01*
X139700000Y-50165000D02*
X139700000Y-44450000D01*
X139700000Y-36195000D02*
X151130000Y-36195000D01*
X173355000Y-19050000D02*
X177800000Y-19050000D01*
X118110000Y-44450000D02*
X118745000Y-44450000D01*
X165100000Y-24765000D02*
X165100000Y-20320000D01*
X151130000Y-27940000D02*
X165100000Y-27940000D01*
X151130000Y-29210000D02*
X151130000Y-27940000D01*
X165100000Y-27940000D02*
X165100000Y-24765000D01*
X151130000Y-31750000D02*
X151130000Y-27940000D01*
X132080000Y-50165000D02*
X139700000Y-50165000D01*
G04 #@! TO.N,Net-(U11-Pad3)*
X126365000Y-29210000D02*
X126365000Y-44450000D01*
X133350000Y-74930000D02*
X133350000Y-83820000D01*
X133350000Y-83820000D02*
X133515010Y-83985010D01*
X136359990Y-83985010D02*
X136359990Y-93179990D01*
X139700000Y-93345000D02*
X139700000Y-99060000D01*
X133515010Y-83985010D02*
X136359990Y-83985010D01*
X136359990Y-93179990D02*
X136525000Y-93345000D01*
X136525000Y-93345000D02*
X139700000Y-93345000D01*
G04 #@! TO.N,Net-(U19-Pad1)*
X230632000Y-100584000D02*
X227584000Y-100584000D01*
X227838000Y-102870000D02*
X229616000Y-102870000D01*
X227838000Y-102870000D02*
X227584000Y-102616000D01*
X227584000Y-100584000D02*
X227584000Y-102616000D01*
G04 #@! TO.N,/RunningInv(out)*
X144780000Y-156210000D02*
X144780000Y-161290000D01*
X142146998Y-137160000D02*
X143510000Y-137160000D01*
X135255000Y-94615000D02*
X138430000Y-94615000D01*
X138430000Y-133443002D02*
X142146998Y-137160000D01*
X135255000Y-92710000D02*
X135255000Y-94615000D01*
X138430000Y-94615000D02*
X138430000Y-133443002D01*
X143510000Y-137160000D02*
X143510000Y-139700000D01*
X143510000Y-139700000D02*
X144780000Y-139700000D01*
X221615000Y-138672384D02*
X223012000Y-137275384D01*
X221615000Y-139065000D02*
X221615000Y-138672384D01*
X223012000Y-135676616D02*
X224576616Y-134112000D01*
X223012000Y-137275384D02*
X223012000Y-135676616D01*
X224576616Y-134112000D02*
X224576616Y-134071384D01*
X224576616Y-134112000D02*
X224576616Y-134112000D01*
X228092000Y-134112000D02*
X228092000Y-132080000D01*
X228092000Y-132080000D02*
X234696000Y-132080000D01*
X234696000Y-132080000D02*
X234696000Y-144780000D01*
X233680000Y-145796000D02*
X234696000Y-144780000D01*
X168148000Y-176624137D02*
X168148000Y-176624137D01*
X225044000Y-175260000D02*
X225044000Y-175260000D01*
X236220000Y-175260000D02*
X236220000Y-175260000D01*
X162052000Y-168148000D02*
X162052000Y-161290000D01*
X168148000Y-168148000D02*
X162052000Y-168148000D01*
X225044000Y-181864000D02*
X182372000Y-181864000D01*
X162052000Y-161290000D02*
X150368000Y-161290000D01*
X225044000Y-175260000D02*
X225044000Y-181864000D01*
X182372000Y-180340000D02*
X168148000Y-180340000D01*
X182372000Y-181864000D02*
X182372000Y-180340000D01*
X236220000Y-175260000D02*
X225044000Y-175260000D01*
X168148000Y-180340000D02*
X168148000Y-168148000D01*
X233680000Y-145796000D02*
X233680000Y-156972000D01*
G04 #@! TO.N,Net-(U16-Pad2)*
X146519990Y-54610000D02*
X148590000Y-54610000D01*
X146519990Y-54610000D02*
X146050000Y-54610000D01*
X132080000Y-54610000D02*
X140970000Y-54610000D01*
G04 #@! TO.N,Net-(D5-Pad1)*
X190500000Y-131445000D02*
X190500000Y-129540000D01*
X190500000Y-131445000D02*
X190500000Y-134620000D01*
G04 #@! TO.N,Net-(U11-Pad12)*
X135890000Y-58420000D02*
X142240000Y-58420000D01*
G04 #@! TO.N,Net-(U12-Pad4)*
X161290000Y-78740000D02*
X161290000Y-83820000D01*
G04 #@! TO.N,Net-(U11-Pad13)*
X137160000Y-71120000D02*
X142240000Y-71120000D01*
G04 #@! TO.N,Net-(U12-Pad5)*
X177800000Y-87630000D02*
X173990000Y-87630000D01*
X173990000Y-77470000D02*
X173990000Y-87630000D01*
G04 #@! TO.N,Net-(U11-Pad6)*
X142240000Y-43180000D02*
X142240000Y-45720000D01*
X142240000Y-45720000D02*
X143510000Y-46990000D01*
X142240000Y-29210000D02*
X142240000Y-31750000D01*
G04 #@! TO.N,Net-(U11-Pad9)*
X134620000Y-74930000D02*
X134620000Y-83185000D01*
X137164998Y-83185000D02*
X134620000Y-83185000D01*
X137160000Y-92075000D02*
X140970000Y-92075000D01*
X137160000Y-92075000D02*
X137160000Y-83185000D01*
X140970000Y-92075000D02*
X140970000Y-101600000D01*
G04 #@! TO.N,Net-(U11-Pad11)*
X172720000Y-49530000D02*
X172720000Y-59690000D01*
X172720000Y-59690000D02*
X177800000Y-59690000D01*
X130175000Y-34290000D02*
X130175000Y-27940000D01*
X168910000Y-22860000D02*
X168910000Y-30480000D01*
X172720000Y-49530000D02*
X172720000Y-45720000D01*
G04 #@! TO.N,Net-(U10-Pad4)*
X226060000Y-91440000D02*
X231129980Y-91440000D01*
X231129980Y-68590020D02*
X231119960Y-68580000D01*
X231119960Y-68580000D02*
X223520000Y-68580000D01*
X231129980Y-68590020D02*
X232145980Y-68590020D01*
X232145980Y-68590020D02*
X232156000Y-68600040D01*
X231129980Y-91440000D02*
X231129980Y-76708000D01*
X223520000Y-68580000D02*
X224028000Y-68580000D01*
X232156000Y-71628000D02*
X231648000Y-71628000D01*
X232156000Y-68600040D02*
X232156000Y-71628000D01*
X231140000Y-72136000D02*
X231140000Y-76697980D01*
X231648000Y-71628000D02*
X231140000Y-72136000D01*
X231140000Y-76697980D02*
X231129980Y-76708000D01*
G04 #@! TO.N,Net-(U10-Pad3)*
X226060000Y-83820000D02*
X228600000Y-83820000D01*
X228600000Y-83820000D02*
X228600000Y-74676000D01*
G04 #@! TO.N,/Completed(In)*
X78105000Y-78740000D02*
X78105000Y-83820000D01*
X73025000Y-83820000D02*
X73025000Y-107950000D01*
X78105000Y-83820000D02*
X73025000Y-83820000D01*
X75565000Y-78740000D02*
X78105000Y-78740000D01*
X73025000Y-107950000D02*
X73025000Y-109220000D01*
G04 #@! TO.N,/Reset(Out)*
X198120000Y-24130000D02*
X198120000Y-17780000D01*
X151970000Y-33020000D02*
X153670000Y-33020000D01*
X198120000Y-24130000D02*
X194310000Y-24130000D01*
X194310000Y-24130000D02*
X194310000Y-38100000D01*
X195580000Y-58420000D02*
X195580000Y-66040000D01*
X196850000Y-55880000D02*
X196850000Y-48260000D01*
X207010000Y-67310000D02*
X207010000Y-71120000D01*
X207010000Y-71120000D02*
X195580000Y-71120000D01*
X83185000Y-73660000D02*
X85725000Y-73660000D01*
X85725000Y-70983998D02*
X93208998Y-63500000D01*
X85725000Y-73660000D02*
X85725000Y-70983998D01*
X132715000Y-33020000D02*
X132715000Y-39370000D01*
X104140000Y-37465000D02*
X102870000Y-37465000D01*
X102870000Y-37465000D02*
X102235000Y-38100000D01*
X102235000Y-38100000D02*
X102235000Y-46355000D01*
X102235000Y-46990000D02*
X99060000Y-46990000D01*
X99060000Y-46990000D02*
X96520000Y-49530000D01*
X96520000Y-49530000D02*
X96520000Y-57150000D01*
X93208998Y-63500000D02*
X96520000Y-63500000D01*
X96520000Y-63500000D02*
X96520000Y-59690000D01*
X102235000Y-46355000D02*
X102235000Y-46990000D01*
X163830000Y-23217768D02*
X163830000Y-16510000D01*
X153670000Y-33020000D02*
X149860000Y-33020000D01*
X163691384Y-23356384D02*
X163830000Y-23217768D01*
X149860000Y-33020000D02*
X149860000Y-27305000D01*
X149860000Y-27305000D02*
X150495000Y-26670000D01*
X163830000Y-23495000D02*
X163691384Y-23356384D01*
X150495000Y-26670000D02*
X163830000Y-26670000D01*
X163830000Y-26670000D02*
X163830000Y-23495000D01*
X132715000Y-33020000D02*
X149860000Y-33020000D01*
X193040000Y-16510000D02*
X193802000Y-15748000D01*
X193802000Y-15748000D02*
X198120000Y-15748000D01*
X198120000Y-15748000D02*
X198120000Y-17780000D01*
G04 #@! TO.N,/Next(Out)*
X196850000Y-90170000D02*
X196850000Y-86360000D01*
X196850000Y-86360000D02*
X199390000Y-86360000D01*
X196850000Y-90170000D02*
X195580000Y-90170000D01*
X195580000Y-100330000D02*
X195580000Y-93980000D01*
X196850000Y-86360000D02*
X196850000Y-76200000D01*
X208280000Y-76200000D02*
X208280000Y-71120000D01*
X196850000Y-76200000D02*
X208280000Y-76200000D01*
X142240000Y-90805000D02*
X142240000Y-107950000D01*
G04 #@! TO.N,Net-(U15-Pad2)*
X198120000Y-26670000D02*
X201930000Y-26670000D01*
X201930000Y-26670000D02*
X201930000Y-46990000D01*
G04 #@! TO.N,Net-(U14-Pad6)*
X199390000Y-107920000D02*
X198150000Y-106680000D01*
X199390000Y-109220000D02*
X199390000Y-107920000D01*
X198150000Y-106680000D02*
X194310000Y-106680000D01*
G04 #@! TO.N,Net-(U16-Pad1)*
X167640000Y-54610000D02*
X167640000Y-52070000D01*
X167640000Y-99060000D02*
X167640000Y-54610000D01*
G04 #@! TO.N,Net-(D3-Pad2)*
X159512000Y-3048000D02*
X159512000Y-3048000D01*
X128016000Y-7112000D02*
X128016000Y-3048000D01*
X127800010Y-7327990D02*
X128016000Y-7112000D01*
X107696000Y1016000D02*
X107696000Y-7327990D01*
X107696000Y-7327990D02*
X127800010Y-7327990D01*
X231186464Y-3048000D02*
X160528000Y-3048000D01*
X231186464Y-62022464D02*
X231186464Y-3048000D01*
X240284000Y-155956000D02*
X240284000Y-65578464D01*
X160528000Y-3048000D02*
X159512000Y-3048000D01*
X236728000Y-62022464D02*
X231186464Y-62022464D01*
X240284000Y-65578464D02*
X236728000Y-62022464D01*
X107696000Y1016000D02*
X107696000Y5080000D01*
G04 #@! TO.N,Net-(D1-Pad2)*
X183498850Y-154034850D02*
X183498850Y-149037853D01*
X184285989Y-154821989D02*
X183498850Y-154034850D01*
X219456000Y-151892000D02*
X219063384Y-152284616D01*
X230632000Y-151892000D02*
X219456000Y-151892000D01*
X219063384Y-152284616D02*
X212852000Y-152284616D01*
X212852000Y-152284616D02*
X211838627Y-153297989D01*
X211369991Y-154390009D02*
X210938011Y-154821989D01*
X210938011Y-154821989D02*
X184285989Y-154821989D01*
X211838627Y-153297989D02*
X211369991Y-154390009D01*
X155956000Y5080000D02*
X157988000Y5080000D01*
X238252000Y-65809232D02*
X236450768Y-64008000D01*
X238252000Y-151892000D02*
X238252000Y-65809232D01*
X236450768Y-64008000D02*
X229108000Y-64008000D01*
X229108000Y-64008000D02*
X229108000Y-7112000D01*
X229108000Y-7112000D02*
X155956000Y-7112000D01*
X155956000Y5080000D02*
X155956000Y-7112000D01*
G04 #@! TO.N,Net-(D2-Pad2)*
X218440000Y-149860000D02*
X230632000Y-149860000D01*
X209688616Y-152908000D02*
X212228616Y-150368000D01*
X194785700Y-152908000D02*
X209688616Y-152908000D01*
X212228616Y-150368000D02*
X217932000Y-150368000D01*
X217932000Y-150368000D02*
X218440000Y-149860000D01*
X194785700Y-152908000D02*
X191516000Y-152908000D01*
X191118850Y-152510850D02*
X191118850Y-149037853D01*
X191516000Y-152908000D02*
X191118850Y-152510850D01*
X237312020Y-66000636D02*
X237312020Y-147243980D01*
X237236000Y-147320000D02*
X237236000Y-149860000D01*
X236335384Y-65024000D02*
X237312020Y-66000636D01*
X228092000Y-65024000D02*
X236335384Y-65024000D01*
X211328000Y-9144000D02*
X228092000Y-9144000D01*
X132588000Y5080000D02*
X132588000Y-10160000D01*
X211328000Y-9767384D02*
X211328000Y-9144000D01*
X237312020Y-147243980D02*
X237236000Y-147320000D01*
X228092000Y-9144000D02*
X228092000Y-65024000D01*
X132588000Y-10160000D02*
X167132000Y-10160000D01*
X167424010Y-10452010D02*
X210643374Y-10452010D01*
X167132000Y-10160000D02*
X167424010Y-10452010D01*
X210643374Y-10452010D02*
X211328000Y-9767384D01*
G04 #@! TO.N,Net-(D4-Pad2)*
X159512000Y-5080000D02*
X159512000Y-5080000D01*
X198628000Y-5080000D02*
X159512000Y-5080000D01*
X230124000Y-5080000D02*
X198628000Y-5080000D01*
X230124000Y-62992000D02*
X230124000Y-5080000D01*
X236566152Y-62992000D02*
X230124000Y-62992000D01*
X239268000Y-153924000D02*
X239268000Y-65693848D01*
X239268000Y-65693848D02*
X236566152Y-62992000D01*
X103124000Y-5080000D02*
X79756000Y-5080000D01*
X79756000Y-5080000D02*
X79756000Y5080000D01*
X79756000Y5080000D02*
X82804000Y5080000D01*
G04 #@! TO.N,Net-(D5-Pad2)*
X219456000Y-153416000D02*
X212852000Y-153416000D01*
X183214001Y-155621999D02*
X183244850Y-155591150D01*
X212170001Y-155621999D02*
X183214001Y-155621999D01*
X219964000Y-152908000D02*
X219456000Y-153416000D01*
X183214001Y-155621999D02*
X180005999Y-155621999D01*
X179688850Y-155304850D02*
X179688850Y-149037853D01*
X180005999Y-155621999D02*
X179688850Y-155304850D01*
X219964000Y-152908000D02*
X229616000Y-152908000D01*
X212852000Y-153416000D02*
X212852000Y-154432000D01*
X212214367Y-154451038D02*
X212214367Y-154451039D01*
X212222537Y-154432000D02*
X212214367Y-154451038D01*
X212852000Y-154432000D02*
X212222537Y-154432000D01*
X212214367Y-154451039D02*
X212170001Y-155621999D01*
X154432000Y-4064000D02*
X154940000Y-4064000D01*
X154940000Y-4064000D02*
X154432000Y-4064000D01*
X224536000Y-4064000D02*
X158496000Y-4064000D01*
X153924000Y-4064000D02*
X154940000Y-4064000D01*
X157988000Y8636000D02*
X153924000Y8636000D01*
X153924000Y8636000D02*
X153924000Y-4064000D01*
G04 #@! TO.N,Net-(D6-Pad2)*
X187308850Y-153780850D02*
X187308850Y-149037853D01*
X187549979Y-154021979D02*
X187308850Y-153780850D01*
X210606637Y-154021979D02*
X187549979Y-154021979D01*
X218440000Y-151384000D02*
X212344000Y-151384000D01*
X218948000Y-150876000D02*
X218440000Y-151384000D01*
X212344000Y-151384000D02*
X210606637Y-153121363D01*
X210606637Y-153121363D02*
X210606637Y-154021979D01*
X218948000Y-150876000D02*
X229616000Y-150876000D01*
X224536000Y-6096000D02*
X198628000Y-6096000D01*
X198628000Y-6096000D02*
X158496000Y-6096000D01*
X130556000Y8636000D02*
X132588000Y8636000D01*
X131064000Y-6096000D02*
X130556000Y-6096000D01*
X130556000Y8636000D02*
X130556000Y-6096000D01*
G04 #@! TO.N,Net-(D7-Pad2)*
X194928850Y-151527150D02*
X194928850Y-149037853D01*
X212621232Y-148844000D02*
X209357242Y-152107990D01*
X197998987Y-152107990D02*
X197782997Y-151892000D01*
X209357242Y-152107990D02*
X197998987Y-152107990D01*
X195215150Y-151527150D02*
X195580000Y-151892000D01*
X194928850Y-151527150D02*
X195215150Y-151527150D01*
X197782997Y-151892000D02*
X195580000Y-151892000D01*
X212621232Y-148844000D02*
X229616000Y-148844000D01*
X210312000Y-9652000D02*
X173228000Y-9652000D01*
X224028000Y-8128000D02*
X210312000Y-8128000D01*
X210312000Y-8128000D02*
X210312000Y-9652000D01*
X173228000Y-9652000D02*
X173228000Y-8128000D01*
X173228000Y-8128000D02*
X144272000Y-8128000D01*
X104648000Y8636000D02*
X107696000Y8636000D01*
X131064000Y-8128000D02*
X104648000Y-8128000D01*
X104648000Y8636000D02*
X104648000Y-8128000D01*
G04 #@! TO.N,Net-(D8-Pad2)*
X159512000Y-2032000D02*
X159512000Y-2032000D01*
X160020000Y-2032000D02*
X157480000Y-2032000D01*
X160020000Y-2032000D02*
X159512000Y-2032000D01*
X224536000Y-2032000D02*
X199136000Y-2032000D01*
X199136000Y-2032000D02*
X160020000Y-2032000D01*
X77724000Y8636000D02*
X82804000Y8636000D01*
X77724000Y-2032000D02*
X77724000Y8636000D01*
G04 #@! TO.N,/D4*
X120396000Y6604000D02*
X120396000Y5080000D01*
X231775000Y-139065000D02*
X231775000Y-135763000D01*
X231775000Y-135763000D02*
X229616000Y-133604000D01*
X220217998Y-106541386D02*
X220215050Y-106544334D01*
X220218000Y-104786616D02*
X219240010Y-103808626D01*
X220215050Y-106544334D02*
X220218000Y-106541384D01*
X220218000Y-106541384D02*
X220218000Y-104786616D01*
X219240010Y-103808626D02*
X219024020Y-103592636D01*
X219024020Y-103592636D02*
X219024020Y-98552000D01*
X219024020Y-98552000D02*
X219024020Y-48843536D01*
X219024020Y-48843536D02*
X219580041Y-48287515D01*
X229616000Y-133604000D02*
X229616000Y-133096000D01*
X220218000Y-106541384D02*
X220218000Y-128270000D01*
X220218000Y-128270000D02*
X220215050Y-128272950D01*
X220215050Y-128739990D02*
X222327374Y-128739990D01*
X220215050Y-128272950D02*
X220215050Y-128739990D01*
X222327374Y-128739990D02*
X222796010Y-129208626D01*
X222796010Y-129208626D02*
X222796010Y-133604000D01*
X222796010Y-133604000D02*
X223520000Y-133604000D01*
X219580041Y-19304000D02*
X219580041Y-19179959D01*
X219580041Y-48287515D02*
X219580041Y-19304000D01*
X219580041Y-19179959D02*
X221488000Y-17272000D01*
X221488000Y-17272000D02*
X221488000Y-17272000D01*
X221488000Y-13716000D02*
X221488000Y-11176000D01*
X221488000Y-11684000D02*
X221488000Y-11176000D01*
X221488000Y-11176000D02*
X221488000Y-11684000D01*
X101092000Y1016000D02*
X101092000Y-3556000D01*
X101092000Y-3556000D02*
X101092000Y-3556000D01*
X129032000Y-4064000D02*
X129032000Y-1016000D01*
X129032000Y-1016000D02*
X120396000Y-1016000D01*
X120396000Y-1016000D02*
X120396000Y1016000D01*
X152908000Y-4064000D02*
X152908000Y-1016000D01*
X152908000Y-1016000D02*
X145288000Y-1016000D01*
X145288000Y-1016000D02*
X145288000Y1016000D01*
X170688000Y10160000D02*
X170688000Y8636000D01*
X152908000Y9652000D02*
X152908000Y10017990D01*
X170688000Y10160000D02*
X152908000Y10017990D01*
X152908000Y10017990D02*
X152908000Y10160000D01*
X101092000Y1016000D02*
X101092000Y5080000D01*
X120396000Y1016000D02*
X120396000Y5080000D01*
X145288000Y1016000D02*
X145288000Y5080000D01*
X152908000Y9652000D02*
X152908000Y-1016000D01*
G04 #@! TO.N,/D0*
X216954010Y-106210010D02*
X217015010Y-106271010D01*
X215745010Y-105001010D02*
X215745010Y-76553010D01*
X217015010Y-106271010D02*
X215745010Y-105001010D01*
X215745010Y-76553010D02*
X215745010Y-47597010D01*
X215745010Y-47597010D02*
X216380001Y-46962019D01*
X216330000Y-144780000D02*
X208280000Y-144780000D01*
X216535000Y-146685000D02*
X216535000Y-144985000D01*
X216535000Y-144985000D02*
X216330000Y-144780000D01*
X208280000Y-144780000D02*
X208280000Y-133604000D01*
X217015010Y-106271010D02*
X217015010Y-132488990D01*
X217015010Y-132488990D02*
X218948000Y-132488990D01*
X218948000Y-133604000D02*
X218948000Y-132488990D01*
X216380001Y-19304000D02*
X216380001Y-19276001D01*
X216380001Y-46962019D02*
X216380001Y-19304000D01*
X216380001Y-19276001D02*
X214376000Y-17272000D01*
X214376000Y-17272000D02*
X214376000Y-17272000D01*
X214376000Y-13716000D02*
X214376000Y-11176000D01*
X214376000Y-11176000D02*
X214376000Y-11176000D01*
X160528000Y-9144000D02*
X135128000Y-9144000D01*
X135128000Y-9144000D02*
X135128000Y1016000D01*
X135128000Y1016000D02*
X135128000Y5080000D01*
G04 #@! TO.N,/D1*
X209296000Y-143764000D02*
X209296000Y-134112000D01*
X217854000Y-143764000D02*
X209296000Y-143764000D01*
X219075000Y-146685000D02*
X219075000Y-144985000D01*
X219075000Y-144985000D02*
X217854000Y-143764000D01*
X209296000Y-134112000D02*
X211328000Y-134112000D01*
X217180011Y-47293393D02*
X217180011Y-18288000D01*
X216545020Y-47928384D02*
X217180011Y-47293393D01*
X217815020Y-105939636D02*
X216545020Y-104669636D01*
X216545020Y-104669636D02*
X216545020Y-47928384D01*
X217815020Y-131455020D02*
X217815020Y-105939636D01*
X220319960Y-134112000D02*
X220319960Y-131724040D01*
X220050940Y-131455020D02*
X217815020Y-131455020D01*
X220319960Y-131724040D02*
X220050940Y-131455020D01*
X218440000Y-135128000D02*
X220395980Y-135128000D01*
X220395980Y-134188020D02*
X220319960Y-134112000D01*
X220395980Y-135128000D02*
X220395980Y-134188020D01*
X218400634Y-135088634D02*
X218440000Y-135128000D01*
X218008018Y-135088634D02*
X218400634Y-135088634D01*
X217131992Y-134327992D02*
X216916000Y-134112000D01*
X217247376Y-134327992D02*
X217131992Y-134327992D01*
X218008018Y-135088634D02*
X217247376Y-134327992D01*
X215392000Y-134112000D02*
X216916000Y-134112000D01*
X217180011Y-18288000D02*
X216916000Y-18288000D01*
X216916000Y-18288000D02*
X215900000Y-17272000D01*
X215900000Y-17272000D02*
X215900000Y-17272000D01*
X215900000Y-13716000D02*
X215900000Y-11176000D01*
X215900000Y-11176000D02*
X215900000Y-11176000D01*
X163068000Y5080000D02*
X163068000Y6604000D01*
X163068000Y6604000D02*
X155448000Y6604000D01*
X155956000Y6604000D02*
X155448000Y6604000D01*
X137668000Y5080000D02*
X137668000Y6604000D01*
X137668000Y6604000D02*
X150368000Y6604000D01*
X150368000Y6604000D02*
X150368000Y6604000D01*
X155448000Y6604000D02*
X155956000Y6604000D01*
X87884000Y10160000D02*
X112776000Y10160000D01*
X112776000Y10160000D02*
X112776000Y8636000D01*
X87884000Y8636000D02*
X87884000Y10160000D01*
X112776000Y10160000D02*
X137668000Y10160000D01*
X137668000Y10160000D02*
X137668000Y8636000D01*
G04 #@! TO.N,/D2*
X221615000Y-146685000D02*
X221615000Y-144985000D01*
X221615000Y-144985000D02*
X219378000Y-142748000D01*
X219378000Y-142748000D02*
X211836000Y-142748000D01*
X211836000Y-142748000D02*
X211328000Y-142748000D01*
X211328000Y-142748000D02*
X210312000Y-142748000D01*
X210312000Y-142748000D02*
X210312000Y-137160000D01*
X210312000Y-135128000D02*
X212852000Y-135128000D01*
X210312000Y-137160000D02*
X210312000Y-135128000D01*
X212852000Y-135128000D02*
X212852000Y-135128000D01*
X217424000Y-87376000D02*
X217424000Y-104417232D01*
X218615030Y-130556000D02*
X220980000Y-130556000D01*
X217980021Y-47624767D02*
X217345030Y-48259758D01*
X221156626Y-132764626D02*
X221195990Y-132803990D01*
X217208010Y-135420010D02*
X216916000Y-135128000D01*
X217345030Y-87297030D02*
X217424000Y-87376000D01*
X220256010Y-136359990D02*
X217208010Y-136359990D01*
X217980021Y-17956626D02*
X217980021Y-47624767D01*
X221156626Y-130732626D02*
X221156626Y-132764626D01*
X216916000Y-135128000D02*
X216408000Y-135128000D01*
X217208010Y-136359990D02*
X217208010Y-135420010D01*
X217424000Y-104417232D02*
X218615030Y-105608262D01*
X220980000Y-130556000D02*
X221156626Y-130732626D01*
X218615030Y-105608262D02*
X218615030Y-130556000D01*
X217345030Y-48259758D02*
X217345030Y-87297030D01*
X221195990Y-132803990D02*
X221195990Y-136144000D01*
X221195990Y-136144000D02*
X220472000Y-136144000D01*
X220472000Y-136144000D02*
X220256010Y-136359990D01*
X217980021Y-17956626D02*
X217980021Y-17272000D01*
X217980021Y-13764021D02*
X217980021Y-11224021D01*
X217980021Y-11224021D02*
X217980021Y-11224021D01*
X90424000Y8636000D02*
X90424000Y7112000D01*
X140208000Y10160000D02*
X151384000Y10160000D01*
X140208000Y8636000D02*
X140208000Y10160000D01*
X158496000Y-1016000D02*
X165608000Y-1016000D01*
X151384000Y5080000D02*
X150368000Y5080000D01*
X151384000Y10160000D02*
X151384000Y5080000D01*
X150368000Y5080000D02*
X150368000Y4064000D01*
X165608000Y5080000D02*
X165608000Y6282081D01*
X165608000Y6282081D02*
X165805920Y6480001D01*
X177800000Y6480001D02*
X177800000Y-1016000D01*
X177800000Y-1016000D02*
X165608000Y-1016000D01*
X165805920Y6480001D02*
X177800000Y6480001D01*
X140208000Y5080000D02*
X140208000Y-1016000D01*
G04 #@! TO.N,/D3*
X211328000Y-136144000D02*
X211836000Y-136144000D01*
X211328000Y-141732000D02*
X211328000Y-136144000D01*
X220902000Y-141732000D02*
X211328000Y-141732000D01*
X224155000Y-146685000D02*
X224155000Y-144985000D01*
X224155000Y-144985000D02*
X220902000Y-141732000D01*
X218224010Y-103924010D02*
X218224010Y-48512162D01*
X218440000Y-104140000D02*
X218224010Y-103924010D01*
X219417990Y-105279838D02*
X218440000Y-104301848D01*
X219415040Y-106212960D02*
X219417990Y-106210010D01*
X215392000Y-136144000D02*
X216408000Y-136144000D01*
X218440000Y-104301848D02*
X218440000Y-104140000D01*
X216408000Y-137160000D02*
X221996000Y-137160000D01*
X218224010Y-48512162D02*
X218780031Y-47956141D01*
X221996000Y-137160000D02*
X221996000Y-129540000D01*
X219417990Y-106210010D02*
X219417990Y-105279838D01*
X216408000Y-136144000D02*
X216408000Y-137160000D01*
X221996000Y-129540000D02*
X219415040Y-129540000D01*
X219415040Y-129540000D02*
X219415040Y-106212960D01*
X218780031Y-18288000D02*
X218948000Y-18288000D01*
X218780031Y-47956141D02*
X218780031Y-18288000D01*
X218948000Y-18288000D02*
X219964000Y-17272000D01*
X219456000Y-17780000D02*
X219964000Y-17272000D01*
X219964000Y-17272000D02*
X219456000Y-17780000D01*
X219964000Y-13716000D02*
X219964000Y-11176000D01*
X219964000Y-11176000D02*
X219964000Y-11176000D01*
X92964000Y5080000D02*
X92964000Y6604000D01*
X92964000Y6604000D02*
X103124000Y6604000D01*
X103124000Y6604000D02*
X103124000Y6604000D01*
X117856000Y6604000D02*
X117856000Y5080000D01*
X117856000Y1016000D02*
X117856000Y-6096000D01*
X117856000Y-6096000D02*
X117856000Y-6096000D01*
X136652000Y-7620000D02*
X136652000Y-7620000D01*
X142748000Y-7620000D02*
X136652000Y-7620000D01*
X117856000Y1016000D02*
X117856000Y5080000D01*
X142748000Y508000D02*
X142748000Y5080000D01*
X142748000Y508000D02*
X142748000Y-7620000D01*
X142748000Y1016000D02*
X142748000Y508000D01*
X105664000Y6604000D02*
X117856000Y6604000D01*
G04 #@! TO.N,Net-(U33-Pad5)*
X108904999Y-57069999D02*
X106445000Y-54610000D01*
X109855000Y-71120000D02*
X108904999Y-70169999D01*
X106445000Y-54610000D02*
X106045000Y-54610000D01*
X108904999Y-70169999D02*
X108904999Y-57069999D01*
X118745000Y-71120000D02*
X109855000Y-71120000D01*
G04 #@! TO.N,Net-(U31-Pad10)*
X98425000Y-64770000D02*
X98425000Y-50800000D01*
X99695000Y-49530000D02*
X106045000Y-49530000D01*
X98425000Y-50800000D02*
X99695000Y-49530000D01*
X86995000Y-71120000D02*
X86995000Y-73660000D01*
X86995000Y-73660000D02*
X86868000Y-73660000D01*
X93345000Y-64770000D02*
X86995000Y-71120000D01*
X86868000Y-73660000D02*
X85852000Y-74676000D01*
X84836000Y-76200000D02*
X83185000Y-76200000D01*
X85852000Y-74676000D02*
X84836000Y-74676000D01*
X84836000Y-74676000D02*
X84836000Y-76200000D01*
G04 #@! TO.N,Net-(U32-Pad2)*
X114935000Y-90170000D02*
X114935000Y-82550000D01*
G04 #@! TO.N,Net-(U32-Pad4)*
X112395000Y-92710000D02*
X112395000Y-82550000D01*
G04 #@! TO.N,Net-(U31-Pad8)*
X109855000Y-66040000D02*
X118745000Y-66040000D01*
G04 #@! TO.N,Net-(U31-Pad1)*
X79375000Y-60960000D02*
X83185000Y-60960000D01*
X83185000Y-60960000D02*
X84455000Y-62230000D01*
X106045000Y-81280000D02*
X106045000Y-87630000D01*
X75565000Y-66040000D02*
X73025000Y-66040000D01*
X73025000Y-66040000D02*
X71120000Y-67945000D01*
X71120000Y-67945000D02*
X71120000Y-78105000D01*
X71120000Y-78105000D02*
X68580000Y-78105000D01*
X68580000Y-78105000D02*
X65405000Y-81280000D01*
X65405000Y-81280000D02*
X65405000Y-82550000D01*
X70485000Y-95250000D02*
X65405000Y-95250000D01*
X65405000Y-95250000D02*
X65405000Y-88265000D01*
X65405000Y-82550000D02*
X65405000Y-84455000D01*
G04 #@! TO.N,/Control(Ext.2)*
X55245000Y-113665000D02*
X59193616Y-113665000D01*
X59193616Y-114300000D02*
X59993626Y-115100010D01*
X59193616Y-113665000D02*
X59193616Y-114300000D01*
X59993626Y-115100010D02*
X59993626Y-117143626D01*
X59993626Y-117143626D02*
X60325000Y-117475000D01*
X60325000Y-117475000D02*
X60325000Y-118745000D01*
X60325000Y-118745000D02*
X61595000Y-118745000D01*
X65405000Y-120015000D02*
X64135000Y-118745000D01*
X65405000Y-121920000D02*
X65405000Y-120015000D01*
X80010000Y-130175000D02*
X79610000Y-130175000D01*
X78209999Y-128774999D02*
X68588615Y-128774999D01*
X79610000Y-130175000D02*
X78209999Y-128774999D01*
X68588615Y-128774999D02*
X66509990Y-126696374D01*
X66509990Y-126696374D02*
X66509990Y-123024990D01*
X66509990Y-123024990D02*
X65405000Y-121920000D01*
X60325000Y-19685000D02*
X60325000Y-19685000D01*
X61595000Y-118745000D02*
X61595000Y-118745000D01*
X65610000Y-22225000D02*
X65229000Y-21844000D01*
X67310000Y-22225000D02*
X65610000Y-22225000D01*
X60325000Y-19685000D02*
X59055000Y-19685000D01*
X61405011Y-20765011D02*
X60325000Y-19685000D01*
X63125013Y-20765011D02*
X61405011Y-20765011D01*
X64204002Y-21844000D02*
X63125013Y-20765011D01*
X65229000Y-21844000D02*
X64204002Y-21844000D01*
G04 #@! TO.N,/Running(Led)*
X97536000Y-152908000D02*
X97536000Y-152908000D01*
X97525980Y-140265685D02*
X97525980Y-139700000D01*
X97525980Y-148776295D02*
X97525980Y-140265685D01*
X97536000Y-148786315D02*
X97525980Y-148776295D01*
X97536000Y-149352000D02*
X97536000Y-148786315D01*
X111760000Y-140716000D02*
X111760000Y-144272000D01*
X116840000Y-150250002D02*
X110236000Y-150250002D01*
X116840000Y-144272000D02*
X116840000Y-150250002D01*
X111760000Y-144272000D02*
X116840000Y-144272000D01*
X110236000Y-150250002D02*
X110236000Y-156972000D01*
X110236000Y-156972000D02*
X109728000Y-157480000D01*
X109728000Y-157480000D02*
X109728000Y-160528000D01*
X97536000Y-152908000D02*
X97536000Y-160528000D01*
G04 #@! TO.N,/Rain(Led)*
X96062002Y-140716000D02*
X96062002Y-150317998D01*
X96062002Y-150317998D02*
X96062002Y-150317998D01*
X96062002Y-154940000D02*
X96062002Y-157480000D01*
G04 #@! TO.N,/Control(Ext.)*
X89535000Y-127000000D02*
X89535000Y-120015000D01*
X77470000Y-124460000D02*
X78105000Y-125095000D01*
X77470000Y-120015000D02*
X77470000Y-124460000D01*
X78105000Y-125095000D02*
X80010000Y-125095000D01*
X78740000Y-118745000D02*
X77470000Y-120015000D01*
X89535000Y-120015000D02*
X88265000Y-118745000D01*
X88265000Y-118745000D02*
X78740000Y-118745000D01*
X89535000Y-120015000D02*
X89535000Y-120015000D01*
X89535000Y-127000000D02*
X89535000Y-136271000D01*
X89535000Y-136271000D02*
X90424000Y-136652000D01*
G04 #@! TO.N,/Rain_Sensor(Ext.)*
X88030000Y-137795000D02*
X87630000Y-137795000D01*
X87630000Y-137795000D02*
X91959616Y-137795000D01*
X91959616Y-137795000D02*
X93864616Y-139700000D01*
X94996000Y-140208000D02*
X94488000Y-139700000D01*
X93864616Y-139700000D02*
X94488000Y-139700000D01*
X94996000Y-140208000D02*
X94996000Y-143764000D01*
X108204000Y-153924000D02*
X108204000Y-161544000D01*
X94996000Y-153924000D02*
X94996000Y-161544000D01*
G04 #@! TO.N,/Mode(Ext.)*
X73152000Y-134620000D02*
X73152000Y-134620000D01*
X68110010Y-144272000D02*
X73152000Y-144272000D01*
X68110010Y-146342010D02*
X68110010Y-144272000D01*
X69732002Y-146304000D02*
X69671001Y-146365001D01*
X93980000Y-151384000D02*
X93980000Y-144272000D01*
X100076000Y-151384000D02*
X93980000Y-151384000D01*
X93980000Y-144272000D02*
X93472000Y-143764000D01*
X68133001Y-146365001D02*
X68110010Y-146342010D01*
X69671001Y-146365001D02*
X68133001Y-146365001D01*
X93472000Y-143764000D02*
X79012384Y-143764000D01*
X79012384Y-143764000D02*
X76472384Y-146304000D01*
X73152000Y-144272000D02*
X73152000Y-134620000D01*
X76472384Y-146304000D02*
X69732002Y-146304000D01*
G04 #@! TO.N,/Mode(In)*
X125965000Y-71120000D02*
X126365000Y-71120000D01*
X123825000Y-73260000D02*
X125965000Y-71120000D01*
X123825000Y-73260000D02*
X123825000Y-82550000D01*
X122555000Y-83820000D02*
X122555000Y-85090000D01*
X123825000Y-82550000D02*
X122555000Y-83820000D01*
G04 #@! TO.N,/Control(In2)*
X67945000Y-92710000D02*
X67945000Y-87630000D01*
X73025000Y-71120000D02*
X75565000Y-71120000D01*
X69215000Y-80010000D02*
X73025000Y-80010000D01*
X73025000Y-80010000D02*
X73025000Y-71120000D01*
X67945000Y-81280000D02*
X69215000Y-80010000D01*
G04 #@! TO.N,/Control(In1)*
X66675000Y-92710000D02*
X66675000Y-88900000D01*
X72224990Y-68745010D02*
X72390000Y-68580000D01*
X75565000Y-68580000D02*
X72390000Y-68580000D01*
X68913988Y-78905010D02*
X72224990Y-78905010D01*
X66675000Y-81915000D02*
X66675000Y-81143998D01*
X66675000Y-81143998D02*
X68913988Y-78905010D01*
X72224990Y-78905010D02*
X72224990Y-68745010D01*
G04 #@! TO.N,/Mem.Comparison.Equal*
X134620000Y-35560000D02*
X139700000Y-40640000D01*
X139700000Y-40640000D02*
X153670000Y-40640000D01*
G04 #@! TO.N,/Timer.End*
X153670000Y-38100000D02*
X156210000Y-38100000D01*
X156210000Y-38100000D02*
X156210000Y-48260000D01*
X156210000Y-48260000D02*
X158750000Y-50800000D01*
X194310000Y-48260000D02*
X194310000Y-55880000D01*
X195580000Y-57150000D02*
X199390000Y-57150000D01*
X194310000Y-55880000D02*
X195580000Y-57150000D01*
X212344000Y-72898000D02*
X212852000Y-72390000D01*
X212344000Y-78740000D02*
X212344000Y-76209002D01*
X213995000Y-78740000D02*
X212344000Y-78740000D01*
X212344000Y-76209002D02*
X212405001Y-76148001D01*
X212344000Y-74168000D02*
X212344000Y-72898000D01*
X212344000Y-75184000D02*
X212255010Y-75095010D01*
X212405001Y-75184000D02*
X212344000Y-75184000D01*
X212405001Y-76148001D02*
X212405001Y-75184000D01*
X212255010Y-75095010D02*
X212255010Y-74168000D01*
G04 #@! TO.N,Net-(U14-Pad4)*
X181610000Y-72390000D02*
X184785000Y-72390000D01*
X187960000Y-72390000D02*
X187960000Y-59690000D01*
X181610000Y-72390000D02*
X181610000Y-62230000D01*
X113665000Y-57150000D02*
X117221000Y-57150000D01*
X165100000Y-57150000D02*
X165100000Y-53340000D01*
X181610000Y-62230000D02*
X177800000Y-62230000D01*
X201930000Y-104140000D02*
X198755000Y-104140000D01*
X195580000Y-102235000D02*
X193040000Y-102235000D01*
X193040000Y-78740000D02*
X193040000Y-74930000D01*
X193040000Y-74930000D02*
X191770000Y-74930000D01*
X184785000Y-72390000D02*
X187960000Y-72390000D01*
X202565000Y-104140000D02*
X205105000Y-101600000D01*
X205105000Y-101600000D02*
X207010000Y-101600000D01*
X193040000Y-102235000D02*
X193040000Y-78740000D01*
X193040000Y-82550000D02*
X193040000Y-78740000D01*
X201930000Y-104140000D02*
X202565000Y-104140000D01*
X165100000Y-57150000D02*
X165100000Y-60325000D01*
X117221000Y-57150000D02*
X125984000Y-57150000D01*
X141351000Y-52959000D02*
X142240000Y-52070000D01*
X131191000Y-52959000D02*
X141351000Y-52959000D01*
X130810000Y-56515000D02*
X130810000Y-53340000D01*
X130810000Y-53340000D02*
X131191000Y-52959000D01*
G04 #@! TO.N,Net-(R20-Pad1)*
X133360011Y-126375011D02*
X133360011Y-135156375D01*
X130810000Y-123825000D02*
X133360011Y-126375011D01*
X122389990Y-129540000D02*
X119380000Y-129540000D01*
X133360011Y-135156375D02*
X131981375Y-136535011D01*
X124470011Y-136535011D02*
X122389990Y-134454990D01*
X122389990Y-134454990D02*
X122389990Y-129540000D01*
X131981375Y-136535011D02*
X124470011Y-136535011D01*
G04 #@! TO.N,Net-(R20-Pad2)*
X140970000Y-123825000D02*
X143510000Y-123825000D01*
X143510000Y-123825000D02*
X143510000Y-128408616D01*
X143675010Y-134923626D02*
X145110020Y-136358636D01*
X143675010Y-128573626D02*
X143675010Y-134923626D01*
X143510000Y-128408616D02*
X143675010Y-128573626D01*
X145110020Y-136358636D02*
X145110020Y-137160000D01*
X145110020Y-137160000D02*
X146050000Y-137160000D01*
X124460000Y-169418000D02*
X123952000Y-169926000D01*
X124460000Y-167132000D02*
X124460000Y-169418000D01*
G04 #@! TO.N,Net-(R21-Pad2)*
X144475020Y-123658636D02*
X144145000Y-123328616D01*
X144145000Y-118745000D02*
X140970000Y-118745000D01*
X144475020Y-134592252D02*
X144475020Y-123658636D01*
X144145000Y-123328616D02*
X144145000Y-118745000D01*
X145772768Y-135890000D02*
X146685000Y-135890000D01*
X145772768Y-135890000D02*
X144475020Y-134592252D01*
X146685000Y-135890000D02*
X147320000Y-135890000D01*
X147320000Y-169418000D02*
X146812000Y-169926000D01*
X147320000Y-160020000D02*
X147320000Y-169418000D01*
G04 #@! TO.N,Net-(R21-Pad1)*
X128700000Y-132080000D02*
X127000000Y-132080000D01*
X129059999Y-131720001D02*
X128700000Y-132080000D01*
X129059999Y-120495001D02*
X129059999Y-131720001D01*
X130810000Y-118745000D02*
X129059999Y-120495001D01*
G04 #@! TO.N,Net-(R18-Pad1)*
X130175000Y-134620000D02*
X130810000Y-133985000D01*
X125095000Y-134620000D02*
X130175000Y-134620000D01*
X124460000Y-133985000D02*
X125095000Y-134620000D01*
X124460000Y-119380000D02*
X124460000Y-133985000D01*
X124460000Y-119380000D02*
X119380000Y-119380000D01*
G04 #@! TO.N,Net-(R19-Pad2)*
X142875000Y-128905000D02*
X142875000Y-136359990D01*
X140970000Y-128905000D02*
X142875000Y-128905000D01*
X142875000Y-136359990D02*
X143979990Y-136359990D01*
X143979990Y-136359990D02*
X144310010Y-136690010D01*
X145415000Y-138430000D02*
X144310010Y-138430000D01*
X144310010Y-136690010D02*
X144310010Y-138430000D01*
X101600000Y-166624000D02*
X101600000Y-166624000D01*
X110236000Y-166624000D02*
X110236000Y-166624000D01*
X122428000Y-166624000D02*
X110236000Y-166624000D01*
X141605000Y-157480000D02*
X137668000Y-157480000D01*
X137668000Y-165100000D02*
X122428000Y-165100000D01*
X137668000Y-157480000D02*
X137668000Y-165100000D01*
X122428000Y-165100000D02*
X122428000Y-166624000D01*
X101092000Y-169926000D02*
X101092000Y-166624000D01*
X101092000Y-166624000D02*
X101600000Y-166624000D01*
G04 #@! TO.N,Net-(R19-Pad1)*
X118745000Y-124460000D02*
X120445000Y-124460000D01*
X132560001Y-130655001D02*
X132560001Y-134825001D01*
X131650001Y-135735001D02*
X125078617Y-135735001D01*
X123190000Y-124460000D02*
X119380000Y-124460000D01*
X130810000Y-128905000D02*
X132560001Y-130655001D01*
X132560001Y-134825001D02*
X131650001Y-135735001D01*
X123190000Y-133846384D02*
X123190000Y-124460000D01*
X125078617Y-135735001D02*
X123190000Y-133846384D01*
G04 #@! TO.N,Net-(C_OUT_1-Pad2)*
X93472000Y-180006000D02*
X93472000Y-183388000D01*
X88392000Y-183388000D02*
X93472000Y-183388000D01*
X88392000Y-184912000D02*
X88392000Y-183388000D01*
G04 #@! TO.N,PWR_ALW*
X183720000Y-21590000D02*
X185420000Y-21590000D01*
X182369999Y-20239999D02*
X183720000Y-21590000D01*
X174070001Y-20239999D02*
X182369999Y-20239999D01*
X172720000Y-21590000D02*
X174070001Y-20239999D01*
X54432440Y-37770000D02*
X57785000Y-34417440D01*
X54432440Y-39370000D02*
X54432440Y-37770000D01*
X57785000Y-34417440D02*
X57785000Y-14605000D01*
X103035010Y-16979990D02*
X120484990Y-16979990D01*
X102235000Y-17780000D02*
X103035010Y-16979990D01*
X120484990Y-16979990D02*
X120650000Y-17145000D01*
X120650000Y-17145000D02*
X120650000Y-18415000D01*
X81485000Y-87630000D02*
X79375000Y-89740000D01*
X83185000Y-87630000D02*
X81485000Y-87630000D01*
X75965000Y-97790000D02*
X75565000Y-97790000D01*
X79375000Y-89740000D02*
X79375000Y-94380000D01*
X79375000Y-94380000D02*
X79140000Y-94615000D01*
X81485000Y-100330000D02*
X80215000Y-101600000D01*
X83185000Y-100330000D02*
X81485000Y-100330000D01*
X80215000Y-101600000D02*
X80215000Y-114095000D01*
X180340000Y-72790000D02*
X180340000Y-66675000D01*
X185020000Y-21590000D02*
X185420000Y-21590000D01*
X182880000Y-23730000D02*
X185020000Y-21590000D01*
X182880000Y-64135000D02*
X182880000Y-23730000D01*
X55245000Y-111760000D02*
X58420000Y-111760000D01*
X58420000Y-111760000D02*
X60325000Y-113665000D01*
X60325000Y-113665000D02*
X60325000Y-114300000D01*
X60325000Y-114300000D02*
X61595000Y-114300000D01*
X61595000Y-114300000D02*
X61595000Y-116840000D01*
X77235000Y-96520000D02*
X75965000Y-97790000D01*
X79140000Y-94615000D02*
X77235000Y-96520000D01*
X82785000Y-100330000D02*
X80245000Y-97790000D01*
X77265000Y-97790000D02*
X75565000Y-97790000D01*
X80245000Y-97790000D02*
X77265000Y-97790000D01*
X83185000Y-100330000D02*
X82785000Y-100330000D01*
X71755000Y-143256000D02*
X71755000Y-136525000D01*
X67564000Y-143256000D02*
X71755000Y-143256000D01*
X67310000Y-143510000D02*
X67564000Y-143256000D01*
X67310000Y-149860000D02*
X67310000Y-143510000D01*
X81318010Y-116370010D02*
X81280000Y-116332000D01*
X81318010Y-116370010D02*
X81318010Y-116370010D01*
X55714990Y-55245000D02*
X55714990Y-53340000D01*
X55714990Y-53340000D02*
X53015299Y-53340000D01*
X52705000Y-111760000D02*
X51816000Y-111760000D01*
X51816000Y-59690000D02*
X53340000Y-59690000D01*
X55245000Y-55245000D02*
X55714990Y-55245000D01*
X53340000Y-59690000D02*
X53340000Y-57150000D01*
X53340000Y-57150000D02*
X55245000Y-55245000D01*
X51816000Y-59690000D02*
X51615020Y-59690000D01*
X51615020Y-59690000D02*
X51615020Y-111760000D01*
X88427396Y-116370010D02*
X87884000Y-116370010D01*
X91440000Y-126492000D02*
X91440000Y-119382614D01*
X91440000Y-119382614D02*
X88427396Y-116370010D01*
X91948000Y-127000000D02*
X91440000Y-126492000D01*
X87884000Y-116370010D02*
X81318010Y-116370010D01*
G04 #@! TO.N,Net-(R22-Pad1)*
X77597000Y-179451000D02*
X82677000Y-174371000D01*
X83312000Y-169926000D02*
X85852000Y-169926000D01*
X82677000Y-170561000D02*
X83312000Y-169926000D01*
X82677000Y-174371000D02*
X82677000Y-170561000D01*
G04 #@! TO.N,VAC*
X162052000Y-171831000D02*
X162052000Y-175006000D01*
X139192000Y-171831000D02*
X139192000Y-175006000D01*
X93472000Y-175006000D02*
X93472000Y-171831000D01*
X116332000Y-175006000D02*
X116332000Y-171831000D01*
X134747000Y-175641000D02*
X134747000Y-178816000D01*
X134747000Y-178816000D02*
X130302000Y-178816000D01*
X111887000Y-175006000D02*
X111887000Y-179451000D01*
X111887000Y-179451000D02*
X107442000Y-179451000D01*
X89662000Y-175006000D02*
X89662000Y-179451000D01*
X89662000Y-179451000D02*
X87757000Y-179451000D01*
X162052000Y-171831000D02*
X162052000Y-171878500D01*
X162052000Y-175006000D02*
X165735000Y-175006000D01*
X165735000Y-176403000D02*
X166624000Y-177292000D01*
X165735000Y-175006000D02*
X165735000Y-176403000D01*
G04 #@! TO.N,Net-(R23-Pad1)*
X98081999Y-178651001D02*
X101256999Y-178651001D01*
X97282000Y-179451000D02*
X98081999Y-178651001D01*
X101256999Y-178651001D02*
X105537000Y-174371000D01*
X105537000Y-174371000D02*
X105537000Y-170561000D01*
X106172000Y-169926000D02*
X108712000Y-169926000D01*
X105537000Y-170561000D02*
X106172000Y-169926000D01*
G04 #@! TO.N,Net-(R25-Pad1)*
X146812000Y-178816000D02*
X149352000Y-178816000D01*
X149352000Y-178816000D02*
X151257000Y-176911000D01*
X154032000Y-169926000D02*
X154432000Y-169926000D01*
X151257000Y-172701000D02*
X154032000Y-169926000D01*
X151257000Y-176911000D02*
X151257000Y-172701000D01*
G04 #@! TO.N,Net-(C_PWR_6-Pad2)*
X190500000Y-174244000D02*
X193548000Y-177292000D01*
X212390002Y-177292000D02*
X213868000Y-175814002D01*
X193548000Y-177292000D02*
X212390002Y-177292000D01*
X213868000Y-173656000D02*
X211916000Y-171704000D01*
X213868000Y-175814002D02*
X213868000Y-173656000D01*
X213868000Y-169752000D02*
X211916000Y-171704000D01*
X213868000Y-162560000D02*
X213868000Y-169752000D01*
X217424000Y-162560000D02*
X213868000Y-162560000D01*
X217932000Y-163068000D02*
X217424000Y-162560000D01*
X224536000Y-163068000D02*
X217932000Y-163068000D01*
X224536000Y-155448000D02*
X224536000Y-163068000D01*
G04 #@! TO.N,+9V*
X235712000Y-159512000D02*
X235712000Y-147828000D01*
G04 #@! TO.N,Net-(C_OUT_4-Pad2)*
X162560000Y-180514000D02*
X162052000Y-180006000D01*
X162560000Y-184912000D02*
X162560000Y-180514000D01*
G04 #@! TO.N,Net-(C_OUT_3-Pad2)*
X139192000Y-180006000D02*
X139192000Y-182372000D01*
X139192000Y-182372000D02*
X138176000Y-182372000D01*
X138176000Y-182372000D02*
X138176000Y-184912000D01*
G04 #@! TO.N,Net-(C_OUT_2-Pad2)*
X116332000Y-180006000D02*
X115142000Y-180006000D01*
X115142000Y-180006000D02*
X114808000Y-180340000D01*
X114808000Y-180340000D02*
X114808000Y-182372000D01*
X113792000Y-183388000D02*
X113792000Y-184912000D01*
X114808000Y-182372000D02*
X113792000Y-183388000D01*
G04 #@! TO.N,Net-(R24-Pad1)*
X120142000Y-178816000D02*
X125222000Y-178816000D01*
X125222000Y-178816000D02*
X127762000Y-176276000D01*
X127762000Y-176276000D02*
X127762000Y-170561000D01*
X128397000Y-169926000D02*
X131572000Y-169926000D01*
X127762000Y-170561000D02*
X128397000Y-169926000D01*
G04 #@! TO.N,Net-(C13-Pad1)*
X223012000Y-73152000D02*
X228092000Y-73152000D01*
X228092000Y-73152000D02*
X230124000Y-71120000D01*
X230124000Y-71120000D02*
X230124000Y-71120000D01*
G04 #@! TO.N,Net-(D11-Pad2)*
X51816000Y-55245000D02*
X53340000Y-55245000D01*
X51816000Y-15875000D02*
X51816000Y-55245000D01*
X56034989Y-13815011D02*
X56034989Y-15875000D01*
X220980000Y-156464000D02*
X220980000Y-153924000D01*
X57950010Y-11899990D02*
X56034989Y-13815011D01*
X215900000Y-156464000D02*
X220980000Y-156464000D01*
X208788000Y-159512000D02*
X212852000Y-159512000D01*
X60960000Y-10160000D02*
X59220010Y-11899990D01*
X207987990Y-160312010D02*
X208788000Y-159512000D01*
X187786001Y-162733999D02*
X207598001Y-162733999D01*
X112066788Y-10960010D02*
X111266778Y-10160000D01*
X59220010Y-11899990D02*
X57950010Y-11899990D01*
X234696000Y-146304000D02*
X235712000Y-146304000D01*
X207987990Y-162344010D02*
X207987990Y-160312010D01*
X187452000Y-174752000D02*
X187452000Y-163068000D01*
X226060000Y-158496000D02*
X234696000Y-158496000D01*
X212852000Y-159512000D02*
X215900000Y-156464000D01*
X187452000Y-163068000D02*
X187786001Y-162733999D01*
X207598001Y-162733999D02*
X207987990Y-162344010D01*
X61468000Y-10160000D02*
X60960000Y-10160000D01*
X220980000Y-153924000D02*
X226060000Y-153924000D01*
X235712000Y-146304000D02*
X235712000Y-97028000D01*
X235712000Y-97028000D02*
X236220000Y-96520000D01*
X226060000Y-153924000D02*
X226060000Y-158496000D01*
X236220000Y-96520000D02*
X236512010Y-96520000D01*
X227076000Y-66040000D02*
X227076000Y-10160000D01*
X182372000Y-174752000D02*
X187452000Y-174752000D01*
X236512010Y-78740626D02*
X236220000Y-78448616D01*
X227076000Y-10160000D02*
X212066768Y-10160000D01*
X236220000Y-78448616D02*
X236220000Y-66040000D01*
X212066768Y-10160000D02*
X210974748Y-11252020D01*
X166700020Y-11252020D02*
X166408010Y-10960010D01*
X234696000Y-158496000D02*
X234696000Y-146304000D01*
X236220000Y-66040000D02*
X227076000Y-66040000D01*
X210974748Y-11252020D02*
X166700020Y-11252020D01*
X236512010Y-96520000D02*
X236512010Y-78740626D01*
X166408010Y-10960010D02*
X112066788Y-10960010D01*
X56034989Y-15875000D02*
X51816000Y-15875000D01*
X111266778Y-10160000D02*
X102235000Y-10160000D01*
X102235000Y-10160000D02*
X101661001Y-9586001D01*
X62341981Y-9586001D02*
X62191990Y-9436010D01*
X62191990Y-9436010D02*
X61468000Y-10160000D01*
X78232000Y-9586001D02*
X78232000Y-8636000D01*
X78232000Y-9586001D02*
X62341981Y-9586001D01*
X98109999Y-8636000D02*
X99060000Y-9586001D01*
X78232000Y-8636000D02*
X98109999Y-8636000D01*
X101661001Y-9586001D02*
X99060000Y-9586001D01*
G04 #@! TO.N,BATT_OUT_MID*
X62865000Y-29210000D02*
X66040000Y-32385000D01*
X74295000Y-33020000D02*
X74295000Y-34239998D01*
X66040000Y-32385000D02*
X73660000Y-32385000D01*
X74295000Y-34239998D02*
X74375001Y-34319999D01*
X73660000Y-32385000D02*
X74295000Y-33020000D01*
X70915000Y-45720000D02*
X72820000Y-43815000D01*
X69215000Y-45720000D02*
X70915000Y-45720000D01*
X72820000Y-43815000D02*
X74295000Y-43815000D01*
X74295000Y-41040000D02*
X74375001Y-40959999D01*
X74295000Y-43815000D02*
X74295000Y-41040000D01*
X74375001Y-34319999D02*
X74375001Y-37465000D01*
X74375001Y-38735000D02*
X74375001Y-40959999D01*
X74375001Y-37465000D02*
X74375001Y-38735000D01*
X79375000Y-38735000D02*
X74375001Y-38735000D01*
X151765000Y-19050000D02*
X149225000Y-19050000D01*
X79375000Y-37963998D02*
X79375000Y-38735000D01*
X112395000Y-26035000D02*
X109855000Y-28575000D01*
X142240000Y-25234990D02*
X137325010Y-25234990D01*
X95885000Y-36830000D02*
X95885000Y-38735000D01*
X137325010Y-25234990D02*
X136525000Y-26035000D01*
X142240000Y-22225000D02*
X142240000Y-25234990D01*
X149225000Y-19050000D02*
X146050000Y-22225000D01*
X136525000Y-26035000D02*
X112395000Y-26035000D01*
X109855000Y-28575000D02*
X104140000Y-28575000D01*
X104140000Y-28575000D02*
X95885000Y-36830000D01*
X86995000Y-37465000D02*
X86995000Y-36830000D01*
X146050000Y-22225000D02*
X142240000Y-22225000D01*
X88265000Y-38735000D02*
X86995000Y-37465000D01*
X95885000Y-38735000D02*
X88265000Y-38735000D01*
X86995000Y-36830000D02*
X80508998Y-36830000D01*
X80508998Y-36830000D02*
X79375000Y-37963998D01*
G04 #@! TO.N,Net-(C_PWR_1-Pad1)*
X231980000Y-161544000D02*
X233680000Y-161544000D01*
X231648000Y-161876000D02*
X231980000Y-161544000D01*
X231648000Y-166624000D02*
X231648000Y-161876000D01*
X216916000Y-167640000D02*
X217715999Y-168439999D01*
X224028000Y-168148000D02*
X224028000Y-166956000D01*
X224028000Y-166956000D02*
X231316000Y-166956000D01*
X217715999Y-168439999D02*
X223736001Y-168439999D01*
X223736001Y-168439999D02*
X224028000Y-168148000D01*
X231316000Y-166956000D02*
X231648000Y-166624000D01*
G04 #@! TO.N,CLK_MIN*
X80010000Y-45085000D02*
X80010000Y-48895000D01*
X69850000Y-109220000D02*
X62230000Y-109220000D01*
X60325000Y-105410000D02*
X56388000Y-105410000D01*
X79375000Y-48895000D02*
X78740000Y-49530000D01*
X80010000Y-48895000D02*
X79375000Y-48895000D01*
X53848000Y-63500000D02*
X53848000Y-76708000D01*
X53848000Y-63500000D02*
X58420000Y-63500000D01*
G04 #@! TO.N,Net-(U34-Pad8)*
X149860000Y-106680000D02*
X148590000Y-105410000D01*
X164630022Y-106680000D02*
X149860000Y-106680000D01*
X164865011Y-106445011D02*
X164630022Y-106680000D01*
X165265010Y-102235000D02*
X164865011Y-102634999D01*
X164865011Y-102634999D02*
X164865011Y-106445011D01*
X182245000Y-102235000D02*
X171450000Y-102235000D01*
X183515000Y-100965000D02*
X182245000Y-102235000D01*
X183515000Y-98425000D02*
X183515000Y-100965000D01*
X111760000Y-99060000D02*
X111760000Y-99060000D01*
X132715000Y-106348626D02*
X132383626Y-106680000D01*
X132715000Y-104775000D02*
X132715000Y-106348626D01*
X132383626Y-106680000D02*
X132383626Y-107950000D01*
X104775000Y-100330000D02*
X104140000Y-100330000D01*
X111760000Y-99060000D02*
X104775000Y-99060000D01*
X104775000Y-99060000D02*
X104775000Y-100330000D01*
X136525000Y-102870000D02*
X136525000Y-107950000D01*
X97790000Y-100330000D02*
X99695000Y-100330000D01*
X97790000Y-99060000D02*
X97790000Y-100330000D01*
X95580020Y-96850020D02*
X97790000Y-99060000D01*
X87045980Y-96850020D02*
X95580020Y-96850020D01*
X83185000Y-102870000D02*
X83585000Y-102870000D01*
X85363000Y-101092000D02*
X85363000Y-99079000D01*
X83585000Y-102870000D02*
X85363000Y-101092000D01*
X85363000Y-99079000D02*
X85382000Y-99060000D01*
X85382000Y-99060000D02*
X85382000Y-98514000D01*
X85382000Y-98514000D02*
X87045980Y-96850020D01*
G04 #@! TO.N,Net-(U12-Pad12)*
X180975000Y-98425000D02*
X180975000Y-83820000D01*
X182245000Y-82550000D02*
X185420000Y-82550000D01*
X180975000Y-83820000D02*
X182245000Y-82550000D01*
G04 #@! TO.N,Net-(U34-Pad13)*
X83351364Y-34758636D02*
X83185000Y-34925000D01*
X78424999Y-60503999D02*
X78424999Y-61416001D01*
X81434990Y-81839192D02*
X83415798Y-83820000D01*
X81434990Y-64425992D02*
X81434990Y-81839192D01*
X78424999Y-61416001D02*
X81434990Y-64425992D01*
X83185000Y-55743998D02*
X78424999Y-60503999D01*
X83415798Y-83820000D02*
X93206384Y-83820000D01*
X83185000Y-38100000D02*
X83185000Y-55743998D01*
X83185000Y-34925000D02*
X83351364Y-34758636D01*
X84885000Y-90170000D02*
X86790000Y-88265000D01*
X83185000Y-90170000D02*
X84885000Y-90170000D01*
X86790000Y-88265000D02*
X94295001Y-88265000D01*
X94295001Y-84908617D02*
X94295001Y-88265000D01*
X93206384Y-83820000D02*
X94295001Y-84908617D01*
X83185000Y-34925000D02*
X83351364Y-33985020D01*
X91440000Y-25195000D02*
X91440000Y-23495000D01*
X82715010Y-27012990D02*
X82727980Y-27000020D01*
X83351364Y-33985020D02*
X82753020Y-33985020D01*
X82715010Y-33947010D02*
X82715010Y-27012990D01*
X82753020Y-33985020D02*
X82715010Y-33947010D01*
X89105000Y-25703000D02*
X90932000Y-25703000D01*
X90932000Y-25703000D02*
X91440000Y-25195000D01*
X86575990Y-26200010D02*
X88607990Y-26200010D01*
X88607990Y-26200010D02*
X89105000Y-25703000D01*
X85852000Y-26924000D02*
X86575990Y-26200010D01*
X85852000Y-27000020D02*
X85852000Y-26924000D01*
X82727980Y-27000020D02*
X85852000Y-27000020D01*
G04 #@! TO.N,Net-(U34-Pad1)*
X81915000Y-34290000D02*
X81915000Y-34925000D01*
X81915000Y-55882614D02*
X77470000Y-60327614D01*
X77470000Y-60327614D02*
X77470000Y-62865000D01*
X74295000Y-62865000D02*
X69850000Y-67310000D01*
X77470000Y-62865000D02*
X74295000Y-62865000D01*
X69850000Y-67310000D02*
X69850000Y-76835000D01*
X71755000Y-87630000D02*
X71755000Y-82550000D01*
X81915000Y-38100000D02*
X81915000Y-55882614D01*
X81915000Y-34925000D02*
X81915000Y-34290000D01*
X69850000Y-76835000D02*
X69850000Y-76835000D01*
X81915000Y-31115000D02*
X81915000Y-34925000D01*
X81788000Y-30988000D02*
X81915000Y-31115000D01*
X88900000Y-23495000D02*
X88669202Y-23495000D01*
X81788000Y-26416000D02*
X81788000Y-30988000D01*
X88669202Y-23495000D02*
X86764202Y-25400000D01*
X86764202Y-25400000D02*
X85986384Y-25400000D01*
X85986384Y-25400000D02*
X85186374Y-26200010D01*
X85186374Y-26200010D02*
X82003990Y-26200010D01*
X82003990Y-26200010D02*
X81788000Y-26416000D01*
G04 #@! TO.N,Net-(U34-Pad2)*
X70485000Y-90170000D02*
X71755000Y-90170000D01*
X70485000Y-90170000D02*
X70485000Y-83820000D01*
X80645000Y-38735000D02*
X80645000Y-38100000D01*
X80960001Y-39050001D02*
X80645000Y-38735000D01*
X80960001Y-55564999D02*
X80960001Y-39050001D01*
X76200000Y-60325000D02*
X80960001Y-55564999D01*
X76200000Y-62064990D02*
X76200000Y-60325000D01*
X68580000Y-75565000D02*
X68580000Y-67310000D01*
X73825010Y-62064990D02*
X76200000Y-62064990D01*
X68580000Y-67310000D02*
X73825010Y-62064990D01*
X80772000Y-30734000D02*
X80645000Y-30861000D01*
X80645000Y-30861000D02*
X80645000Y-34925000D01*
X80772000Y-25400000D02*
X80772000Y-30734000D01*
X84855000Y-25400000D02*
X80772000Y-25400000D01*
X86360000Y-23895000D02*
X84855000Y-25400000D01*
X86360000Y-23495000D02*
X86360000Y-23895000D01*
G04 #@! TO.N,CLK_SEC*
X64135000Y-110490000D02*
X74295000Y-110490000D01*
X99695000Y-108585000D02*
X99695000Y-108585000D01*
X101092000Y-80010000D02*
X106181002Y-80010000D01*
X101434990Y-100631012D02*
X101434990Y-90805000D01*
X101092000Y-90462010D02*
X101092000Y-80010000D01*
X101434990Y-90805000D02*
X101092000Y-90462010D01*
X99695000Y-102371002D02*
X101434990Y-100631012D01*
X99695000Y-108585000D02*
X99695000Y-102371002D01*
X57404000Y-103505000D02*
X60325000Y-103505000D01*
G04 #@! TO.N,Net-(U17-Pad9)*
X142240000Y-53476002D02*
X143510000Y-52206002D01*
X142240000Y-53975000D02*
X142240000Y-53476002D01*
X143510000Y-52206002D02*
X143510000Y-50165000D01*
X165100000Y-48260000D02*
X161925000Y-48260000D01*
X144916002Y-46990000D02*
X150495000Y-46990000D01*
X143510000Y-48396002D02*
X144916002Y-46990000D01*
X185420000Y-44450000D02*
X185420000Y-39370000D01*
X143510000Y-50165000D02*
X143510000Y-48396002D01*
X142240000Y-56515000D02*
X142240000Y-53975000D01*
X142240000Y-55245000D02*
X142240000Y-53975000D01*
X132080000Y-57150000D02*
X142240000Y-57150000D01*
X142240000Y-57150000D02*
X142240000Y-56515000D01*
G04 #@! TO.N,Net-(U17-Pad11)*
X80329999Y-35875001D02*
X87310001Y-35875001D01*
X79409385Y-36795615D02*
X80329999Y-35875001D01*
X76200000Y-34925000D02*
X78070615Y-36795615D01*
X78070615Y-36795615D02*
X79409385Y-36795615D01*
X87310001Y-35875001D02*
X87464990Y-36029990D01*
X172404999Y-17145000D02*
X171450000Y-18099999D01*
X187960000Y-17145000D02*
X172404999Y-17145000D01*
X189230000Y-18415000D02*
X187960000Y-17145000D01*
X185420000Y-34290000D02*
X189230000Y-34290000D01*
X189230000Y-34290000D02*
X189230000Y-18415000D01*
X76200000Y-33655000D02*
X76200000Y-34925000D01*
X137298616Y-24130000D02*
X140970000Y-24130000D01*
X112063626Y-25234990D02*
X136193626Y-25234990D01*
X104140000Y-27432000D02*
X109866616Y-27432000D01*
X136193626Y-25234990D02*
X137298616Y-24130000D01*
X94537626Y-37133626D02*
X95084990Y-36586262D01*
X87310001Y-35875001D02*
X87795010Y-36360010D01*
X87795010Y-36360010D02*
X87795010Y-37133626D01*
X87795010Y-37133626D02*
X94537626Y-37133626D01*
X95084990Y-36586262D02*
X95084990Y-36487010D01*
X109866616Y-27432000D02*
X112063626Y-25234990D01*
X95084990Y-36487010D02*
X104140000Y-27432000D01*
G04 #@! TO.N,Net-(U17-Pad15)*
X185420000Y-24130000D02*
X185820000Y-24130000D01*
X187960000Y-41275000D02*
X187960000Y-44450000D01*
X104140000Y-93980000D02*
X104140000Y-86360000D01*
X136209999Y-78283999D02*
X136209999Y-79694999D01*
X137023998Y-77470000D02*
X136209999Y-78283999D01*
X142240000Y-77470000D02*
X137023998Y-77470000D01*
X150660010Y-50800000D02*
X151765000Y-50800000D01*
X147320000Y-51435000D02*
X147320000Y-50800000D01*
X144780000Y-53975000D02*
X147320000Y-51435000D01*
X144780000Y-77470000D02*
X144780000Y-53975000D01*
X116205000Y-83185000D02*
X116840000Y-82550000D01*
X116205000Y-86360000D02*
X116205000Y-83185000D01*
X147320000Y-50800000D02*
X150660010Y-50800000D01*
X136209999Y-79694999D02*
X136209999Y-81280000D01*
G04 #@! TO.N,Net-(U18-Pad2)*
X147320000Y-105975685D02*
X149294315Y-107950000D01*
X147320000Y-105410000D02*
X147320000Y-105975685D01*
X149294315Y-107950000D02*
X164465000Y-107950000D01*
X164465000Y-116840000D02*
X167640000Y-113665000D01*
X167640000Y-113665000D02*
X167640000Y-113030000D01*
X164465000Y-107950000D02*
X164465000Y-113030000D01*
X164465000Y-116840000D02*
X164465000Y-137160000D01*
X193040000Y-125095000D02*
X193040000Y-130810000D01*
X193040000Y-114300000D02*
X193040000Y-125095000D01*
X194945000Y-112395000D02*
X193040000Y-114300000D01*
X199390000Y-111760000D02*
X198990000Y-111760000D01*
X198355000Y-112395000D02*
X194945000Y-112395000D01*
X198990000Y-111760000D02*
X198355000Y-112395000D01*
X188595000Y-132080000D02*
X188595000Y-130810000D01*
X187244990Y-133430010D02*
X188595000Y-132080000D01*
X175041374Y-133430010D02*
X187244990Y-133430010D01*
X174625000Y-133846384D02*
X175041374Y-133430010D01*
X174625000Y-137160000D02*
X174625000Y-133846384D01*
G04 #@! TO.N,Net-(U15-Pad3)*
X198120000Y-29210000D02*
X199820000Y-29210000D01*
X200660000Y-29210000D02*
X200660000Y-49530000D01*
X200660000Y-73660000D02*
X196850000Y-73660000D01*
X196850000Y-73660000D02*
X196850000Y-74930000D01*
X203835000Y-69850000D02*
X203835000Y-49530000D01*
X200660000Y-49530000D02*
X203835000Y-49530000D01*
X203835000Y-69850000D02*
X200660000Y-69850000D01*
X199820000Y-29210000D02*
X200660000Y-29210000D01*
G04 #@! TO.N,Net-(U33-Pad4)*
X77265000Y-100330000D02*
X77900000Y-99695000D01*
X75565000Y-100330000D02*
X77265000Y-100330000D01*
X77900000Y-99695000D02*
X79375000Y-99695000D01*
X113665000Y-91440000D02*
X113665000Y-82550000D01*
G04 #@! TO.N,GNDREF*
X180944000Y-184816000D02*
X180848000Y-184912000D01*
X227584000Y-184816000D02*
X227076000Y-184816000D01*
X227076000Y-184816000D02*
X180944000Y-184816000D01*
X230124000Y-170688000D02*
X221488000Y-170688000D01*
X240141990Y-172720000D02*
X232156000Y-172720000D01*
X227076000Y-184816000D02*
X240141990Y-184816000D01*
X232156000Y-172720000D02*
X230124000Y-170688000D01*
X240141990Y-184816000D02*
X240141990Y-172720000D01*
G04 #@! TO.N,Init*
X211455000Y-69850000D02*
X211455000Y-75692000D01*
X211455000Y-75692000D02*
X211455000Y-87630000D01*
X220472000Y-71628000D02*
X220472000Y-75184000D01*
X220472000Y-75184000D02*
X221488000Y-75184000D01*
X220980000Y-75184000D02*
X221488000Y-75184000D01*
X233280000Y-86360000D02*
X233680000Y-86360000D01*
X221780010Y-75184000D02*
X224028000Y-77431990D01*
X231929990Y-87710010D02*
X233280000Y-86360000D01*
X221488000Y-75184000D02*
X221780010Y-75184000D01*
X224028000Y-77431990D02*
X224028000Y-96012000D01*
X231929990Y-96012000D02*
X231929990Y-87710010D01*
X224028000Y-96012000D02*
X231929990Y-96012000D01*
G04 #@! TO.N,Net-(U14-Pad11)*
X67310000Y-14605000D02*
X65610000Y-14605000D01*
X207010000Y-59690000D02*
X208710000Y-59690000D01*
X207010000Y-59690000D02*
X210019990Y-59690000D01*
X209550000Y-41910000D02*
X207645000Y-41910000D01*
X65610000Y-14605000D02*
X60960000Y-14605000D01*
X60960000Y-14605000D02*
X60960000Y-14605000D01*
X96189980Y-11899990D02*
X95885000Y-11595010D01*
X110859384Y-12015374D02*
X110744000Y-11899990D01*
X110859384Y-12700000D02*
X110859384Y-12015374D01*
X95885000Y-11595010D02*
X93980000Y-11595010D01*
X111329374Y-13169990D02*
X110859384Y-12700000D01*
X166701374Y-13169990D02*
X111329374Y-13169990D01*
X166739384Y-13208000D02*
X166701374Y-13169990D01*
X110744000Y-11899990D02*
X96189980Y-11899990D01*
X191153999Y-13570001D02*
X191008000Y-13716000D01*
X206610001Y-13570001D02*
X191153999Y-13570001D01*
X207010000Y-13970000D02*
X206610001Y-13570001D01*
X167640000Y-13208000D02*
X166739384Y-13208000D01*
X191008000Y-13716000D02*
X167640000Y-13716000D01*
X167640000Y-13716000D02*
X167640000Y-13208000D01*
X209550000Y-49784000D02*
X210196616Y-49784000D01*
X209550000Y-49784000D02*
X209550000Y-41910000D01*
X210196616Y-49784000D02*
X210312000Y-49899384D01*
X210312000Y-59397990D02*
X210019990Y-59690000D01*
X210312000Y-49899384D02*
X210312000Y-59397990D01*
G04 #@! TO.N,Net-(U36-Pad4)*
X62120999Y-19965001D02*
X60325000Y-18169002D01*
X63694501Y-19879501D02*
X63609001Y-19965001D01*
X63609001Y-19965001D02*
X62120999Y-19965001D01*
X55245000Y-114935000D02*
X58420000Y-114935000D01*
X59193616Y-115708616D02*
X59193616Y-119518616D01*
X58420000Y-114935000D02*
X59193616Y-115708616D01*
X59193616Y-119518616D02*
X60325000Y-120650000D01*
X60325000Y-120650000D02*
X61595000Y-120650000D01*
X61595000Y-120650000D02*
X61595000Y-120650000D01*
X60325000Y-18169002D02*
X60325000Y-18169002D01*
X93980000Y-138684000D02*
X98325999Y-138684000D01*
X91440000Y-135128000D02*
X91440000Y-136144000D01*
X90639990Y-134327990D02*
X91440000Y-135128000D01*
X91440000Y-136144000D02*
X93980000Y-138684000D01*
X88401002Y-117475000D02*
X90639990Y-119713988D01*
X90639990Y-119713988D02*
X90639990Y-134327990D01*
X98552000Y-145796000D02*
X98552000Y-138910001D01*
X99060000Y-146304000D02*
X98552000Y-145796000D01*
X98552000Y-138910001D02*
X98325999Y-138684000D01*
X99060000Y-146304000D02*
X100076000Y-146304000D01*
X75184000Y-117475000D02*
X75184000Y-120904000D01*
X75184000Y-117475000D02*
X88401002Y-117475000D01*
X75184000Y-120904000D02*
X75184000Y-120904000D01*
X63889002Y-19685000D02*
X67310000Y-19685000D01*
X63609001Y-19965001D02*
X63889002Y-19685000D01*
G04 #@! TO.N,/Rain_Sensor_Raw*
X108204000Y-151384000D02*
X106680000Y-151384000D01*
X107696000Y-151384000D02*
X106680000Y-151384000D01*
X84328000Y0D02*
X96012000Y0D01*
X96012000Y0D02*
X96012000Y0D01*
X111760000Y0D02*
X116840000Y0D01*
X116840000Y0D02*
X116840000Y0D01*
X146812000Y0D02*
X151892000Y0D01*
X151892000Y0D02*
X151892000Y0D01*
X156972000Y0D02*
X174752000Y0D01*
X174752000Y0D02*
X174752000Y0D01*
X182880000Y0D02*
X189484000Y0D01*
X189484000Y0D02*
X214376000Y0D01*
X214376000Y0D02*
X214376000Y1016000D01*
X214376000Y1016000D02*
X218948000Y1016000D01*
X108204000Y-151384000D02*
X106172000Y-151384000D01*
X106680000Y-151384000D02*
X106172000Y-151384000D01*
X106172000Y-158496000D02*
X101600000Y-158496000D01*
X106172000Y-151384000D02*
X106172000Y-158496000D01*
X189484000Y0D02*
X189484000Y8128000D01*
X58928000Y-10668000D02*
X60960000Y-8636000D01*
X57912000Y-10668000D02*
X58928000Y-10668000D01*
X55234979Y-13345021D02*
X57912000Y-10668000D01*
X74676000Y-163576000D02*
X74676000Y-169660384D01*
X77031991Y-161944011D02*
X76307989Y-161944011D01*
X74168000Y-170168384D02*
X74168000Y-173736000D01*
X51816000Y-116840000D02*
X50815010Y-115839010D01*
X50815010Y-115839010D02*
X50815010Y-14747010D01*
X76307989Y-161944011D02*
X74676000Y-163576000D01*
X74676000Y-169660384D02*
X74168000Y-170168384D01*
X77431990Y-162344010D02*
X77031991Y-161944011D01*
X74168000Y-173736000D02*
X70612000Y-173736000D01*
X70612000Y-173736000D02*
X70612000Y-171996010D01*
X70612000Y-171996010D02*
X52881626Y-171996010D01*
X52881626Y-171996010D02*
X51816000Y-170930384D01*
X51816000Y-170930384D02*
X51816000Y-116840000D01*
X60960000Y-8636000D02*
X75692000Y-8636000D01*
X55234979Y-14732000D02*
X55234979Y-13345021D01*
X50815010Y-14747010D02*
X50800000Y-14732000D01*
X50800000Y-14732000D02*
X55234979Y-14732000D01*
G04 #@! TO.N,/Mode_Raw*
X100076000Y-127000000D02*
X102108000Y-127000000D01*
X98044000Y-127000000D02*
X100076000Y-127000000D01*
X97028000Y-128016000D02*
X98044000Y-127000000D01*
X102108000Y-128524000D02*
X102108000Y-130048000D01*
X102108000Y-127000000D02*
X102108000Y-128524000D01*
X108712000Y-124460000D02*
X111760000Y-124460000D01*
X102108000Y-128524000D02*
X108712000Y-128524000D01*
X108712000Y-128524000D02*
X108712000Y-124460000D01*
X97028000Y-128016000D02*
X97028000Y-133096000D01*
X103124000Y-140208000D02*
X103124000Y-137668000D01*
X103124000Y-137668000D02*
X102616000Y-137160000D01*
X102616000Y-137160000D02*
X102108000Y-136652000D01*
X102108000Y-136652000D02*
X102108000Y-135128000D01*
G04 #@! TO.N,/Conn_Control_Raw*
X100076000Y-143764000D02*
X102108000Y-143764000D01*
X76084616Y-161036000D02*
X73152000Y-163968616D01*
X81788000Y-161036000D02*
X76084616Y-161036000D01*
X83312000Y3048000D02*
X84718002Y3048000D01*
X84718002Y3048000D02*
X97028000Y3048000D01*
X97028000Y3048000D02*
X97028000Y3048000D01*
X113284000Y3048000D02*
X116332000Y3048000D01*
X116332000Y3048000D02*
X116332000Y3048000D01*
X147828000Y3048000D02*
X151384000Y3048000D01*
X151384000Y3048000D02*
X151384000Y3048000D01*
X157988000Y3048000D02*
X175768000Y3048000D01*
X175768000Y3048000D02*
X175768000Y3048000D01*
X100076000Y-155956000D02*
X100076000Y-156972000D01*
X102284000Y-143764000D02*
X102616000Y-144096000D01*
X100584000Y-143764000D02*
X102284000Y-143764000D01*
X102616000Y-144096000D02*
X102616000Y-155956000D01*
X102616000Y-155956000D02*
X100076000Y-155956000D01*
X100076000Y-156972000D02*
X100076000Y-158496000D01*
X73152000Y-163968616D02*
X73152000Y-171196000D01*
G04 #@! TO.N,Net-(CONN_PWR_LINE_1-Pad1)*
X90932000Y-171831000D02*
X90932000Y-181991000D01*
X78232000Y-184912000D02*
X78232000Y-181864000D01*
X79756000Y-181991000D02*
X79502000Y-181991000D01*
X79629000Y-181864000D02*
X79756000Y-181991000D01*
X78232000Y-181864000D02*
X79629000Y-181864000D01*
X90932000Y-181991000D02*
X79756000Y-181991000D01*
X90424000Y-184404000D02*
X99060000Y-184404000D01*
X90424000Y-187452000D02*
X90424000Y-184404000D01*
X78232000Y-184912000D02*
X78232000Y-187452000D01*
X78232000Y-187452000D02*
X90424000Y-187452000D01*
X99060000Y-184404000D02*
X99060000Y-186436000D01*
G04 #@! TO.N,Net-(CONN_PWR_LINE_2-Pad1)*
X113792000Y-171831000D02*
X113792000Y-181991000D01*
X105283000Y-181991000D02*
X105156000Y-182118000D01*
X113792000Y-181991000D02*
X105283000Y-181991000D01*
X105283000Y-181991000D02*
X103759000Y-181991000D01*
X103632000Y-182118000D02*
X103632000Y-184912000D01*
X103759000Y-181991000D02*
X103632000Y-182118000D01*
X123444000Y-187452000D02*
X123444000Y-185652000D01*
X115316000Y-183896000D02*
X123444000Y-183896000D01*
X115316000Y-187452000D02*
X115316000Y-183896000D01*
X103632000Y-184912000D02*
X103632000Y-187452000D01*
X103632000Y-187452000D02*
X115316000Y-187452000D01*
X123444000Y-183896000D02*
X123444000Y-186436000D01*
G04 #@! TO.N,Net-(CONN_PWR_LINE_3-Pad1)*
X128016000Y-181356000D02*
X128016000Y-184912000D01*
X136652000Y-171831000D02*
X136652000Y-181356000D01*
X136652000Y-181356000D02*
X128016000Y-181356000D01*
X147828000Y-183896000D02*
X147828000Y-186436000D01*
X139700000Y-183896000D02*
X147828000Y-183896000D01*
X139700000Y-187452000D02*
X139700000Y-183896000D01*
X128016000Y-184912000D02*
X128016000Y-187452000D01*
X128016000Y-187452000D02*
X139700000Y-187452000D01*
G04 #@! TO.N,Net-(CONN_PWR_LINE_4-Pad1)*
X159512000Y-171831000D02*
X159512000Y-181356000D01*
X159512000Y-181356000D02*
X152400000Y-181356000D01*
X152400000Y-181356000D02*
X152400000Y-184912000D01*
X172212000Y-183896000D02*
X172212000Y-186436000D01*
X164084000Y-183896000D02*
X172212000Y-183896000D01*
X164084000Y-187452000D02*
X164084000Y-183896000D01*
X152400000Y-184912000D02*
X152400000Y-187452000D01*
X152400000Y-187452000D02*
X164084000Y-187452000D01*
G04 #@! TO.N,Net-(U14-Pad9)*
X118745000Y-73660000D02*
X122555000Y-73660000D01*
X122555000Y-73660000D02*
X122555000Y-78740000D01*
X168910000Y-49530000D02*
X168910000Y-59055000D01*
X163830000Y-60325000D02*
X163830000Y-62230000D01*
X163830000Y-62230000D02*
X164465000Y-62865000D01*
X165100000Y-85090000D02*
X164299990Y-85890010D01*
X137160000Y-78740000D02*
X142240000Y-78740000D01*
X160020000Y-85890010D02*
X159550010Y-85890010D01*
X159550010Y-85890010D02*
X156845000Y-83185000D01*
X156845000Y-83185000D02*
X144780000Y-83185000D01*
X164299990Y-85890010D02*
X160020000Y-85890010D01*
X164465000Y-62865000D02*
X165100000Y-63500000D01*
X164161374Y-85890010D02*
X160020000Y-85890010D01*
X165100000Y-63500000D02*
X165100000Y-85090000D01*
X90805000Y-78740000D02*
X100584000Y-78740000D01*
X100584000Y-78740000D02*
X100584000Y-77470000D01*
X100584000Y-77470000D02*
X114935000Y-77470000D01*
X90805000Y-78740000D02*
X83185000Y-78740000D01*
G04 #@! TO.N,Net-(R16-Pad1)*
X83439000Y-97536000D02*
X83185000Y-97790000D01*
X100076000Y-132588000D02*
X103632000Y-132588000D01*
X103632000Y-132588000D02*
X103632000Y-136652000D01*
X103632000Y-136652000D02*
X117348000Y-136652000D01*
X117348000Y-136652000D02*
X117856000Y-137160000D01*
X117856000Y-137160000D02*
X117856000Y-148844000D01*
X87945001Y-103693001D02*
X87884000Y-103632000D01*
X87945001Y-112714999D02*
X87945001Y-103693001D01*
X136144000Y-138176000D02*
X142240000Y-138176000D01*
X142240000Y-138176000D02*
X142240000Y-140208000D01*
X142240000Y-140208000D02*
X142748000Y-140716000D01*
X142748000Y-140716000D02*
X145170002Y-140716000D01*
X145170002Y-140716000D02*
X148844000Y-137042002D01*
X148844000Y-137042002D02*
X156346002Y-137042002D01*
X156346002Y-137042002D02*
X156346002Y-137042002D01*
X163664990Y-136055010D02*
X163664990Y-127088990D01*
X162560000Y-137160000D02*
X163664990Y-136055010D01*
X163664990Y-127088990D02*
X163576000Y-127000000D01*
X163576000Y-127000000D02*
X163576000Y-115824000D01*
X163576000Y-115824000D02*
X163576000Y-115824000D01*
X163576000Y-115824000D02*
X163576000Y-115824000D01*
X163176001Y-112318316D02*
X163068000Y-112210315D01*
X163176001Y-112884001D02*
X163176001Y-112318316D01*
X163068000Y-112210315D02*
X163068000Y-109728000D01*
X163068000Y-109728000D02*
X163068000Y-109728000D01*
X208280000Y-100076000D02*
X208280000Y-101092000D01*
X206756000Y-98552000D02*
X208280000Y-100076000D01*
X213868000Y-76708000D02*
X213868000Y-70104000D01*
X213868000Y-70104000D02*
X213868000Y-69596000D01*
G04 #@! TO.N,Net-(D_LED_BATT_REP1-Pad1)*
X125476000Y-150368000D02*
X132080000Y-150368000D01*
X125476000Y-151892000D02*
X125476000Y-150368000D01*
X114300000Y-153924000D02*
X119888000Y-153924000D01*
X119888000Y-151892000D02*
X125476000Y-151892000D01*
X119888000Y-153924000D02*
X119888000Y-151892000D01*
G04 #@! TO.N,Net-(D_LED_LINE4-Pad2)*
X162560000Y-147320000D02*
X162560000Y-152908000D01*
X162560000Y-152908000D02*
X162560000Y-152908000D01*
G04 #@! TO.N,Net-(D_LED_LINE2-Pad2)*
X153670000Y-150495000D02*
X149225000Y-150495000D01*
X149225000Y-150495000D02*
X148844000Y-150876000D01*
X148844000Y-150876000D02*
X148844000Y-152908000D01*
X148844000Y-152908000D02*
X141224000Y-152908000D01*
X141224000Y-152908000D02*
X141224000Y-154432000D01*
X141224000Y-154432000D02*
X135636000Y-154432000D01*
X121412000Y-164084000D02*
X120396000Y-165100000D01*
X135636000Y-164084000D02*
X121412000Y-164084000D01*
X135636000Y-154432000D02*
X135636000Y-164084000D01*
G04 #@! TO.N,Net-(D_LED_PWR1-Pad2)*
X108204000Y-121920000D02*
X108204000Y-120396000D01*
X108204000Y-120396000D02*
X109220000Y-119380000D01*
X114300000Y-118112792D02*
X114300000Y-116840000D01*
X113032792Y-119380000D02*
X114300000Y-118112792D01*
X109220000Y-119380000D02*
X113032792Y-119380000D01*
G04 #@! TO.N,Net-(D_LED_LINE3-Pad2)*
X156972000Y-149225000D02*
X156972000Y-153369000D01*
G04 #@! TO.N,Net-(D_LED_LINE1-Pad2)*
X149860000Y-151765000D02*
X149860000Y-154139990D01*
X149860000Y-154139990D02*
X142532010Y-154139990D01*
X142532010Y-154139990D02*
X142240000Y-154432000D01*
X142240000Y-154432000D02*
X142240000Y-155956000D01*
X142240000Y-155956000D02*
X136652000Y-155956000D01*
X136652000Y-155956000D02*
X136652000Y-155956000D01*
X110236000Y-163576000D02*
X110236000Y-165608000D01*
X95504000Y-165100000D02*
X98552000Y-165100000D01*
X98552000Y-165608000D02*
X100584000Y-165608000D01*
X98552000Y-165100000D02*
X98552000Y-165608000D01*
X110236000Y-165608000D02*
X108712000Y-165608000D01*
G04 #@! TO.N,Net-(D_LED_LINE3-Pad1)*
X153924000Y-153416000D02*
X155956000Y-153416000D01*
X155956000Y-153416000D02*
X155956000Y-139700000D01*
G04 #@! TO.N,Net-(D_LED_LINE2-Pad1)*
X134620000Y-157988000D02*
X134620000Y-153924000D01*
X134620000Y-153924000D02*
X134620000Y-153416000D01*
X134620000Y-153416000D02*
X140208000Y-153416000D01*
X140208000Y-153416000D02*
X140208000Y-151892000D01*
X140208000Y-151892000D02*
X147828000Y-151892000D01*
X147828000Y-151892000D02*
X147828000Y-149352000D01*
X147828000Y-149352000D02*
X153416000Y-149352000D01*
X117856000Y-165100000D02*
X117856000Y-163068000D01*
X117856000Y-163068000D02*
X134835990Y-163068000D01*
X134620000Y-163068000D02*
X134620000Y-157988000D01*
G04 #@! TO.N,Net-(D_LED_LINE1-Pad1)*
X92964000Y-163700000D02*
X92964000Y-165100000D01*
X93088000Y-163576000D02*
X92964000Y-163700000D01*
X99060000Y-163576000D02*
X99060000Y-163576000D01*
X99060000Y-163576000D02*
X93088000Y-163576000D01*
X149860000Y-148336000D02*
X149860000Y-144780000D01*
X146812000Y-150876000D02*
X146812000Y-148336000D01*
X139192000Y-150876000D02*
X146812000Y-150876000D01*
X139192000Y-152400000D02*
X139192000Y-150876000D01*
X134227384Y-152400000D02*
X139192000Y-152400000D01*
X133604000Y-153023384D02*
X134227384Y-152400000D01*
X109714000Y-162560000D02*
X109779999Y-162625999D01*
X146812000Y-148336000D02*
X149860000Y-148336000D01*
X109714000Y-162560000D02*
X108712000Y-162560000D01*
X108712000Y-163576000D02*
X108712000Y-162560000D01*
X113792000Y-162625999D02*
X113792000Y-159512000D01*
X109779999Y-162625999D02*
X113792000Y-162625999D01*
X113792000Y-159512000D02*
X133604000Y-159512000D01*
X133604000Y-159512000D02*
X133604000Y-153023384D01*
G04 #@! TO.N,Net-(D_LED_LINE4-Pad1)*
X161290000Y-144780000D02*
X161290000Y-132080000D01*
X161290000Y-144780000D02*
X161290000Y-153162000D01*
X161290000Y-153162000D02*
X161290000Y-153162000D01*
G04 #@! TO.N,Net-(D_LED_BATT_REP1-Pad2)*
X128270000Y-68580000D02*
X126365000Y-68580000D01*
X128270000Y-85090000D02*
X128270000Y-68580000D01*
X111760000Y-153924000D02*
X111760000Y-155448000D01*
X133985000Y-88900000D02*
X132715000Y-88900000D01*
X134160021Y-135487749D02*
X134160021Y-115872021D01*
X134939999Y-101919999D02*
X134620000Y-101600000D01*
X133604000Y-136043770D02*
X134160021Y-135487749D01*
X136844999Y-109220000D02*
X135255000Y-109220000D01*
X134160021Y-115872021D02*
X134112000Y-115824000D01*
X134112000Y-115824000D02*
X134112000Y-112268000D01*
X134112000Y-112268000D02*
X136844999Y-112268000D01*
X136844999Y-112268000D02*
X136844999Y-109220000D01*
X135255000Y-109220000D02*
X134939999Y-108904999D01*
X133985000Y-101600000D02*
X133985000Y-88900000D01*
X134939999Y-108904999D02*
X134939999Y-101919999D01*
X134620000Y-101600000D02*
X133985000Y-101600000D01*
X133604000Y-151892000D02*
X133604000Y-136043770D01*
X133604000Y-151892000D02*
X127000000Y-151892000D01*
X127000000Y-151892000D02*
X127000000Y-155448000D01*
X127000000Y-155448000D02*
X111760000Y-155448000D01*
G04 #@! TO.N,Net-(SW_TIMER1-Pad6)*
X88265000Y-86995000D02*
X88265000Y-86995000D01*
X86106000Y-84836000D02*
X88265000Y-86995000D01*
X78105000Y-85471000D02*
X78740000Y-84836000D01*
X75565000Y-92710000D02*
X78105000Y-92710000D01*
X78740000Y-84836000D02*
X86106000Y-84836000D01*
X78105000Y-92710000D02*
X78105000Y-85471000D01*
X109554001Y-114126001D02*
X109554001Y-113457999D01*
X109554001Y-113457999D02*
X112268000Y-110744000D01*
X112268000Y-110744000D02*
X112268000Y-110744000D01*
X106680000Y-98044000D02*
X106680000Y-92964000D01*
X106680000Y-92964000D02*
X106680000Y-92964000D01*
G04 #@! TO.N,Net-(SW_TIMER1-Pad5)*
X151130000Y-90805000D02*
X151130000Y-86995000D01*
X151130000Y-86995000D02*
X165100000Y-86995000D01*
X185420000Y-92710000D02*
X187960000Y-92710000D01*
X187960000Y-92710000D02*
X187960000Y-74930000D01*
X187960000Y-74930000D02*
X173990000Y-74930000D01*
X172720000Y-74930000D02*
X172720000Y-85725000D01*
X128270000Y-105410000D02*
X128270000Y-102870000D01*
X128270000Y-102870000D02*
X130175000Y-100965000D01*
X123825000Y-105410000D02*
X128270000Y-105410000D01*
X172720000Y-85725000D02*
X172720000Y-86995000D01*
X173990000Y-74930000D02*
X172720000Y-74930000D01*
X108126001Y-116409999D02*
X108126001Y-111837999D01*
X108126001Y-111837999D02*
X109220000Y-110744000D01*
X109220000Y-110744000D02*
X109220000Y-110744000D01*
X104648000Y-98044000D02*
X104648000Y-95504000D01*
X104648000Y-95504000D02*
X105664000Y-94488000D01*
X105664000Y-94488000D02*
X105664000Y-94488000D01*
G04 #@! TO.N,Net-(CONN_OUT_FINISHED1-Pad1)*
X159004000Y-132588000D02*
X159004000Y-138176000D01*
X159004000Y-138176000D02*
X159004000Y-152908000D01*
X159004000Y-152400000D02*
X159004000Y-152908000D01*
X159004000Y-152908000D02*
X159004000Y-152400000D01*
X223012000Y-11176000D02*
X223012000Y-13716000D01*
X223012000Y-13716000D02*
X223012000Y-13716000D01*
X212852000Y-14224000D02*
X212852000Y-11176000D01*
X212852000Y-11176000D02*
X212852000Y-11176000D01*
X60844616Y-7620000D02*
X78740000Y-7620000D01*
X57404000Y-9652000D02*
X58812616Y-9652000D01*
X49926010Y-117348000D02*
X49926010Y-14224000D01*
X49926010Y-14224000D02*
X50434010Y-13716000D01*
X58812616Y-9652000D02*
X60844616Y-7620000D01*
X50434010Y-13716000D02*
X54356000Y-13716000D01*
X54356000Y-13716000D02*
X54434969Y-13637031D01*
X54434969Y-13637031D02*
X54434969Y-12621031D01*
X54434969Y-12621031D02*
X57404000Y-9652000D01*
G04 #@! TO.N,Finished*
X99695000Y-73660000D02*
X104775000Y-73660000D01*
X137160000Y-80010000D02*
X142240000Y-80010000D01*
X142240000Y-80010000D02*
X142240000Y-84455000D01*
X142240000Y-83820000D02*
X142240000Y-84455000D01*
X169545000Y-73025000D02*
X169545000Y-71120000D01*
X142240000Y-84455000D02*
X142240000Y-83820000D01*
X99695000Y-73660000D02*
X99695000Y-73660000D01*
X120015000Y-80010000D02*
X120015000Y-80010000D01*
X169545000Y-71120000D02*
X169545000Y-71120000D01*
X194310000Y-98425000D02*
X194310000Y-98425000D01*
X194310000Y-73660000D02*
X191770000Y-73660000D01*
X194310000Y-98425000D02*
X194310000Y-73660000D01*
X169545000Y-73025000D02*
X169545000Y-81915000D01*
X109220000Y-73660000D02*
X110490000Y-72390000D01*
X108585000Y-73660000D02*
X109220000Y-73660000D01*
X111125000Y-80010000D02*
X110490000Y-80645000D01*
X120015000Y-80010000D02*
X111125000Y-80010000D01*
X198120000Y-128524000D02*
X194056000Y-128524000D01*
X194056000Y-128524000D02*
X194056000Y-128524000D01*
X188468000Y-128524000D02*
X188468000Y-127958315D01*
X188468000Y-127958315D02*
X188468000Y-116332000D01*
X188468000Y-116332000D02*
X188468000Y-116332000D01*
X184912000Y-111760000D02*
X184912000Y-110744000D01*
X184912000Y-110744000D02*
X171196000Y-110744000D01*
X171196000Y-110744000D02*
X171196000Y-112776000D01*
X171196000Y-112776000D02*
X172720000Y-112776000D01*
X172720000Y-112776000D02*
X172720000Y-120396000D01*
X172720000Y-120396000D02*
X172720000Y-120396000D01*
G04 #@! TO.N,Net-(R28-Pad2)*
X208280000Y-48260000D02*
X208280000Y-45085000D01*
X208280000Y-45085000D02*
X207645000Y-44450000D01*
X207645000Y-44450000D02*
X207010000Y-44450000D01*
X204635010Y-44450000D02*
X204635010Y-41275000D01*
X204950011Y-40959999D02*
X208595001Y-40959999D01*
X204635010Y-41275000D02*
X204950011Y-40959999D01*
X208595001Y-40959999D02*
X209550000Y-40005000D01*
X209550000Y-40005000D02*
X209550000Y-26035000D01*
X207010000Y-44450000D02*
X204635010Y-44450000D01*
X209550000Y-26035000D02*
X209550000Y-26035000D01*
X99060000Y-10960010D02*
X99060000Y-10960010D01*
X101903626Y-10960010D02*
X101738616Y-10795000D01*
X110935404Y-10960010D02*
X101903626Y-10960010D01*
X208915000Y-13970000D02*
X208915000Y-12700000D01*
X208915000Y-12700000D02*
X168263384Y-12700000D01*
X101738616Y-10795000D02*
X99060000Y-10795000D01*
X168263384Y-12700000D02*
X167932010Y-12368626D01*
X167932010Y-12368626D02*
X111659394Y-12368626D01*
X111659394Y-12368626D02*
X111659394Y-11684000D01*
X111659394Y-11684000D02*
X110935404Y-10960010D01*
X77216000Y-25908000D02*
X79248000Y-25908000D01*
X79539999Y-30950001D02*
X78740000Y-31750000D01*
X79539999Y-26199999D02*
X79539999Y-30950001D01*
X79248000Y-25908000D02*
X79539999Y-26199999D01*
G04 #@! TO.N,Net-(C1-Pad1)*
X100076000Y-118800000D02*
X106576000Y-118800000D01*
X100076000Y-137668000D02*
X100076000Y-138684000D01*
X93980000Y-129540000D02*
X92629999Y-130890001D01*
X92629999Y-130890001D02*
X92629999Y-136144000D01*
X93980000Y-122936000D02*
X93980000Y-129540000D01*
X92629999Y-136144000D02*
X93356616Y-136144000D01*
X93356616Y-136144000D02*
X94880616Y-137668000D01*
X94880616Y-137668000D02*
X100076000Y-137668000D01*
X95504000Y-116616000D02*
X95504000Y-115316000D01*
X100076000Y-118800000D02*
X97688000Y-118800000D01*
X97688000Y-118800000D02*
X95504000Y-116616000D01*
G04 #@! TO.N,Net-(U5-Pad6)*
X90424000Y-29972000D02*
X83820000Y-29972000D01*
X83820000Y-29972000D02*
X83820000Y-29972000D01*
X91948000Y-31496000D02*
X91948000Y-31496000D01*
X209296000Y-55880000D02*
X209296000Y-50800000D01*
X209296000Y-50800000D02*
X208280000Y-49784000D01*
X208280000Y-49784000D02*
X208280000Y-49784000D01*
X195580000Y-44704000D02*
X193040000Y-42164000D01*
X193040000Y-42164000D02*
X193040000Y-42164000D01*
X191516000Y-22352000D02*
X195072000Y-22352000D01*
X195072000Y-22352000D02*
X195072000Y-22352000D01*
X195072000Y-18796000D02*
X195072000Y-16764000D01*
X195072000Y-16764000D02*
X195072000Y-16764000D01*
X105156000Y-18796000D02*
X102616000Y-18796000D01*
X102616000Y-18796000D02*
X101600000Y-19812000D01*
X101600000Y-19812000D02*
X101600000Y-19812000D01*
X98670020Y-24265980D02*
X98670020Y-26805980D01*
X99060000Y-21844000D02*
X99060000Y-23876000D01*
X99060000Y-23876000D02*
X98670020Y-24265980D01*
X98670020Y-26805980D02*
X96520000Y-28956000D01*
X96520000Y-28956000D02*
X96520000Y-30480000D01*
X96520000Y-30480000D02*
X96012000Y-30988000D01*
X96012000Y-30988000D02*
X94996000Y-32004000D01*
X94996000Y-32004000D02*
X94996000Y-32004000D01*
X91948000Y-31496000D02*
X90424000Y-29972000D01*
G04 #@! TD*
M02*
