G04 #@! TF.GenerationSoftware,KiCad,Pcbnew,5.0.2-5.fc29*
G04 #@! TF.CreationDate,2019-08-31T02:39:32+03:00*
G04 #@! TF.ProjectId,circuit_design,63697263-7569-4745-9f64-657369676e2e,rev?*
G04 #@! TF.SameCoordinates,Original*
G04 #@! TF.FileFunction,Copper,L1,Top*
G04 #@! TF.FilePolarity,Positive*
%FSLAX46Y46*%
G04 Gerber Fmt 4.6, Leading zero omitted, Abs format (unit mm)*
G04 Created by KiCad (PCBNEW 5.0.2-5.fc29) date Sat 31 Aug 2019 02:39:32 AM EEST*
%MOMM*%
%LPD*%
G01*
G04 APERTURE LIST*
G04 #@! TA.AperFunction,ComponentPad*
%ADD10R,1.700000X1.700000*%
G04 #@! TD*
G04 #@! TA.AperFunction,ComponentPad*
%ADD11C,1.700000*%
G04 #@! TD*
G04 #@! TA.AperFunction,ComponentPad*
%ADD12C,3.500000*%
G04 #@! TD*
G04 #@! TA.AperFunction,ComponentPad*
%ADD13O,1.600000X1.600000*%
G04 #@! TD*
G04 #@! TA.AperFunction,ComponentPad*
%ADD14C,1.600000*%
G04 #@! TD*
G04 #@! TA.AperFunction,ComponentPad*
%ADD15R,1.800000X1.800000*%
G04 #@! TD*
G04 #@! TA.AperFunction,ComponentPad*
%ADD16O,1.800000X1.800000*%
G04 #@! TD*
G04 #@! TA.AperFunction,ComponentPad*
%ADD17O,2.400000X1.600000*%
G04 #@! TD*
G04 #@! TA.AperFunction,ComponentPad*
%ADD18R,2.400000X1.600000*%
G04 #@! TD*
G04 #@! TA.AperFunction,ComponentPad*
%ADD19R,1.600000X1.600000*%
G04 #@! TD*
G04 #@! TA.AperFunction,ComponentPad*
%ADD20O,1.700000X1.700000*%
G04 #@! TD*
G04 #@! TA.AperFunction,ComponentPad*
%ADD21C,1.000000*%
G04 #@! TD*
G04 #@! TA.AperFunction,ComponentPad*
%ADD22O,1.600000X2.400000*%
G04 #@! TD*
G04 #@! TA.AperFunction,ComponentPad*
%ADD23R,1.600000X2.400000*%
G04 #@! TD*
G04 #@! TA.AperFunction,ViaPad*
%ADD24C,0.800000*%
G04 #@! TD*
G04 #@! TA.AperFunction,Conductor*
%ADD25C,0.500000*%
G04 #@! TD*
G04 #@! TA.AperFunction,Conductor*
%ADD26C,0.250000*%
G04 #@! TD*
G04 APERTURE END LIST*
D10*
G04 #@! TO.P,J1,1*
G04 #@! TO.N,+5V*
X254000000Y-50800000D03*
D11*
G04 #@! TO.P,J1,2*
G04 #@! TO.N,Net-(J1-Pad2)*
X254000000Y-53300000D03*
G04 #@! TO.P,J1,3*
G04 #@! TO.N,Net-(J1-Pad3)*
X256000000Y-53300000D03*
G04 #@! TO.P,J1,4*
G04 #@! TO.N,GND*
X256000000Y-50800000D03*
D12*
G04 #@! TO.P,J1,5*
G04 #@! TO.N,Net-(J1-Pad5)*
X258710000Y-46030000D03*
X258710000Y-58070000D03*
G04 #@! TD*
D13*
G04 #@! TO.P,R16,2*
G04 #@! TO.N,GND*
X98865001Y-152405001D03*
D14*
G04 #@! TO.P,R16,1*
G04 #@! TO.N,/Rain_Sensor(Ext.)*
X83625001Y-152405001D03*
G04 #@! TD*
G04 #@! TO.P,R15,1*
G04 #@! TO.N,/Mode(Ext.)*
X83625001Y-149355001D03*
D13*
G04 #@! TO.P,R15,2*
G04 #@! TO.N,GND*
X98865001Y-149355001D03*
G04 #@! TD*
D14*
G04 #@! TO.P,R14,1*
G04 #@! TO.N,/Control(Ext.2)*
X83625001Y-146305001D03*
D13*
G04 #@! TO.P,R14,2*
G04 #@! TO.N,GND*
X98865001Y-146305001D03*
G04 #@! TD*
D15*
G04 #@! TO.P,D1,1*
G04 #@! TO.N,Net-(D1-Pad1)*
X209914850Y-142052853D03*
D16*
G04 #@! TO.P,D1,2*
G04 #@! TO.N,Net-(D1-Pad2)*
X209914850Y-152212853D03*
G04 #@! TD*
G04 #@! TO.P,D3,2*
G04 #@! TO.N,Net-(D3-Pad2)*
X225154850Y-152212853D03*
D15*
G04 #@! TO.P,D3,1*
G04 #@! TO.N,Net-(D3-Pad1)*
X225154850Y-142052853D03*
G04 #@! TD*
D16*
G04 #@! TO.P,D5,2*
G04 #@! TO.N,Net-(D5-Pad2)*
X206104850Y-152212853D03*
D15*
G04 #@! TO.P,D5,1*
G04 #@! TO.N,Net-(D5-Pad1)*
X206104850Y-142052853D03*
G04 #@! TD*
G04 #@! TO.P,D4,1*
G04 #@! TO.N,Net-(D4-Pad1)*
X232774850Y-142052853D03*
D16*
G04 #@! TO.P,D4,2*
G04 #@! TO.N,Net-(D4-Pad2)*
X232774850Y-152212853D03*
G04 #@! TD*
D15*
G04 #@! TO.P,D8,1*
G04 #@! TO.N,Net-(D8-Pad1)*
X228964850Y-142052853D03*
D16*
G04 #@! TO.P,D8,2*
G04 #@! TO.N,Net-(D8-Pad2)*
X228964850Y-152212853D03*
G04 #@! TD*
D15*
G04 #@! TO.P,D6,1*
G04 #@! TO.N,Net-(D6-Pad1)*
X213724850Y-142052853D03*
D16*
G04 #@! TO.P,D6,2*
G04 #@! TO.N,Net-(D6-Pad2)*
X213724850Y-152212853D03*
G04 #@! TD*
G04 #@! TO.P,D7,2*
G04 #@! TO.N,Net-(D7-Pad2)*
X221344850Y-152212853D03*
D15*
G04 #@! TO.P,D7,1*
G04 #@! TO.N,Net-(D7-Pad1)*
X221344850Y-142052853D03*
G04 #@! TD*
D16*
G04 #@! TO.P,D2,2*
G04 #@! TO.N,Net-(D2-Pad2)*
X217534850Y-152212853D03*
D15*
G04 #@! TO.P,D2,1*
G04 #@! TO.N,Net-(D2-Pad1)*
X217534850Y-142052853D03*
G04 #@! TD*
D17*
G04 #@! TO.P,U35,16*
G04 #@! TO.N,+5V*
X106680000Y-41910000D03*
G04 #@! TO.P,U35,8*
G04 #@! TO.N,GND*
X99060000Y-59690000D03*
G04 #@! TO.P,U35,15*
G04 #@! TO.N,Net-(U17-Pad1)*
X106680000Y-44450000D03*
G04 #@! TO.P,U35,7*
G04 #@! TO.N,Net-(U33-Pad5)*
X99060000Y-57150000D03*
G04 #@! TO.P,U35,14*
G04 #@! TO.N,+5V*
X106680000Y-46990000D03*
G04 #@! TO.P,U35,6*
G04 #@! TO.N,/Running(Out)*
X99060000Y-54610000D03*
G04 #@! TO.P,U35,13*
G04 #@! TO.N,+5V*
X106680000Y-49530000D03*
G04 #@! TO.P,U35,5*
X99060000Y-52070000D03*
G04 #@! TO.P,U35,12*
G04 #@! TO.N,Net-(U11-Pad8)*
X106680000Y-52070000D03*
G04 #@! TO.P,U35,4*
G04 #@! TO.N,Net-(U31-Pad10)*
X99060000Y-49530000D03*
G04 #@! TO.P,U35,11*
G04 #@! TO.N,+5V*
X106680000Y-54610000D03*
G04 #@! TO.P,U35,3*
X99060000Y-46990000D03*
G04 #@! TO.P,U35,10*
G04 #@! TO.N,Net-(U14-Pad4)*
X106680000Y-57150000D03*
G04 #@! TO.P,U35,2*
G04 #@! TO.N,+5V*
X99060000Y-44450000D03*
G04 #@! TO.P,U35,9*
G04 #@! TO.N,Net-(U16-Pad2)*
X106680000Y-59690000D03*
D18*
G04 #@! TO.P,U35,1*
G04 #@! TO.N,Net-(U31-Pad4)*
X99060000Y-41910000D03*
G04 #@! TD*
G04 #@! TO.P,U31,1*
G04 #@! TO.N,Net-(U31-Pad1)*
X68580000Y-66040000D03*
D17*
G04 #@! TO.P,U31,8*
G04 #@! TO.N,Net-(U31-Pad8)*
X76200000Y-81280000D03*
G04 #@! TO.P,U31,2*
G04 #@! TO.N,/Control(In1)*
X68580000Y-68580000D03*
G04 #@! TO.P,U31,9*
G04 #@! TO.N,Net-(U31-Pad11)*
X76200000Y-78740000D03*
G04 #@! TO.P,U31,3*
G04 #@! TO.N,/Control(In2)*
X68580000Y-71120000D03*
G04 #@! TO.P,U31,10*
G04 #@! TO.N,Net-(U31-Pad10)*
X76200000Y-76200000D03*
G04 #@! TO.P,U31,4*
G04 #@! TO.N,Net-(U31-Pad4)*
X68580000Y-73660000D03*
G04 #@! TO.P,U31,11*
G04 #@! TO.N,Net-(U31-Pad11)*
X76200000Y-73660000D03*
G04 #@! TO.P,U31,5*
G04 #@! TO.N,/Rain(In)*
X68580000Y-76200000D03*
G04 #@! TO.P,U31,12*
G04 #@! TO.N,Net-(U31-Pad12)*
X76200000Y-71120000D03*
G04 #@! TO.P,U31,6*
G04 #@! TO.N,/Completed(In)*
X68580000Y-78740000D03*
G04 #@! TO.P,U31,13*
G04 #@! TO.N,Net-(U31-Pad13)*
X76200000Y-68580000D03*
G04 #@! TO.P,U31,7*
G04 #@! TO.N,GND*
X68580000Y-81280000D03*
G04 #@! TO.P,U31,14*
G04 #@! TO.N,+5V*
X76200000Y-66040000D03*
G04 #@! TD*
D18*
G04 #@! TO.P,U32,1*
G04 #@! TO.N,Net-(U31-Pad1)*
X111760000Y-87630000D03*
D17*
G04 #@! TO.P,U32,8*
G04 #@! TO.N,/Reset(Out)*
X119380000Y-102870000D03*
G04 #@! TO.P,U32,2*
G04 #@! TO.N,Net-(U32-Pad2)*
X111760000Y-90170000D03*
G04 #@! TO.P,U32,9*
G04 #@! TO.N,Net-(U31-Pad13)*
X119380000Y-100330000D03*
G04 #@! TO.P,U32,3*
G04 #@! TO.N,/Mode(In)*
X111760000Y-92710000D03*
G04 #@! TO.P,U32,10*
G04 #@! TO.N,N/C*
X119380000Y-97790000D03*
G04 #@! TO.P,U32,4*
G04 #@! TO.N,Net-(U32-Pad4)*
X111760000Y-95250000D03*
G04 #@! TO.P,U32,11*
G04 #@! TO.N,N/C*
X119380000Y-95250000D03*
G04 #@! TO.P,U32,5*
G04 #@! TO.N,Net-(U32-Pad5)*
X111760000Y-97790000D03*
G04 #@! TO.P,U32,12*
G04 #@! TO.N,/RunningInv(out)*
X119380000Y-92710000D03*
G04 #@! TO.P,U32,6*
G04 #@! TO.N,Net-(U31-Pad12)*
X111760000Y-100330000D03*
G04 #@! TO.P,U32,13*
G04 #@! TO.N,/Running(Out)*
X119380000Y-90170000D03*
G04 #@! TO.P,U32,7*
G04 #@! TO.N,GND*
X111760000Y-102870000D03*
G04 #@! TO.P,U32,14*
G04 #@! TO.N,+5V*
X119380000Y-87630000D03*
G04 #@! TD*
G04 #@! TO.P,U33,14*
G04 #@! TO.N,+5V*
X119380000Y-60960000D03*
G04 #@! TO.P,U33,7*
G04 #@! TO.N,GND*
X111760000Y-76200000D03*
G04 #@! TO.P,U33,13*
G04 #@! TO.N,N/C*
X119380000Y-63500000D03*
G04 #@! TO.P,U33,6*
G04 #@! TO.N,Net-(U31-Pad11)*
X111760000Y-73660000D03*
G04 #@! TO.P,U33,12*
G04 #@! TO.N,N/C*
X119380000Y-66040000D03*
G04 #@! TO.P,U33,5*
G04 #@! TO.N,Net-(U33-Pad5)*
X111760000Y-71120000D03*
G04 #@! TO.P,U33,11*
G04 #@! TO.N,N/C*
X119380000Y-68580000D03*
G04 #@! TO.P,U33,4*
G04 #@! TO.N,Net-(U32-Pad2)*
X111760000Y-68580000D03*
G04 #@! TO.P,U33,10*
G04 #@! TO.N,/Mode(In)*
X119380000Y-71120000D03*
G04 #@! TO.P,U33,3*
G04 #@! TO.N,Net-(U31-Pad8)*
X111760000Y-66040000D03*
G04 #@! TO.P,U33,9*
G04 #@! TO.N,Net-(U32-Pad2)*
X119380000Y-73660000D03*
G04 #@! TO.P,U33,2*
G04 #@! TO.N,Net-(U32-Pad4)*
X111760000Y-63500000D03*
G04 #@! TO.P,U33,8*
G04 #@! TO.N,/Next(Out)*
X119380000Y-76200000D03*
D18*
G04 #@! TO.P,U33,1*
G04 #@! TO.N,Net-(U32-Pad2)*
X111760000Y-60960000D03*
G04 #@! TD*
G04 #@! TO.P,U34,1*
G04 #@! TO.N,Net-(U32-Pad2)*
X68580000Y-87630000D03*
D17*
G04 #@! TO.P,U34,8*
G04 #@! TO.N,N/C*
X76200000Y-102870000D03*
G04 #@! TO.P,U34,2*
G04 #@! TO.N,Net-(U32-Pad4)*
X68580000Y-90170000D03*
G04 #@! TO.P,U34,9*
G04 #@! TO.N,N/C*
X76200000Y-100330000D03*
G04 #@! TO.P,U34,3*
X68580000Y-92710000D03*
G04 #@! TO.P,U34,10*
X76200000Y-97790000D03*
G04 #@! TO.P,U34,4*
X68580000Y-95250000D03*
G04 #@! TO.P,U34,11*
X76200000Y-95250000D03*
G04 #@! TO.P,U34,5*
X68580000Y-97790000D03*
G04 #@! TO.P,U34,12*
G04 #@! TO.N,Net-(U32-Pad5)*
X76200000Y-92710000D03*
G04 #@! TO.P,U34,6*
G04 #@! TO.N,N/C*
X68580000Y-100330000D03*
G04 #@! TO.P,U34,13*
G04 #@! TO.N,/Running(Out)*
X76200000Y-90170000D03*
G04 #@! TO.P,U34,7*
G04 #@! TO.N,GND*
X68580000Y-102870000D03*
G04 #@! TO.P,U34,14*
G04 #@! TO.N,+5V*
X76200000Y-87630000D03*
G04 #@! TD*
D14*
G04 #@! TO.P,C1,2*
G04 #@! TO.N,GND*
X62905000Y-125095000D03*
D19*
G04 #@! TO.P,C1,1*
G04 #@! TO.N,/Control(Ext.)*
X65405000Y-125095000D03*
G04 #@! TD*
D14*
G04 #@! TO.P,C2,2*
G04 #@! TO.N,GND*
X73660000Y-187880000D03*
G04 #@! TO.P,C2,1*
G04 #@! TO.N,Net-(C2-Pad1)*
X73660000Y-182880000D03*
G04 #@! TD*
G04 #@! TO.P,C3,1*
G04 #@! TO.N,Net-(C3-Pad1)*
X92710000Y-182880000D03*
G04 #@! TO.P,C3,2*
G04 #@! TO.N,GND*
X92710000Y-187880000D03*
G04 #@! TD*
D10*
G04 #@! TO.P,CONN_SW_DPST_MODE_2,1*
G04 #@! TO.N,+5V*
X62865000Y-135255000D03*
D20*
G04 #@! TO.P,CONN_SW_DPST_MODE_2,2*
G04 #@! TO.N,/Mode(Ext.)*
X65405000Y-135255000D03*
G04 #@! TD*
G04 #@! TO.P,CONN_LED_PWR_4,2*
G04 #@! TO.N,Net-(CONN_LED_PWR_4-Pad2)*
X140970000Y-167640000D03*
D10*
G04 #@! TO.P,CONN_LED_PWR_4,1*
G04 #@! TO.N,+5V*
X143510000Y-167640000D03*
G04 #@! TD*
D20*
G04 #@! TO.P,CONN_LED_RAIN1_7,2*
G04 #@! TO.N,Net-(CONN_LED_RAIN1_7-Pad2)*
X106680000Y-168910000D03*
D10*
G04 #@! TO.P,CONN_LED_RAIN1_7,1*
G04 #@! TO.N,/Rain(Led)*
X104140000Y-168910000D03*
G04 #@! TD*
D20*
G04 #@! TO.P,CONN_LED_MODE_6,2*
G04 #@! TO.N,Net-(CONN_LED_MODE_6-Pad2)*
X62865000Y-139065000D03*
D10*
G04 #@! TO.P,CONN_LED_MODE_6,1*
G04 #@! TO.N,/Mode(Ext.)*
X65405000Y-139065000D03*
G04 #@! TD*
D20*
G04 #@! TO.P,CONN_LED_LINE3_11,2*
G04 #@! TO.N,Net-(CONN_LED_LINE3_11-Pad2)*
X157480000Y-144780000D03*
D10*
G04 #@! TO.P,CONN_LED_LINE3_11,1*
G04 #@! TO.N,Net-(CONN_LED_LINE3_11-Pad1)*
X157480000Y-147320000D03*
G04 #@! TD*
G04 #@! TO.P,CONN_LED_LINE2_10,1*
G04 #@! TO.N,Net-(CONN_LED_LINE2_10-Pad1)*
X153670000Y-147320000D03*
D20*
G04 #@! TO.P,CONN_LED_LINE2_10,2*
G04 #@! TO.N,Net-(CONN_LED_LINE2_10-Pad2)*
X153670000Y-144780000D03*
G04 #@! TD*
G04 #@! TO.P,CONN_LED_LINE1_9,2*
G04 #@! TO.N,Net-(CONN_LED_LINE1_9-Pad2)*
X149860000Y-144780000D03*
D10*
G04 #@! TO.P,CONN_LED_LINE1_9,1*
G04 #@! TO.N,Net-(CONN_LED_LINE1_9-Pad1)*
X149860000Y-147320000D03*
G04 #@! TD*
G04 #@! TO.P,CONN_CONTROL_3,1*
G04 #@! TO.N,/Control(Ext.2)*
X65405000Y-130175000D03*
D20*
G04 #@! TO.P,CONN_CONTROL_3,2*
G04 #@! TO.N,GND*
X62865000Y-130175000D03*
G04 #@! TD*
G04 #@! TO.P,CONN_LED_RUNNING_8,2*
G04 #@! TO.N,Net-(CONN_LED_RUNNING_8-Pad2)*
X106680000Y-163830000D03*
D10*
G04 #@! TO.P,CONN_LED_RUNNING_8,1*
G04 #@! TO.N,/Running(Led)*
X104140000Y-163830000D03*
G04 #@! TD*
G04 #@! TO.P,CONN_PWR_LINE1_13,1*
G04 #@! TO.N,Net-(CONN_PWR_LINE1_13-Pad1)*
X109220000Y-144780000D03*
D20*
G04 #@! TO.P,CONN_PWR_LINE1_13,2*
G04 #@! TO.N,GND*
X109220000Y-147320000D03*
G04 #@! TD*
G04 #@! TO.P,CONN_PWR_LINE2_14,2*
G04 #@! TO.N,GND*
X118110000Y-147320000D03*
D10*
G04 #@! TO.P,CONN_PWR_LINE2_14,1*
G04 #@! TO.N,Net-(CONN_PWR_LINE2_14-Pad1)*
X118110000Y-144780000D03*
G04 #@! TD*
G04 #@! TO.P,CONN_LED_LINE4_12,1*
G04 #@! TO.N,Net-(CONN_LED_LINE4_12-Pad1)*
X161290000Y-147320000D03*
D20*
G04 #@! TO.P,CONN_LED_LINE4_12,2*
G04 #@! TO.N,Net-(CONN_LED_LINE4_12-Pad2)*
X161290000Y-144780000D03*
G04 #@! TD*
G04 #@! TO.P,CONN_PWR_LINE3_15,2*
G04 #@! TO.N,GND*
X127000000Y-147320000D03*
D10*
G04 #@! TO.P,CONN_PWR_LINE3_15,1*
G04 #@! TO.N,Net-(CONN_PWR_LINE3_15-Pad1)*
X127000000Y-144780000D03*
G04 #@! TD*
G04 #@! TO.P,CONN_PWR_LINE4_16,1*
G04 #@! TO.N,Net-(CONN_PWR_LINE4_16-Pad1)*
X135890000Y-144780000D03*
D20*
G04 #@! TO.P,CONN_PWR_LINE4_16,2*
G04 #@! TO.N,GND*
X135890000Y-147320000D03*
G04 #@! TD*
D10*
G04 #@! TO.P,CONN_RAIN_SENSOR_5,1*
G04 #@! TO.N,/Rain_Sensor(Ext.)*
X102235000Y-175895000D03*
D20*
G04 #@! TO.P,CONN_RAIN_SENSOR_5,2*
G04 #@! TO.N,+5V*
X104775000Y-175895000D03*
G04 #@! TD*
G04 #@! TO.P,CONN_SW_PUSH_CONTROL_1,2*
G04 #@! TO.N,Net-(CONN_SW_PUSH_CONTROL_1-Pad2)*
X152400000Y-167640000D03*
D10*
G04 #@! TO.P,CONN_SW_PUSH_CONTROL_1,1*
G04 #@! TO.N,+5V*
X149860000Y-167640000D03*
G04 #@! TD*
G04 #@! TO.P,JP06_2_60,1*
G04 #@! TO.N,/D4*
X238760000Y-158670000D03*
D20*
G04 #@! TO.P,JP06_2_60,2*
G04 #@! TO.N,Net-(D3-Pad2)*
X241300000Y-158670000D03*
G04 #@! TD*
G04 #@! TO.P,JP07_2_45,2*
G04 #@! TO.N,Net-(D3-Pad2)*
X241300000Y-163750000D03*
D10*
G04 #@! TO.P,JP07_2_45,1*
G04 #@! TO.N,/D3*
X238760000Y-163750000D03*
G04 #@! TD*
G04 #@! TO.P,JP08_2_30,1*
G04 #@! TO.N,/D2*
X238760000Y-168830000D03*
D20*
G04 #@! TO.P,JP08_2_30,2*
G04 #@! TO.N,Net-(D3-Pad2)*
X241300000Y-168830000D03*
G04 #@! TD*
G04 #@! TO.P,JP09_2_15,2*
G04 #@! TO.N,Net-(D3-Pad2)*
X241300000Y-173910000D03*
D10*
G04 #@! TO.P,JP09_2_15,1*
G04 #@! TO.N,/D1*
X238760000Y-173910000D03*
G04 #@! TD*
G04 #@! TO.P,JP10_2_0,1*
G04 #@! TO.N,/D0*
X238760000Y-178990000D03*
D20*
G04 #@! TO.P,JP10_2_0,2*
G04 #@! TO.N,Net-(D3-Pad2)*
X241300000Y-178990000D03*
G04 #@! TD*
D10*
G04 #@! TO.P,JP11_3_60,1*
G04 #@! TO.N,/D4*
X220980000Y-158670000D03*
D20*
G04 #@! TO.P,JP11_3_60,2*
G04 #@! TO.N,Net-(D2-Pad2)*
X223520000Y-158670000D03*
G04 #@! TD*
G04 #@! TO.P,JP12_3_45,2*
G04 #@! TO.N,Net-(D2-Pad2)*
X223520000Y-163750000D03*
D10*
G04 #@! TO.P,JP12_3_45,1*
G04 #@! TO.N,/D3*
X220980000Y-163750000D03*
G04 #@! TD*
G04 #@! TO.P,JP14_3_15,1*
G04 #@! TO.N,/D1*
X220980000Y-173910000D03*
D20*
G04 #@! TO.P,JP14_3_15,2*
G04 #@! TO.N,Net-(D2-Pad2)*
X223520000Y-173910000D03*
G04 #@! TD*
G04 #@! TO.P,JP34_3_3,2*
G04 #@! TO.N,Net-(D6-Pad2)*
X215900000Y-173910000D03*
D10*
G04 #@! TO.P,JP34_3_3,1*
G04 #@! TO.N,/D1*
X213360000Y-173910000D03*
G04 #@! TD*
G04 #@! TO.P,JP32_3_9,1*
G04 #@! TO.N,/D3*
X213360000Y-163750000D03*
D20*
G04 #@! TO.P,JP32_3_9,2*
G04 #@! TO.N,Net-(D6-Pad2)*
X215900000Y-163750000D03*
G04 #@! TD*
G04 #@! TO.P,JP35_3_0,2*
G04 #@! TO.N,Net-(D6-Pad2)*
X215900000Y-178990000D03*
D10*
G04 #@! TO.P,JP35_3_0,1*
G04 #@! TO.N,/D0*
X213360000Y-178990000D03*
G04 #@! TD*
D20*
G04 #@! TO.P,JP36_4_12,2*
G04 #@! TO.N,Net-(D5-Pad2)*
X199390000Y-158670000D03*
D10*
G04 #@! TO.P,JP36_4_12,1*
G04 #@! TO.N,/D4*
X196850000Y-158670000D03*
G04 #@! TD*
G04 #@! TO.P,JP37_4_9,1*
G04 #@! TO.N,/D3*
X196850000Y-163750000D03*
D20*
G04 #@! TO.P,JP37_4_9,2*
G04 #@! TO.N,Net-(D5-Pad2)*
X199390000Y-163750000D03*
G04 #@! TD*
G04 #@! TO.P,JP39_4_3,2*
G04 #@! TO.N,Net-(D5-Pad2)*
X199390000Y-173910000D03*
D10*
G04 #@! TO.P,JP39_4_3,1*
G04 #@! TO.N,/D1*
X196850000Y-173910000D03*
G04 #@! TD*
D20*
G04 #@! TO.P,JP3_1_30,2*
G04 #@! TO.N,Net-(D4-Pad2)*
X257810000Y-168830000D03*
D10*
G04 #@! TO.P,JP3_1_30,1*
G04 #@! TO.N,/D2*
X255270000Y-168830000D03*
G04 #@! TD*
D20*
G04 #@! TO.P,JP40_4_0,2*
G04 #@! TO.N,Net-(D5-Pad2)*
X199390000Y-178990000D03*
D10*
G04 #@! TO.P,JP40_4_0,1*
G04 #@! TO.N,/D0*
X196850000Y-178990000D03*
G04 #@! TD*
D20*
G04 #@! TO.P,JP4_1_15,2*
G04 #@! TO.N,Net-(D4-Pad2)*
X257810000Y-173910000D03*
D10*
G04 #@! TO.P,JP4_1_15,1*
G04 #@! TO.N,/D1*
X255270000Y-173910000D03*
G04 #@! TD*
G04 #@! TO.P,JP5_1_0,1*
G04 #@! TO.N,/D0*
X255270000Y-178990000D03*
D20*
G04 #@! TO.P,JP5_1_0,2*
G04 #@! TO.N,Net-(D4-Pad2)*
X257810000Y-178990000D03*
G04 #@! TD*
G04 #@! TO.P,JP2_1_45,2*
G04 #@! TO.N,Net-(D4-Pad2)*
X257810000Y-163750000D03*
D10*
G04 #@! TO.P,JP2_1_45,1*
G04 #@! TO.N,/D3*
X255270000Y-163750000D03*
G04 #@! TD*
G04 #@! TO.P,JP13_3_30,1*
G04 #@! TO.N,/D2*
X220980000Y-168830000D03*
D20*
G04 #@! TO.P,JP13_3_30,2*
G04 #@! TO.N,Net-(D2-Pad2)*
X223520000Y-168830000D03*
G04 #@! TD*
D10*
G04 #@! TO.P,JP38_4_6,1*
G04 #@! TO.N,/D2*
X196850000Y-168830000D03*
D20*
G04 #@! TO.P,JP38_4_6,2*
G04 #@! TO.N,Net-(D5-Pad2)*
X199390000Y-168830000D03*
G04 #@! TD*
D10*
G04 #@! TO.P,JP21_1_12,1*
G04 #@! TO.N,/D4*
X247650000Y-158670000D03*
D20*
G04 #@! TO.P,JP21_1_12,2*
G04 #@! TO.N,Net-(D8-Pad2)*
X250190000Y-158670000D03*
G04 #@! TD*
G04 #@! TO.P,JP22_1_9,2*
G04 #@! TO.N,Net-(D8-Pad2)*
X250190000Y-163750000D03*
D10*
G04 #@! TO.P,JP22_1_9,1*
G04 #@! TO.N,/D3*
X247650000Y-163750000D03*
G04 #@! TD*
G04 #@! TO.P,JP23_1_6,1*
G04 #@! TO.N,/D2*
X247650000Y-168830000D03*
D20*
G04 #@! TO.P,JP23_1_6,2*
G04 #@! TO.N,Net-(D8-Pad2)*
X250190000Y-168830000D03*
G04 #@! TD*
G04 #@! TO.P,JP24_1_3,2*
G04 #@! TO.N,Net-(D8-Pad2)*
X250190000Y-173910000D03*
D10*
G04 #@! TO.P,JP24_1_3,1*
G04 #@! TO.N,/D1*
X247650000Y-173910000D03*
G04 #@! TD*
G04 #@! TO.P,JP25_1_0,1*
G04 #@! TO.N,/D0*
X247650000Y-178990000D03*
D20*
G04 #@! TO.P,JP25_1_0,2*
G04 #@! TO.N,Net-(D8-Pad2)*
X250190000Y-178990000D03*
G04 #@! TD*
D10*
G04 #@! TO.P,JP26_2_12,1*
G04 #@! TO.N,/D4*
X229870000Y-158670000D03*
D20*
G04 #@! TO.P,JP26_2_12,2*
G04 #@! TO.N,Net-(D7-Pad2)*
X232410000Y-158670000D03*
G04 #@! TD*
G04 #@! TO.P,JP27_2_9,2*
G04 #@! TO.N,Net-(D7-Pad2)*
X232410000Y-163750000D03*
D10*
G04 #@! TO.P,JP27_2_9,1*
G04 #@! TO.N,/D3*
X229870000Y-163750000D03*
G04 #@! TD*
G04 #@! TO.P,JP28_2_6,1*
G04 #@! TO.N,/D2*
X229870000Y-168830000D03*
D20*
G04 #@! TO.P,JP28_2_6,2*
G04 #@! TO.N,Net-(D7-Pad2)*
X232410000Y-168830000D03*
G04 #@! TD*
G04 #@! TO.P,JP29_2_3,2*
G04 #@! TO.N,Net-(D7-Pad2)*
X232410000Y-173910000D03*
D10*
G04 #@! TO.P,JP29_2_3,1*
G04 #@! TO.N,/D1*
X229870000Y-173910000D03*
G04 #@! TD*
G04 #@! TO.P,JP30_2_0,1*
G04 #@! TO.N,/D0*
X229870000Y-178990000D03*
D20*
G04 #@! TO.P,JP30_2_0,2*
G04 #@! TO.N,Net-(D7-Pad2)*
X232410000Y-178990000D03*
G04 #@! TD*
D10*
G04 #@! TO.P,JP31_3_12,1*
G04 #@! TO.N,/D4*
X213360000Y-158670000D03*
D20*
G04 #@! TO.P,JP31_3_12,2*
G04 #@! TO.N,Net-(D6-Pad2)*
X215900000Y-158670000D03*
G04 #@! TD*
G04 #@! TO.P,JP33_3_6,2*
G04 #@! TO.N,Net-(D6-Pad2)*
X215900000Y-168830000D03*
D10*
G04 #@! TO.P,JP33_3_6,1*
G04 #@! TO.N,/D2*
X213360000Y-168830000D03*
G04 #@! TD*
G04 #@! TO.P,JP1_1_60,1*
G04 #@! TO.N,/D4*
X255270000Y-158670000D03*
D20*
G04 #@! TO.P,JP1_1_60,2*
G04 #@! TO.N,Net-(D4-Pad2)*
X257810000Y-158670000D03*
G04 #@! TD*
D10*
G04 #@! TO.P,JP20_4_0,1*
G04 #@! TO.N,/D0*
X204470000Y-178990000D03*
D20*
G04 #@! TO.P,JP20_4_0,2*
G04 #@! TO.N,Net-(D1-Pad2)*
X207010000Y-178990000D03*
G04 #@! TD*
G04 #@! TO.P,JP19_4_15,2*
G04 #@! TO.N,Net-(D1-Pad2)*
X207010000Y-173910000D03*
D10*
G04 #@! TO.P,JP19_4_15,1*
G04 #@! TO.N,/D1*
X204470000Y-173910000D03*
G04 #@! TD*
G04 #@! TO.P,JP18_4_30,1*
G04 #@! TO.N,/D2*
X204470000Y-168830000D03*
D20*
G04 #@! TO.P,JP18_4_30,2*
G04 #@! TO.N,Net-(D1-Pad2)*
X207010000Y-168830000D03*
G04 #@! TD*
G04 #@! TO.P,JP17_4_45,2*
G04 #@! TO.N,Net-(D1-Pad2)*
X207010000Y-163750000D03*
D10*
G04 #@! TO.P,JP17_4_45,1*
G04 #@! TO.N,/D3*
X204470000Y-163750000D03*
G04 #@! TD*
G04 #@! TO.P,JP16_4_60,1*
G04 #@! TO.N,/D4*
X204470000Y-158670000D03*
D20*
G04 #@! TO.P,JP16_4_60,2*
G04 #@! TO.N,Net-(D1-Pad2)*
X207010000Y-158670000D03*
G04 #@! TD*
D10*
G04 #@! TO.P,JP15_3_0,1*
G04 #@! TO.N,/D0*
X220980000Y-178990000D03*
D20*
G04 #@! TO.P,JP15_3_0,2*
G04 #@! TO.N,Net-(D2-Pad2)*
X223520000Y-178990000D03*
G04 #@! TD*
D21*
G04 #@! TO.P,Y1,1*
G04 #@! TO.N,Net-(C2-Pad1)*
X81280000Y-177800000D03*
G04 #@! TO.P,Y1,2*
G04 #@! TO.N,Net-(C3-Pad1)*
X83180000Y-177800000D03*
G04 #@! TD*
D18*
G04 #@! TO.P,U4,1*
G04 #@! TO.N,Net-(U3-Pad6)*
X153670000Y-88900000D03*
D17*
G04 #@! TO.P,U4,8*
G04 #@! TO.N,N/C*
X161290000Y-104140000D03*
G04 #@! TO.P,U4,2*
G04 #@! TO.N,Net-(U4-Pad2)*
X153670000Y-91440000D03*
G04 #@! TO.P,U4,9*
G04 #@! TO.N,N/C*
X161290000Y-101600000D03*
G04 #@! TO.P,U4,3*
X153670000Y-93980000D03*
G04 #@! TO.P,U4,10*
G04 #@! TO.N,Net-(U16-Pad1)*
X161290000Y-99060000D03*
G04 #@! TO.P,U4,4*
G04 #@! TO.N,N/C*
X153670000Y-96520000D03*
G04 #@! TO.P,U4,11*
G04 #@! TO.N,Net-(U12-Pad6)*
X161290000Y-96520000D03*
G04 #@! TO.P,U4,5*
G04 #@! TO.N,Net-(U11-Pad3)*
X153670000Y-99060000D03*
G04 #@! TO.P,U4,12*
G04 #@! TO.N,N/C*
X161290000Y-93980000D03*
G04 #@! TO.P,U4,6*
G04 #@! TO.N,Net-(U11-Pad9)*
X153670000Y-101600000D03*
G04 #@! TO.P,U4,13*
G04 #@! TO.N,N/C*
X161290000Y-91440000D03*
G04 #@! TO.P,U4,7*
G04 #@! TO.N,GND*
X153670000Y-104140000D03*
G04 #@! TO.P,U4,14*
G04 #@! TO.N,+5V*
X161290000Y-88900000D03*
G04 #@! TD*
D18*
G04 #@! TO.P,U12,1*
G04 #@! TO.N,Net-(U11-Pad12)*
X177800000Y-78740000D03*
D17*
G04 #@! TO.P,U12,8*
G04 #@! TO.N,N/C*
X185420000Y-93980000D03*
G04 #@! TO.P,U12,2*
G04 #@! TO.N,Net-(U11-Pad13)*
X177800000Y-81280000D03*
G04 #@! TO.P,U12,9*
G04 #@! TO.N,N/C*
X185420000Y-91440000D03*
G04 #@! TO.P,U12,3*
G04 #@! TO.N,Net-(U12-Pad3)*
X177800000Y-83820000D03*
G04 #@! TO.P,U12,10*
G04 #@! TO.N,N/C*
X185420000Y-88900000D03*
G04 #@! TO.P,U12,4*
G04 #@! TO.N,Net-(U12-Pad4)*
X177800000Y-86360000D03*
G04 #@! TO.P,U12,11*
G04 #@! TO.N,N/C*
X185420000Y-86360000D03*
G04 #@! TO.P,U12,5*
G04 #@! TO.N,Net-(U12-Pad5)*
X177800000Y-88900000D03*
G04 #@! TO.P,U12,12*
G04 #@! TO.N,N/C*
X185420000Y-83820000D03*
G04 #@! TO.P,U12,6*
G04 #@! TO.N,Net-(U12-Pad6)*
X177800000Y-91440000D03*
G04 #@! TO.P,U12,13*
G04 #@! TO.N,N/C*
X185420000Y-81280000D03*
G04 #@! TO.P,U12,7*
G04 #@! TO.N,GND*
X177800000Y-93980000D03*
G04 #@! TO.P,U12,14*
G04 #@! TO.N,+5V*
X185420000Y-78740000D03*
G04 #@! TD*
G04 #@! TO.P,U3,14*
G04 #@! TO.N,+5V*
X161290000Y-30480000D03*
G04 #@! TO.P,U3,7*
G04 #@! TO.N,GND*
X153670000Y-45720000D03*
G04 #@! TO.P,U3,13*
G04 #@! TO.N,N/C*
X161290000Y-33020000D03*
G04 #@! TO.P,U3,6*
G04 #@! TO.N,Net-(U3-Pad6)*
X153670000Y-43180000D03*
G04 #@! TO.P,U3,12*
G04 #@! TO.N,N/C*
X161290000Y-35560000D03*
G04 #@! TO.P,U3,5*
G04 #@! TO.N,/Mem.Comparison.Equal*
X153670000Y-40640000D03*
G04 #@! TO.P,U3,11*
G04 #@! TO.N,N/C*
X161290000Y-38100000D03*
G04 #@! TO.P,U3,4*
G04 #@! TO.N,/Timer.End*
X153670000Y-38100000D03*
G04 #@! TO.P,U3,10*
G04 #@! TO.N,N/C*
X161290000Y-40640000D03*
G04 #@! TO.P,U3,3*
G04 #@! TO.N,+5V*
X153670000Y-35560000D03*
G04 #@! TO.P,U3,9*
G04 #@! TO.N,N/C*
X161290000Y-43180000D03*
G04 #@! TO.P,U3,2*
G04 #@! TO.N,/Reset(Out)*
X153670000Y-33020000D03*
G04 #@! TO.P,U3,8*
G04 #@! TO.N,N/C*
X161290000Y-45720000D03*
D18*
G04 #@! TO.P,U3,1*
G04 #@! TO.N,/Next(Out)*
X153670000Y-30480000D03*
G04 #@! TD*
G04 #@! TO.P,U14,1*
G04 #@! TO.N,Net-(U14-Pad1)*
X199390000Y-52070000D03*
D17*
G04 #@! TO.P,U14,8*
G04 #@! TO.N,N/C*
X207010000Y-67310000D03*
G04 #@! TO.P,U14,2*
G04 #@! TO.N,Net-(U14-Pad2)*
X199390000Y-54610000D03*
G04 #@! TO.P,U14,9*
G04 #@! TO.N,N/C*
X207010000Y-64770000D03*
G04 #@! TO.P,U14,3*
G04 #@! TO.N,/Timer.End*
X199390000Y-57150000D03*
G04 #@! TO.P,U14,10*
G04 #@! TO.N,N/C*
X207010000Y-62230000D03*
G04 #@! TO.P,U14,4*
G04 #@! TO.N,Net-(U14-Pad4)*
X199390000Y-59690000D03*
G04 #@! TO.P,U14,11*
G04 #@! TO.N,N/C*
X207010000Y-59690000D03*
G04 #@! TO.P,U14,5*
G04 #@! TO.N,Net-(U14-Pad5)*
X199390000Y-62230000D03*
G04 #@! TO.P,U14,12*
G04 #@! TO.N,N/C*
X207010000Y-57150000D03*
G04 #@! TO.P,U14,6*
G04 #@! TO.N,Net-(U14-Pad6)*
X199390000Y-64770000D03*
G04 #@! TO.P,U14,13*
G04 #@! TO.N,N/C*
X207010000Y-54610000D03*
G04 #@! TO.P,U14,7*
G04 #@! TO.N,GND*
X199390000Y-67310000D03*
G04 #@! TO.P,U14,14*
G04 #@! TO.N,+5V*
X207010000Y-52070000D03*
G04 #@! TD*
G04 #@! TO.P,U19,14*
G04 #@! TO.N,+5V*
X254000000Y-78740000D03*
G04 #@! TO.P,U19,7*
G04 #@! TO.N,GND*
X246380000Y-93980000D03*
G04 #@! TO.P,U19,13*
G04 #@! TO.N,N/C*
X254000000Y-81280000D03*
G04 #@! TO.P,U19,6*
G04 #@! TO.N,Net-(U10-Pad4)*
X246380000Y-91440000D03*
G04 #@! TO.P,U19,12*
G04 #@! TO.N,N/C*
X254000000Y-83820000D03*
G04 #@! TO.P,U19,5*
G04 #@! TO.N,Net-(U13-Pad8)*
X246380000Y-88900000D03*
G04 #@! TO.P,U19,11*
G04 #@! TO.N,N/C*
X254000000Y-86360000D03*
G04 #@! TO.P,U19,4*
G04 #@! TO.N,Net-(U19-Pad4)*
X246380000Y-86360000D03*
G04 #@! TO.P,U19,10*
G04 #@! TO.N,Net-(U13-Pad11)*
X254000000Y-88900000D03*
G04 #@! TO.P,U19,3*
G04 #@! TO.N,Net-(U10-Pad3)*
X246380000Y-83820000D03*
G04 #@! TO.P,U19,9*
G04 #@! TO.N,Net-(U19-Pad9)*
X254000000Y-91440000D03*
G04 #@! TO.P,U19,2*
G04 #@! TO.N,Net-(U13-Pad9)*
X246380000Y-81280000D03*
G04 #@! TO.P,U19,8*
G04 #@! TO.N,Net-(U10-Pad5)*
X254000000Y-93980000D03*
D18*
G04 #@! TO.P,U19,1*
G04 #@! TO.N,Net-(U19-Pad1)*
X246380000Y-78740000D03*
G04 #@! TD*
G04 #@! TO.P,U15,1*
G04 #@! TO.N,/Reset(Out)*
X198120000Y-24130000D03*
D17*
G04 #@! TO.P,U15,8*
G04 #@! TO.N,N/C*
X205740000Y-39370000D03*
G04 #@! TO.P,U15,2*
G04 #@! TO.N,Net-(U15-Pad2)*
X198120000Y-26670000D03*
G04 #@! TO.P,U15,9*
G04 #@! TO.N,N/C*
X205740000Y-36830000D03*
G04 #@! TO.P,U15,3*
G04 #@! TO.N,/Comparison.Equal*
X198120000Y-29210000D03*
G04 #@! TO.P,U15,10*
G04 #@! TO.N,N/C*
X205740000Y-34290000D03*
G04 #@! TO.P,U15,4*
G04 #@! TO.N,Net-(U15-Pad4)*
X198120000Y-31750000D03*
G04 #@! TO.P,U15,11*
G04 #@! TO.N,N/C*
X205740000Y-31750000D03*
G04 #@! TO.P,U15,5*
G04 #@! TO.N,Net-(U10-Pad6)*
X198120000Y-34290000D03*
G04 #@! TO.P,U15,12*
G04 #@! TO.N,N/C*
X205740000Y-29210000D03*
G04 #@! TO.P,U15,6*
G04 #@! TO.N,/Comparison.Equal*
X198120000Y-36830000D03*
G04 #@! TO.P,U15,13*
G04 #@! TO.N,N/C*
X205740000Y-26670000D03*
G04 #@! TO.P,U15,7*
G04 #@! TO.N,GND*
X198120000Y-39370000D03*
G04 #@! TO.P,U15,14*
G04 #@! TO.N,+5V*
X205740000Y-24130000D03*
G04 #@! TD*
D18*
G04 #@! TO.P,U16,1*
G04 #@! TO.N,Net-(U16-Pad1)*
X177800000Y-52070000D03*
D17*
G04 #@! TO.P,U16,8*
G04 #@! TO.N,N/C*
X185420000Y-67310000D03*
G04 #@! TO.P,U16,2*
G04 #@! TO.N,Net-(U16-Pad2)*
X177800000Y-54610000D03*
G04 #@! TO.P,U16,9*
G04 #@! TO.N,N/C*
X185420000Y-64770000D03*
G04 #@! TO.P,U16,3*
G04 #@! TO.N,Net-(U14-Pad1)*
X177800000Y-57150000D03*
G04 #@! TO.P,U16,10*
G04 #@! TO.N,N/C*
X185420000Y-62230000D03*
G04 #@! TO.P,U16,4*
G04 #@! TO.N,Net-(U11-Pad11)*
X177800000Y-59690000D03*
G04 #@! TO.P,U16,11*
G04 #@! TO.N,N/C*
X185420000Y-59690000D03*
G04 #@! TO.P,U16,5*
G04 #@! TO.N,Net-(U14-Pad4)*
X177800000Y-62230000D03*
G04 #@! TO.P,U16,12*
G04 #@! TO.N,N/C*
X185420000Y-57150000D03*
G04 #@! TO.P,U16,6*
G04 #@! TO.N,Net-(U14-Pad2)*
X177800000Y-64770000D03*
G04 #@! TO.P,U16,13*
G04 #@! TO.N,N/C*
X185420000Y-54610000D03*
G04 #@! TO.P,U16,7*
G04 #@! TO.N,GND*
X177800000Y-67310000D03*
G04 #@! TO.P,U16,14*
G04 #@! TO.N,+5V*
X185420000Y-52070000D03*
G04 #@! TD*
D18*
G04 #@! TO.P,U18,1*
G04 #@! TO.N,Net-(U14-Pad6)*
X199390000Y-109220000D03*
D17*
G04 #@! TO.P,U18,8*
G04 #@! TO.N,Net-(U18-Pad8)*
X207010000Y-124460000D03*
G04 #@! TO.P,U18,2*
G04 #@! TO.N,/Reset(Out)*
X199390000Y-111760000D03*
G04 #@! TO.P,U18,9*
G04 #@! TO.N,Net-(U18-Pad9)*
X207010000Y-121920000D03*
G04 #@! TO.P,U18,3*
G04 #@! TO.N,/Reset(Out)*
X199390000Y-114300000D03*
G04 #@! TO.P,U18,10*
G04 #@! TO.N,GND*
X207010000Y-119380000D03*
G04 #@! TO.P,U18,4*
G04 #@! TO.N,Net-(U18-Pad4)*
X199390000Y-116840000D03*
G04 #@! TO.P,U18,11*
G04 #@! TO.N,/Completed(In)*
X207010000Y-116840000D03*
G04 #@! TO.P,U18,5*
G04 #@! TO.N,+5V*
X199390000Y-119380000D03*
G04 #@! TO.P,U18,12*
G04 #@! TO.N,Net-(U18-Pad12)*
X207010000Y-114300000D03*
G04 #@! TO.P,U18,6*
G04 #@! TO.N,Net-(U18-Pad6)*
X199390000Y-121920000D03*
G04 #@! TO.P,U18,13*
G04 #@! TO.N,Net-(U18-Pad13)*
X207010000Y-111760000D03*
G04 #@! TO.P,U18,7*
G04 #@! TO.N,Net-(U18-Pad7)*
X199390000Y-124460000D03*
G04 #@! TO.P,U18,14*
G04 #@! TO.N,Net-(U18-Pad14)*
X207010000Y-109220000D03*
G04 #@! TD*
G04 #@! TO.P,U23,14*
G04 #@! TO.N,+5V*
X119380000Y-116840000D03*
G04 #@! TO.P,U23,7*
G04 #@! TO.N,GND*
X111760000Y-132080000D03*
G04 #@! TO.P,U23,13*
G04 #@! TO.N,N/C*
X119380000Y-119380000D03*
G04 #@! TO.P,U23,6*
G04 #@! TO.N,Net-(CONN_PWR_LINE3_15-Pad1)*
X111760000Y-129540000D03*
G04 #@! TO.P,U23,12*
G04 #@! TO.N,N/C*
X119380000Y-121920000D03*
G04 #@! TO.P,U23,5*
G04 #@! TO.N,Net-(U22-Pad5)*
X111760000Y-127000000D03*
G04 #@! TO.P,U23,11*
G04 #@! TO.N,N/C*
X119380000Y-124460000D03*
G04 #@! TO.P,U23,4*
G04 #@! TO.N,Net-(CONN_PWR_LINE2_14-Pad1)*
X111760000Y-124460000D03*
G04 #@! TO.P,U23,10*
G04 #@! TO.N,N/C*
X119380000Y-127000000D03*
G04 #@! TO.P,U23,3*
G04 #@! TO.N,Net-(U22-Pad6)*
X111760000Y-121920000D03*
G04 #@! TO.P,U23,9*
G04 #@! TO.N,Net-(U22-Pad4)*
X119380000Y-129540000D03*
G04 #@! TO.P,U23,2*
G04 #@! TO.N,Net-(CONN_PWR_LINE1_13-Pad1)*
X111760000Y-119380000D03*
G04 #@! TO.P,U23,8*
G04 #@! TO.N,Net-(CONN_PWR_LINE4_16-Pad1)*
X119380000Y-132080000D03*
D18*
G04 #@! TO.P,U23,1*
G04 #@! TO.N,Net-(U22-Pad7)*
X111760000Y-116840000D03*
G04 #@! TD*
D17*
G04 #@! TO.P,U5,14*
G04 #@! TO.N,+5V*
X231140000Y-52070000D03*
G04 #@! TO.P,U5,7*
G04 #@! TO.N,GND*
X223520000Y-67310000D03*
G04 #@! TO.P,U5,13*
G04 #@! TO.N,Net-(U15-Pad2)*
X231140000Y-54610000D03*
G04 #@! TO.P,U5,6*
G04 #@! TO.N,N/C*
X223520000Y-64770000D03*
G04 #@! TO.P,U5,12*
G04 #@! TO.N,/Next(Out)*
X231140000Y-57150000D03*
G04 #@! TO.P,U5,5*
G04 #@! TO.N,N/C*
X223520000Y-62230000D03*
G04 #@! TO.P,U5,11*
G04 #@! TO.N,Net-(U14-Pad5)*
X231140000Y-59690000D03*
G04 #@! TO.P,U5,4*
G04 #@! TO.N,N/C*
X223520000Y-59690000D03*
G04 #@! TO.P,U5,10*
X231140000Y-62230000D03*
G04 #@! TO.P,U5,3*
X223520000Y-57150000D03*
G04 #@! TO.P,U5,9*
X231140000Y-64770000D03*
G04 #@! TO.P,U5,2*
X223520000Y-54610000D03*
G04 #@! TO.P,U5,8*
X231140000Y-67310000D03*
D18*
G04 #@! TO.P,U5,1*
X223520000Y-52070000D03*
G04 #@! TD*
D17*
G04 #@! TO.P,U6,14*
G04 #@! TO.N,+5V*
X207010000Y-78740000D03*
G04 #@! TO.P,U6,7*
G04 #@! TO.N,GND*
X199390000Y-93980000D03*
G04 #@! TO.P,U6,13*
G04 #@! TO.N,Net-(U17-Pad1)*
X207010000Y-81280000D03*
G04 #@! TO.P,U6,6*
X199390000Y-91440000D03*
G04 #@! TO.P,U6,12*
G04 #@! TO.N,Net-(U11-Pad8)*
X207010000Y-83820000D03*
G04 #@! TO.P,U6,5*
G04 #@! TO.N,/Reset(Out)*
X199390000Y-88900000D03*
G04 #@! TO.P,U6,11*
G04 #@! TO.N,Net-(U13-Pad2)*
X207010000Y-86360000D03*
G04 #@! TO.P,U6,4*
G04 #@! TO.N,/Next(Out)*
X199390000Y-86360000D03*
G04 #@! TO.P,U6,10*
G04 #@! TO.N,N/C*
X207010000Y-88900000D03*
G04 #@! TO.P,U6,3*
X199390000Y-83820000D03*
G04 #@! TO.P,U6,9*
X207010000Y-91440000D03*
G04 #@! TO.P,U6,2*
X199390000Y-81280000D03*
G04 #@! TO.P,U6,8*
X207010000Y-93980000D03*
D18*
G04 #@! TO.P,U6,1*
X199390000Y-78740000D03*
G04 #@! TD*
D17*
G04 #@! TO.P,U10,14*
G04 #@! TO.N,+5V*
X231140000Y-25400000D03*
G04 #@! TO.P,U10,7*
G04 #@! TO.N,GND*
X223520000Y-40640000D03*
G04 #@! TO.P,U10,13*
G04 #@! TO.N,N/C*
X231140000Y-27940000D03*
G04 #@! TO.P,U10,6*
G04 #@! TO.N,Net-(U10-Pad6)*
X223520000Y-38100000D03*
G04 #@! TO.P,U10,12*
G04 #@! TO.N,N/C*
X231140000Y-30480000D03*
G04 #@! TO.P,U10,5*
G04 #@! TO.N,Net-(U10-Pad5)*
X223520000Y-35560000D03*
G04 #@! TO.P,U10,11*
G04 #@! TO.N,N/C*
X231140000Y-33020000D03*
G04 #@! TO.P,U10,4*
G04 #@! TO.N,Net-(U10-Pad4)*
X223520000Y-33020000D03*
G04 #@! TO.P,U10,10*
G04 #@! TO.N,N/C*
X231140000Y-35560000D03*
G04 #@! TO.P,U10,3*
G04 #@! TO.N,Net-(U10-Pad3)*
X223520000Y-30480000D03*
G04 #@! TO.P,U10,9*
G04 #@! TO.N,N/C*
X231140000Y-38100000D03*
G04 #@! TO.P,U10,2*
X223520000Y-27940000D03*
G04 #@! TO.P,U10,8*
X231140000Y-40640000D03*
D18*
G04 #@! TO.P,U10,1*
X223520000Y-25400000D03*
G04 #@! TD*
G04 #@! TO.P,U11,1*
G04 #@! TO.N,Net-(U1-Pad4)*
X55880000Y-27940000D03*
D17*
G04 #@! TO.P,U11,8*
G04 #@! TO.N,Net-(U11-Pad8)*
X63500000Y-43180000D03*
G04 #@! TO.P,U11,2*
G04 #@! TO.N,/Running(Out)*
X55880000Y-30480000D03*
G04 #@! TO.P,U11,9*
G04 #@! TO.N,Net-(U11-Pad9)*
X63500000Y-40640000D03*
G04 #@! TO.P,U11,3*
G04 #@! TO.N,Net-(U11-Pad3)*
X55880000Y-33020000D03*
G04 #@! TO.P,U11,10*
G04 #@! TO.N,/Mem.Comparison.Equal*
X63500000Y-38100000D03*
G04 #@! TO.P,U11,4*
G04 #@! TO.N,Net-(U1-Pad10)*
X55880000Y-35560000D03*
G04 #@! TO.P,U11,11*
G04 #@! TO.N,Net-(U11-Pad11)*
X63500000Y-35560000D03*
G04 #@! TO.P,U11,5*
G04 #@! TO.N,/Running(Out)*
X55880000Y-38100000D03*
G04 #@! TO.P,U11,12*
G04 #@! TO.N,Net-(U11-Pad12)*
X63500000Y-33020000D03*
G04 #@! TO.P,U11,6*
G04 #@! TO.N,Net-(U11-Pad6)*
X55880000Y-40640000D03*
G04 #@! TO.P,U11,13*
G04 #@! TO.N,Net-(U11-Pad13)*
X63500000Y-30480000D03*
G04 #@! TO.P,U11,7*
G04 #@! TO.N,GND*
X55880000Y-43180000D03*
G04 #@! TO.P,U11,14*
G04 #@! TO.N,+5V*
X63500000Y-27940000D03*
G04 #@! TD*
D18*
G04 #@! TO.P,U13,1*
G04 #@! TO.N,/Timer.End*
X223520000Y-78740000D03*
D17*
G04 #@! TO.P,U13,8*
G04 #@! TO.N,Net-(U13-Pad8)*
X231140000Y-93980000D03*
G04 #@! TO.P,U13,2*
G04 #@! TO.N,Net-(U13-Pad2)*
X223520000Y-81280000D03*
G04 #@! TO.P,U13,9*
G04 #@! TO.N,Net-(U13-Pad9)*
X231140000Y-91440000D03*
G04 #@! TO.P,U13,3*
G04 #@! TO.N,Net-(U13-Pad2)*
X223520000Y-83820000D03*
G04 #@! TO.P,U13,10*
G04 #@! TO.N,GND*
X231140000Y-88900000D03*
G04 #@! TO.P,U13,4*
G04 #@! TO.N,Net-(U13-Pad4)*
X223520000Y-86360000D03*
G04 #@! TO.P,U13,11*
G04 #@! TO.N,Net-(U13-Pad11)*
X231140000Y-86360000D03*
G04 #@! TO.P,U13,5*
G04 #@! TO.N,+5V*
X223520000Y-88900000D03*
G04 #@! TO.P,U13,12*
G04 #@! TO.N,Net-(U13-Pad12)*
X231140000Y-83820000D03*
G04 #@! TO.P,U13,6*
G04 #@! TO.N,Net-(U13-Pad6)*
X223520000Y-91440000D03*
G04 #@! TO.P,U13,13*
G04 #@! TO.N,Net-(U13-Pad13)*
X231140000Y-81280000D03*
G04 #@! TO.P,U13,7*
G04 #@! TO.N,Net-(U13-Pad7)*
X223520000Y-93980000D03*
G04 #@! TO.P,U13,14*
G04 #@! TO.N,Net-(U13-Pad14)*
X231140000Y-78740000D03*
G04 #@! TD*
D18*
G04 #@! TO.P,U9,1*
G04 #@! TO.N,Net-(U11-Pad12)*
X153670000Y-58420000D03*
D17*
G04 #@! TO.P,U9,8*
G04 #@! TO.N,Net-(U12-Pad4)*
X161290000Y-73660000D03*
G04 #@! TO.P,U9,2*
G04 #@! TO.N,Net-(U4-Pad2)*
X153670000Y-60960000D03*
G04 #@! TO.P,U9,9*
G04 #@! TO.N,Net-(U11-Pad13)*
X161290000Y-71120000D03*
G04 #@! TO.P,U9,3*
G04 #@! TO.N,Net-(U4-Pad2)*
X153670000Y-63500000D03*
G04 #@! TO.P,U9,10*
G04 #@! TO.N,GND*
X161290000Y-68580000D03*
G04 #@! TO.P,U9,4*
G04 #@! TO.N,Net-(U9-Pad4)*
X153670000Y-66040000D03*
G04 #@! TO.P,U9,11*
G04 #@! TO.N,Net-(U12-Pad5)*
X161290000Y-66040000D03*
G04 #@! TO.P,U9,5*
G04 #@! TO.N,+5V*
X153670000Y-68580000D03*
G04 #@! TO.P,U9,12*
G04 #@! TO.N,Net-(U11-Pad12)*
X161290000Y-63500000D03*
G04 #@! TO.P,U9,6*
G04 #@! TO.N,Net-(U9-Pad6)*
X153670000Y-71120000D03*
G04 #@! TO.P,U9,13*
G04 #@! TO.N,Net-(U9-Pad13)*
X161290000Y-60960000D03*
G04 #@! TO.P,U9,7*
G04 #@! TO.N,Net-(U9-Pad7)*
X153670000Y-73660000D03*
G04 #@! TO.P,U9,14*
G04 #@! TO.N,Net-(U11-Pad6)*
X161290000Y-58420000D03*
G04 #@! TD*
G04 #@! TO.P,U24,16*
G04 #@! TO.N,+5V*
X161290000Y-114300000D03*
G04 #@! TO.P,U24,8*
G04 #@! TO.N,GND*
X153670000Y-132080000D03*
G04 #@! TO.P,U24,15*
X161290000Y-116840000D03*
G04 #@! TO.P,U24,7*
G04 #@! TO.N,Net-(CONN_LED_LINE3_11-Pad2)*
X153670000Y-129540000D03*
G04 #@! TO.P,U24,14*
G04 #@! TO.N,Net-(U24-Pad14)*
X161290000Y-119380000D03*
G04 #@! TO.P,U24,6*
G04 #@! TO.N,Net-(U22-Pad5)*
X153670000Y-127000000D03*
G04 #@! TO.P,U24,13*
G04 #@! TO.N,Net-(U24-Pad13)*
X161290000Y-121920000D03*
G04 #@! TO.P,U24,5*
G04 #@! TO.N,Net-(CONN_LED_LINE2_10-Pad2)*
X153670000Y-124460000D03*
G04 #@! TO.P,U24,12*
G04 #@! TO.N,Net-(U24-Pad12)*
X161290000Y-124460000D03*
G04 #@! TO.P,U24,4*
G04 #@! TO.N,Net-(U22-Pad6)*
X153670000Y-121920000D03*
G04 #@! TO.P,U24,11*
G04 #@! TO.N,Net-(U24-Pad11)*
X161290000Y-127000000D03*
G04 #@! TO.P,U24,3*
G04 #@! TO.N,Net-(CONN_LED_LINE1_9-Pad2)*
X153670000Y-119380000D03*
G04 #@! TO.P,U24,10*
G04 #@! TO.N,Net-(U22-Pad4)*
X161290000Y-129540000D03*
G04 #@! TO.P,U24,2*
G04 #@! TO.N,Net-(U22-Pad7)*
X153670000Y-116840000D03*
G04 #@! TO.P,U24,9*
G04 #@! TO.N,Net-(CONN_LED_LINE4_12-Pad2)*
X161290000Y-132080000D03*
D18*
G04 #@! TO.P,U24,1*
G04 #@! TO.N,GND*
X153670000Y-114300000D03*
G04 #@! TD*
D17*
G04 #@! TO.P,U21,16*
G04 #@! TO.N,+5V*
X232410000Y-107950000D03*
G04 #@! TO.P,U21,8*
G04 #@! TO.N,GND*
X224790000Y-125730000D03*
G04 #@! TO.P,U21,15*
G04 #@! TO.N,Net-(D4-Pad1)*
X232410000Y-110490000D03*
G04 #@! TO.P,U21,7*
G04 #@! TO.N,Net-(D5-Pad1)*
X224790000Y-123190000D03*
G04 #@! TO.P,U21,14*
G04 #@! TO.N,Net-(D8-Pad1)*
X232410000Y-113030000D03*
G04 #@! TO.P,U21,6*
G04 #@! TO.N,/Running(Out)*
X224790000Y-120650000D03*
G04 #@! TO.P,U21,13*
G04 #@! TO.N,Net-(D3-Pad1)*
X232410000Y-115570000D03*
G04 #@! TO.P,U21,5*
G04 #@! TO.N,GND*
X224790000Y-118110000D03*
G04 #@! TO.P,U21,12*
G04 #@! TO.N,Net-(D7-Pad1)*
X232410000Y-118110000D03*
G04 #@! TO.P,U21,4*
G04 #@! TO.N,GND*
X224790000Y-115570000D03*
G04 #@! TO.P,U21,11*
G04 #@! TO.N,Net-(D2-Pad1)*
X232410000Y-120650000D03*
G04 #@! TO.P,U21,3*
G04 #@! TO.N,Net-(U18-Pad8)*
X224790000Y-113030000D03*
G04 #@! TO.P,U21,10*
G04 #@! TO.N,Net-(D6-Pad1)*
X232410000Y-123190000D03*
G04 #@! TO.P,U21,2*
G04 #@! TO.N,Net-(U18-Pad9)*
X224790000Y-110490000D03*
G04 #@! TO.P,U21,9*
G04 #@! TO.N,Net-(D1-Pad1)*
X232410000Y-125730000D03*
D18*
G04 #@! TO.P,U21,1*
G04 #@! TO.N,Net-(U14-Pad4)*
X224790000Y-107950000D03*
G04 #@! TD*
D22*
G04 #@! TO.P,U20,16*
G04 #@! TO.N,+5V*
X259080000Y-146050000D03*
G04 #@! TO.P,U20,8*
G04 #@! TO.N,GND*
X241300000Y-138430000D03*
G04 #@! TO.P,U20,15*
G04 #@! TO.N,Net-(U20-Pad15)*
X256540000Y-146050000D03*
G04 #@! TO.P,U20,7*
G04 #@! TO.N,Net-(U19-Pad4)*
X243840000Y-138430000D03*
G04 #@! TO.P,U20,14*
G04 #@! TO.N,Net-(U20-Pad14)*
X254000000Y-146050000D03*
G04 #@! TO.P,U20,6*
G04 #@! TO.N,Net-(U19-Pad9)*
X246380000Y-138430000D03*
G04 #@! TO.P,U20,13*
G04 #@! TO.N,/D3*
X251460000Y-146050000D03*
G04 #@! TO.P,U20,5*
G04 #@! TO.N,/RunningInv(out)*
X248920000Y-138430000D03*
G04 #@! TO.P,U20,12*
G04 #@! TO.N,/D2*
X248920000Y-146050000D03*
G04 #@! TO.P,U20,4*
G04 #@! TO.N,+5V*
X251460000Y-138430000D03*
G04 #@! TO.P,U20,11*
G04 #@! TO.N,/D1*
X246380000Y-146050000D03*
G04 #@! TO.P,U20,3*
G04 #@! TO.N,+5V*
X254000000Y-138430000D03*
G04 #@! TO.P,U20,10*
G04 #@! TO.N,/D0*
X243840000Y-146050000D03*
G04 #@! TO.P,U20,2*
G04 #@! TO.N,+5V*
X256540000Y-138430000D03*
G04 #@! TO.P,U20,9*
G04 #@! TO.N,Net-(U19-Pad1)*
X241300000Y-146050000D03*
D23*
G04 #@! TO.P,U20,1*
G04 #@! TO.N,/D4*
X259080000Y-138430000D03*
G04 #@! TD*
D18*
G04 #@! TO.P,U2,1*
G04 #@! TO.N,GND*
X73025000Y-122555000D03*
D17*
G04 #@! TO.P,U2,9*
G04 #@! TO.N,/Rain(In)*
X80645000Y-140335000D03*
G04 #@! TO.P,U2,2*
G04 #@! TO.N,/Control(Ext.)*
X73025000Y-125095000D03*
G04 #@! TO.P,U2,10*
G04 #@! TO.N,/Rain_Sensor(Ext.)*
X80645000Y-137795000D03*
G04 #@! TO.P,U2,3*
G04 #@! TO.N,/Control(In1)*
X73025000Y-127635000D03*
G04 #@! TO.P,U2,11*
G04 #@! TO.N,/Rain(Led)*
X80645000Y-135255000D03*
G04 #@! TO.P,U2,4*
G04 #@! TO.N,/Control(Ext.2)*
X73025000Y-130175000D03*
G04 #@! TO.P,U2,12*
G04 #@! TO.N,/Rain(In)*
X80645000Y-132715000D03*
G04 #@! TO.P,U2,5*
G04 #@! TO.N,/Control(In2)*
X73025000Y-132715000D03*
G04 #@! TO.P,U2,13*
G04 #@! TO.N,/Running(Led)*
X80645000Y-130175000D03*
G04 #@! TO.P,U2,6*
G04 #@! TO.N,/Mode(Ext.)*
X73025000Y-135255000D03*
G04 #@! TO.P,U2,14*
G04 #@! TO.N,/Running(Out)*
X80645000Y-127635000D03*
G04 #@! TO.P,U2,7*
G04 #@! TO.N,/Mode(In)*
X73025000Y-137795000D03*
G04 #@! TO.P,U2,15*
G04 #@! TO.N,GND*
X80645000Y-125095000D03*
G04 #@! TO.P,U2,8*
X73025000Y-140335000D03*
G04 #@! TO.P,U2,16*
G04 #@! TO.N,+5V*
X80645000Y-122555000D03*
G04 #@! TD*
D18*
G04 #@! TO.P,U17,1*
G04 #@! TO.N,Net-(U17-Pad1)*
X177800000Y-21590000D03*
D17*
G04 #@! TO.P,U17,9*
G04 #@! TO.N,N/C*
X185420000Y-39370000D03*
G04 #@! TO.P,U17,2*
G04 #@! TO.N,/Comparison.Equal*
X177800000Y-24130000D03*
G04 #@! TO.P,U17,10*
G04 #@! TO.N,N/C*
X185420000Y-36830000D03*
G04 #@! TO.P,U17,3*
G04 #@! TO.N,Net-(U15-Pad4)*
X177800000Y-26670000D03*
G04 #@! TO.P,U17,11*
G04 #@! TO.N,N/C*
X185420000Y-34290000D03*
G04 #@! TO.P,U17,4*
G04 #@! TO.N,Net-(U11-Pad3)*
X177800000Y-29210000D03*
G04 #@! TO.P,U17,12*
G04 #@! TO.N,N/C*
X185420000Y-31750000D03*
G04 #@! TO.P,U17,5*
G04 #@! TO.N,+5V*
X177800000Y-31750000D03*
G04 #@! TO.P,U17,13*
G04 #@! TO.N,N/C*
X185420000Y-29210000D03*
G04 #@! TO.P,U17,6*
G04 #@! TO.N,/Mem.Comparison.Equal*
X177800000Y-34290000D03*
G04 #@! TO.P,U17,14*
G04 #@! TO.N,N/C*
X185420000Y-26670000D03*
G04 #@! TO.P,U17,7*
G04 #@! TO.N,Net-(U17-Pad7)*
X177800000Y-36830000D03*
G04 #@! TO.P,U17,15*
G04 #@! TO.N,N/C*
X185420000Y-24130000D03*
G04 #@! TO.P,U17,8*
G04 #@! TO.N,GND*
X177800000Y-39370000D03*
G04 #@! TO.P,U17,16*
G04 #@! TO.N,+5V*
X185420000Y-21590000D03*
G04 #@! TD*
G04 #@! TO.P,U1,16*
G04 #@! TO.N,+5V*
X64770000Y-160020000D03*
G04 #@! TO.P,U1,8*
G04 #@! TO.N,GND*
X57150000Y-177800000D03*
G04 #@! TO.P,U1,15*
G04 #@! TO.N,Net-(U1-Pad15)*
X64770000Y-162560000D03*
G04 #@! TO.P,U1,7*
G04 #@! TO.N,Net-(U1-Pad4)*
X57150000Y-175260000D03*
G04 #@! TO.P,U1,14*
G04 #@! TO.N,Net-(U1-Pad14)*
X64770000Y-165100000D03*
G04 #@! TO.P,U1,6*
G04 #@! TO.N,Net-(U1-Pad6)*
X57150000Y-172720000D03*
G04 #@! TO.P,U1,13*
G04 #@! TO.N,Net-(R6-Pad1)*
X64770000Y-167640000D03*
G04 #@! TO.P,U1,5*
G04 #@! TO.N,GND*
X57150000Y-170180000D03*
G04 #@! TO.P,U1,12*
G04 #@! TO.N,Net-(C2-Pad1)*
X64770000Y-170180000D03*
G04 #@! TO.P,U1,4*
G04 #@! TO.N,Net-(U1-Pad4)*
X57150000Y-167640000D03*
G04 #@! TO.P,U1,11*
G04 #@! TO.N,Net-(U1-Pad11)*
X64770000Y-172720000D03*
G04 #@! TO.P,U1,3*
G04 #@! TO.N,Net-(U1-Pad3)*
X57150000Y-165100000D03*
G04 #@! TO.P,U1,10*
G04 #@! TO.N,Net-(U1-Pad10)*
X64770000Y-175260000D03*
G04 #@! TO.P,U1,2*
G04 #@! TO.N,Net-(U1-Pad2)*
X57150000Y-162560000D03*
G04 #@! TO.P,U1,9*
G04 #@! TO.N,GND*
X64770000Y-177800000D03*
D18*
G04 #@! TO.P,U1,1*
G04 #@! TO.N,Net-(U1-Pad1)*
X57150000Y-160020000D03*
G04 #@! TD*
G04 #@! TO.P,U22,1*
G04 #@! TO.N,/Running(Out)*
X177800000Y-114300000D03*
D17*
G04 #@! TO.P,U22,9*
G04 #@! TO.N,Net-(U22-Pad9)*
X185420000Y-132080000D03*
G04 #@! TO.P,U22,2*
G04 #@! TO.N,GND*
X177800000Y-116840000D03*
G04 #@! TO.P,U22,10*
G04 #@! TO.N,Net-(U22-Pad10)*
X185420000Y-129540000D03*
G04 #@! TO.P,U22,3*
G04 #@! TO.N,Net-(U18-Pad8)*
X177800000Y-119380000D03*
G04 #@! TO.P,U22,11*
G04 #@! TO.N,Net-(U22-Pad11)*
X185420000Y-127000000D03*
G04 #@! TO.P,U22,4*
G04 #@! TO.N,Net-(U22-Pad4)*
X177800000Y-121920000D03*
G04 #@! TO.P,U22,12*
G04 #@! TO.N,Net-(U22-Pad12)*
X185420000Y-124460000D03*
G04 #@! TO.P,U22,5*
G04 #@! TO.N,Net-(U22-Pad5)*
X177800000Y-124460000D03*
G04 #@! TO.P,U22,13*
G04 #@! TO.N,Net-(U18-Pad9)*
X185420000Y-121920000D03*
G04 #@! TO.P,U22,6*
G04 #@! TO.N,Net-(U22-Pad6)*
X177800000Y-127000000D03*
G04 #@! TO.P,U22,14*
G04 #@! TO.N,Net-(U22-Pad14)*
X185420000Y-119380000D03*
G04 #@! TO.P,U22,7*
G04 #@! TO.N,Net-(U22-Pad7)*
X177800000Y-129540000D03*
G04 #@! TO.P,U22,15*
G04 #@! TO.N,Net-(U22-Pad15)*
X185420000Y-116840000D03*
G04 #@! TO.P,U22,8*
G04 #@! TO.N,GND*
X177800000Y-132080000D03*
G04 #@! TO.P,U22,16*
G04 #@! TO.N,+5V*
X185420000Y-114300000D03*
G04 #@! TD*
D14*
G04 #@! TO.P,R3,1*
G04 #@! TO.N,Net-(CONN_LED_RAIN1_7-Pad2)*
X114300000Y-168910000D03*
D13*
G04 #@! TO.P,R3,2*
G04 #@! TO.N,GND*
X129540000Y-168910000D03*
G04 #@! TD*
G04 #@! TO.P,R4,2*
G04 #@! TO.N,GND*
X163830000Y-173990000D03*
D14*
G04 #@! TO.P,R4,1*
G04 #@! TO.N,/Control(Ext.)*
X179070000Y-173990000D03*
G04 #@! TD*
G04 #@! TO.P,R5,1*
G04 #@! TO.N,Net-(CONN_LED_MODE_6-Pad2)*
X62865000Y-151765000D03*
D13*
G04 #@! TO.P,R5,2*
G04 #@! TO.N,GND*
X78105000Y-151765000D03*
G04 #@! TD*
G04 #@! TO.P,R6,2*
G04 #@! TO.N,Net-(R6-Pad2)*
X85090000Y-167640000D03*
D14*
G04 #@! TO.P,R6,1*
G04 #@! TO.N,Net-(R6-Pad1)*
X69850000Y-167640000D03*
G04 #@! TD*
D13*
G04 #@! TO.P,R7,2*
G04 #@! TO.N,GND*
X156210000Y-173990000D03*
D14*
G04 #@! TO.P,R7,1*
G04 #@! TO.N,Net-(CONN_LED_PWR_4-Pad2)*
X140970000Y-173990000D03*
G04 #@! TD*
D13*
G04 #@! TO.P,R8,2*
G04 #@! TO.N,Net-(C2-Pad1)*
X69850000Y-170180000D03*
D14*
G04 #@! TO.P,R8,1*
G04 #@! TO.N,Net-(R6-Pad2)*
X85090000Y-170180000D03*
G04 #@! TD*
D13*
G04 #@! TO.P,R9,2*
G04 #@! TO.N,Net-(R6-Pad1)*
X92710000Y-161290000D03*
D14*
G04 #@! TO.P,R9,1*
G04 #@! TO.N,Net-(C3-Pad1)*
X92710000Y-176530000D03*
G04 #@! TD*
D13*
G04 #@! TO.P,R10,2*
G04 #@! TO.N,+5V*
X184150000Y-143510000D03*
D14*
G04 #@! TO.P,R10,1*
G04 #@! TO.N,Net-(CONN_LED_LINE4_12-Pad1)*
X168910000Y-143510000D03*
G04 #@! TD*
G04 #@! TO.P,R11,1*
G04 #@! TO.N,Net-(CONN_LED_LINE3_11-Pad1)*
X168910000Y-147320000D03*
D13*
G04 #@! TO.P,R11,2*
G04 #@! TO.N,+5V*
X184150000Y-147320000D03*
G04 #@! TD*
G04 #@! TO.P,R12,2*
G04 #@! TO.N,+5V*
X184150000Y-151130000D03*
D14*
G04 #@! TO.P,R12,1*
G04 #@! TO.N,Net-(CONN_LED_LINE2_10-Pad1)*
X168910000Y-151130000D03*
G04 #@! TD*
G04 #@! TO.P,R13,1*
G04 #@! TO.N,Net-(CONN_LED_LINE1_9-Pad1)*
X168910000Y-154940000D03*
D13*
G04 #@! TO.P,R13,2*
G04 #@! TO.N,+5V*
X184150000Y-154940000D03*
G04 #@! TD*
G04 #@! TO.P,R1,2*
G04 #@! TO.N,/Control(Ext.)*
X179070000Y-167640000D03*
D14*
G04 #@! TO.P,R1,1*
G04 #@! TO.N,Net-(CONN_SW_PUSH_CONTROL_1-Pad2)*
X163830000Y-167640000D03*
G04 #@! TD*
G04 #@! TO.P,R2,1*
G04 #@! TO.N,Net-(CONN_LED_RUNNING_8-Pad2)*
X114300000Y-163830000D03*
D13*
G04 #@! TO.P,R2,2*
G04 #@! TO.N,GND*
X129540000Y-163830000D03*
G04 #@! TD*
D24*
G04 #@! TO.N,GND*
X100330000Y-76200000D03*
X102870000Y-82550000D03*
X106680000Y-99060000D03*
G04 #@! TO.N,+5V*
X121920000Y-110490000D03*
G04 #@! TO.N,/Running(Out)*
X53340000Y-90170000D03*
X55880000Y-90170000D03*
X95250000Y-78740000D03*
X128270000Y-110490000D03*
X128270000Y-90170000D03*
X95250000Y-113030000D03*
X95250000Y-83820000D03*
X92710000Y-59690000D03*
X91440000Y-74930000D03*
X91440000Y-82550000D03*
G04 #@! TO.N,Net-(U18-Pad8)*
X207010000Y-134620000D03*
X181610000Y-119380000D03*
G04 #@! TO.N,Net-(U22-Pad4)*
X144780000Y-137160000D03*
G04 #@! TO.N,Net-(U22-Pad5)*
X144780000Y-127000000D03*
G04 #@! TO.N,Net-(U18-Pad9)*
X212090000Y-132080000D03*
X212090000Y-121920000D03*
G04 #@! TO.N,Net-(U22-Pad6)*
X144780000Y-121920000D03*
X172720000Y-127000000D03*
X172720000Y-127000000D03*
X172720000Y-127000000D03*
G04 #@! TO.N,Net-(U22-Pad7)*
X173990000Y-111760000D03*
G04 #@! TO.N,Net-(U14-Pad4)*
X187960000Y-59690000D03*
G04 #@! TO.N,Net-(U11-Pad8)*
X194310000Y-66040000D03*
X194310000Y-72390000D03*
X198882000Y-72390000D03*
X193040000Y-45720000D03*
X146050000Y-45085000D03*
X127000000Y-51435000D03*
G04 #@! TO.N,Net-(U11-Pad3)*
X119380000Y-20320000D03*
X119380000Y-44450000D03*
X133350000Y-74930000D03*
X133350000Y-99060000D03*
G04 #@! TO.N,Net-(U19-Pad1)*
X246380000Y-102870000D03*
X250190000Y-102870000D03*
G04 #@! TO.N,/RunningInv(out)*
X130810000Y-92710000D03*
X130810000Y-144780000D03*
G04 #@! TO.N,Net-(U16-Pad2)*
X148590000Y-54610000D03*
X144780000Y-54610000D03*
X140970000Y-54610000D03*
X128270000Y-54610000D03*
G04 #@! TO.N,Net-(U11-Pad12)*
X135890000Y-58420000D03*
X142240000Y-58420000D03*
G04 #@! TO.N,Net-(U12-Pad4)*
X161290000Y-78740000D03*
X161290000Y-83820000D03*
G04 #@! TO.N,Net-(U11-Pad13)*
X137160000Y-71120000D03*
X142240000Y-71120000D03*
G04 #@! TO.N,Net-(U12-Pad5)*
X173990000Y-77470000D03*
G04 #@! TO.N,Net-(U11-Pad6)*
X71120000Y-49530000D03*
X71120000Y-27940000D03*
X142240000Y-27940000D03*
X142240000Y-27940000D03*
X142240000Y-31750000D03*
X142240000Y-43180000D03*
X143510000Y-46990000D03*
G04 #@! TO.N,Net-(U11-Pad9)*
X82550000Y-40640000D03*
X82550000Y-24130000D03*
X115570000Y-24130000D03*
X115570000Y-40640000D03*
X134620000Y-74930000D03*
X134620000Y-101600000D03*
G04 #@! TO.N,Net-(U11-Pad11)*
X71120000Y-15240000D03*
X167640000Y-15240000D03*
X168910000Y-30480000D03*
X172720000Y-49530000D03*
G04 #@! TO.N,Net-(U10-Pad4)*
X240030000Y-76200000D03*
G04 #@! TO.N,Net-(U10-Pad3)*
X241300000Y-74930000D03*
G04 #@! TO.N,/Completed(In)*
X64770000Y-109220000D03*
G04 #@! TO.N,/Reset(Out)*
X193040000Y-16510000D03*
X149860000Y-16510000D03*
X194310000Y-38100000D03*
X196850000Y-48260000D03*
X196850000Y-55880000D03*
X195580000Y-58420000D03*
X195580000Y-66040000D03*
X125730000Y-102870000D03*
G04 #@! TO.N,/Next(Out)*
X138430000Y-97790000D03*
X195580000Y-93980000D03*
X195580000Y-90170000D03*
X195580000Y-107950000D03*
X138430000Y-107950000D03*
X210820000Y-71120000D03*
X195580000Y-100330000D03*
G04 #@! TO.N,Net-(U15-Pad2)*
X210820000Y-46990000D03*
G04 #@! TO.N,Net-(U14-Pad6)*
X194310000Y-106680000D03*
G04 #@! TO.N,Net-(U16-Pad1)*
X167640000Y-52070000D03*
X167640000Y-99060000D03*
G04 #@! TO.N,Net-(U31-Pad10)*
X86360000Y-64770000D03*
X91440000Y-64770000D03*
G04 #@! TO.N,Net-(U32-Pad2)*
X107950000Y-90170000D03*
X107950000Y-82550000D03*
X107950000Y-82550000D03*
X86360000Y-86360000D03*
G04 #@! TO.N,Net-(U32-Pad4)*
X105410000Y-92710000D03*
X105410000Y-82550000D03*
X105410000Y-82550000D03*
G04 #@! TO.N,Net-(U31-Pad11)*
X92710000Y-73660000D03*
X97790000Y-73660000D03*
X97790000Y-73660000D03*
X97790000Y-73660000D03*
X102870000Y-73660000D03*
G04 #@! TO.N,Net-(U31-Pad8)*
X102870000Y-66040000D03*
G04 #@! TO.N,Net-(U31-Pad1)*
X72390000Y-60960000D03*
X72390000Y-60960000D03*
X77470000Y-62230000D03*
X77470000Y-62230000D03*
X77470000Y-62230000D03*
X99060000Y-81280000D03*
X99060000Y-87630000D03*
X99060000Y-87630000D03*
G04 #@! TO.N,Net-(U31-Pad12)*
X90170000Y-71120000D03*
X90170000Y-71120000D03*
X90170000Y-71120000D03*
G04 #@! TO.N,/Control(Ext.)*
X50165000Y-120015000D03*
X55245000Y-120015000D03*
G04 #@! TO.N,/Mode(In)*
X115570000Y-85090000D03*
X115570000Y-85090000D03*
G04 #@! TO.N,/Control(In2)*
X60960000Y-92710000D03*
X60960000Y-81280000D03*
X60960000Y-87630000D03*
G04 #@! TO.N,/Control(In1)*
X73025000Y-127635000D03*
X59690000Y-92710000D03*
X58420000Y-82550000D03*
X59690000Y-88900000D03*
G04 #@! TO.N,/Mem.Comparison.Equal*
X134620000Y-35560000D03*
G04 #@! TO.N,/Timer.End*
X158750000Y-50800000D03*
X194310000Y-48260000D03*
X215900000Y-76200000D03*
X213360000Y-72390000D03*
G04 #@! TO.N,Net-(U17-Pad1)*
X114300000Y-19050000D03*
X191770000Y-73660000D03*
X170180000Y-63500000D03*
X167640000Y-34290000D03*
X167640000Y-28575000D03*
X167640000Y-19050000D03*
G04 #@! TO.N,Net-(U14-Pad4)*
X127000000Y-58801000D03*
X118999000Y-57150000D03*
X142240000Y-52070000D03*
X165100000Y-57150000D03*
X165100000Y-53340000D03*
X198755000Y-104140000D03*
X195580000Y-102235000D03*
X191770000Y-74930000D03*
X184785000Y-72390000D03*
X207010000Y-101600000D03*
G04 #@! TD*
D25*
G04 #@! TO.N,Net-(CONN_LED_RUNNING_8-Pad2)*
X106680000Y-163830000D02*
X114300000Y-163830000D01*
G04 #@! TO.N,GND*
X163830000Y-173990000D02*
X156210000Y-173990000D01*
X62905000Y-130135000D02*
X62865000Y-130175000D01*
X62905000Y-125095000D02*
X62905000Y-130135000D01*
X56750000Y-177800000D02*
X57150000Y-177800000D01*
X129540000Y-166370000D02*
X129540000Y-168910000D01*
X129540000Y-163830000D02*
X129540000Y-166370000D01*
X100330000Y-76200000D02*
X102870000Y-78740000D01*
X102870000Y-78740000D02*
X102870000Y-82550000D01*
X102870000Y-82550000D02*
X102870000Y-82550000D01*
X106680000Y-99060000D02*
X106680000Y-101600000D01*
X106680000Y-101600000D02*
X107950000Y-102870000D01*
X153670000Y-45720000D02*
X151130000Y-45720000D01*
X226490000Y-115570000D02*
X227330000Y-116410000D01*
X224790000Y-115570000D02*
X226490000Y-115570000D01*
X225190000Y-125730000D02*
X224790000Y-125730000D01*
X227330000Y-123590000D02*
X225190000Y-125730000D01*
X227330000Y-116410000D02*
X227330000Y-123590000D01*
X224790000Y-115570000D02*
X222250000Y-115570000D01*
X222250000Y-115570000D02*
X222250000Y-118110000D01*
X222250000Y-118110000D02*
X224790000Y-118110000D01*
X179500000Y-132080000D02*
X177800000Y-132080000D01*
X180340000Y-131240000D02*
X179500000Y-132080000D01*
X180340000Y-117680000D02*
X180340000Y-131240000D01*
X179500000Y-116840000D02*
X180340000Y-117680000D01*
X177800000Y-116840000D02*
X179500000Y-116840000D01*
X107950000Y-102870000D02*
X111760000Y-102870000D01*
G04 #@! TO.N,Net-(CONN_SW_PUSH_CONTROL_1-Pad2)*
X163830000Y-167640000D02*
X152400000Y-167640000D01*
G04 #@! TO.N,Net-(CONN_LED_LINE1_9-Pad1)*
X149860000Y-147320000D02*
X149860000Y-154940000D01*
X149860000Y-154940000D02*
X168910000Y-154940000D01*
G04 #@! TO.N,+5V*
X143510000Y-167640000D02*
X149860000Y-167640000D01*
X100760000Y-44450000D02*
X101600000Y-45290000D01*
X99060000Y-44450000D02*
X100760000Y-44450000D01*
X99460000Y-52070000D02*
X99060000Y-52070000D01*
X101600000Y-49930000D02*
X99460000Y-52070000D01*
X101600000Y-46990000D02*
X99060000Y-46990000D01*
X101600000Y-46990000D02*
X101600000Y-49930000D01*
X101600000Y-45290000D02*
X101600000Y-46990000D01*
X104980000Y-54610000D02*
X106680000Y-54610000D01*
X104140000Y-53770000D02*
X104980000Y-54610000D01*
X104140000Y-50370000D02*
X104140000Y-53770000D01*
X104980000Y-49530000D02*
X104140000Y-50370000D01*
X106680000Y-49530000D02*
X104980000Y-49530000D01*
X101600000Y-110490000D02*
X121920000Y-110490000D01*
X78105000Y-122555000D02*
X80645000Y-122555000D01*
X78105000Y-111125000D02*
X78105000Y-122555000D01*
X95250000Y-111125000D02*
X78105000Y-111125000D01*
X101600000Y-110490000D02*
X95885000Y-110490000D01*
X95885000Y-110490000D02*
X95250000Y-111125000D01*
X104775000Y-175895000D02*
X135255000Y-175895000D01*
X135255000Y-175895000D02*
X135890000Y-175260000D01*
X135890000Y-175260000D02*
X135890000Y-166370000D01*
X135890000Y-166370000D02*
X139700000Y-162560000D01*
X139700000Y-162560000D02*
X143510000Y-162560000D01*
X143510000Y-162560000D02*
X143510000Y-167640000D01*
G04 #@! TO.N,Net-(CONN_LED_LINE2_10-Pad1)*
X153670000Y-147320000D02*
X153670000Y-151130000D01*
X153670000Y-151130000D02*
X168910000Y-151130000D01*
G04 #@! TO.N,Net-(CONN_LED_LINE3_11-Pad1)*
X157480000Y-147320000D02*
X157480000Y-148590000D01*
X157610001Y-148720001D02*
X164969999Y-148720001D01*
X157480000Y-148590000D02*
X157610001Y-148720001D01*
X164969999Y-148720001D02*
X165100000Y-148590000D01*
X165100000Y-148590000D02*
X165100000Y-147320000D01*
X165100000Y-147320000D02*
X168910000Y-147320000D01*
G04 #@! TO.N,Net-(CONN_LED_LINE4_12-Pad1)*
X161290000Y-147320000D02*
X163830000Y-147320000D01*
X163830000Y-147320000D02*
X163830000Y-143510000D01*
X163830000Y-143510000D02*
X168910000Y-143510000D01*
G04 #@! TO.N,Net-(C3-Pad1)*
X91440000Y-175260000D02*
X92710000Y-176530000D01*
X83180000Y-177800000D02*
X85720000Y-175260000D01*
X85720000Y-175260000D02*
X91440000Y-175260000D01*
X92710000Y-182880000D02*
X92710000Y-176530000D01*
G04 #@! TO.N,Net-(R6-Pad1)*
X64770000Y-167640000D02*
X69850000Y-167640000D01*
X69850000Y-167640000D02*
X69850000Y-165100000D01*
X69850000Y-165100000D02*
X88900000Y-165100000D01*
X88900000Y-165100000D02*
X92710000Y-161290000D01*
G04 #@! TO.N,Net-(C2-Pad1)*
X64770000Y-170180000D02*
X69850000Y-170180000D01*
X69850000Y-170180000D02*
X69850000Y-172720000D01*
X69850000Y-172720000D02*
X72390000Y-175260000D01*
X78740000Y-175260000D02*
X81280000Y-177800000D01*
X73660000Y-182880000D02*
X73660000Y-175260000D01*
X72390000Y-175260000D02*
X73660000Y-175260000D01*
X73660000Y-175260000D02*
X78740000Y-175260000D01*
G04 #@! TO.N,Net-(R6-Pad2)*
X85090000Y-170180000D02*
X85090000Y-167640000D01*
G04 #@! TO.N,Net-(CONN_LED_PWR_4-Pad2)*
X140970000Y-167640000D02*
X140970000Y-173990000D01*
G04 #@! TO.N,Net-(CONN_LED_MODE_6-Pad2)*
X62865000Y-151765000D02*
X62865000Y-139065000D01*
G04 #@! TO.N,Net-(CONN_LED_RAIN1_7-Pad2)*
X114300000Y-168910000D02*
X106680000Y-168910000D01*
G04 #@! TO.N,/Running(Out)*
X57580000Y-38100000D02*
X55880000Y-38100000D01*
X58420000Y-37260000D02*
X57580000Y-38100000D01*
X58420000Y-31320000D02*
X58420000Y-37260000D01*
X57580000Y-30480000D02*
X58420000Y-31320000D01*
X55880000Y-30480000D02*
X57580000Y-30480000D01*
X53340000Y-90170000D02*
X53340000Y-90170000D01*
X55880000Y-90170000D02*
X62230000Y-90170000D01*
X71120000Y-83820000D02*
X95250000Y-83820000D01*
X95250000Y-80010000D02*
X95250000Y-80010000D01*
X193978626Y-130340010D02*
X193040000Y-129401384D01*
X193040000Y-129401384D02*
X193040000Y-110490000D01*
X224790000Y-120650000D02*
X218440000Y-120650000D01*
X210820000Y-129540000D02*
X201791384Y-129540000D01*
X201791384Y-129540000D02*
X200991374Y-130340010D01*
X200991374Y-130340010D02*
X193978626Y-130340010D01*
X71120000Y-83820000D02*
X62230000Y-83820000D01*
X62230000Y-83820000D02*
X62230000Y-90170000D01*
X177800000Y-113000000D02*
X180310000Y-110490000D01*
X177800000Y-114300000D02*
X177800000Y-113000000D01*
X180310000Y-110490000D02*
X184150000Y-110490000D01*
X193040000Y-110490000D02*
X184150000Y-110490000D01*
X184150000Y-110490000D02*
X128270000Y-110490000D01*
X128270000Y-90170000D02*
X119380000Y-90170000D01*
X95250000Y-127430000D02*
X95250000Y-113030000D01*
X95250000Y-113030000D02*
X95250000Y-113030000D01*
X95250000Y-83820000D02*
X95250000Y-83820000D01*
X49530000Y-90170000D02*
X53340000Y-90170000D01*
X49530000Y-38100000D02*
X49530000Y-90170000D01*
X55880000Y-38100000D02*
X49530000Y-38100000D01*
X95045000Y-127635000D02*
X80645000Y-127635000D01*
X95250000Y-127430000D02*
X95045000Y-127635000D01*
X95250000Y-80010000D02*
X95250000Y-78740000D01*
X210820000Y-129540000D02*
X217170000Y-123190000D01*
X217170000Y-123190000D02*
X217170000Y-121920000D01*
X218440000Y-120650000D02*
X217170000Y-121920000D01*
X99060000Y-54610000D02*
X92710000Y-54610000D01*
X92710000Y-54610000D02*
X92710000Y-59690000D01*
X92710000Y-59690000D02*
X92710000Y-59690000D01*
X91440000Y-82550000D02*
X91440000Y-82550000D01*
X95250000Y-82423000D02*
X95250000Y-80010000D01*
X95250000Y-83820000D02*
X95250000Y-82423000D01*
X93980000Y-82423000D02*
X91440000Y-79883000D01*
X95250000Y-82423000D02*
X93980000Y-82423000D01*
X91440000Y-74930000D02*
X91440000Y-79883000D01*
X91440000Y-79883000D02*
X91440000Y-82550000D01*
G04 #@! TO.N,Net-(U18-Pad8)*
X217170000Y-119380000D02*
X217170000Y-113030000D01*
X217170000Y-113030000D02*
X224790000Y-113030000D01*
X207010000Y-124460000D02*
X212090000Y-124460000D01*
X212090000Y-124460000D02*
X217170000Y-119380000D01*
X207010000Y-134620000D02*
X181610000Y-134620000D01*
X181610000Y-134620000D02*
X181610000Y-125730000D01*
X181610000Y-125730000D02*
X181610000Y-119380000D01*
X181610000Y-119380000D02*
X181610000Y-119380000D01*
G04 #@! TO.N,Net-(U22-Pad4)*
X137160000Y-129540000D02*
X144780000Y-137160000D01*
X119380000Y-129540000D02*
X137160000Y-129540000D01*
X162990000Y-129540000D02*
X166370000Y-126160000D01*
X161290000Y-129540000D02*
X162990000Y-129540000D01*
X166370000Y-126160000D02*
X166370000Y-121920000D01*
X166370000Y-121920000D02*
X177800000Y-121920000D01*
G04 #@! TO.N,Net-(U22-Pad5)*
X113460000Y-127000000D02*
X115570000Y-124890000D01*
X111760000Y-127000000D02*
X113460000Y-127000000D01*
X115570000Y-124890000D02*
X115570000Y-114300000D01*
X115570000Y-114300000D02*
X140970000Y-114300000D01*
X140970000Y-114300000D02*
X140970000Y-123190000D01*
X140970000Y-123190000D02*
X144780000Y-127000000D01*
X144780000Y-127000000D02*
X144780000Y-127000000D01*
X173990000Y-124460000D02*
X177800000Y-124460000D01*
X173990000Y-138430000D02*
X173990000Y-124460000D01*
X156210000Y-138430000D02*
X173990000Y-138430000D01*
X153670000Y-127000000D02*
X156210000Y-127000000D01*
X156210000Y-127000000D02*
X156210000Y-138430000D01*
G04 #@! TO.N,Net-(U18-Pad9)*
X207010000Y-121920000D02*
X212090000Y-121920000D01*
X212090000Y-121920000D02*
X214630000Y-119380000D01*
X214630000Y-119380000D02*
X214630000Y-110490000D01*
X214630000Y-110490000D02*
X224790000Y-110490000D01*
X185820000Y-121920000D02*
X189230000Y-125330000D01*
X185420000Y-121920000D02*
X185820000Y-121920000D01*
X189230000Y-125330000D02*
X189230000Y-126722768D01*
X189230000Y-126722768D02*
X189230000Y-130810000D01*
X189230000Y-130810000D02*
X189230000Y-132080000D01*
X189230000Y-132080000D02*
X212090000Y-132080000D01*
X212090000Y-132080000D02*
X212090000Y-132080000D01*
X212090000Y-121920000D02*
X212090000Y-121920000D01*
G04 #@! TO.N,Net-(U22-Pad6)*
X142240000Y-119380000D02*
X144780000Y-121920000D01*
X114300000Y-113030000D02*
X142240000Y-113030000D01*
X142240000Y-113030000D02*
X142240000Y-119380000D01*
X111760000Y-121920000D02*
X112160000Y-121920000D01*
X114300000Y-119780000D02*
X114300000Y-113030000D01*
X112160000Y-121920000D02*
X114300000Y-119780000D01*
X144780000Y-121920000D02*
X144780000Y-121920000D01*
X170180000Y-129540000D02*
X172720000Y-127000000D01*
X157480000Y-121920000D02*
X157480000Y-134620000D01*
X153670000Y-121920000D02*
X157480000Y-121920000D01*
X157480000Y-134620000D02*
X160020000Y-137160000D01*
X160020000Y-137160000D02*
X168910000Y-137160000D01*
X168910000Y-137160000D02*
X170180000Y-135890000D01*
X170180000Y-135890000D02*
X170180000Y-129540000D01*
X172720000Y-127000000D02*
X172720000Y-127000000D01*
X172720000Y-127000000D02*
X172720000Y-127000000D01*
X172720000Y-127000000D02*
X172720000Y-127000000D01*
G04 #@! TO.N,Net-(U22-Pad7)*
X149860000Y-116840000D02*
X153670000Y-116840000D01*
X146050000Y-113030000D02*
X149860000Y-116840000D01*
X156210000Y-111760000D02*
X163830000Y-111760000D01*
X110060000Y-116840000D02*
X111760000Y-116840000D01*
X107950000Y-114730000D02*
X110060000Y-116840000D01*
X107950000Y-111760000D02*
X107950000Y-114730000D01*
X146130001Y-112949999D02*
X146130001Y-111840001D01*
X146050000Y-113030000D02*
X146130001Y-112949999D01*
X146130001Y-111840001D02*
X146050000Y-111760000D01*
X156210000Y-111760000D02*
X146050000Y-111760000D01*
X146050000Y-111760000D02*
X107950000Y-111760000D01*
X163830000Y-111760000D02*
X166370000Y-111760000D01*
X166370000Y-111760000D02*
X168910000Y-111760000D01*
X168910000Y-111760000D02*
X173990000Y-111760000D01*
G04 #@! TO.N,Net-(U1-Pad10)*
X67310000Y-184150000D02*
X67310000Y-177400000D01*
X65170000Y-175260000D02*
X64770000Y-175260000D01*
X46990000Y-184150000D02*
X67310000Y-184150000D01*
X67310000Y-177400000D02*
X65170000Y-175260000D01*
X46990000Y-35560000D02*
X46990000Y-184150000D01*
X55880000Y-35560000D02*
X46990000Y-35560000D01*
G04 #@! TO.N,Net-(U11-Pad8)*
X63500000Y-43180000D02*
X87630000Y-43180000D01*
X87630000Y-43180000D02*
X87630000Y-38100000D01*
G04 #@! TO.N,Net-(U14-Pad4)*
X187960000Y-59690000D02*
X194310000Y-59690000D01*
X194310000Y-59690000D02*
X199390000Y-59690000D01*
G04 #@! TO.N,Net-(U11-Pad8)*
X194310000Y-66040000D02*
X194310000Y-72390000D01*
G04 #@! TO.N,Net-(U14-Pad4)*
X207010000Y-104140000D02*
X207010000Y-106680000D01*
X217170000Y-107950000D02*
X224790000Y-107950000D01*
X215900000Y-106680000D02*
X217170000Y-107950000D01*
G04 #@! TO.N,Net-(U11-Pad8)*
X209931000Y-83820000D02*
X207010000Y-83820000D01*
X210439000Y-83312000D02*
X209931000Y-83820000D01*
X210439000Y-74803000D02*
X210439000Y-83312000D01*
X198882000Y-72390000D02*
X198882000Y-74803000D01*
X198882000Y-74803000D02*
X210439000Y-74803000D01*
X110490000Y-38100000D02*
X110490000Y-38100000D01*
X87630000Y-38100000D02*
X110490000Y-38100000D01*
X109855000Y-52070000D02*
X106680000Y-52070000D01*
X110490000Y-51435000D02*
X109855000Y-52070000D01*
X110490000Y-38100000D02*
X110490000Y-51435000D01*
X170180000Y-45720000D02*
X193040000Y-45720000D01*
X170180000Y-26670000D02*
X170180000Y-45720000D01*
X164465000Y-26670000D02*
X170180000Y-26670000D01*
X164465000Y-48895000D02*
X164465000Y-26670000D01*
X164465000Y-48895000D02*
X163830000Y-49530000D01*
X163830000Y-49530000D02*
X159385000Y-49530000D01*
X159385000Y-49530000D02*
X151765000Y-49530000D01*
X151765000Y-49530000D02*
X150495000Y-49530000D01*
X150495000Y-49530000D02*
X146050000Y-45085000D01*
X146050000Y-45085000D02*
X146050000Y-45085000D01*
X127000000Y-51435000D02*
X110490000Y-51435000D01*
G04 #@! TO.N,Net-(U15-Pad4)*
X193040000Y-19050000D02*
X193040000Y-31750000D01*
X181610000Y-20320000D02*
X182880000Y-19050000D01*
X193040000Y-31750000D02*
X198120000Y-31750000D01*
X182880000Y-19050000D02*
X193040000Y-19050000D01*
X177800000Y-26670000D02*
X181610000Y-26670000D01*
X181610000Y-26670000D02*
X181610000Y-20320000D01*
G04 #@! TO.N,Net-(U11-Pad3)*
X119380000Y-20320000D02*
X119380000Y-20320000D01*
X119380000Y-44450000D02*
X133350000Y-44450000D01*
X133350000Y-44450000D02*
X133350000Y-74930000D01*
X133350000Y-74930000D02*
X133350000Y-74930000D01*
X133350000Y-99060000D02*
X153670000Y-99060000D01*
X119380000Y-20320000D02*
X172720000Y-20320000D01*
X172720000Y-20320000D02*
X172720000Y-27940000D01*
X172720000Y-27940000D02*
X173990000Y-29210000D01*
X173990000Y-29210000D02*
X177800000Y-29210000D01*
X54180000Y-33020000D02*
X53340000Y-32180000D01*
X55880000Y-33020000D02*
X54180000Y-33020000D01*
X53340000Y-32180000D02*
X53340000Y-20320000D01*
X53340000Y-20320000D02*
X119380000Y-20320000D01*
G04 #@! TO.N,Net-(U19-Pad1)*
X241300000Y-146050000D02*
X238760000Y-146050000D01*
X238760000Y-146050000D02*
X238760000Y-135890000D01*
X238760000Y-135890000D02*
X242570000Y-135890000D01*
X242570000Y-135890000D02*
X242570000Y-132080000D01*
X242570000Y-132080000D02*
X242570000Y-130810000D01*
X242570000Y-130810000D02*
X246380000Y-127000000D01*
X246380000Y-127000000D02*
X246380000Y-102870000D01*
X246380000Y-102870000D02*
X246380000Y-102870000D01*
X250190000Y-78740000D02*
X246380000Y-78740000D01*
X250190000Y-102870000D02*
X250190000Y-78740000D01*
G04 #@! TO.N,/RunningInv(out)*
X119380000Y-92710000D02*
X130810000Y-92710000D01*
X130810000Y-92710000D02*
X130810000Y-92710000D01*
X248920000Y-136730000D02*
X248920000Y-138430000D01*
X248920000Y-133350000D02*
X248920000Y-136730000D01*
X269240000Y-189230000D02*
X269240000Y-127000000D01*
X269240000Y-127000000D02*
X255270000Y-127000000D01*
X255270000Y-127000000D02*
X248920000Y-133350000D01*
X130810000Y-160020000D02*
X190500000Y-160020000D01*
X130810000Y-144780000D02*
X130810000Y-160020000D01*
X190500000Y-160020000D02*
X190500000Y-189230000D01*
X190500000Y-189230000D02*
X269240000Y-189230000D01*
G04 #@! TO.N,Net-(U19-Pad9)*
X254000000Y-91440000D02*
X251460000Y-91440000D01*
X251460000Y-91440000D02*
X251460000Y-127000000D01*
X251460000Y-127000000D02*
X246380000Y-132080000D01*
X246380000Y-135890000D02*
X246380000Y-138430000D01*
X246380000Y-135890000D02*
X246380000Y-137160000D01*
X246380000Y-132080000D02*
X246380000Y-135890000D01*
G04 #@! TO.N,Net-(U19-Pad4)*
X246380000Y-86360000D02*
X248920000Y-86360000D01*
X248920000Y-86360000D02*
X248920000Y-127000000D01*
X248920000Y-127000000D02*
X243840000Y-132080000D01*
D26*
X243840000Y-135890000D02*
X243840000Y-138430000D01*
D25*
X243840000Y-135890000D02*
X243840000Y-137160000D01*
X243840000Y-132080000D02*
X243840000Y-135890000D01*
G04 #@! TO.N,Net-(U16-Pad2)*
X177800000Y-54610000D02*
X148590000Y-54610000D01*
X148590000Y-54610000D02*
X148590000Y-54610000D01*
X144780000Y-54610000D02*
X140970000Y-54610000D01*
X140970000Y-54610000D02*
X140970000Y-54610000D01*
X106680000Y-59690000D02*
X109220000Y-59690000D01*
X109220000Y-59690000D02*
X109220000Y-54610000D01*
X109220000Y-54610000D02*
X128270000Y-54610000D01*
G04 #@! TO.N,Net-(D1-Pad1)*
X232410000Y-125730000D02*
X230710000Y-125730000D01*
X209914850Y-139335150D02*
X209914850Y-142052853D01*
X220040020Y-127939980D02*
X209914850Y-138065150D01*
X225749192Y-127080010D02*
X221060010Y-127080010D01*
X229440000Y-127000000D02*
X225829202Y-127000000D01*
X225829202Y-127000000D02*
X225749192Y-127080010D01*
X230710000Y-125730000D02*
X229440000Y-127000000D01*
X220200040Y-127939980D02*
X220040020Y-127939980D01*
X221060010Y-127080010D02*
X220200040Y-127939980D01*
X209914850Y-138065150D02*
X209914850Y-139335150D01*
G04 #@! TO.N,Net-(D6-Pad1)*
X234950000Y-123190000D02*
X232410000Y-123190000D01*
X223520000Y-128270000D02*
X234950000Y-128270000D01*
X234950000Y-128270000D02*
X234950000Y-123190000D01*
X213724850Y-138065150D02*
X223520000Y-128270000D01*
X213724850Y-142052853D02*
X213724850Y-138065150D01*
G04 #@! TO.N,Net-(D2-Pad1)*
X236220000Y-120650000D02*
X232410000Y-120650000D01*
X236220000Y-129540000D02*
X236220000Y-120650000D01*
X226060000Y-129540000D02*
X236220000Y-129540000D01*
X217534850Y-138065150D02*
X226060000Y-129540000D01*
X217534850Y-142052853D02*
X217534850Y-138065150D01*
G04 #@! TO.N,Net-(D7-Pad1)*
X237490000Y-118110000D02*
X232410000Y-118110000D01*
X228600000Y-130810000D02*
X237490000Y-130810000D01*
X237490000Y-130810000D02*
X237490000Y-118110000D01*
X221344850Y-138065150D02*
X228600000Y-130810000D01*
X221344850Y-142052853D02*
X221344850Y-138065150D01*
G04 #@! TO.N,Net-(D3-Pad1)*
X231140000Y-132080000D02*
X238760000Y-132080000D01*
X225154850Y-138065150D02*
X231140000Y-132080000D01*
X238760000Y-115570000D02*
X232410000Y-115570000D01*
X238760000Y-132080000D02*
X238760000Y-115570000D01*
X225154850Y-142052853D02*
X225154850Y-138065150D01*
G04 #@! TO.N,Net-(D8-Pad1)*
X240030000Y-133350000D02*
X240030000Y-113030000D01*
X233680000Y-133350000D02*
X240030000Y-133350000D01*
X240030000Y-113030000D02*
X232410000Y-113030000D01*
X228964850Y-138065150D02*
X233680000Y-133350000D01*
X228964850Y-142052853D02*
X228964850Y-138065150D01*
G04 #@! TO.N,Net-(D5-Pad1)*
X206104850Y-141445150D02*
X206104850Y-142052853D01*
X218440000Y-123190000D02*
X224790000Y-123190000D01*
X209980000Y-134190000D02*
X212090000Y-134190000D01*
X206104850Y-138065150D02*
X209980000Y-134190000D01*
X206104850Y-142052853D02*
X206104850Y-138065150D01*
X214630000Y-131650000D02*
X214630000Y-129540000D01*
X214630000Y-129540000D02*
X218440000Y-125730000D01*
X218440000Y-125730000D02*
X218440000Y-123190000D01*
X212090000Y-134190000D02*
X214630000Y-131650000D01*
G04 #@! TO.N,Net-(D4-Pad1)*
X241300000Y-134620000D02*
X241300000Y-110490000D01*
X236220000Y-134620000D02*
X241300000Y-134620000D01*
X241300000Y-110490000D02*
X232410000Y-110490000D01*
X232774850Y-138065150D02*
X236220000Y-134620000D01*
X232774850Y-142052853D02*
X232774850Y-138065150D01*
G04 #@! TO.N,Net-(CONN_LED_LINE3_11-Pad2)*
X148590000Y-130810000D02*
X149860000Y-129540000D01*
X148590000Y-139700000D02*
X148590000Y-130810000D01*
X149860000Y-129540000D02*
X153670000Y-129540000D01*
X156210000Y-139700000D02*
X148590000Y-139700000D01*
X157480000Y-144780000D02*
X157480000Y-140970000D01*
X157480000Y-140970000D02*
X156210000Y-139700000D01*
G04 #@! TO.N,Net-(CONN_LED_LINE2_10-Pad2)*
X153670000Y-144780000D02*
X153670000Y-142240000D01*
X153670000Y-142240000D02*
X152400000Y-140970000D01*
X152400000Y-140970000D02*
X147320000Y-140970000D01*
X147320000Y-140970000D02*
X147320000Y-125730000D01*
X148590000Y-124460000D02*
X153670000Y-124460000D01*
X147320000Y-125730000D02*
X148590000Y-124460000D01*
G04 #@! TO.N,Net-(CONN_LED_LINE1_9-Pad2)*
X149860000Y-144780000D02*
X146050000Y-144780000D01*
X146050000Y-144780000D02*
X146050000Y-120650000D01*
X147320000Y-119380000D02*
X153670000Y-119380000D01*
X146050000Y-120650000D02*
X147320000Y-119380000D01*
G04 #@! TO.N,Net-(U11-Pad12)*
X63500000Y-33020000D02*
X135890000Y-33020000D01*
X135890000Y-33020000D02*
X135890000Y-58420000D01*
X135890000Y-58420000D02*
X135890000Y-58420000D01*
X142240000Y-58420000D02*
X153670000Y-58420000D01*
X153670000Y-58420000D02*
X154940000Y-58420000D01*
X154940000Y-58420000D02*
X156210000Y-59690000D01*
X156210000Y-59690000D02*
X157480000Y-59690000D01*
X157480000Y-59690000D02*
X157480000Y-63500000D01*
X157480000Y-63500000D02*
X161290000Y-63500000D01*
X161290000Y-63500000D02*
X168910000Y-63500000D01*
X168910000Y-63500000D02*
X168910000Y-73660000D01*
X168910000Y-73660000D02*
X177800000Y-73660000D01*
X177800000Y-73660000D02*
X177800000Y-78740000D01*
G04 #@! TO.N,Net-(U12-Pad4)*
X161290000Y-73660000D02*
X161290000Y-78740000D01*
X161290000Y-78740000D02*
X161290000Y-78740000D01*
X161290000Y-83820000D02*
X168910000Y-83820000D01*
X168910000Y-83820000D02*
X168910000Y-86360000D01*
X168910000Y-86360000D02*
X177800000Y-86360000D01*
G04 #@! TO.N,Net-(U4-Pad2)*
X156210000Y-91440000D02*
X153670000Y-91440000D01*
X142240000Y-86360000D02*
X156210000Y-86360000D01*
X156210000Y-86360000D02*
X156210000Y-91440000D01*
X140970000Y-85090000D02*
X142240000Y-86360000D01*
X140970000Y-60960000D02*
X140970000Y-85090000D01*
X151130000Y-60960000D02*
X151130000Y-63500000D01*
X151130000Y-60960000D02*
X140970000Y-60960000D01*
X153670000Y-60960000D02*
X151130000Y-60960000D01*
X151130000Y-63500000D02*
X153670000Y-63500000D01*
G04 #@! TO.N,Net-(U11-Pad13)*
X63500000Y-30480000D02*
X134620000Y-30480000D01*
X134620000Y-30480000D02*
X137160000Y-30480000D01*
X137160000Y-30480000D02*
X137160000Y-71120000D01*
X137160000Y-71120000D02*
X137160000Y-71120000D01*
X142240000Y-71120000D02*
X147320000Y-71120000D01*
X147320000Y-71120000D02*
X147320000Y-81280000D01*
X147320000Y-81280000D02*
X165100000Y-81280000D01*
X165100000Y-81280000D02*
X165100000Y-71120000D01*
X165100000Y-71120000D02*
X161290000Y-71120000D01*
X165100000Y-81280000D02*
X177800000Y-81280000D01*
G04 #@! TO.N,Net-(U12-Pad5)*
X161290000Y-66040000D02*
X167640000Y-66040000D01*
X167640000Y-73521384D02*
X171588616Y-77470000D01*
X167640000Y-66040000D02*
X167640000Y-73521384D01*
X171588616Y-77470000D02*
X173990000Y-77470000D01*
X173990000Y-77470000D02*
X173990000Y-77470000D01*
G04 #@! TO.N,Net-(U11-Pad6)*
X55880000Y-40640000D02*
X53340000Y-40640000D01*
X53340000Y-40640000D02*
X53340000Y-49530000D01*
X53340000Y-49530000D02*
X71120000Y-49530000D01*
X71120000Y-49530000D02*
X71120000Y-49530000D01*
X71120000Y-27940000D02*
X132080000Y-27940000D01*
X132080000Y-27940000D02*
X132080000Y-27940000D01*
X132080000Y-27940000D02*
X142240000Y-27940000D01*
X142240000Y-27940000D02*
X142240000Y-27940000D01*
X142240000Y-27940000D02*
X142240000Y-27940000D01*
X142240000Y-31750000D02*
X142240000Y-43180000D01*
X142240000Y-43180000D02*
X142240000Y-43180000D01*
X143510000Y-46990000D02*
X146050000Y-49530000D01*
X146050000Y-49530000D02*
X146050000Y-55880000D01*
X146050000Y-55880000D02*
X163830000Y-55880000D01*
X163830000Y-55880000D02*
X163830000Y-58420000D01*
X163830000Y-58420000D02*
X161290000Y-58420000D01*
G04 #@! TO.N,Net-(U13-Pad11)*
X251460000Y-76200000D02*
X251460000Y-86760000D01*
X253600000Y-88900000D02*
X254000000Y-88900000D01*
X251460000Y-86760000D02*
X253600000Y-88900000D01*
X241700000Y-76200000D02*
X251460000Y-76200000D01*
X231540000Y-86360000D02*
X241700000Y-76200000D01*
X231140000Y-86360000D02*
X231540000Y-86360000D01*
G04 #@! TO.N,Net-(U13-Pad2)*
X215900000Y-81280000D02*
X223520000Y-81280000D01*
X207010000Y-86360000D02*
X215900000Y-86360000D01*
X215900000Y-86360000D02*
X215900000Y-81280000D01*
G04 #@! TO.N,Net-(U13-Pad9)*
X242570000Y-81280000D02*
X246380000Y-81280000D01*
X234950000Y-91440000D02*
X234950000Y-88900000D01*
X231140000Y-91440000D02*
X234950000Y-91440000D01*
X234950000Y-88900000D02*
X236220000Y-87630000D01*
X236220000Y-87630000D02*
X241300000Y-87630000D01*
X241300000Y-82550000D02*
X242570000Y-81280000D01*
X241300000Y-87630000D02*
X241300000Y-82550000D01*
G04 #@! TO.N,Net-(U13-Pad8)*
X231140000Y-93980000D02*
X236220000Y-93980000D01*
X236220000Y-93980000D02*
X236220000Y-88900000D01*
X236220000Y-88900000D02*
X246380000Y-88900000D01*
G04 #@! TO.N,Net-(U11-Pad9)*
X63500000Y-40640000D02*
X82550000Y-40640000D01*
X82550000Y-40640000D02*
X82550000Y-40640000D01*
X82550000Y-24130000D02*
X115570000Y-24130000D01*
X115570000Y-24130000D02*
X115570000Y-24130000D01*
X115570000Y-40640000D02*
X134620000Y-40640000D01*
X134620000Y-40640000D02*
X134620000Y-74930000D01*
X134620000Y-74930000D02*
X134620000Y-74930000D01*
X134620000Y-101600000D02*
X153670000Y-101600000D01*
G04 #@! TO.N,Net-(U11-Pad11)*
X71120000Y-15240000D02*
X167640000Y-15240000D01*
X167640000Y-15240000D02*
X167640000Y-15240000D01*
X168910000Y-30480000D02*
X168910000Y-48260000D01*
X168910000Y-48260000D02*
X170180000Y-49530000D01*
X170180000Y-49530000D02*
X172720000Y-49530000D01*
X172720000Y-49530000D02*
X172720000Y-49530000D01*
G04 #@! TO.N,Net-(U10-Pad6)*
X217170000Y-38100000D02*
X223520000Y-38100000D01*
X217170000Y-43180000D02*
X217170000Y-38100000D01*
X198120000Y-34290000D02*
X195580000Y-34290000D01*
X195580000Y-43180000D02*
X217170000Y-43180000D01*
X195580000Y-34290000D02*
X195580000Y-43180000D01*
G04 #@! TO.N,Net-(U10-Pad5)*
X257810000Y-91870000D02*
X255700000Y-93980000D01*
X257810000Y-73660000D02*
X257810000Y-91870000D01*
X245110000Y-73660000D02*
X257810000Y-73660000D01*
X223120000Y-35560000D02*
X219710000Y-32150000D01*
X255700000Y-93980000D02*
X254000000Y-93980000D01*
X219710000Y-32150000D02*
X219710000Y-20320000D01*
X219710000Y-20320000D02*
X243840000Y-20320000D01*
X243840000Y-72390000D02*
X245110000Y-73660000D01*
X223520000Y-35560000D02*
X223120000Y-35560000D01*
X243840000Y-20320000D02*
X243840000Y-72390000D01*
G04 #@! TO.N,Net-(U10-Pad4)*
X223520000Y-33020000D02*
X227330000Y-33020000D01*
X227330000Y-40270586D02*
X235319414Y-48260000D01*
X227330000Y-33020000D02*
X227330000Y-40270586D01*
X235319414Y-48260000D02*
X240030000Y-48260000D01*
X240030000Y-48260000D02*
X240030000Y-76200000D01*
X240030000Y-76200000D02*
X240030000Y-76200000D01*
G04 #@! TO.N,Net-(U10-Pad3)*
X223520000Y-30480000D02*
X228600000Y-30480000D01*
X228600000Y-40409202D02*
X235180798Y-46990000D01*
X228600000Y-30480000D02*
X228600000Y-40409202D01*
X241300000Y-46990000D02*
X241300000Y-66040000D01*
X235180798Y-46990000D02*
X241300000Y-46990000D01*
X241300000Y-66040000D02*
X241300000Y-74930000D01*
X241300000Y-74930000D02*
X241300000Y-74930000D01*
G04 #@! TO.N,/Completed(In)*
X194310000Y-109220000D02*
X124460000Y-109220000D01*
X206610000Y-116840000D02*
X203200000Y-120250000D01*
X207010000Y-116840000D02*
X206610000Y-116840000D01*
X194310000Y-129540000D02*
X194310000Y-109220000D01*
X203200000Y-120250000D02*
X203200000Y-127000000D01*
X200660000Y-129540000D02*
X194310000Y-129540000D01*
X203200000Y-127000000D02*
X200660000Y-129540000D01*
X124460000Y-109220000D02*
X70981384Y-109220000D01*
X70981384Y-109220000D02*
X64770000Y-109220000D01*
G04 #@! TO.N,/Reset(Out)*
X193040000Y-16510000D02*
X149860000Y-16510000D01*
X149860000Y-16510000D02*
X149860000Y-16510000D01*
X199390000Y-114300000D02*
X201930000Y-114300000D01*
X201930000Y-114300000D02*
X201930000Y-105410000D01*
X194310000Y-38100000D02*
X194310000Y-45720000D01*
X194310000Y-45720000D02*
X195580000Y-46990000D01*
X195580000Y-46990000D02*
X195580000Y-48260000D01*
X195580000Y-48260000D02*
X195580000Y-48260000D01*
X195580000Y-58420000D02*
X195580000Y-58420000D01*
X194310000Y-88900000D02*
X195580000Y-88900000D01*
X195580000Y-66040000D02*
X195580000Y-88900000D01*
X195580000Y-88900000D02*
X199390000Y-88900000D01*
X125730000Y-102870000D02*
X119380000Y-102870000D01*
X195580000Y-58420000D02*
X196850000Y-58420000D01*
X196850000Y-58420000D02*
X196850000Y-55880000D01*
X196850000Y-48260000D02*
X195580000Y-48260000D01*
X194310000Y-97790000D02*
X194310000Y-88900000D01*
X194310000Y-97790000D02*
X198755000Y-97790000D01*
X198755000Y-97790000D02*
X198755000Y-102235000D01*
X201930000Y-105410000D02*
X198755000Y-102235000D01*
G04 #@! TO.N,/Next(Out)*
X138430000Y-30480000D02*
X153670000Y-30480000D01*
X119380000Y-76200000D02*
X138430000Y-76200000D01*
X138430000Y-76200000D02*
X138430000Y-30480000D01*
X138430000Y-76200000D02*
X138430000Y-97790000D01*
X138430000Y-97790000D02*
X138430000Y-97790000D01*
X195580000Y-107950000D02*
X138430000Y-107950000D01*
X210820000Y-71120000D02*
X228600000Y-71120000D01*
X228600000Y-71120000D02*
X228600000Y-57150000D01*
X228600000Y-57150000D02*
X231140000Y-57150000D01*
X195580000Y-93980000D02*
X195580000Y-90170000D01*
X194475010Y-103670010D02*
X195580000Y-104775000D01*
X194475010Y-100330000D02*
X194475010Y-103670010D01*
X195580000Y-104775000D02*
X195580000Y-107950000D01*
X195580000Y-100330000D02*
X194475010Y-100330000D01*
G04 #@! TO.N,Net-(U14-Pad5)*
X234950000Y-59690000D02*
X231140000Y-59690000D01*
X201930000Y-62230000D02*
X201930000Y-73660000D01*
X199390000Y-62230000D02*
X201930000Y-62230000D01*
X201930000Y-73660000D02*
X214630000Y-73660000D01*
X214630000Y-73660000D02*
X215900000Y-72390000D01*
X215900000Y-72390000D02*
X234950000Y-72390000D01*
X234950000Y-72390000D02*
X234950000Y-59690000D01*
G04 #@! TO.N,Net-(U15-Pad2)*
X210820000Y-46990000D02*
X228600000Y-46990000D01*
X228600000Y-46990000D02*
X228600000Y-54610000D01*
X228600000Y-54610000D02*
X231140000Y-54610000D01*
G04 #@! TO.N,Net-(CONN_PWR_LINE3_15-Pad1)*
X127000000Y-143430000D02*
X122000000Y-138430000D01*
X127000000Y-144780000D02*
X127000000Y-143430000D01*
X122000000Y-138430000D02*
X107950000Y-138430000D01*
X107950000Y-138430000D02*
X107950000Y-130810000D01*
X109220000Y-129540000D02*
X111760000Y-129540000D01*
X107950000Y-130810000D02*
X109220000Y-129540000D01*
G04 #@! TO.N,Net-(CONN_PWR_LINE2_14-Pad1)*
X106680000Y-139700000D02*
X106680000Y-125730000D01*
X106680000Y-125730000D02*
X107950000Y-124460000D01*
X107950000Y-124460000D02*
X111760000Y-124460000D01*
X118110000Y-143430000D02*
X114380000Y-139700000D01*
X118110000Y-144780000D02*
X118110000Y-143430000D01*
X114380000Y-139700000D02*
X106680000Y-139700000D01*
G04 #@! TO.N,Net-(CONN_PWR_LINE1_13-Pad1)*
X109220000Y-143430000D02*
X105410000Y-139620000D01*
X109220000Y-144780000D02*
X109220000Y-143430000D01*
X105410000Y-139620000D02*
X105410000Y-120650000D01*
X106680000Y-119380000D02*
X111760000Y-119380000D01*
X105410000Y-120650000D02*
X106680000Y-119380000D01*
G04 #@! TO.N,Net-(CONN_PWR_LINE4_16-Pad1)*
X134540000Y-144780000D02*
X127000000Y-137240000D01*
X135890000Y-144780000D02*
X134540000Y-144780000D01*
X127000000Y-137240000D02*
X123270000Y-137240000D01*
X123270000Y-137240000D02*
X123190000Y-137160000D01*
X123190000Y-137160000D02*
X123190000Y-133350000D01*
X121920000Y-132080000D02*
X119380000Y-132080000D01*
X123190000Y-133350000D02*
X121920000Y-132080000D01*
G04 #@! TO.N,Net-(U14-Pad6)*
X199390000Y-64770000D02*
X193040000Y-64770000D01*
X193040000Y-105410000D02*
X194310000Y-106680000D01*
X193040000Y-64770000D02*
X193040000Y-105410000D01*
G04 #@! TO.N,Net-(U14-Pad2)*
X194310000Y-54610000D02*
X199390000Y-54610000D01*
X191770000Y-52070000D02*
X194310000Y-54610000D01*
X182880000Y-62230000D02*
X182880000Y-52300798D01*
X191770000Y-49530000D02*
X191770000Y-52070000D01*
X180340000Y-64770000D02*
X182880000Y-62230000D01*
X177800000Y-64770000D02*
X180340000Y-64770000D01*
X185650798Y-49530000D02*
X191770000Y-49530000D01*
X182880000Y-52300798D02*
X185650798Y-49530000D01*
G04 #@! TO.N,Net-(U14-Pad1)*
X177800000Y-57150000D02*
X181610000Y-57150000D01*
X181610000Y-57150000D02*
X181610000Y-48260000D01*
X181610000Y-48260000D02*
X191770000Y-48260000D01*
X191770000Y-48260000D02*
X193040000Y-49530000D01*
X193040000Y-49530000D02*
X193040000Y-52070000D01*
X193040000Y-52070000D02*
X199390000Y-52070000D01*
G04 #@! TO.N,Net-(U16-Pad1)*
X167640000Y-52070000D02*
X177800000Y-52070000D01*
X167640000Y-99060000D02*
X161290000Y-99060000D01*
G04 #@! TO.N,Net-(U3-Pad6)*
X144780000Y-43180000D02*
X153670000Y-43180000D01*
X142240000Y-88900000D02*
X140970000Y-87630000D01*
X139700000Y-87630000D02*
X139700000Y-46990000D01*
X153670000Y-88900000D02*
X142240000Y-88900000D01*
X140970000Y-87630000D02*
X139700000Y-87630000D01*
X139700000Y-46990000D02*
X140970000Y-46990000D01*
X140970000Y-46990000D02*
X144780000Y-43180000D01*
G04 #@! TO.N,Net-(U12-Pad6)*
X161290000Y-96520000D02*
X170180000Y-96520000D01*
X170180000Y-96520000D02*
X170180000Y-91440000D01*
X170180000Y-91440000D02*
X177800000Y-91440000D01*
G04 #@! TO.N,/D4*
X204470000Y-157320000D02*
X204470000Y-158670000D01*
X203360000Y-156210000D02*
X204470000Y-157320000D01*
X197960000Y-156210000D02*
X203360000Y-156210000D01*
X196850000Y-157320000D02*
X197960000Y-156210000D01*
X196850000Y-158670000D02*
X196850000Y-157320000D01*
X213360000Y-157320000D02*
X213360000Y-158670000D01*
X212250000Y-156210000D02*
X213360000Y-157320000D01*
X205740000Y-156210000D02*
X212250000Y-156210000D01*
X204630000Y-157320000D02*
X205740000Y-156210000D01*
X204470000Y-157320000D02*
X204630000Y-157320000D01*
X219870000Y-156210000D02*
X220980000Y-157320000D01*
X220980000Y-157320000D02*
X220980000Y-158670000D01*
X214470000Y-156210000D02*
X219870000Y-156210000D01*
X213360000Y-157320000D02*
X214470000Y-156210000D01*
X229870000Y-157320000D02*
X229870000Y-158670000D01*
X228760000Y-156210000D02*
X229870000Y-157320000D01*
X222090000Y-156210000D02*
X228760000Y-156210000D01*
X220980000Y-157320000D02*
X222090000Y-156210000D01*
X237650000Y-156210000D02*
X238760000Y-157320000D01*
X230980000Y-156210000D02*
X237650000Y-156210000D01*
X238760000Y-157320000D02*
X238760000Y-158670000D01*
X229870000Y-157320000D02*
X230980000Y-156210000D01*
X247650000Y-157320000D02*
X247650000Y-158670000D01*
X246540000Y-156210000D02*
X247650000Y-157320000D01*
X239870000Y-156210000D02*
X246540000Y-156210000D01*
X238760000Y-157320000D02*
X239870000Y-156210000D01*
X255270000Y-157320000D02*
X255270000Y-158670000D01*
X254160000Y-156210000D02*
X255270000Y-157320000D01*
X248760000Y-156210000D02*
X254160000Y-156210000D01*
X247650000Y-157320000D02*
X248760000Y-156210000D01*
G04 #@! TO.N,/D0*
X204470000Y-177640000D02*
X204470000Y-178990000D01*
X203360000Y-176530000D02*
X204470000Y-177640000D01*
X197960000Y-176530000D02*
X203360000Y-176530000D01*
X196850000Y-177640000D02*
X197960000Y-176530000D01*
X196850000Y-178990000D02*
X196850000Y-177640000D01*
X213360000Y-177640000D02*
X213360000Y-178990000D01*
X212250000Y-176530000D02*
X213360000Y-177640000D01*
X205580000Y-176530000D02*
X212250000Y-176530000D01*
X204470000Y-177640000D02*
X205580000Y-176530000D01*
X220980000Y-177640000D02*
X220980000Y-178990000D01*
X219870000Y-176530000D02*
X220980000Y-177640000D01*
X214470000Y-176530000D02*
X219870000Y-176530000D01*
X213360000Y-177640000D02*
X214470000Y-176530000D01*
X229870000Y-177640000D02*
X229870000Y-178990000D01*
X228760000Y-176530000D02*
X229870000Y-177640000D01*
X222090000Y-176530000D02*
X228760000Y-176530000D01*
X220980000Y-177640000D02*
X222090000Y-176530000D01*
X238760000Y-177640000D02*
X238760000Y-178990000D01*
X237650000Y-176530000D02*
X238760000Y-177640000D01*
X230980000Y-176530000D02*
X237650000Y-176530000D01*
X229870000Y-177640000D02*
X230980000Y-176530000D01*
X247650000Y-177640000D02*
X247650000Y-178990000D01*
X246540000Y-176530000D02*
X247650000Y-177640000D01*
X239870000Y-176530000D02*
X246540000Y-176530000D01*
X238760000Y-177640000D02*
X239870000Y-176530000D01*
X255270000Y-177640000D02*
X255270000Y-178990000D01*
X254160000Y-176530000D02*
X255270000Y-177640000D01*
X248760000Y-176530000D02*
X254160000Y-176530000D01*
X247650000Y-177640000D02*
X248760000Y-176530000D01*
G04 #@! TO.N,/D1*
X204470000Y-172560000D02*
X204470000Y-173910000D01*
X203360000Y-171450000D02*
X204470000Y-172560000D01*
X197960000Y-171450000D02*
X203360000Y-171450000D01*
X196850000Y-172560000D02*
X197960000Y-171450000D01*
X196850000Y-173910000D02*
X196850000Y-172560000D01*
X205580000Y-171450000D02*
X212250000Y-171450000D01*
X213360000Y-172560000D02*
X213360000Y-173910000D01*
X212250000Y-171450000D02*
X213360000Y-172560000D01*
X204470000Y-172560000D02*
X205580000Y-171450000D01*
X220980000Y-172560000D02*
X220980000Y-173910000D01*
X219870000Y-171450000D02*
X220980000Y-172560000D01*
X214470000Y-171450000D02*
X219870000Y-171450000D01*
X213360000Y-172560000D02*
X214470000Y-171450000D01*
X228760000Y-171450000D02*
X229870000Y-172560000D01*
X222090000Y-171450000D02*
X228760000Y-171450000D01*
X229870000Y-172560000D02*
X229870000Y-173910000D01*
X220980000Y-172560000D02*
X222090000Y-171450000D01*
X237650000Y-171450000D02*
X238760000Y-172560000D01*
X238760000Y-172560000D02*
X238760000Y-173910000D01*
X230980000Y-171450000D02*
X237650000Y-171450000D01*
X229870000Y-172560000D02*
X230980000Y-171450000D01*
X247650000Y-172560000D02*
X247650000Y-173910000D01*
X246540000Y-171450000D02*
X247650000Y-172560000D01*
X239870000Y-171450000D02*
X246540000Y-171450000D01*
X238760000Y-172560000D02*
X239870000Y-171450000D01*
X255270000Y-172560000D02*
X255270000Y-173910000D01*
X254160000Y-171450000D02*
X255270000Y-172560000D01*
X248760000Y-171450000D02*
X254160000Y-171450000D01*
X247650000Y-172560000D02*
X248760000Y-171450000D01*
G04 #@! TO.N,/D2*
X203360000Y-166370000D02*
X204470000Y-167480000D01*
X197960000Y-166370000D02*
X203360000Y-166370000D01*
X204470000Y-167480000D02*
X204470000Y-168830000D01*
X196850000Y-167480000D02*
X197960000Y-166370000D01*
X196850000Y-168830000D02*
X196850000Y-167480000D01*
X213360000Y-167480000D02*
X213360000Y-168830000D01*
X205580000Y-166370000D02*
X212250000Y-166370000D01*
X212250000Y-166370000D02*
X213360000Y-167480000D01*
X204470000Y-167480000D02*
X205580000Y-166370000D01*
X220980000Y-167480000D02*
X220980000Y-168830000D01*
X219870000Y-166370000D02*
X220980000Y-167480000D01*
X214470000Y-166370000D02*
X219870000Y-166370000D01*
X213360000Y-167480000D02*
X214470000Y-166370000D01*
X229870000Y-167480000D02*
X229870000Y-168830000D01*
X222090000Y-166370000D02*
X228760000Y-166370000D01*
X228760000Y-166370000D02*
X229870000Y-167480000D01*
X220980000Y-167480000D02*
X222090000Y-166370000D01*
X238760000Y-167480000D02*
X238760000Y-168830000D01*
X237650000Y-166370000D02*
X238760000Y-167480000D01*
X230980000Y-166370000D02*
X237650000Y-166370000D01*
X229870000Y-167480000D02*
X230980000Y-166370000D01*
X247650000Y-167480000D02*
X247650000Y-168830000D01*
X246540000Y-166370000D02*
X247650000Y-167480000D01*
X239870000Y-166370000D02*
X246540000Y-166370000D01*
X238760000Y-167480000D02*
X239870000Y-166370000D01*
X255270000Y-167480000D02*
X255270000Y-168830000D01*
X254160000Y-166370000D02*
X255270000Y-167480000D01*
X248760000Y-166370000D02*
X254160000Y-166370000D01*
X247650000Y-167480000D02*
X248760000Y-166370000D01*
G04 #@! TO.N,/D3*
X203360000Y-161290000D02*
X204470000Y-162400000D01*
X204470000Y-162400000D02*
X204470000Y-163750000D01*
X197960000Y-161290000D02*
X203360000Y-161290000D01*
X196850000Y-162400000D02*
X197960000Y-161290000D01*
X196850000Y-163750000D02*
X196850000Y-162400000D01*
X213360000Y-162400000D02*
X213360000Y-163750000D01*
X212250000Y-161290000D02*
X213360000Y-162400000D01*
X205580000Y-161290000D02*
X212250000Y-161290000D01*
X204470000Y-162400000D02*
X205580000Y-161290000D01*
X219870000Y-161290000D02*
X220980000Y-162400000D01*
X214470000Y-161290000D02*
X219870000Y-161290000D01*
X220980000Y-162400000D02*
X220980000Y-163750000D01*
X213360000Y-162400000D02*
X214470000Y-161290000D01*
X229870000Y-162400000D02*
X229870000Y-163750000D01*
X222090000Y-161290000D02*
X228760000Y-161290000D01*
X228760000Y-161290000D02*
X229870000Y-162400000D01*
X220980000Y-162400000D02*
X222090000Y-161290000D01*
X238760000Y-162400000D02*
X238760000Y-163750000D01*
X237650000Y-161290000D02*
X238760000Y-162400000D01*
X230980000Y-161290000D02*
X237650000Y-161290000D01*
X229870000Y-162400000D02*
X230980000Y-161290000D01*
X247650000Y-162400000D02*
X247650000Y-163750000D01*
X246540000Y-161290000D02*
X247650000Y-162400000D01*
X239870000Y-161290000D02*
X246540000Y-161290000D01*
X238760000Y-162400000D02*
X239870000Y-161290000D01*
X255270000Y-162400000D02*
X255270000Y-163750000D01*
X254160000Y-161290000D02*
X255270000Y-162400000D01*
X248760000Y-161290000D02*
X254160000Y-161290000D01*
X247650000Y-162400000D02*
X248760000Y-161290000D01*
G04 #@! TO.N,Net-(U31-Pad10)*
X86360000Y-64770000D02*
X91440000Y-64770000D01*
X91440000Y-64770000D02*
X91440000Y-64770000D01*
G04 #@! TO.N,Net-(U31-Pad4)*
X90170000Y-41910000D02*
X99060000Y-41910000D01*
X71120000Y-73660000D02*
X71120000Y-63638616D01*
X71120000Y-63638616D02*
X75068616Y-59690000D01*
X75068616Y-59690000D02*
X85090000Y-59690000D01*
X68580000Y-73660000D02*
X71120000Y-73660000D01*
X85090000Y-59690000D02*
X90170000Y-54610000D01*
X90170000Y-54610000D02*
X90170000Y-41910000D01*
G04 #@! TO.N,Net-(U32-Pad2)*
X115570000Y-68580000D02*
X111760000Y-68580000D01*
X111760000Y-60960000D02*
X115570000Y-60960000D01*
X115570000Y-60960000D02*
X115570000Y-68580000D01*
X115570000Y-68580000D02*
X115570000Y-73660000D01*
X115570000Y-73660000D02*
X119380000Y-73660000D01*
X107950000Y-90170000D02*
X111760000Y-90170000D01*
X115570000Y-73660000D02*
X115570000Y-81280000D01*
X109220000Y-81280000D02*
X107950000Y-82550000D01*
X115570000Y-81280000D02*
X109220000Y-81280000D01*
X86360000Y-86360000D02*
X86360000Y-87630000D01*
X88900000Y-90170000D02*
X107950000Y-90170000D01*
X86360000Y-87630000D02*
X88900000Y-90170000D01*
G04 #@! TO.N,Net-(U32-Pad4)*
X111360000Y-95250000D02*
X108820000Y-92710000D01*
X111760000Y-95250000D02*
X111360000Y-95250000D01*
X108820000Y-92710000D02*
X105410000Y-92710000D01*
X105410000Y-92710000D02*
X105410000Y-92710000D01*
X105010001Y-82150001D02*
X105010001Y-63899999D01*
X105410000Y-82550000D02*
X105010001Y-82150001D01*
X105410000Y-63500000D02*
X111760000Y-63500000D01*
X105010001Y-63899999D02*
X105410000Y-63500000D01*
X64770000Y-90170000D02*
X68580000Y-90170000D01*
X64770000Y-92710000D02*
X64770000Y-90170000D01*
X111760000Y-95250000D02*
X115570000Y-95250000D01*
X62230000Y-92710000D02*
X64770000Y-92710000D01*
X115570000Y-106680000D02*
X62230000Y-106680000D01*
X62230000Y-106680000D02*
X62230000Y-92710000D01*
X115570000Y-95250000D02*
X115570000Y-106680000D01*
G04 #@! TO.N,Net-(U32-Pad5)*
X76200000Y-92710000D02*
X97790000Y-92710000D01*
X99060000Y-93980000D02*
X99060000Y-97790000D01*
X97790000Y-92710000D02*
X99060000Y-93980000D01*
X99060000Y-97790000D02*
X111760000Y-97790000D01*
G04 #@! TO.N,Net-(U31-Pad11)*
X73660000Y-77900000D02*
X74500000Y-78740000D01*
X73660000Y-74500000D02*
X73660000Y-77900000D01*
X74500000Y-78740000D02*
X76200000Y-78740000D01*
X74500000Y-73660000D02*
X73660000Y-74500000D01*
X76200000Y-73660000D02*
X74500000Y-73660000D01*
X76200000Y-73660000D02*
X92710000Y-73660000D01*
X92710000Y-73660000D02*
X92710000Y-73660000D01*
X97790000Y-73660000D02*
X102870000Y-73660000D01*
G04 #@! TO.N,Net-(U31-Pad8)*
X76200000Y-81280000D02*
X73660000Y-81280000D01*
X73660000Y-81280000D02*
X72859990Y-80479990D01*
X72859990Y-80479990D02*
X72859990Y-63168626D01*
X73660000Y-62368616D02*
X73660000Y-62230000D01*
X72859990Y-63168626D02*
X73660000Y-62368616D01*
X74610001Y-61279999D02*
X101919999Y-61279999D01*
X73660000Y-62230000D02*
X74610001Y-61279999D01*
X101919999Y-61279999D02*
X102870000Y-62230000D01*
X102870000Y-62230000D02*
X102870000Y-66040000D01*
X102870000Y-66040000D02*
X102870000Y-66040000D01*
G04 #@! TO.N,Net-(U31-Pad1)*
X68580000Y-66040000D02*
X63500000Y-66040000D01*
X63500000Y-66040000D02*
X63500000Y-63500000D01*
X63500000Y-63500000D02*
X66040000Y-60960000D01*
X66040000Y-60960000D02*
X72390000Y-60960000D01*
X72390000Y-60960000D02*
X72390000Y-60960000D01*
X72390000Y-60960000D02*
X72390000Y-60960000D01*
X77470000Y-62230000D02*
X95250000Y-62230000D01*
X95250000Y-62230000D02*
X95250000Y-74930000D01*
X99060000Y-81280000D02*
X99060000Y-81280000D01*
X99060000Y-87630000D02*
X111760000Y-87630000D01*
X97790000Y-80010000D02*
X97790000Y-74930000D01*
X97790000Y-80010000D02*
X99060000Y-81280000D01*
X97790000Y-74930000D02*
X95250000Y-74930000D01*
G04 #@! TO.N,Net-(U31-Pad13)*
X91440000Y-68580000D02*
X76200000Y-68580000D01*
X93980000Y-68580000D02*
X91440000Y-68580000D01*
X93980000Y-76200000D02*
X93980000Y-68580000D01*
X119380000Y-100330000D02*
X116840000Y-100330000D01*
X116840000Y-100330000D02*
X116840000Y-83820000D01*
X116840000Y-83820000D02*
X97790000Y-83820000D01*
X96520000Y-76200000D02*
X93980000Y-76200000D01*
X97790000Y-83820000D02*
X97790000Y-81416002D01*
X97790000Y-81416002D02*
X96520000Y-80146002D01*
X96520000Y-80146002D02*
X96520000Y-76200000D01*
G04 #@! TO.N,Net-(U31-Pad12)*
X76200000Y-71120000D02*
X90170000Y-71120000D01*
X90170000Y-71120000D02*
X90170000Y-71120000D01*
X90170000Y-71120000D02*
X90170000Y-71120000D01*
X90170000Y-71120000D02*
X90170000Y-71120000D01*
G04 #@! TO.N,Net-(J1-Pad5)*
X258710000Y-58070000D02*
X258710000Y-46030000D01*
G04 #@! TO.N,/Control(Ext.2)*
X73025000Y-130175000D02*
X65405000Y-130175000D01*
G04 #@! TO.N,/Running(Led)*
X82345000Y-130175000D02*
X83615000Y-131445000D01*
X80645000Y-130175000D02*
X82345000Y-130175000D01*
X102870000Y-131445000D02*
X85090000Y-131445000D01*
X104140000Y-161290000D02*
X102870000Y-160020000D01*
X102870000Y-160020000D02*
X102870000Y-131445000D01*
X104140000Y-163830000D02*
X104140000Y-161290000D01*
X83615000Y-131445000D02*
X85090000Y-131445000D01*
X85090000Y-131445000D02*
X85725000Y-131445000D01*
G04 #@! TO.N,/Rain(Led)*
X101600000Y-135255000D02*
X83820000Y-135255000D01*
X104140000Y-167560000D02*
X101600000Y-165020000D01*
X104140000Y-168910000D02*
X104140000Y-167560000D01*
X80645000Y-135255000D02*
X83820000Y-135255000D01*
X101600000Y-165020000D02*
X101600000Y-135255000D01*
X83820000Y-135255000D02*
X84455000Y-135255000D01*
G04 #@! TO.N,/Control(Ext.)*
X65405000Y-125095000D02*
X73025000Y-125095000D01*
X179070000Y-167640000D02*
X179070000Y-173990000D01*
X50165000Y-120015000D02*
X50165000Y-120015000D01*
X67945000Y-123855000D02*
X66705000Y-125095000D01*
X67945000Y-121285000D02*
X67945000Y-123855000D01*
X66675000Y-120015000D02*
X67945000Y-121285000D01*
X66705000Y-125095000D02*
X65405000Y-125095000D01*
X55245000Y-120015000D02*
X66675000Y-120015000D01*
X82550000Y-158750000D02*
X81915000Y-158115000D01*
X99060000Y-158750000D02*
X82550000Y-158750000D01*
X50165000Y-156210000D02*
X52070000Y-158115000D01*
X52070000Y-158115000D02*
X81915000Y-158115000D01*
X50165000Y-156210000D02*
X50165000Y-120015000D01*
X179070000Y-173990000D02*
X179070000Y-178181000D01*
X99060000Y-178181000D02*
X179070000Y-178181000D01*
X99060000Y-158750000D02*
X99060000Y-178181000D01*
G04 #@! TO.N,/Rain_Sensor(Ext.)*
X80645000Y-137795000D02*
X83185000Y-137795000D01*
X100330000Y-137795000D02*
X80645000Y-137795000D01*
X100330000Y-168990000D02*
X100330000Y-137795000D01*
X100330000Y-168990000D02*
X100410000Y-168990000D01*
X102235000Y-170815000D02*
X102235000Y-175895000D01*
X100410000Y-168990000D02*
X102235000Y-170815000D01*
G04 #@! TO.N,/Mode(Ext.)*
X73025000Y-135255000D02*
X65405000Y-135255000D01*
X65405000Y-135255000D02*
X65405000Y-139065000D01*
G04 #@! TO.N,/Mode(In)*
X115570000Y-92710000D02*
X111760000Y-92710000D01*
X115570000Y-85090000D02*
X115570000Y-92710000D01*
X76835000Y-146685000D02*
X76835000Y-137795000D01*
X80645000Y-146685000D02*
X76835000Y-146685000D01*
X53975000Y-155575000D02*
X80645000Y-155575000D01*
X63500000Y-85090000D02*
X63500000Y-91440000D01*
X80645000Y-155575000D02*
X80645000Y-146685000D01*
X52705000Y-154305000D02*
X53975000Y-155575000D01*
X52705000Y-114300000D02*
X52705000Y-154305000D01*
X115570000Y-85090000D02*
X63500000Y-85090000D01*
X76835000Y-137795000D02*
X73025000Y-137795000D01*
X63500000Y-91440000D02*
X58420000Y-91440000D01*
X58420000Y-91440000D02*
X58420000Y-114300000D01*
X58420000Y-114300000D02*
X52705000Y-114300000D01*
G04 #@! TO.N,/Control(In2)*
X75565000Y-132715000D02*
X73025000Y-132715000D01*
X76835000Y-131445000D02*
X75565000Y-132715000D01*
X60960000Y-111760000D02*
X60960000Y-92710000D01*
X60960000Y-92710000D02*
X60960000Y-92710000D01*
X60960000Y-81280000D02*
X60960000Y-87630000D01*
X76835000Y-131445000D02*
X76835000Y-111760000D01*
X76835000Y-111760000D02*
X60960000Y-111760000D01*
G04 #@! TO.N,/Rain(In)*
X78945000Y-132715000D02*
X80645000Y-132715000D01*
X78105000Y-133555000D02*
X78945000Y-132715000D01*
X78105000Y-139495000D02*
X78105000Y-133555000D01*
X78945000Y-140335000D02*
X78105000Y-139495000D01*
X80645000Y-140335000D02*
X78945000Y-140335000D01*
X68580000Y-76200000D02*
X59690000Y-76200000D01*
X59690000Y-76200000D02*
X54610000Y-81280000D01*
X54610000Y-98425000D02*
X51435000Y-98425000D01*
X54610000Y-81280000D02*
X54610000Y-98425000D01*
X51435000Y-98425000D02*
X51435000Y-119380000D01*
X51435000Y-118745000D02*
X51435000Y-119380000D01*
X78105000Y-139495000D02*
X78105000Y-145553616D01*
X81915000Y-145692232D02*
X81915000Y-156845000D01*
X81776384Y-145553616D02*
X81915000Y-145692232D01*
X78105000Y-145553616D02*
X81776384Y-145553616D01*
X51435000Y-154940000D02*
X53340000Y-156845000D01*
X81915000Y-156845000D02*
X53340000Y-156845000D01*
X51435000Y-154940000D02*
X51435000Y-119380000D01*
G04 #@! TO.N,/Control(In1)*
X74725000Y-127635000D02*
X75565000Y-126795000D01*
X73025000Y-127635000D02*
X74725000Y-127635000D01*
X75565000Y-126795000D02*
X75565000Y-117475000D01*
X59690000Y-113030000D02*
X59690000Y-93980000D01*
X59690000Y-93980000D02*
X59690000Y-92710000D01*
X59690000Y-92710000D02*
X59690000Y-92710000D01*
X58420000Y-82550000D02*
X59690000Y-83820000D01*
X59690000Y-83820000D02*
X59690000Y-88900000D01*
X75565000Y-117475000D02*
X75565000Y-113030000D01*
X75565000Y-113030000D02*
X59690000Y-113030000D01*
G04 #@! TO.N,/Comparison.Equal*
X198520000Y-29210000D02*
X198120000Y-29210000D01*
X180340000Y-24130000D02*
X180340000Y-19050000D01*
X180340000Y-19050000D02*
X181610000Y-17780000D01*
X181610000Y-17780000D02*
X200660000Y-17780000D01*
X177800000Y-24130000D02*
X180340000Y-24130000D01*
X200660000Y-27070000D02*
X198520000Y-29210000D01*
X200660000Y-27070000D02*
X200660000Y-36830000D01*
X200660000Y-36830000D02*
X198120000Y-36830000D01*
X200660000Y-17780000D02*
X200660000Y-27070000D01*
G04 #@! TO.N,/Mem.Comparison.Equal*
X63500000Y-38100000D02*
X83820000Y-38100000D01*
X83820000Y-38100000D02*
X83820000Y-35560000D01*
X83820000Y-35560000D02*
X134620000Y-35560000D01*
X134620000Y-35560000D02*
X134620000Y-35560000D01*
X153670000Y-40640000D02*
X158750000Y-40640000D01*
X158750000Y-40640000D02*
X158750000Y-25400000D01*
X158750000Y-25400000D02*
X171450000Y-25400000D01*
X171450000Y-25400000D02*
X171450000Y-34290000D01*
X171450000Y-34290000D02*
X177800000Y-34290000D01*
G04 #@! TO.N,/Timer.End*
X158750000Y-50800000D02*
X163830000Y-50800000D01*
X163830000Y-50800000D02*
X166370000Y-48260000D01*
X166370000Y-48260000D02*
X167640000Y-48260000D01*
X167640000Y-48260000D02*
X167640000Y-50800000D01*
X167640000Y-50800000D02*
X175260000Y-50800000D01*
X175260000Y-50800000D02*
X175260000Y-48260000D01*
X176060010Y-47459990D02*
X193509990Y-47459990D01*
X175260000Y-48260000D02*
X176060010Y-47459990D01*
X193509990Y-47459990D02*
X194310000Y-48260000D01*
X194310000Y-48260000D02*
X194310000Y-48260000D01*
X199390000Y-57150000D02*
X203200000Y-57150000D01*
X203200000Y-57150000D02*
X203200000Y-72390000D01*
X203200000Y-72390000D02*
X213360000Y-72390000D01*
X213360000Y-72390000D02*
X213360000Y-72390000D01*
X215900000Y-76200000D02*
X215900000Y-78740000D01*
X215900000Y-78740000D02*
X223520000Y-78740000D01*
G04 #@! TO.N,Net-(U17-Pad1)*
X201422000Y-81280000D02*
X207010000Y-81280000D01*
X201422000Y-90858000D02*
X201422000Y-81280000D01*
X199390000Y-91440000D02*
X200840000Y-91440000D01*
X200840000Y-91440000D02*
X201422000Y-90858000D01*
X177800000Y-21590000D02*
X176100000Y-21590000D01*
X174625000Y-21590000D02*
X173990000Y-20955000D01*
X176100000Y-21590000D02*
X174625000Y-21590000D01*
X173990000Y-20955000D02*
X173990000Y-19050000D01*
X173990000Y-19050000D02*
X167640000Y-19050000D01*
X191770000Y-73660000D02*
X186055000Y-73660000D01*
X186055000Y-73660000D02*
X186055000Y-71120000D01*
X186055000Y-71120000D02*
X170180000Y-71120000D01*
X170180000Y-71120000D02*
X170180000Y-63500000D01*
X170180000Y-64135000D02*
X170180000Y-63500000D01*
X170180000Y-63500000D02*
X170180000Y-64135000D01*
X167640000Y-34290000D02*
X167640000Y-28575000D01*
X167640000Y-28575000D02*
X167640000Y-28575000D01*
X167640000Y-19050000D02*
X114300000Y-19050000D01*
G04 #@! TO.N,Net-(U14-Pad4)*
X151511000Y-52959000D02*
X144591999Y-46039999D01*
X144591999Y-46039999D02*
X143053999Y-46039999D01*
X127000000Y-58801000D02*
X121920000Y-58801000D01*
X121920000Y-58801000D02*
X120523000Y-57404000D01*
X120523000Y-57404000D02*
X119253000Y-57404000D01*
X119253000Y-57404000D02*
X118999000Y-57150000D01*
X143051385Y-46039999D02*
X142240000Y-46851384D01*
X143053999Y-46039999D02*
X143051385Y-46039999D01*
X142240000Y-46851384D02*
X142240000Y-52070000D01*
X142240000Y-52070000D02*
X142240000Y-52070000D01*
X151511000Y-52959000D02*
X152019000Y-52959000D01*
X152019000Y-52959000D02*
X152400000Y-53340000D01*
X152400000Y-53340000D02*
X165100000Y-53340000D01*
X177800000Y-62230000D02*
X165735000Y-62230000D01*
X165735000Y-62230000D02*
X165100000Y-61595000D01*
X165100000Y-61595000D02*
X165100000Y-57150000D01*
X165100000Y-57150000D02*
X165100000Y-57150000D01*
X165100000Y-53340000D02*
X165100000Y-53340000D01*
X207010000Y-106680000D02*
X215900000Y-106680000D01*
X198755000Y-104140000D02*
X196850000Y-102235000D01*
X196850000Y-102235000D02*
X195580000Y-102235000D01*
X195580000Y-102235000D02*
X195580000Y-102235000D01*
X191770000Y-74930000D02*
X184785000Y-74930000D01*
X184785000Y-74930000D02*
X184785000Y-72390000D01*
X207010000Y-104140000D02*
X207010000Y-101600000D01*
G04 #@! TD*
M02*
